<?xml version="1.0" encoding="UTF-8" ?>
<!DOCTYPE svg PUBLIC "-//W3C//DTD SVG 1.1//EN" "http://www.w3.org/Graphics/SVG/1.1/DTD/svg11.dtd">
<svg width="1024pt" height="1024pt" viewBox="0 0 1024 1024" version="1.1" xmlns="http://www.w3.org/2000/svg">
<g id="#ffa500ff">
<path fill="#ffa500" opacity="1.00" d=" M 351.98 159.99 C 362.65 160.03 373.32 160.02 384.00 159.99 C 384.00 170.66 384.00 181.33 384.00 192.00 C 373.33 192.00 362.66 192.00 351.99 192.00 C 352.03 181.33 352.03 170.66 351.98 159.99 Z" />
<path fill="#ffa500" opacity="1.00" d=" M 416.00 159.99 C 426.66 160.02 437.33 160.02 448.00 159.99 C 448.00 170.66 448.00 181.33 448.00 192.00 C 437.33 192.00 426.66 192.00 416.00 192.00 C 416.00 181.33 416.00 170.66 416.00 159.99 Z" />
<path fill="#ffa500" opacity="1.00" d=" M 480.00 159.99 C 490.66 160.02 501.32 160.02 511.99 159.99 C 511.99 170.66 512.01 181.33 512.07 192.00 C 501.37 192.00 490.68 192.00 480.00 192.00 C 480.00 181.33 479.99 170.66 480.00 159.99 Z" />
<path fill="#ffa500" opacity="1.00" d=" M 384.00 192.00 C 394.66 192.00 405.33 192.00 416.00 192.00 C 416.00 202.67 416.00 213.34 416.00 224.01 C 405.33 224.00 394.66 223.98 384.00 223.93 C 384.00 213.29 384.00 202.64 384.00 192.00 Z" />
<path fill="#ffa500" opacity="1.00" d=" M 448.00 192.00 C 458.66 192.00 469.33 192.00 480.00 192.00 C 479.99 202.69 479.99 213.38 480.00 224.07 C 469.33 224.02 458.66 224.00 448.00 223.99 C 448.00 213.33 448.00 202.66 448.00 192.00 Z" />
<path fill="#ffa500" opacity="1.00" d=" M 512.07 192.00 C 522.71 191.99 533.35 191.99 544.00 192.00 C 544.00 202.67 544.00 213.33 544.00 224.01 C 533.33 224.00 522.66 224.00 512.00 223.99 C 511.99 234.66 512.00 245.33 512.00 256.00 C 501.33 256.00 490.66 256.00 479.99 256.00 C 479.99 245.35 480.00 234.71 480.00 224.07 C 490.16 224.10 500.35 224.45 510.49 223.58 C 510.77 223.31 511.31 222.77 511.58 222.49 C 512.45 212.35 512.09 202.16 512.07 192.00 Z" />
<path fill="#ffa500" opacity="1.00" d=" M 353.51 224.42 C 363.64 223.54 373.83 223.90 384.00 223.93 C 384.00 234.62 384.00 245.31 384.00 256.00 C 373.31 256.00 362.62 256.00 351.93 256.00 C 351.90 245.83 351.54 235.64 352.42 225.51 C 352.69 225.23 353.23 224.69 353.51 224.42 Z" />
<path fill="#ffa500" opacity="1.00" d=" M 416.00 224.01 C 426.66 224.00 437.33 224.00 448.00 223.99 C 448.00 234.66 448.00 245.33 448.00 256.00 C 437.33 256.00 426.66 256.00 416.00 256.00 C 416.00 245.33 416.00 234.67 416.00 224.01 Z" />
<path fill="#ffa500" opacity="1.00" d=" M 319.99 256.00 C 330.63 256.00 341.28 256.00 351.93 256.00 C 351.98 266.66 351.99 277.33 352.01 288.00 C 341.33 288.00 330.66 288.00 319.99 288.00 C 320.03 277.33 320.03 266.66 319.99 256.00 Z" />
<path fill="#ffa500" opacity="1.00" d=" M 384.00 256.00 C 394.66 256.00 405.33 256.00 416.00 256.00 C 416.00 266.66 415.99 277.33 416.00 288.00 C 405.33 288.00 394.66 288.00 384.00 288.00 C 384.00 277.33 384.00 266.66 384.00 256.00 Z" />
<path fill="#ffa500" opacity="1.00" d=" M 448.00 256.00 C 458.66 256.00 469.32 256.00 479.99 256.00 C 479.99 266.66 480.01 277.33 480.07 288.00 C 469.37 288.00 458.69 288.00 448.00 288.00 C 448.00 277.33 448.00 266.66 448.00 256.00 Z" />
<path fill="#ffa500" opacity="1.00" d=" M 352.01 288.00 C 362.67 288.00 373.33 288.00 384.00 288.00 C 383.99 298.67 383.99 309.33 384.00 320.01 C 373.33 319.99 362.66 319.98 352.00 319.95 C 352.00 309.30 352.00 298.65 352.01 288.00 Z" />
<path fill="#ffa500" opacity="1.00" d=" M 416.00 288.00 C 426.66 288.00 437.33 288.00 448.00 288.00 C 447.99 298.69 447.99 309.38 448.00 320.07 C 437.33 320.01 426.66 320.00 416.00 319.99 C 416.00 309.33 416.00 298.66 416.00 288.00 Z" />
<path fill="#ffa500" opacity="1.00" d=" M 480.07 288.00 C 490.71 288.00 501.35 288.00 512.00 288.00 C 511.99 298.67 512.00 309.33 511.99 320.01 C 501.32 320.00 490.66 319.99 479.99 319.99 C 479.99 330.66 480.00 341.33 480.01 352.00 C 469.33 352.00 458.66 352.00 448.00 352.00 C 447.99 341.35 448.00 330.71 448.00 320.07 C 458.16 320.10 468.35 320.45 478.50 319.58 C 478.77 319.31 479.31 318.76 479.58 318.49 C 480.45 308.35 480.09 298.16 480.07 288.00 Z" />
<path fill="#ffa500" opacity="1.00" d=" M 320.98 320.16 C 331.31 319.62 341.66 319.88 352.00 319.95 C 351.99 330.63 351.99 341.31 351.99 352.00 C 341.26 352.00 330.52 352.00 319.79 352.00 C 319.95 341.38 319.53 330.70 320.98 320.16 Z" />
<path fill="#ffa500" opacity="1.00" d=" M 384.00 320.01 C 394.66 320.00 405.33 320.00 416.00 319.99 C 415.99 330.66 415.99 341.33 415.99 352.00 C 405.32 352.00 394.66 352.00 384.00 352.00 C 383.99 341.33 384.00 330.67 384.00 320.01 Z" />
<path fill="#ffa500" opacity="1.00" d=" M 640.00 319.99 C 650.66 320.02 661.33 320.02 672.00 319.99 C 671.99 330.66 671.99 341.33 672.00 352.01 C 682.66 351.99 693.33 351.99 704.00 351.99 C 703.99 362.64 703.99 373.28 704.00 383.93 C 693.35 383.98 682.70 384.00 672.06 384.01 C 672.10 373.83 672.44 363.63 671.60 353.48 C 671.32 353.22 670.75 352.70 670.47 352.44 C 660.33 351.53 650.15 351.90 640.00 351.93 C 640.00 341.28 639.99 330.63 640.00 319.99 Z" />
<path fill="#ffa500" opacity="1.00" d=" M 607.99 352.01 C 618.65 352.00 629.32 351.98 640.00 351.93 C 639.99 362.62 639.99 373.31 640.00 384.00 C 629.33 384.00 618.66 384.00 607.99 384.00 C 608.03 373.33 608.02 362.67 607.99 352.01 Z" />
<path fill="#ffa500" opacity="1.00" d=" M 319.99 384.00 C 330.66 384.02 341.33 384.02 352.00 383.99 C 351.97 394.66 351.98 405.33 352.01 416.00 C 341.34 415.97 330.66 415.97 320.00 416.01 C 320.02 405.33 320.02 394.66 319.99 384.00 Z" />
<path fill="#ffa500" opacity="1.00" d=" M 383.99 384.00 C 394.66 384.02 405.33 384.02 416.00 383.99 C 415.97 394.66 415.97 405.33 416.01 416.00 C 405.33 415.97 394.66 415.97 384.00 416.01 C 384.02 405.33 384.02 394.66 383.99 384.00 Z" />
<path fill="#ffa500" opacity="1.00" d=" M 448.00 384.00 C 458.66 383.99 469.33 383.99 480.00 384.00 C 480.01 394.67 480.00 405.33 479.99 416.00 C 469.32 415.99 458.66 415.99 448.00 415.99 C 447.99 405.32 447.99 394.66 448.00 384.00 Z" />
<path fill="#ffa500" opacity="1.00" d=" M 640.00 384.00 C 650.68 384.00 661.37 384.00 672.06 384.01 C 672.00 394.67 671.99 405.33 671.98 416.00 C 661.31 416.00 650.65 416.00 640.00 416.00 C 639.99 405.33 640.00 394.66 640.00 384.00 Z" />
<path fill="#ffa500" opacity="1.00" d=" M 704.00 383.93 C 714.16 383.90 724.35 383.54 734.50 384.42 C 734.77 384.69 735.31 385.24 735.57 385.51 C 736.45 395.62 736.09 405.79 736.07 415.94 C 725.37 415.98 714.68 416.00 704.00 416.02 C 703.99 405.32 704.00 394.62 704.00 383.93 Z" />
<path fill="#ffa500" opacity="1.00" d=" M 736.07 415.94 C 746.19 415.91 756.35 415.53 766.47 416.45 C 766.75 416.70 767.32 417.22 767.60 417.47 C 768.43 427.62 768.09 437.82 768.07 448.00 C 757.37 447.99 746.68 447.99 735.99 448.00 C 736.00 437.31 736.01 426.62 736.07 415.94 Z" />
<path fill="#ffa500" opacity="1.00" d=" M 288.09 448.93 C 298.65 447.38 309.37 447.99 320.01 447.93 C 319.97 458.62 319.97 469.31 320.01 480.00 C 309.33 479.97 298.65 479.97 287.97 480.01 C 287.97 469.65 287.66 459.28 288.09 448.93 Z" />
<path fill="#ffa500" opacity="1.00" d=" M 351.99 448.00 C 362.66 448.02 373.33 448.02 384.00 447.99 C 383.97 458.66 383.97 469.33 384.01 480.00 C 373.34 479.97 362.66 479.97 352.00 480.01 C 352.02 469.33 352.02 458.66 351.99 448.00 Z" />
<path fill="#ffa500" opacity="1.00" d=" M 416.00 448.00 C 426.67 448.00 437.33 448.00 448.00 448.00 C 447.99 458.66 447.99 469.33 448.00 480.00 C 437.33 479.99 426.67 479.99 416.00 479.99 C 415.99 469.32 415.99 458.66 416.00 448.00 Z" />
<path fill="#ffa500" opacity="1.00" d=" M 575.99 448.00 C 586.65 448.00 597.32 448.00 608.00 448.00 C 608.00 458.67 608.00 469.33 608.00 480.01 C 597.32 479.99 586.66 479.98 576.00 479.99 C 576.02 469.32 576.02 458.66 575.99 448.00 Z" />
<path fill="#ffa500" opacity="1.00" d=" M 639.99 448.00 C 650.65 448.02 661.33 448.02 672.00 447.99 C 671.97 458.66 671.97 469.33 672.01 480.00 C 661.33 479.97 650.66 479.97 640.00 480.01 C 640.02 469.33 640.01 458.66 639.99 448.00 Z" />
<path fill="#ffa500" opacity="1.00" d=" M 704.00 448.00 C 714.66 447.99 725.32 448.00 735.99 448.00 C 735.98 458.66 735.99 469.33 736.01 480.00 C 725.33 479.99 714.66 479.99 704.00 479.99 C 703.99 469.32 703.99 458.66 704.00 448.00 Z" />
<path fill="#ffa500" opacity="1.00" d=" M 768.07 448.00 C 778.70 447.99 789.35 447.99 800.00 448.00 C 800.00 458.66 800.00 469.33 800.00 480.00 C 789.32 479.99 778.65 479.99 767.99 480.00 C 767.99 469.33 768.01 458.66 768.07 448.00 Z" />
<path fill="#ffa500" opacity="1.00" d=" M 736.01 480.00 C 746.66 480.00 757.32 480.00 767.99 480.00 C 767.98 490.66 767.99 501.33 768.01 512.00 C 757.33 511.99 746.66 511.99 736.00 512.00 C 735.99 501.33 736.00 490.66 736.01 480.00 Z" />
<path fill="#ffa500" opacity="1.00" d=" M 768.01 512.00 C 778.66 512.00 789.33 512.00 800.00 512.00 C 799.99 522.66 799.99 533.32 800.00 544.00 C 789.32 543.99 778.66 543.99 768.00 544.00 C 767.99 533.33 768.00 522.66 768.01 512.00 Z" />
<path fill="#ffa500" opacity="1.00" d=" M 639.99 544.00 C 650.66 543.99 661.33 543.99 672.01 544.00 C 671.98 565.33 671.98 586.67 672.01 608.01 C 661.33 608.00 650.66 607.99 639.99 607.99 C 640.03 629.33 639.97 650.66 639.99 672.01 C 629.32 672.00 618.66 671.99 607.99 671.99 C 607.99 682.66 608.00 693.33 608.01 704.01 C 597.33 704.00 586.66 703.99 575.99 703.99 C 575.99 714.66 576.00 725.33 576.01 736.01 C 565.33 736.00 554.66 735.99 543.99 735.99 C 543.99 746.64 544.00 757.29 544.01 767.95 C 533.41 768.00 522.82 768.07 512.24 768.28 C 512.05 778.83 511.99 789.39 511.96 799.95 C 501.38 800.00 490.80 800.07 480.24 800.28 C 480.05 810.85 480.00 821.42 479.97 832.00 C 469.30 831.99 458.65 831.99 448.00 832.00 C 448.00 821.32 448.00 810.65 448.00 799.99 C 458.67 799.99 469.33 799.99 480.01 800.00 C 480.00 789.32 479.99 778.65 479.99 767.99 C 490.66 767.99 501.32 768.00 511.99 768.01 C 511.97 746.66 512.03 725.33 511.99 703.99 C 522.66 703.99 533.33 703.99 544.00 704.01 C 543.98 693.33 543.98 682.66 544.00 672.00 C 544.02 661.32 544.02 650.66 543.98 640.00 C 554.65 639.99 565.32 640.00 576.00 640.00 C 576.00 629.33 576.00 618.66 576.00 608.00 C 586.66 607.99 597.33 607.99 608.01 608.00 C 608.00 597.32 607.99 586.66 607.99 575.99 C 618.66 575.99 629.33 576.00 640.00 576.01 C 640.00 565.33 639.99 554.67 639.99 544.00 Z" />
<path fill="#ffa500" opacity="1.00" d=" M 768.00 576.00 C 778.66 575.99 789.33 575.99 800.00 576.00 C 800.00 586.66 799.99 597.33 799.99 608.00 C 789.32 607.99 778.66 607.99 768.00 607.99 C 767.99 597.32 767.99 586.66 768.00 576.00 Z" />
</g>
<g id="#ff5113ff">
<path fill="#ff5113" opacity="1.00" d=" M 384.00 159.99 C 394.66 160.02 405.33 160.02 416.00 159.99 C 416.00 170.66 416.00 181.33 416.00 192.00 C 405.33 192.00 394.66 192.00 384.00 192.00 C 384.00 181.33 384.00 170.66 384.00 159.99 Z" />
<path fill="#ff5113" opacity="1.00" d=" M 448.00 159.99 C 458.66 160.02 469.33 160.02 480.00 159.99 C 479.99 170.66 480.00 181.33 480.00 192.00 C 469.33 192.00 458.66 192.00 448.00 192.00 C 448.00 181.33 448.00 170.66 448.00 159.99 Z" />
<path fill="#ff5113" opacity="1.00" d=" M 511.99 159.99 C 522.66 160.02 533.33 160.02 544.01 159.99 C 543.97 170.65 543.97 181.32 544.00 192.00 C 533.35 191.99 522.71 191.99 512.07 192.00 C 512.01 181.33 511.99 170.66 511.99 159.99 Z" />
<path fill="#ff5113" opacity="1.00" d=" M 351.99 192.00 C 362.66 192.00 373.33 192.00 384.00 192.00 C 384.00 202.64 384.00 213.29 384.00 223.93 C 373.83 223.90 363.64 223.54 353.51 224.42 C 353.23 224.69 352.69 225.23 352.42 225.51 C 351.54 235.64 351.90 245.83 351.93 256.00 C 341.28 256.00 330.63 256.00 319.99 256.00 C 320.02 245.33 320.03 234.66 319.99 224.00 C 330.66 224.00 341.33 224.00 352.01 224.00 C 351.99 213.33 351.99 202.67 351.99 192.00 Z" />
<path fill="#ff5113" opacity="1.00" d=" M 416.00 192.00 C 426.66 192.00 437.33 192.00 448.00 192.00 C 448.00 202.66 448.00 213.33 448.00 223.99 C 437.33 224.00 426.66 224.00 416.00 224.01 C 416.00 213.34 416.00 202.67 416.00 192.00 Z" />
<path fill="#ff5113" opacity="1.00" d=" M 480.00 192.00 C 490.68 192.00 501.37 192.00 512.07 192.00 C 512.09 202.16 512.45 212.35 511.58 222.49 C 511.31 222.77 510.77 223.31 510.49 223.58 C 500.35 224.45 490.16 224.10 480.00 224.07 C 479.99 213.38 479.99 202.69 480.00 192.00 Z" />
<path fill="#ff5113" opacity="1.00" d=" M 384.00 223.93 C 394.66 223.98 405.33 224.00 416.00 224.01 C 416.00 234.67 416.00 245.33 416.00 256.00 C 405.33 256.00 394.66 256.00 384.00 256.00 C 384.00 245.31 384.00 234.62 384.00 223.93 Z" />
<path fill="#ff5113" opacity="1.00" d=" M 448.00 223.99 C 458.66 224.00 469.33 224.02 480.00 224.07 C 480.00 234.71 479.99 245.35 479.99 256.00 C 469.32 256.00 458.66 256.00 448.00 256.00 C 448.00 245.33 448.00 234.66 448.00 223.99 Z" />
<path fill="#ff5113" opacity="1.00" d=" M 351.93 256.00 C 362.62 256.00 373.31 256.00 384.00 256.00 C 384.00 266.66 384.00 277.33 384.00 288.00 C 373.33 288.00 362.67 288.00 352.01 288.00 C 351.99 277.33 351.98 266.66 351.93 256.00 Z" />
<path fill="#ff5113" opacity="1.00" d=" M 416.00 256.00 C 426.66 256.00 437.33 256.00 448.00 256.00 C 448.00 266.66 448.00 277.33 448.00 288.00 C 437.33 288.00 426.66 288.00 416.00 288.00 C 415.99 277.33 416.00 266.66 416.00 256.00 Z" />
<path fill="#ff5113" opacity="1.00" d=" M 479.99 256.00 C 490.66 256.00 501.33 256.00 512.00 256.00 C 512.00 266.66 511.99 277.33 512.00 288.00 C 501.35 288.00 490.71 288.00 480.07 288.00 C 480.01 277.33 479.99 266.66 479.99 256.00 Z" />
<path fill="#ff5113" opacity="1.00" d=" M 319.99 288.00 C 330.66 288.00 341.33 288.00 352.01 288.00 C 352.00 298.65 352.00 309.30 352.00 319.95 C 341.66 319.88 331.31 319.62 320.98 320.16 C 319.53 330.70 319.95 341.38 319.79 352.00 C 330.52 352.00 341.26 352.00 351.99 352.00 C 351.99 341.31 351.99 330.63 352.00 319.95 C 362.66 319.98 373.33 319.99 384.00 320.01 C 384.00 330.67 383.99 341.33 384.00 352.00 C 394.66 352.00 405.32 352.00 415.99 352.00 C 415.99 341.33 415.99 330.66 416.00 319.99 C 426.66 320.00 437.33 320.01 448.00 320.07 C 448.00 330.71 447.99 341.35 448.00 352.00 C 458.66 352.00 469.33 352.00 480.01 352.00 C 479.99 362.66 479.98 373.33 480.00 384.00 C 469.33 383.99 458.66 383.99 448.00 384.00 C 447.99 394.66 447.99 405.32 448.00 415.99 C 458.66 415.99 469.32 415.99 479.99 416.00 C 479.99 426.66 480.00 437.33 480.01 448.01 C 469.33 447.99 458.66 447.98 448.00 448.00 C 437.33 448.00 426.67 448.00 416.00 448.00 C 415.99 458.66 415.99 469.32 416.00 479.99 C 426.67 479.99 437.33 479.99 448.00 480.00 C 448.00 501.33 447.97 522.67 448.01 544.01 C 437.33 544.00 426.66 543.99 415.99 543.99 C 416.01 576.00 416.01 608.00 415.99 640.00 C 426.66 640.00 437.33 639.99 448.00 639.99 C 469.34 640.01 490.67 640.00 512.01 640.00 C 511.97 650.66 511.96 661.33 512.01 672.01 C 501.33 671.99 490.66 671.98 479.99 672.00 C 480.03 693.33 479.96 714.67 480.01 736.01 C 469.33 736.00 458.66 735.99 447.99 735.99 C 448.04 757.32 447.97 778.66 448.00 799.99 C 448.00 810.65 448.00 821.32 448.00 832.00 C 458.65 831.99 469.30 831.99 479.97 832.00 C 480.00 821.42 480.05 810.85 480.24 800.28 C 490.80 800.07 501.38 800.00 511.96 799.95 C 511.99 789.39 512.05 778.83 512.24 768.28 C 522.82 768.07 533.41 768.00 544.01 767.95 C 544.00 757.29 543.99 746.64 543.99 735.99 C 554.66 735.99 565.33 736.00 576.01 736.01 C 576.00 725.33 575.99 714.66 575.99 703.99 C 586.66 703.99 597.33 704.00 608.01 704.01 C 608.00 693.33 607.99 682.66 607.99 671.99 C 618.66 671.99 629.32 672.00 639.99 672.01 C 639.97 650.66 640.03 629.33 639.99 607.99 C 650.66 607.99 661.33 608.00 672.01 608.01 C 671.98 586.67 671.98 565.33 672.01 544.00 C 661.33 543.99 650.66 543.99 639.99 544.00 C 607.99 543.99 575.99 544.00 544.00 544.00 C 544.00 522.66 544.01 501.32 544.00 479.99 C 554.66 480.03 565.32 480.02 576.00 479.99 C 586.66 479.98 597.32 479.99 608.00 480.01 C 608.00 469.33 608.00 458.67 608.00 448.00 C 597.32 448.00 586.65 448.00 575.99 448.00 C 576.02 437.33 576.02 426.66 575.99 416.00 C 586.65 415.99 597.33 416.00 608.01 416.00 C 607.99 405.33 607.99 394.66 607.99 384.00 C 618.66 384.00 629.33 384.00 640.00 384.00 C 640.00 394.66 639.99 405.33 640.00 416.00 C 650.65 416.00 661.31 416.00 671.98 416.00 C 671.99 405.33 672.00 394.67 672.06 384.01 C 682.70 384.00 693.35 383.98 704.00 383.93 C 704.00 394.62 703.99 405.32 704.00 416.02 C 714.68 416.00 725.37 415.98 736.07 415.94 C 736.01 426.62 736.00 437.31 735.99 448.00 C 725.32 448.00 714.66 447.99 704.00 448.00 C 703.99 458.66 703.99 469.32 704.00 479.99 C 714.66 479.99 725.33 479.99 736.01 480.00 C 736.00 490.66 735.99 501.33 736.00 512.00 C 746.66 511.99 757.33 511.99 768.01 512.00 C 768.00 522.66 767.99 533.33 768.00 544.00 C 778.66 543.99 789.32 543.99 800.00 544.00 C 799.98 554.66 799.99 565.33 800.00 576.00 C 789.33 575.99 778.66 575.99 768.00 576.00 C 767.99 586.66 767.99 597.32 768.00 607.99 C 778.66 607.99 789.32 607.99 799.99 608.00 C 799.98 618.66 799.99 629.33 800.01 640.01 C 789.33 640.00 778.66 639.99 768.01 639.99 C 768.02 661.33 767.96 682.67 768.01 704.01 C 757.33 704.00 746.66 703.99 735.99 703.99 C 735.99 714.66 736.00 725.33 736.01 736.01 C 725.33 736.00 714.66 735.99 703.99 735.99 C 703.99 746.66 704.00 757.33 704.01 768.01 C 693.33 768.00 682.66 767.99 671.99 767.99 C 671.99 778.65 672.00 789.32 672.01 799.99 C 650.66 799.97 629.33 800.03 607.99 799.99 C 607.99 810.66 608.00 821.33 608.01 832.01 C 597.33 831.99 586.66 831.99 575.99 831.99 C 575.99 842.66 576.00 853.33 576.01 864.00 C 480.00 864.00 384.00 863.99 287.99 864.01 C 287.99 853.33 288.00 842.66 288.01 831.99 C 277.33 831.99 266.66 832.00 255.99 832.01 C 255.99 821.33 256.00 810.66 256.01 800.01 C 245.33 799.99 234.66 799.99 223.99 800.00 C 224.00 704.00 224.00 608.00 223.99 512.00 C 234.66 511.99 245.34 511.99 256.01 512.00 C 255.94 490.66 256.06 469.33 255.99 448.00 C 266.66 447.99 277.33 448.00 288.00 448.00 C 287.98 405.33 288.02 362.67 287.99 320.00 C 298.66 319.99 309.33 320.00 320.01 320.00 C 319.99 309.33 319.99 298.66 319.99 288.00 M 319.99 384.00 C 320.02 394.66 320.02 405.33 320.00 416.01 C 330.66 415.97 341.34 415.97 352.01 416.00 C 351.98 405.33 351.97 394.66 352.00 383.99 C 341.33 384.02 330.66 384.02 319.99 384.00 M 383.99 384.00 C 384.02 394.66 384.02 405.33 384.00 416.01 C 394.66 415.97 405.33 415.97 416.01 416.00 C 415.97 405.33 415.97 394.66 416.00 383.99 C 405.33 384.02 394.66 384.02 383.99 384.00 M 288.09 448.93 C 287.66 459.28 287.97 469.65 287.97 480.01 C 298.65 479.97 309.33 479.97 320.01 480.00 C 319.97 469.31 319.97 458.62 320.01 447.93 C 309.37 447.99 298.65 447.38 288.09 448.93 M 351.99 448.00 C 352.02 458.66 352.02 469.33 352.00 480.01 C 362.66 479.97 373.34 479.97 384.01 480.00 C 383.97 469.33 383.97 458.66 384.00 447.99 C 373.33 448.02 362.66 448.02 351.99 448.00 M 639.99 448.00 C 640.01 458.66 640.02 469.33 640.00 480.01 C 650.66 479.97 661.33 479.97 672.01 480.00 C 671.97 469.33 671.97 458.66 672.00 447.99 C 661.33 448.02 650.65 448.02 639.99 448.00 Z" />
<path fill="#ff5113" opacity="1.00" d=" M 384.00 288.00 C 394.66 288.00 405.33 288.00 416.00 288.00 C 416.00 298.66 416.00 309.33 416.00 319.99 C 405.33 320.00 394.66 320.00 384.00 320.01 C 383.99 309.33 383.99 298.67 384.00 288.00 Z" />
<path fill="#ff5113" opacity="1.00" d=" M 448.00 288.00 C 458.69 288.00 469.37 288.00 480.07 288.00 C 480.09 298.16 480.45 308.35 479.58 318.49 C 479.31 318.76 478.77 319.31 478.50 319.58 C 468.35 320.45 458.16 320.10 448.00 320.07 C 447.99 309.38 447.99 298.69 448.00 288.00 Z" />
<path fill="#ff5113" opacity="1.00" d=" M 607.99 319.99 C 618.65 320.03 629.32 320.02 640.00 319.99 C 639.99 330.63 640.00 341.28 640.00 351.93 C 629.32 351.98 618.65 352.00 607.99 352.01 C 608.02 341.33 608.02 330.66 607.99 319.99 Z" />
<path fill="#ff5113" opacity="1.00" d=" M 640.00 351.93 C 650.15 351.90 660.33 351.53 670.47 352.44 C 670.75 352.70 671.32 353.22 671.60 353.48 C 672.44 363.63 672.10 373.83 672.06 384.01 C 661.37 384.00 650.68 384.00 640.00 384.00 C 639.99 373.31 639.99 362.62 640.00 351.93 Z" />
<path fill="#ff5113" opacity="1.00" d=" M 704.00 351.99 C 714.66 352.03 725.33 352.03 736.00 351.98 C 735.99 362.65 735.99 373.32 736.00 384.00 C 746.66 384.00 757.33 384.00 768.00 384.00 C 767.99 394.66 767.99 405.33 768.00 416.00 C 778.66 416.00 789.33 416.00 800.01 416.00 C 799.97 426.66 799.96 437.33 800.00 448.00 C 789.35 447.99 778.70 447.99 768.07 448.00 C 768.09 437.82 768.43 427.62 767.60 417.47 C 767.32 417.22 766.75 416.70 766.47 416.45 C 756.35 415.53 746.19 415.91 736.07 415.94 C 736.09 405.79 736.45 395.62 735.57 385.51 C 735.31 385.24 734.77 384.69 734.50 384.42 C 724.35 383.54 714.16 383.90 704.00 383.93 C 703.99 373.28 703.99 362.64 704.00 351.99 Z" />
<path fill="#ff5113" opacity="1.00" d=" M 735.99 448.00 C 746.68 447.99 757.37 447.99 768.07 448.00 C 768.01 458.66 767.99 469.33 767.99 480.00 C 757.32 480.00 746.66 480.00 736.01 480.00 C 735.99 469.33 735.98 458.66 735.99 448.00 Z" />
<path fill="#ff5113" opacity="1.00" d=" M 767.99 480.00 C 778.65 479.99 789.32 479.99 800.00 480.00 C 799.99 490.66 799.99 501.33 800.00 512.00 C 789.33 512.00 778.66 512.00 768.01 512.00 C 767.99 501.33 767.98 490.66 767.99 480.00 Z" />
</g>
<g id="#000000ff">
<path fill="#000000" opacity="1.00" d=" M 544.00 192.00 C 554.67 192.03 565.33 192.03 576.01 191.98 C 575.99 223.99 575.99 256.00 576.01 288.00 C 565.33 288.00 554.66 287.99 544.00 288.00 C 544.02 320.00 543.98 352.00 544.01 384.00 C 533.33 384.00 522.66 383.99 512.00 384.00 C 512.01 426.67 511.98 469.33 512.01 512.00 C 501.33 512.00 490.66 512.00 480.00 512.00 C 480.02 544.00 479.98 576.00 480.01 608.00 C 469.33 607.99 458.66 607.99 448.00 608.00 C 448.00 618.66 447.99 629.32 448.00 639.99 C 437.33 639.99 426.66 640.00 415.99 640.00 C 416.01 608.00 416.01 576.00 415.99 543.99 C 426.66 543.99 437.33 544.00 448.01 544.01 C 447.97 522.67 448.00 501.33 448.00 480.00 C 447.99 469.33 447.99 458.66 448.00 448.00 C 458.66 447.98 469.33 447.99 480.01 448.01 C 480.00 437.33 479.99 426.66 479.99 416.00 C 480.00 405.33 480.01 394.67 480.00 384.00 C 479.98 373.33 479.99 362.66 480.01 352.00 C 480.00 341.33 479.99 330.66 479.99 319.99 C 490.66 319.99 501.32 320.00 511.99 320.01 C 512.00 309.33 511.99 298.67 512.00 288.00 C 511.99 277.33 512.00 266.66 512.00 256.00 C 512.00 245.33 511.99 234.66 512.00 223.99 C 522.66 224.00 533.33 224.00 544.00 224.01 C 544.00 213.33 544.00 202.67 544.00 192.00 Z" />
<path fill="#000000" opacity="1.00" d=" M 800.00 448.00 C 810.66 448.03 821.33 448.02 832.01 447.98 C 831.99 522.66 832.00 597.33 832.01 672.00 C 821.32 671.99 810.65 671.99 799.99 672.00 C 800.06 693.33 799.93 714.66 800.01 736.00 C 789.33 735.99 778.66 735.99 768.00 736.00 C 767.99 746.66 767.99 757.33 768.00 768.00 C 757.33 767.99 746.66 767.99 736.00 768.00 C 735.99 778.66 735.99 789.33 736.00 800.00 C 725.33 799.99 714.66 799.99 704.00 800.00 C 703.99 810.66 703.99 821.32 704.00 832.00 C 693.33 831.99 682.66 831.99 672.00 832.00 C 671.99 842.66 671.99 853.33 672.00 864.01 C 650.66 863.93 629.33 864.06 608.00 863.99 C 607.99 874.65 607.99 885.32 608.00 896.00 C 597.33 895.99 586.66 895.99 576.00 896.00 C 575.99 906.66 575.99 917.32 576.00 928.00 C 490.67 928.00 405.33 927.99 320.00 928.01 C 320.00 917.33 320.00 906.66 320.00 896.00 C 309.34 895.99 298.68 895.99 288.03 896.00 C 288.05 885.64 288.36 875.28 287.90 864.94 C 277.36 863.31 266.64 863.98 256.02 863.95 C 256.05 853.61 256.36 843.26 255.90 832.94 C 245.35 831.31 234.62 831.99 223.99 831.95 C 224.03 821.29 224.03 810.64 223.99 800.00 C 234.66 799.99 245.33 799.99 256.01 800.01 C 256.00 810.66 255.99 821.33 255.99 832.01 C 266.66 832.00 277.33 831.99 288.01 831.99 C 288.00 842.66 287.99 853.33 287.99 864.01 C 384.00 863.99 480.00 864.00 576.01 864.00 C 576.00 853.33 575.99 842.66 575.99 831.99 C 586.66 831.99 597.33 831.99 608.01 832.01 C 608.00 821.33 607.99 810.66 607.99 799.99 C 629.33 800.03 650.66 799.97 672.01 799.99 C 672.00 789.32 671.99 778.65 671.99 767.99 C 682.66 767.99 693.33 768.00 704.01 768.01 C 704.00 757.33 703.99 746.66 703.99 735.99 C 714.66 735.99 725.33 736.00 736.01 736.01 C 736.00 725.33 735.99 714.66 735.99 703.99 C 746.66 703.99 757.33 704.00 768.01 704.01 C 767.96 682.67 768.02 661.33 768.01 639.99 C 778.66 639.99 789.33 640.00 800.01 640.01 C 799.99 629.33 799.98 618.66 799.99 608.00 C 799.99 597.33 800.00 586.66 800.00 576.00 C 799.99 565.33 799.98 554.66 800.00 544.00 C 799.99 533.32 799.99 522.66 800.00 512.00 C 799.99 501.33 799.99 490.66 800.00 480.00 C 800.00 469.33 800.00 458.66 800.00 448.00 Z" />
<path fill="#000000" opacity="1.00" d=" M 544.00 544.00 C 575.99 544.00 607.99 543.99 639.99 544.00 C 639.99 554.67 640.00 565.33 640.00 576.01 C 629.33 576.00 618.66 575.99 607.99 575.99 C 607.99 586.66 608.00 597.32 608.01 608.00 C 597.33 607.99 586.66 607.99 576.00 608.00 C 575.99 597.32 575.99 586.66 576.00 576.00 C 565.33 575.99 554.66 576.00 543.99 576.00 C 544.02 565.33 544.02 554.66 544.00 544.00 Z" />
<path fill="#000000" opacity="1.00" d=" M 479.99 672.00 C 490.66 671.98 501.33 671.99 512.01 672.01 C 522.66 672.01 533.33 671.99 544.00 672.00 C 543.98 682.66 543.98 693.33 544.00 704.01 C 533.33 703.99 522.66 703.99 511.99 703.99 C 512.03 725.33 511.97 746.66 511.99 768.01 C 501.32 768.00 490.66 767.99 479.99 767.99 C 479.99 778.65 480.00 789.32 480.01 800.00 C 469.33 799.99 458.67 799.99 448.00 799.99 C 447.97 778.66 448.04 757.32 447.99 735.99 C 458.66 735.99 469.33 736.00 480.01 736.01 C 479.96 714.67 480.03 693.33 479.99 672.00 Z" />
</g>
</svg>
