<?xml version="1.0" encoding="UTF-8" ?>
<!DOCTYPE svg PUBLIC "-//W3C//DTD SVG 1.1//EN" "http://www.w3.org/Graphics/SVG/1.1/DTD/svg11.dtd">
<svg width="1024pt" height="1024pt" viewBox="0 0 1024 1024" version="1.1" xmlns="http://www.w3.org/2000/svg">
<g id="#e00036ff">
<path fill="#e00036" opacity="1.00" d=" M 480.00 0.00 L 511.98 0.00 C 512.00 10.66 512.01 21.33 512.01 31.99 C 522.67 31.98 533.33 31.99 544.00 32.01 C 543.99 42.67 544.00 53.33 544.00 63.99 C 543.73 117.33 544.54 170.69 543.60 224.03 C 533.07 224.03 522.55 224.02 512.04 224.02 C 512.00 234.67 511.99 245.33 511.97 255.99 C 501.31 255.98 490.65 255.99 480.00 256.01 C 480.01 245.34 480.01 234.68 480.00 224.01 C 479.98 213.34 479.98 202.68 479.99 192.01 C 469.32 192.01 458.66 192.01 448.00 191.99 C 448.00 149.33 448.00 106.67 447.99 64.01 C 458.66 63.99 469.32 63.98 479.99 63.99 C 479.98 53.32 479.99 42.66 480.01 31.99 C 480.01 21.33 480.00 10.66 480.00 0.00 Z" />
<path fill="#e00036" opacity="1.00" d=" M 288.02 160.01 C 309.34 159.98 330.67 159.99 351.99 160.01 C 351.99 170.67 352.01 181.33 352.01 191.99 C 352.00 202.65 351.99 213.30 351.98 223.96 C 341.33 223.99 330.68 224.00 320.03 224.03 C 320.00 234.68 319.99 245.32 319.97 255.97 C 309.32 255.99 298.67 256.01 288.03 256.03 C 288.00 266.67 287.99 277.32 287.97 287.97 C 277.31 287.99 266.66 288.01 256.00 288.03 C 256.05 309.34 255.95 330.65 256.00 351.97 C 245.33 351.99 234.67 352.00 224.01 352.03 C 223.98 384.02 224.02 416.00 223.99 447.99 C 202.66 447.98 181.33 448.03 159.99 448.00 C 160.00 394.67 160.00 341.34 160.00 288.02 C 170.65 287.99 181.31 287.98 191.97 287.99 C 191.98 277.53 191.98 267.08 191.97 256.64 C 202.63 256.19 213.30 255.99 223.97 255.84 C 223.98 245.44 223.98 235.04 223.97 224.64 C 234.64 224.19 245.31 223.99 255.99 223.84 C 255.98 213.23 255.99 202.61 256.01 192.00 C 266.67 192.00 277.32 191.99 287.98 191.99 C 287.99 181.33 288.00 170.67 288.02 160.01 Z" />
<path fill="#e00036" opacity="1.00" d=" M 640.01 160.01 C 671.99 159.99 703.98 159.98 735.97 160.01 C 735.98 170.66 736.00 181.31 736.03 191.97 C 746.67 191.99 757.32 192.01 767.97 192.03 C 767.98 202.68 768.00 213.32 768.03 223.97 C 778.67 223.99 789.31 224.01 799.97 224.03 C 799.98 234.67 800.00 245.32 800.03 255.97 C 810.67 255.99 821.31 256.01 831.97 256.03 C 831.98 266.67 832.00 277.32 832.03 287.97 C 842.68 287.99 853.33 288.00 864.00 288.03 C 863.94 309.34 864.05 330.65 864.00 351.97 C 874.66 351.99 885.32 352.01 895.99 352.04 C 896.01 384.03 896.00 416.01 896.01 448.00 C 874.66 448.04 853.33 447.98 832.00 447.99 C 832.05 426.67 831.94 405.35 832.00 384.03 C 821.33 384.00 810.66 383.99 800.00 383.97 C 800.05 362.65 799.94 341.34 800.00 320.03 C 789.34 320.00 778.68 319.99 768.03 319.97 C 768.00 309.32 767.98 298.67 767.97 288.03 C 757.32 288.00 746.67 287.99 736.03 287.97 C 736.00 277.32 735.98 266.67 735.97 256.03 C 725.32 256.01 714.67 255.99 704.03 255.97 C 704.00 245.32 703.99 234.67 703.97 224.03 C 693.32 224.01 682.67 223.99 672.03 223.97 C 672.00 213.31 671.98 202.66 671.97 192.01 C 661.30 192.01 650.65 192.00 639.99 191.99 C 640.01 181.33 640.01 170.67 640.01 160.01 Z" />
<path fill="#e00036" opacity="1.00" d=" M 416.01 352.01 C 437.34 351.98 458.66 351.99 479.98 352.01 C 479.99 362.66 480.00 373.32 480.02 383.99 C 501.34 384.02 522.66 384.01 543.98 383.99 C 543.99 373.32 544.00 362.65 544.02 351.99 C 554.67 352.01 565.33 352.01 576.00 351.99 C 576.00 362.66 576.00 373.33 576.01 384.00 C 565.51 384.00 555.02 383.98 544.53 383.94 C 544.22 394.63 544.03 405.32 543.86 416.01 C 554.57 415.98 565.28 415.98 575.99 416.01 C 575.98 405.34 575.99 394.67 576.01 384.00 C 586.66 383.98 597.32 383.98 607.99 383.99 C 607.98 373.32 607.98 362.65 608.01 351.99 C 618.66 352.01 629.32 352.02 639.98 351.99 C 639.99 362.65 640.00 373.31 640.02 383.98 C 650.67 383.99 661.33 384.00 672.00 384.01 C 671.99 394.67 671.99 405.33 672.01 415.99 C 671.98 458.65 672.02 501.31 671.99 543.97 C 661.32 543.99 650.66 544.00 640.00 544.03 C 640.05 565.34 639.94 586.65 640.00 607.97 C 629.34 607.99 618.68 608.00 608.03 608.03 C 608.00 618.67 607.99 629.32 607.97 639.97 C 597.32 639.99 586.67 640.00 576.03 640.03 C 576.00 650.68 575.99 661.33 575.97 671.99 C 543.99 672.02 512.01 672.01 480.04 671.99 C 480.00 661.33 479.99 650.68 479.97 640.03 C 469.32 640.00 458.67 639.99 448.03 639.97 C 448.00 629.32 447.99 618.67 447.97 608.03 C 437.32 608.00 426.67 607.99 416.03 607.97 C 416.00 597.32 415.99 586.67 415.97 576.03 C 405.31 576.00 394.66 575.99 384.00 575.97 C 384.05 554.65 383.95 533.33 384.00 512.01 C 373.33 512.00 362.67 512.00 352.00 511.99 C 351.99 480.00 351.99 448.01 352.00 416.02 C 362.66 416.00 373.32 415.99 383.98 415.98 C 383.99 405.32 384.00 394.67 384.01 384.02 C 394.67 384.00 405.32 383.99 415.98 383.99 C 415.99 373.32 416.00 362.67 416.01 352.01 M 383.96 416.63 C 383.99 427.08 383.99 437.54 384.00 448.01 C 394.67 447.98 405.34 447.98 416.01 448.02 C 415.98 437.31 415.98 426.60 416.01 415.90 C 405.32 415.98 394.63 416.08 383.96 416.63 M 448.01 447.98 C 448.00 458.65 447.99 469.31 447.98 479.99 C 437.31 479.99 426.65 480.00 415.99 480.02 C 416.01 490.68 416.01 501.34 415.99 512.01 C 426.65 511.98 437.32 511.97 448.00 512.00 C 448.01 522.66 448.00 533.32 447.99 543.99 C 458.65 543.99 469.31 544.00 479.99 544.02 C 479.99 554.67 480.00 565.32 480.02 575.99 C 490.67 575.99 501.32 576.00 511.99 576.02 C 511.99 586.68 512.00 597.34 512.02 608.01 C 522.67 607.98 533.32 607.98 543.99 608.02 C 543.99 597.34 544.00 586.68 544.02 576.02 C 554.67 576.00 565.33 575.99 575.99 575.98 C 575.99 565.32 576.01 554.66 576.01 544.01 C 586.67 543.98 597.33 543.98 608.00 544.01 C 608.01 512.01 608.01 480.01 608.00 448.01 C 586.67 447.99 565.34 447.98 544.02 448.01 C 544.00 458.67 543.99 469.33 543.98 479.99 C 522.66 480.01 501.33 480.02 480.01 479.99 C 480.00 469.32 479.99 458.65 479.98 447.99 C 469.32 448.01 458.67 448.01 448.01 447.98 Z" />
<path fill="#e00036" opacity="1.00" d=" M 832.02 511.99 C 842.67 511.98 853.32 511.99 863.99 512.00 C 906.65 512.01 949.31 511.98 991.98 512.01 C 991.98 522.67 992.00 533.33 992.02 544.00 C 992.00 554.66 991.98 565.32 991.98 575.99 C 927.98 576.02 863.99 575.99 800.00 576.00 C 799.97 565.33 799.97 554.67 799.99 544.01 C 810.65 543.98 821.31 543.98 831.99 543.99 C 831.98 533.32 831.98 522.65 832.02 511.99 Z" />
<path fill="#e00036" opacity="1.00" d=" M 96.01 544.00 C 149.34 544.00 202.66 543.99 255.98 544.00 C 255.99 554.66 256.00 565.32 256.02 575.98 C 266.68 575.99 277.34 576.00 288.01 576.01 C 287.98 586.67 287.98 597.33 288.01 608.00 C 266.68 607.96 245.36 608.02 224.03 608.01 C 224.00 618.66 223.99 629.32 223.97 639.99 C 170.65 640.02 117.32 639.99 64.00 640.00 C 63.99 618.67 63.99 597.34 64.00 576.01 C 74.66 575.98 85.32 575.98 95.99 575.99 C 95.99 565.32 95.99 554.65 96.01 544.00 Z" />
<path fill="#e00036" opacity="1.00" d=" M 864.01 671.98 C 874.67 672.01 885.33 672.01 896.00 671.99 C 895.98 682.65 895.98 693.32 896.01 703.99 C 896.03 725.11 895.96 746.24 896.04 767.36 C 885.36 767.79 874.67 768.01 864.00 768.16 C 864.06 789.44 863.94 810.72 864.00 832.00 C 842.67 831.94 821.35 832.05 800.03 832.00 C 800.00 842.66 799.98 853.32 799.97 863.99 C 767.98 864.01 735.99 864.00 704.00 864.00 C 703.99 842.66 703.98 821.33 704.01 800.00 C 725.33 800.03 746.65 799.97 767.98 800.00 C 767.99 789.33 768.00 778.67 768.02 768.02 C 778.66 768.00 789.32 767.99 799.98 767.99 C 799.99 757.32 800.00 746.67 800.01 736.02 C 810.66 736.00 821.32 735.99 831.98 735.99 C 831.99 725.32 832.00 714.67 832.01 704.02 C 842.66 704.00 853.32 703.99 863.98 703.99 C 863.99 693.31 864.00 682.65 864.01 671.98 Z" />
<path fill="#e00036" opacity="1.00" d=" M 192.00 704.01 C 213.34 703.98 234.67 703.98 256.00 704.01 C 255.97 725.33 256.03 746.65 256.00 767.98 C 266.66 767.99 277.32 768.00 287.98 768.02 C 287.99 778.66 288.00 789.32 288.01 799.98 C 298.67 799.99 309.32 800.00 319.98 800.01 C 319.99 810.67 320.00 821.33 320.01 832.00 C 341.34 831.97 362.66 832.02 383.98 832.00 C 383.99 842.66 384.00 853.33 384.02 864.00 C 405.34 863.97 426.67 864.03 448.00 863.99 C 448.04 885.32 447.98 906.66 447.99 928.00 C 405.54 928.02 363.09 927.97 320.64 928.04 C 320.20 917.36 319.98 906.69 319.84 896.03 C 309.44 896.01 299.03 896.00 288.64 896.03 C 288.19 885.36 287.99 874.69 287.84 864.03 C 277.44 864.01 267.04 864.00 256.64 864.03 C 256.19 853.36 255.99 842.69 255.84 832.03 C 245.44 832.01 235.04 832.00 224.64 832.03 C 224.19 821.35 223.99 810.68 223.84 800.01 C 213.23 800.01 202.61 800.00 192.00 799.99 C 192.00 767.99 191.99 736.00 192.00 704.01 Z" />
<path fill="#e00036" opacity="1.00" d=" M 544.00 768.01 C 565.33 767.98 586.65 767.97 607.99 768.01 C 607.98 778.66 607.99 789.32 608.01 799.99 C 608.05 858.66 607.85 917.34 608.17 976.02 C 607.05 980.83 609.78 987.55 606.51 991.59 C 575.03 992.87 543.50 991.55 512.00 992.00 C 512.01 938.68 511.98 885.35 512.01 832.03 C 522.67 832.00 533.33 831.99 544.00 831.97 C 543.94 810.64 544.05 789.32 544.00 768.01 Z" />
</g>
<g id="#c0c0c0ff">
<path fill="#c0c0c0" opacity="1.00" d=" M 511.98 0.00 L 544.00 0.00 C 543.99 10.67 543.99 21.34 544.00 32.01 C 533.33 31.99 522.67 31.98 512.01 31.99 C 512.01 21.33 512.00 10.66 511.98 0.00 Z" />
<path fill="#c0c0c0" opacity="1.00" d=" M 448.01 32.01 C 458.67 32.02 469.33 32.01 480.01 31.99 C 479.99 42.66 479.98 53.32 479.99 63.99 C 469.32 63.98 458.66 63.99 447.99 64.01 C 448.00 53.34 448.01 42.68 448.01 32.01 Z" />
<path fill="#c0c0c0" opacity="1.00" d=" M 224.01 191.98 C 234.68 192.01 245.34 192.02 256.01 192.00 C 255.99 202.61 255.98 213.23 255.99 223.84 C 245.31 223.99 234.64 224.19 223.97 224.64 C 223.98 235.04 223.98 245.44 223.97 255.84 C 213.30 255.99 202.63 256.19 191.97 256.64 C 191.98 267.08 191.98 277.53 191.97 287.99 C 181.31 287.98 170.65 287.99 160.00 288.02 C 160.02 277.35 160.02 266.68 159.99 256.02 C 170.65 256.00 181.32 255.99 191.98 255.98 C 191.99 245.33 192.00 234.67 192.01 224.02 C 202.67 224.00 213.32 223.99 223.98 223.99 C 223.99 213.32 224.00 202.65 224.01 191.98 Z" />
<path fill="#c0c0c0" opacity="1.00" d=" M 576.00 351.99 C 586.66 352.01 597.33 352.01 608.01 351.99 C 607.98 362.65 607.98 373.32 607.99 383.99 C 597.32 383.98 586.66 383.98 576.01 384.00 C 576.00 373.33 576.00 362.66 576.00 351.99 Z" />
<path fill="#c0c0c0" opacity="1.00" d=" M 544.53 383.94 C 555.02 383.98 565.51 384.00 576.01 384.00 C 575.99 394.67 575.98 405.34 575.99 416.01 C 565.28 415.98 554.57 415.98 543.86 416.01 C 544.03 405.32 544.22 394.63 544.53 383.94 Z" />
<path fill="#c0c0c0" opacity="1.00" d=" M 383.96 416.63 C 394.63 416.08 405.32 415.98 416.01 415.90 C 415.98 426.60 415.98 437.31 416.01 448.02 C 405.34 447.98 394.67 447.98 384.00 448.01 C 383.99 437.54 383.99 427.08 383.96 416.63 Z" />
<path fill="#c0c0c0" opacity="1.00" d=" M 800.01 512.01 C 810.67 512.01 821.34 512.01 832.02 511.99 C 831.98 522.65 831.98 533.32 831.99 543.99 C 821.31 543.98 810.65 543.98 799.99 544.01 C 800.00 533.34 800.00 522.67 800.01 512.01 Z" />
<path fill="#c0c0c0" opacity="1.00" d=" M 63.99 543.99 C 74.66 544.01 85.34 544.02 96.01 544.00 C 95.99 554.65 95.99 565.32 95.99 575.99 C 85.32 575.98 74.66 575.98 64.00 576.01 C 64.02 565.33 64.01 554.66 63.99 543.99 Z" />
</g>
<g id="#000000ff">
<path fill="#000000" opacity="1.00" d=" M 544.00 63.99 C 554.66 64.01 565.32 64.01 575.99 64.01 C 576.01 117.33 576.01 170.65 575.99 223.97 C 565.32 223.99 554.66 224.00 544.00 224.03 C 544.05 245.34 543.95 266.66 544.00 287.97 C 533.34 287.99 522.68 288.01 512.03 288.03 C 512.00 298.69 511.99 309.34 511.97 320.00 C 501.31 319.98 490.66 319.99 480.01 320.01 C 480.01 298.68 479.96 277.34 480.00 256.01 C 490.65 255.99 501.31 255.98 511.97 255.99 C 511.99 245.33 512.00 234.67 512.04 224.02 C 522.55 224.02 533.07 224.03 543.60 224.03 C 544.54 170.69 543.73 117.33 544.00 63.99 Z" />
<path fill="#000000" opacity="1.00" d=" M 352.01 191.99 C 362.67 192.02 373.33 192.01 383.99 191.99 C 384.02 213.32 384.01 234.65 383.99 255.98 C 373.33 255.99 362.67 256.00 352.02 256.02 C 352.00 266.67 351.99 277.32 351.99 287.98 C 341.33 287.99 330.67 288.00 320.02 288.01 C 320.00 298.67 319.99 309.32 319.99 319.98 C 309.32 319.99 298.66 320.00 288.00 320.01 C 288.03 341.34 287.97 362.66 288.00 383.98 C 277.33 383.99 266.67 384.00 256.00 384.02 C 255.98 426.67 256.02 469.33 256.00 511.99 C 234.67 512.02 213.34 512.01 192.02 511.99 C 192.00 501.33 191.99 490.67 191.98 480.02 C 181.32 480.00 170.65 479.99 159.99 479.99 C 160.01 469.32 160.02 458.66 159.99 448.00 C 181.33 448.03 202.66 447.98 223.99 447.99 C 224.02 416.00 223.98 384.02 224.01 352.03 C 234.67 352.00 245.33 351.99 256.00 351.97 C 255.95 330.65 256.05 309.34 256.00 288.03 C 266.66 288.01 277.31 287.99 287.97 287.97 C 287.99 277.32 288.00 266.67 288.03 256.03 C 298.67 256.01 309.32 255.99 319.97 255.97 C 319.99 245.32 320.00 234.68 320.03 224.03 C 330.68 224.00 341.33 223.99 351.98 223.96 C 351.99 213.30 352.00 202.65 352.01 191.99 Z" />
<path fill="#000000" opacity="1.00" d=" M 448.00 191.99 C 458.66 192.01 469.32 192.01 479.99 192.01 C 479.98 202.68 479.98 213.34 480.00 224.01 C 469.33 223.99 458.67 223.98 448.01 223.99 C 448.01 213.32 448.00 202.65 448.00 191.99 Z" />
<path fill="#000000" opacity="1.00" d=" M 639.99 191.99 C 650.65 192.00 661.30 192.01 671.97 192.01 C 671.98 202.66 672.00 213.31 672.03 223.97 C 682.67 223.99 693.32 224.01 703.97 224.03 C 703.99 234.67 704.00 245.32 704.03 255.97 C 714.67 255.99 725.32 256.01 735.97 256.03 C 735.98 266.67 736.00 277.32 736.03 287.97 C 746.67 287.99 757.32 288.00 767.97 288.03 C 767.98 298.67 768.00 309.32 768.03 319.97 C 778.68 319.99 789.34 320.00 800.00 320.03 C 799.94 341.34 800.05 362.65 800.00 383.97 C 810.66 383.99 821.33 384.00 832.00 384.03 C 831.94 405.35 832.05 426.67 832.00 447.99 C 853.33 447.98 874.66 448.04 896.01 448.00 C 895.99 458.65 895.98 469.31 895.99 479.97 C 885.32 479.99 874.66 480.00 864.01 480.04 C 864.01 490.69 864.00 501.34 863.99 512.00 C 853.32 511.99 842.67 511.98 832.02 511.99 C 831.99 501.33 831.98 490.68 831.99 480.03 C 821.32 480.00 810.65 479.99 800.00 479.97 C 800.05 458.65 799.94 437.34 800.00 416.03 C 789.32 416.00 778.66 415.99 768.00 415.97 C 768.05 394.65 767.94 373.34 768.00 352.03 C 757.33 352.00 746.68 351.99 736.03 351.97 C 736.00 341.32 735.98 330.67 735.97 320.03 C 725.32 320.00 714.67 319.99 704.03 319.97 C 704.00 309.32 703.98 298.67 703.97 288.03 C 693.32 288.00 682.67 287.99 672.03 287.97 C 672.00 277.32 671.98 266.67 671.97 256.03 C 661.31 256.00 650.65 255.99 640.01 255.97 C 640.02 234.64 639.95 213.32 639.99 191.99 Z" />
<path fill="#000000" opacity="1.00" d=" M 672.01 415.99 C 682.66 416.01 693.32 416.01 703.99 415.99 C 704.00 479.99 704.00 543.98 704.00 607.98 C 693.33 607.99 682.67 608.00 672.02 608.01 C 672.00 618.66 671.99 629.32 671.99 639.98 C 661.32 639.99 650.67 640.00 640.02 640.01 C 640.00 650.66 639.99 661.32 639.99 671.98 C 629.32 671.99 618.67 672.00 608.02 672.01 C 608.00 682.66 607.99 693.32 607.99 703.98 C 597.32 703.99 586.67 704.00 576.02 704.01 C 576.00 714.67 575.99 725.32 575.99 735.99 C 554.66 736.02 533.34 736.01 512.02 735.99 C 512.00 725.32 511.99 714.66 511.98 704.00 C 490.66 704.02 469.34 703.97 448.02 704.00 C 448.00 693.33 447.99 682.67 447.98 672.02 C 437.32 672.00 426.67 671.99 416.02 671.99 C 416.00 661.32 415.99 650.67 415.99 640.02 C 405.32 640.00 394.67 639.99 384.02 639.99 C 384.00 629.32 383.99 618.67 383.99 608.02 C 373.32 608.00 362.66 607.99 352.00 607.99 C 351.99 575.98 351.99 543.99 352.00 511.99 C 362.67 512.00 373.33 512.00 384.00 512.01 C 383.95 533.33 384.05 554.65 384.00 575.97 C 394.66 575.99 405.31 576.00 415.97 576.03 C 415.99 586.67 416.00 597.32 416.03 607.97 C 426.67 607.99 437.32 608.00 447.97 608.03 C 447.99 618.67 448.00 629.32 448.03 639.97 C 458.67 639.99 469.32 640.00 479.97 640.03 C 479.99 650.68 480.00 661.33 480.04 671.99 C 512.01 672.01 543.99 672.02 575.97 671.99 C 575.99 661.33 576.00 650.68 576.03 640.03 C 586.67 640.00 597.32 639.99 607.97 639.97 C 607.99 629.32 608.00 618.67 608.03 608.03 C 618.68 608.00 629.34 607.99 640.00 607.97 C 639.94 586.65 640.05 565.34 640.00 544.03 C 650.66 544.00 661.32 543.99 671.99 543.97 C 672.02 501.31 671.98 458.65 672.01 415.99 Z" />
<path fill="#000000" opacity="1.00" d=" M 448.01 447.98 C 458.67 448.01 469.32 448.01 479.98 447.99 C 479.99 458.65 480.00 469.32 480.01 479.99 C 501.33 480.02 522.66 480.01 543.98 479.99 C 543.99 469.33 544.00 458.67 544.02 448.01 C 565.34 447.98 586.67 447.99 608.00 448.01 C 608.01 480.01 608.01 512.01 608.00 544.01 C 597.33 543.98 586.67 543.98 576.01 544.01 C 576.00 533.33 575.99 522.66 575.98 511.99 C 565.32 512.01 554.67 512.01 544.03 511.99 C 544.00 522.64 543.99 533.30 543.97 543.96 C 522.64 544.05 501.30 544.26 479.97 543.60 C 479.96 533.06 479.97 522.53 479.98 512.00 C 469.31 512.01 458.65 512.01 448.00 512.00 C 437.32 511.97 426.65 511.98 415.99 512.01 C 416.01 501.34 416.01 490.68 415.99 480.02 C 426.65 480.00 437.31 479.99 447.98 479.99 C 447.99 469.31 448.00 458.65 448.01 447.98 Z" />
<path fill="#000000" opacity="1.00" d=" M 992.02 544.00 C 1002.67 543.99 1013.33 543.99 1024.00 544.00 L 1024.00 607.98 C 1013.33 607.99 1002.68 608.00 992.03 608.01 C 992.00 618.67 991.98 629.33 991.97 639.99 C 949.32 640.01 906.67 640.01 864.03 639.99 C 864.00 629.32 863.98 618.66 863.97 608.00 C 842.64 608.06 821.32 607.94 800.01 608.00 C 800.00 597.33 800.00 586.66 800.00 576.00 C 863.99 575.99 927.98 576.02 991.98 575.99 C 991.98 565.32 992.00 554.66 992.02 544.00 Z" />
<path fill="#000000" opacity="1.00" d=" M 224.03 608.01 C 245.36 608.02 266.68 607.96 288.01 608.00 C 287.98 618.66 287.98 629.32 288.01 639.98 C 277.34 639.99 266.68 640.00 256.02 640.02 C 256.00 650.67 255.99 661.33 255.99 672.00 C 234.66 671.97 213.33 672.02 192.00 672.00 C 192.02 682.45 192.02 692.90 192.02 703.36 C 160.04 704.74 128.02 703.69 96.02 703.99 C 96.01 693.33 96.00 682.67 95.98 672.02 C 85.32 672.00 74.65 671.99 63.99 671.99 C 64.01 661.32 64.02 650.66 64.00 640.00 C 117.32 639.99 170.65 640.02 223.97 639.99 C 223.99 629.32 224.00 618.66 224.03 608.01 Z" />
<path fill="#000000" opacity="1.00" d=" M 896.01 703.99 C 906.66 704.01 917.32 704.01 927.99 703.99 C 928.01 725.32 928.01 746.65 927.99 767.98 C 917.32 767.99 906.66 768.00 896.00 768.02 C 895.98 800.00 896.02 831.99 895.99 863.98 C 885.33 863.99 874.67 863.99 864.02 864.02 C 863.99 874.66 863.98 885.32 863.99 895.98 C 853.32 895.99 842.67 896.00 832.02 896.01 C 831.99 906.67 831.99 917.33 831.99 928.00 C 799.99 928.01 768.01 928.00 736.02 928.00 C 736.00 917.33 735.99 906.67 735.98 896.02 C 725.31 895.99 714.64 895.98 703.98 895.99 C 704.00 885.31 704.01 874.65 704.00 864.00 C 735.99 864.00 767.98 864.01 799.97 863.99 C 799.98 853.32 800.00 842.66 800.03 832.00 C 821.35 832.05 842.67 831.94 864.00 832.00 C 863.94 810.72 864.06 789.44 864.00 768.16 C 874.67 768.01 885.36 767.79 896.04 767.36 C 895.96 746.24 896.03 725.11 896.01 703.99 Z" />
<path fill="#000000" opacity="1.00" d=" M 192.00 799.99 C 202.61 800.00 213.23 800.01 223.84 800.01 C 223.99 810.68 224.19 821.35 224.64 832.03 C 235.04 832.00 245.44 832.01 255.84 832.03 C 255.99 842.69 256.19 853.36 256.64 864.03 C 267.04 864.00 277.44 864.01 287.84 864.03 C 287.99 874.69 288.19 885.36 288.64 896.03 C 299.03 896.00 309.44 896.01 319.84 896.03 C 319.98 906.69 320.20 917.36 320.64 928.04 C 363.09 927.97 405.54 928.02 447.99 928.00 C 447.98 906.66 448.04 885.32 448.00 863.99 C 458.66 864.01 469.32 864.01 480.00 863.99 C 480.01 895.98 480.01 927.98 480.00 959.98 C 469.33 959.98 458.67 959.99 448.02 960.02 C 448.00 970.67 447.99 981.33 447.99 992.00 C 415.99 992.00 384.01 992.00 352.02 992.00 C 352.00 981.33 351.99 970.67 351.98 960.02 C 341.32 959.99 330.67 959.98 320.02 959.99 C 320.00 949.32 319.99 938.66 319.99 928.02 C 309.33 927.99 298.67 927.98 288.02 927.99 C 288.00 917.32 287.99 906.66 287.99 896.02 C 277.33 895.99 266.67 895.98 256.02 895.99 C 256.00 885.32 255.99 874.66 255.99 864.02 C 245.33 863.99 234.67 863.98 224.02 863.99 C 224.00 853.32 223.99 842.67 223.99 832.02 C 213.32 831.99 202.65 831.99 191.99 831.99 C 192.01 821.31 192.02 810.65 192.00 799.99 Z" />
<path fill="#000000" opacity="1.00" d=" M 608.01 799.99 C 618.66 800.00 629.32 800.00 639.99 800.01 C 640.01 864.00 640.01 927.98 639.99 991.97 C 629.33 991.98 618.67 992.00 608.01 992.04 C 608.01 1002.68 608.00 1013.33 607.98 1024.00 L 512.00 1024.00 C 511.99 1013.32 511.99 1002.66 512.00 992.00 C 543.50 991.55 575.03 992.87 606.51 991.59 C 609.78 987.55 607.05 980.83 608.17 976.02 C 607.85 917.34 608.05 858.66 608.01 799.99 Z" />
</g>
</svg>
