<?xml version="1.0" encoding="UTF-8" ?>
<!DOCTYPE svg PUBLIC "-//W3C//DTD SVG 1.1//EN" "http://www.w3.org/Graphics/SVG/1.1/DTD/svg11.dtd">
<svg width="1024pt" height="1024pt" viewBox="0 0 1024 1024" version="1.1" xmlns="http://www.w3.org/2000/svg">
<g id="#0072ffff">
<path fill="#0072ff" opacity="1.00" d=" M 0.00 256.00 C 10.67 256.00 21.33 256.00 32.00 256.00 C 32.00 266.66 31.99 277.33 32.01 288.00 C 42.66 287.99 53.32 287.99 63.98 288.00 C 64.01 298.59 64.09 309.18 64.28 319.77 C 74.76 319.88 85.24 319.88 95.72 319.77 C 95.91 309.18 95.99 298.59 96.03 288.00 C 138.68 288.01 181.34 287.99 223.99 288.00 C 223.99 277.33 224.00 266.67 224.00 256.00 C 234.67 256.00 245.33 255.99 256.00 256.00 C 256.00 266.67 256.00 277.33 256.00 288.00 C 256.00 298.66 256.00 309.33 256.00 320.00 C 245.33 320.00 234.67 319.99 224.00 320.01 C 224.00 330.67 224.00 341.33 224.00 352.00 C 213.33 352.00 202.67 351.99 192.01 352.00 C 192.00 341.33 191.99 330.67 191.99 320.02 C 181.33 320.00 170.67 319.99 160.01 320.00 C 160.00 330.65 160.00 341.31 160.00 351.97 C 149.42 351.98 138.85 352.05 128.28 352.28 C 128.08 362.85 128.00 373.42 127.98 384.00 C 117.32 384.00 106.66 384.00 96.00 384.00 C 95.99 373.33 96.00 362.66 96.00 352.00 C 106.66 352.00 117.33 352.00 128.00 352.00 C 128.01 341.33 128.00 330.67 128.00 320.02 C 117.33 320.00 106.67 319.99 96.01 320.00 C 96.00 330.66 96.00 341.33 96.00 352.00 C 85.33 352.00 74.67 352.00 64.00 352.00 C 64.00 341.33 64.00 330.67 64.00 320.00 C 53.34 319.99 42.68 320.00 32.01 320.00 C 31.99 309.43 31.92 298.86 31.72 288.29 C 21.15 288.07 10.57 287.99 0.00 287.94 L 0.00 256.00 Z" />
<path fill="#0072ff" opacity="1.00" d=" M 64.01 256.00 C 74.67 256.00 85.33 256.00 95.99 256.00 C 96.01 266.66 96.02 277.33 96.03 288.00 C 85.34 288.00 74.66 288.00 63.98 288.00 C 63.98 277.33 63.99 266.66 64.01 256.00 Z" />
<path fill="#0072ff" opacity="1.00" d=" M 320.00 256.00 C 330.66 255.99 341.33 255.99 352.00 256.00 C 351.99 266.66 352.00 277.33 352.00 288.00 C 341.33 288.00 330.66 288.00 320.00 288.00 C 320.00 277.33 320.00 266.67 320.00 256.00 Z" />
<path fill="#0072ff" opacity="1.00" d=" M 448.00 256.00 C 458.66 256.00 469.33 255.99 480.00 256.00 C 479.99 266.67 479.99 277.33 480.00 288.00 C 480.00 298.66 480.00 309.33 480.00 320.00 C 469.33 320.00 458.66 319.99 448.00 320.01 C 448.00 330.67 448.00 341.33 448.00 352.00 C 437.33 352.00 426.67 351.99 416.01 352.00 C 416.00 341.33 415.99 330.67 415.99 320.02 C 405.33 320.00 394.67 319.99 384.01 320.00 C 384.00 330.65 383.99 341.31 384.00 351.97 C 373.42 351.98 362.85 352.05 352.28 352.28 C 352.07 362.85 352.00 373.42 351.98 384.00 C 341.32 384.00 330.66 384.00 320.00 384.00 C 320.00 373.33 320.00 362.66 320.00 352.00 C 330.66 352.00 341.33 351.99 352.00 352.00 C 352.00 341.33 351.99 330.66 352.00 320.00 C 352.01 309.33 352.01 298.66 352.00 288.00 C 384.00 288.01 416.00 287.99 448.00 288.00 C 447.99 277.33 448.00 266.67 448.00 256.00 Z" />
<path fill="#0072ff" opacity="1.00" d=" M 544.00 256.00 C 554.66 255.99 565.33 255.99 576.00 256.00 C 575.99 266.66 575.99 277.33 576.00 288.00 C 565.33 288.00 554.66 288.00 544.00 288.00 C 543.99 277.33 543.99 266.67 544.00 256.00 Z" />
<path fill="#0072ff" opacity="1.00" d=" M 672.00 256.00 C 682.66 256.00 693.32 255.99 704.00 256.00 C 703.99 266.67 703.99 277.33 704.00 288.00 C 704.00 298.66 704.00 309.33 704.00 320.00 C 693.33 320.00 682.66 319.99 672.00 320.01 C 672.00 330.67 672.00 341.33 672.00 352.00 C 661.33 352.00 650.67 351.99 640.01 352.00 C 640.00 341.33 639.99 330.67 639.99 320.02 C 629.33 320.00 618.67 319.99 608.01 320.00 C 607.99 330.65 607.99 341.31 608.00 351.97 C 597.42 351.98 586.84 352.05 576.28 352.28 C 576.07 362.85 576.00 373.42 575.98 384.00 C 565.32 384.00 554.66 384.00 544.00 384.00 C 543.99 373.33 544.00 362.66 544.00 352.00 C 554.66 352.00 565.33 351.99 576.00 352.00 C 576.00 341.33 575.99 330.66 576.00 320.00 C 576.00 309.33 576.01 298.66 576.00 288.00 C 608.00 288.01 639.99 287.99 672.00 288.00 C 671.99 277.33 671.99 266.67 672.00 256.00 Z" />
<path fill="#0072ff" opacity="1.00" d=" M 768.00 256.00 C 789.33 255.98 810.66 256.02 832.00 256.00 C 831.98 277.33 832.00 298.66 832.01 320.00 C 831.99 330.66 831.97 341.33 832.00 352.00 C 821.33 352.00 810.66 352.00 800.00 352.00 C 800.00 341.33 800.00 330.66 800.00 320.00 C 799.99 309.33 800.00 298.67 800.00 288.00 C 789.32 288.00 778.66 288.00 768.00 288.00 C 767.99 277.33 767.99 266.66 768.00 256.00 Z" />
<path fill="#0072ff" opacity="1.00" d=" M 928.01 256.00 C 960.00 255.99 992.00 256.00 1024.00 256.00 L 1024.00 288.00 C 1013.32 287.98 1002.66 287.99 992.00 288.01 C 991.99 298.67 991.99 309.33 992.00 320.00 C 981.32 319.99 970.66 320.00 960.00 320.00 C 959.99 330.67 959.99 341.33 960.00 352.00 C 949.32 352.00 938.66 352.00 928.00 352.00 C 927.99 341.33 927.99 330.66 928.00 320.00 C 917.32 319.99 906.66 320.00 896.01 320.00 C 896.00 330.66 895.99 341.33 896.00 352.00 C 885.32 352.00 874.66 352.00 864.00 352.00 C 863.98 341.33 863.98 330.66 864.00 320.00 C 864.00 309.33 863.99 298.66 864.00 288.00 C 874.66 288.00 885.32 288.00 896.00 288.00 C 906.65 287.99 917.31 287.98 927.98 288.00 C 928.00 298.59 928.08 309.18 928.28 319.77 C 938.75 319.88 949.23 319.88 959.71 319.77 C 959.91 309.18 959.99 298.59 960.05 288.00 C 949.35 288.00 938.66 288.00 927.98 288.00 C 927.97 277.33 927.98 266.66 928.01 256.00 Z" />
<path fill="#0072ff" opacity="1.00" d=" M 288.00 288.00 C 298.66 288.00 309.33 288.00 320.00 288.00 C 319.99 298.66 320.00 309.33 320.00 320.00 C 320.00 330.66 319.99 341.33 320.00 352.00 C 309.33 352.00 298.66 352.00 288.00 352.00 C 288.01 330.66 287.99 309.33 288.00 288.00 Z" />
<path fill="#0072ff" opacity="1.00" d=" M 512.00 288.00 C 522.66 288.00 533.33 288.00 544.00 288.00 C 543.99 298.66 543.99 309.33 544.00 320.00 C 543.99 330.66 543.99 341.33 544.00 352.00 C 533.33 352.00 522.66 352.00 512.00 352.00 C 512.01 330.66 511.99 309.33 512.00 288.00 Z" />
<path fill="#0072ff" opacity="1.00" d=" M 736.00 288.00 C 746.66 287.99 757.32 287.99 768.00 288.00 C 767.99 298.66 767.99 309.33 768.00 320.00 C 767.99 330.66 767.99 341.33 768.00 352.00 C 757.32 352.00 746.66 352.00 736.00 352.00 C 736.00 330.66 735.99 309.33 736.00 288.00 Z" />
<path fill="#0072ff" opacity="1.00" d=" M 32.00 352.00 C 42.67 351.99 53.33 352.00 64.00 352.00 C 64.01 362.66 64.00 373.33 64.00 384.00 C 53.33 384.00 42.67 384.00 32.00 384.00 C 31.99 373.33 32.00 362.66 32.00 352.00 Z" />
<path fill="#0072ff" opacity="1.00" d=" M 224.00 352.00 C 234.66 352.00 245.33 352.00 256.00 352.00 C 256.00 362.66 256.00 373.33 256.00 384.00 C 245.33 384.00 234.67 384.00 224.00 384.00 C 223.99 373.33 223.99 362.66 224.00 352.00 Z" />
<path fill="#0072ff" opacity="1.00" d=" M 448.00 352.00 C 458.66 352.00 469.33 352.00 480.00 352.00 C 480.00 362.66 479.99 373.33 480.00 384.00 C 469.33 384.00 458.66 384.00 448.00 384.00 C 447.99 373.33 447.99 362.66 448.00 352.00 Z" />
<path fill="#0072ff" opacity="1.00" d=" M 672.00 352.00 C 682.66 352.00 693.33 352.00 704.00 352.00 C 704.00 362.66 703.99 373.33 704.00 384.00 C 693.33 384.00 682.66 384.00 672.00 384.00 C 671.99 373.33 671.99 362.66 672.00 352.00 Z" />
<path fill="#0072ff" opacity="1.00" d=" M 768.00 352.00 C 778.66 352.00 789.32 352.00 800.00 352.00 C 799.99 362.66 799.99 373.33 800.00 384.00 C 789.33 384.00 778.66 384.00 768.00 384.00 C 767.99 373.33 767.99 362.66 768.00 352.00 Z" />
<path fill="#0072ff" opacity="1.00" d=" M 832.00 352.00 C 842.66 352.00 853.33 352.00 864.00 352.00 C 863.99 362.66 863.99 373.33 864.00 384.00 C 853.32 384.00 842.66 384.00 832.00 384.00 C 831.99 373.33 832.00 362.66 832.00 352.00 Z" />
<path fill="#0072ff" opacity="1.00" d=" M 896.00 352.00 C 906.66 352.00 917.32 352.00 928.00 352.00 C 928.00 362.66 928.00 373.33 928.00 384.00 C 917.32 384.00 906.66 384.00 896.00 384.00 C 895.99 373.33 895.99 362.66 896.00 352.00 Z" />
<path fill="#0072ff" opacity="1.00" d=" M 960.00 352.00 C 970.66 352.00 981.32 352.00 992.00 352.00 C 992.00 362.66 991.99 373.33 992.00 384.00 C 981.32 384.00 970.66 384.00 960.00 384.00 C 959.98 373.33 959.99 362.66 960.00 352.00 Z" />
<path fill="#0072ff" opacity="1.00" d=" M 64.00 384.00 C 74.67 384.00 85.33 384.00 96.00 384.00 C 95.99 394.66 95.99 405.33 96.00 416.00 C 85.33 416.00 74.67 416.00 64.00 416.00 C 64.01 405.33 64.00 394.66 64.00 384.00 Z" />
<path fill="#0072ff" opacity="1.00" d=" M 192.02 384.00 C 202.68 384.00 213.34 384.00 224.00 384.00 C 223.99 394.66 223.99 405.33 224.00 416.00 C 213.33 415.99 202.66 415.99 192.00 416.00 C 192.02 405.33 192.03 394.66 192.02 384.00 Z" />
<path fill="#0072ff" opacity="1.00" d=" M 288.00 384.00 C 298.67 384.00 309.33 384.00 320.00 384.00 C 319.99 394.66 319.99 405.33 320.00 416.00 C 309.33 416.00 298.66 416.00 288.00 416.00 C 287.99 405.33 288.00 394.66 288.00 384.00 Z" />
<path fill="#0072ff" opacity="1.00" d=" M 416.02 384.00 C 426.67 384.00 437.34 384.00 448.00 384.00 C 447.99 394.66 447.99 405.33 448.00 416.00 C 437.33 415.99 426.66 415.99 416.00 416.00 C 416.02 405.33 416.03 394.66 416.02 384.00 Z" />
<path fill="#0072ff" opacity="1.00" d=" M 512.00 384.00 C 522.66 384.00 533.33 384.00 544.00 384.00 C 543.99 394.66 543.99 405.33 544.00 416.00 C 533.33 416.00 522.66 416.00 512.00 416.00 C 511.99 405.33 511.99 394.66 512.00 384.00 Z" />
<path fill="#0072ff" opacity="1.00" d=" M 640.02 384.00 C 650.67 384.00 661.33 384.00 672.00 384.00 C 671.99 394.66 671.99 405.33 672.00 416.00 C 661.32 415.99 650.66 415.99 640.00 416.00 C 640.01 405.33 640.03 394.66 640.02 384.00 Z" />
<path fill="#0072ff" opacity="1.00" d=" M 736.00 384.00 C 746.66 384.00 757.33 384.00 768.00 384.00 C 767.99 394.66 767.98 405.33 768.00 416.00 C 757.32 416.00 746.66 416.00 736.00 416.00 C 735.99 405.33 735.99 394.66 736.00 384.00 Z" />
<path fill="#0072ff" opacity="1.00" d=" M 800.00 384.00 C 810.66 384.00 821.33 384.00 832.00 384.00 C 831.99 394.66 831.98 405.33 832.00 416.00 C 821.32 416.00 810.66 416.00 800.00 416.00 C 800.00 405.33 800.00 394.66 800.00 384.00 Z" />
<path fill="#0072ff" opacity="1.00" d=" M 864.00 384.00 C 874.66 384.00 885.32 384.00 896.00 384.00 C 895.99 394.66 895.98 405.33 896.00 416.00 C 885.32 416.00 874.66 416.00 864.00 416.00 C 864.00 405.33 863.99 394.66 864.00 384.00 Z" />
<path fill="#0072ff" opacity="1.00" d=" M 928.00 384.00 C 938.66 384.00 949.32 384.00 960.00 384.00 C 959.98 394.66 959.98 405.33 960.00 416.00 C 949.32 416.00 938.66 416.00 928.00 416.00 C 927.99 405.33 927.99 394.66 928.00 384.00 Z" />
<path fill="#0072ff" opacity="1.00" d=" M 32.00 416.00 C 42.67 416.00 53.33 416.00 64.00 416.00 C 64.00 426.66 64.00 437.33 64.00 448.00 C 53.33 448.00 42.67 447.99 32.00 448.00 C 32.00 437.33 32.00 426.66 32.00 416.00 Z" />
<path fill="#0072ff" opacity="1.00" d=" M 96.00 416.00 C 106.66 416.00 117.33 416.00 128.00 416.00 C 128.01 426.66 128.01 437.33 128.00 448.00 C 117.33 447.99 106.67 448.00 96.00 448.00 C 96.00 437.33 96.00 426.66 96.00 416.00 Z" />
<path fill="#0072ff" opacity="1.00" d=" M 224.00 416.00 C 234.66 416.00 245.33 416.00 256.00 416.00 C 256.00 426.66 256.00 437.33 256.00 448.00 C 245.33 447.99 234.67 447.99 224.00 448.00 C 224.00 437.33 224.00 426.66 224.00 416.00 Z" />
<path fill="#0072ff" opacity="1.00" d=" M 320.00 416.00 C 330.66 416.00 341.33 416.00 352.00 416.00 C 352.01 426.66 352.01 437.33 352.00 448.00 C 341.33 447.99 330.66 447.99 320.00 448.00 C 320.00 437.33 320.00 426.66 320.00 416.00 Z" />
<path fill="#0072ff" opacity="1.00" d=" M 448.00 416.00 C 458.66 416.00 469.33 416.00 480.00 416.00 C 480.00 426.66 479.99 437.33 480.00 448.00 C 469.33 447.99 458.66 447.99 448.00 448.00 C 448.00 437.33 448.00 426.66 448.00 416.00 Z" />
<path fill="#0072ff" opacity="1.00" d=" M 544.00 416.00 C 554.66 416.00 565.33 416.00 576.00 416.00 C 576.00 426.66 576.00 437.33 576.00 448.00 C 565.33 447.99 554.66 448.00 544.00 448.00 C 544.00 437.33 543.99 426.66 544.00 416.00 Z" />
<path fill="#0072ff" opacity="1.00" d=" M 672.00 416.00 C 682.66 416.00 693.33 416.00 704.00 416.00 C 704.00 426.66 703.99 437.33 704.00 448.00 C 693.33 447.99 682.66 448.00 672.00 448.00 C 672.00 437.33 671.99 426.66 672.00 416.00 Z" />
<path fill="#0072ff" opacity="1.00" d=" M 768.00 416.00 C 778.66 416.00 789.33 416.00 800.00 416.00 C 799.99 426.66 799.99 437.33 799.99 448.00 C 789.32 447.99 778.66 448.00 768.00 448.00 C 767.99 437.33 767.99 426.66 768.00 416.00 Z" />
<path fill="#0072ff" opacity="1.00" d=" M 832.00 416.00 C 842.66 416.00 853.32 416.00 864.00 416.00 C 863.99 426.66 863.99 437.33 863.99 448.00 C 853.32 447.99 842.66 448.00 832.00 448.00 C 831.99 437.33 831.99 426.66 832.00 416.00 Z" />
<path fill="#0072ff" opacity="1.00" d=" M 896.00 416.00 C 906.66 416.00 917.32 416.00 928.00 416.00 C 927.99 426.66 927.98 437.33 927.99 448.00 C 917.32 447.99 906.66 448.00 896.00 448.00 C 895.99 437.33 895.99 426.66 896.00 416.00 Z" />
<path fill="#0072ff" opacity="1.00" d=" M 960.00 416.00 C 970.66 416.00 981.32 416.00 992.00 416.00 C 991.99 426.66 991.99 437.33 992.00 448.00 C 981.32 447.99 970.66 447.99 960.00 448.00 C 959.99 437.33 959.99 426.66 960.00 416.00 Z" />
<path fill="#0072ff" opacity="1.00" d=" M 63.99 479.99 C 74.66 480.01 85.33 480.01 96.01 479.99 C 95.98 490.66 95.99 501.33 96.01 512.01 C 85.33 511.98 74.66 511.98 63.99 512.01 C 64.02 501.33 64.01 490.66 63.99 479.99 Z" />
<path fill="#0072ff" opacity="1.00" d=" M 192.00 480.00 C 202.66 479.99 213.33 480.00 224.00 480.01 C 224.00 490.67 224.00 501.33 224.00 512.00 C 213.33 512.00 202.67 511.99 192.00 512.00 C 192.00 501.33 192.00 490.66 192.00 480.00 Z" />
<path fill="#0072ff" opacity="1.00" d=" M 288.00 480.00 C 298.66 479.99 309.33 480.00 320.00 480.01 C 320.00 490.67 320.00 501.33 320.00 511.99 C 309.33 512.00 298.66 512.00 288.00 512.00 C 287.99 501.33 288.00 490.66 288.00 480.00 Z" />
<path fill="#0072ff" opacity="1.00" d=" M 416.00 480.00 C 426.66 479.99 437.33 480.00 448.00 480.01 C 447.99 490.67 448.00 501.33 448.00 512.00 C 437.33 511.99 426.66 512.00 416.00 512.00 C 416.00 501.33 416.00 490.66 416.00 480.00 Z" />
<path fill="#0072ff" opacity="1.00" d=" M 512.00 480.00 C 522.66 479.99 533.33 480.00 544.00 480.01 C 543.99 490.67 544.00 501.33 544.00 511.99 C 533.33 512.00 522.66 512.00 512.00 512.00 C 511.99 501.33 512.00 490.66 512.00 480.00 Z" />
<path fill="#0072ff" opacity="1.00" d=" M 640.00 480.00 C 650.66 479.99 661.33 480.00 672.00 480.01 C 671.99 490.67 672.00 501.33 672.00 512.00 C 661.33 512.00 650.66 511.99 640.00 512.00 C 639.99 501.33 639.99 490.66 640.00 480.00 Z" />
<path fill="#0072ff" opacity="1.00" d=" M 736.00 480.00 C 746.66 479.99 757.32 480.00 768.00 480.01 C 767.99 490.67 768.00 501.33 768.00 511.99 C 757.32 512.00 746.66 512.00 736.00 512.00 C 735.99 501.33 736.00 490.66 736.00 480.00 Z" />
<path fill="#0072ff" opacity="1.00" d=" M 799.99 479.99 C 810.66 480.01 821.33 480.01 832.01 479.99 C 831.97 490.66 831.98 501.33 832.01 512.01 C 821.33 511.98 810.66 511.98 799.99 512.01 C 800.01 501.33 800.01 490.66 799.99 479.99 Z" />
<path fill="#0072ff" opacity="1.00" d=" M 863.99 479.99 C 874.65 480.01 885.33 480.01 896.01 479.99 C 895.97 490.66 895.98 501.33 896.01 512.01 C 885.33 511.98 874.66 511.98 863.99 512.01 C 864.01 501.33 864.00 490.66 863.99 479.99 Z" />
<path fill="#0072ff" opacity="1.00" d=" M 927.99 479.99 C 938.65 480.01 949.32 480.01 960.01 479.99 C 959.97 490.66 959.98 501.33 960.01 512.01 C 949.33 511.98 938.66 511.98 927.99 512.01 C 928.01 501.33 928.00 490.66 927.99 479.99 Z" />
</g>
<g id="#ffffffff">
<path fill="#ffffff" opacity="1.00" d=" M 32.00 256.00 C 42.67 256.00 53.34 256.00 64.01 256.00 C 63.99 266.66 63.98 277.33 63.98 288.00 C 53.32 287.99 42.66 287.99 32.01 288.00 C 31.99 277.33 32.00 266.66 32.00 256.00 Z" />
<path fill="#ffffff" opacity="1.00" d=" M 95.99 256.00 C 138.66 256.00 181.33 255.99 224.00 256.00 C 224.00 266.67 223.99 277.33 223.99 288.00 C 181.34 287.99 138.68 288.01 96.03 288.00 C 96.02 277.33 96.01 266.66 95.99 256.00 Z" />
<path fill="#ffffff" opacity="1.00" d=" M 288.00 256.00 C 298.67 255.99 309.33 256.00 320.00 256.00 C 320.00 266.67 320.00 277.33 320.00 288.00 C 309.33 288.00 298.66 288.00 288.00 288.00 C 288.00 277.33 288.00 266.67 288.00 256.00 Z" />
<path fill="#ffffff" opacity="1.00" d=" M 352.00 256.00 C 384.00 256.01 416.00 255.99 448.00 256.00 C 448.00 266.67 447.99 277.33 448.00 288.00 C 416.00 287.99 384.00 288.01 352.00 288.00 C 352.00 277.33 351.99 266.66 352.00 256.00 Z" />
<path fill="#ffffff" opacity="1.00" d=" M 512.00 256.00 C 522.66 255.99 533.33 256.00 544.00 256.00 C 543.99 266.67 543.99 277.33 544.00 288.00 C 533.33 288.00 522.66 288.00 512.00 288.00 C 512.00 277.33 512.00 266.67 512.00 256.00 Z" />
<path fill="#ffffff" opacity="1.00" d=" M 576.00 256.00 C 608.00 256.01 640.00 255.99 672.00 256.00 C 671.99 266.67 671.99 277.33 672.00 288.00 C 639.99 287.99 608.00 288.01 576.00 288.00 C 575.99 277.33 575.99 266.66 576.00 256.00 Z" />
<path fill="#ffffff" opacity="1.00" d=" M 736.00 256.00 C 746.66 256.00 757.33 256.00 768.00 256.00 C 767.99 266.66 767.99 277.33 768.00 288.00 C 757.32 287.99 746.66 287.99 736.00 288.00 C 735.99 277.33 736.00 266.66 736.00 256.00 Z" />
<path fill="#ffffff" opacity="1.00" d=" M 896.00 256.00 C 906.66 255.99 917.33 256.00 928.01 256.00 C 927.98 266.66 927.97 277.33 927.98 288.00 C 917.31 287.98 906.65 287.99 896.00 288.00 C 895.99 277.33 895.99 266.67 896.00 256.00 Z" />
<path fill="#ffffff" opacity="1.00" d=" M 63.98 288.00 C 74.66 288.00 85.34 288.00 96.03 288.00 C 95.99 298.59 95.91 309.18 95.72 319.77 C 85.24 319.88 74.76 319.88 64.28 319.77 C 64.09 309.18 64.01 298.59 63.98 288.00 Z" />
<path fill="#ffffff" opacity="1.00" d=" M 320.00 288.00 C 330.66 288.00 341.33 288.00 352.00 288.00 C 352.01 298.66 352.01 309.33 352.00 320.00 C 341.33 320.00 330.66 320.00 320.00 320.00 C 320.00 309.33 319.99 298.66 320.00 288.00 Z" />
<path fill="#ffffff" opacity="1.00" d=" M 544.00 288.00 C 554.66 288.00 565.33 288.00 576.00 288.00 C 576.01 298.66 576.00 309.33 576.00 320.00 C 565.33 320.00 554.66 320.00 544.00 320.00 C 543.99 309.33 543.99 298.66 544.00 288.00 Z" />
<path fill="#ffffff" opacity="1.00" d=" M 768.00 288.00 C 778.66 288.00 789.32 288.00 800.00 288.00 C 800.00 298.67 799.99 309.33 800.00 320.00 C 789.32 320.00 778.66 320.00 768.00 320.00 C 767.99 309.33 767.99 298.66 768.00 288.00 Z" />
<path fill="#ffffff" opacity="1.00" d=" M 927.98 288.00 C 938.66 288.00 949.35 288.00 960.05 288.00 C 959.99 298.59 959.91 309.18 959.71 319.77 C 949.23 319.88 938.75 319.88 928.28 319.77 C 928.08 309.18 928.00 298.59 927.98 288.00 Z" />
</g>
<g id="#000000ff">
<path fill="#000000" opacity="1.00" d=" M 0.00 287.94 C 10.57 287.99 21.15 288.07 31.72 288.29 C 31.92 298.86 31.99 309.43 32.01 320.00 C 32.03 330.66 32.02 341.33 32.00 352.00 C 21.33 352.00 10.67 352.00 0.00 352.00 L 0.00 287.94 Z" />
<path fill="#000000" opacity="1.00" d=" M 256.00 288.00 C 266.66 288.00 277.33 288.00 288.00 288.00 C 287.99 309.33 288.01 330.66 288.00 352.00 C 287.99 362.66 288.00 373.33 288.00 384.00 C 288.00 394.66 287.99 405.33 288.00 416.00 C 288.00 437.33 288.00 458.66 288.00 480.00 C 288.00 490.66 287.99 501.33 288.00 512.00 C 288.00 522.66 288.00 533.33 288.00 544.00 C 287.99 554.66 287.99 565.33 288.00 576.00 C 288.00 586.66 288.00 597.33 288.00 608.00 C 298.67 607.98 309.33 607.99 320.00 608.00 C 320.00 618.66 320.00 629.32 320.00 639.99 C 330.66 639.99 341.33 640.00 351.99 640.01 C 351.99 650.66 352.00 661.32 352.01 671.99 C 362.67 671.99 373.33 671.99 384.00 672.00 C 394.66 672.00 405.33 672.00 416.00 672.00 C 416.00 682.66 415.99 693.32 416.00 704.00 C 426.66 704.00 437.33 703.99 447.99 704.00 C 448.00 693.32 447.99 682.66 448.00 672.00 C 458.66 672.00 469.33 671.99 480.00 672.00 C 480.00 661.32 479.99 650.66 480.00 640.00 C 480.00 629.33 480.00 618.66 480.00 608.00 C 480.00 554.67 480.00 501.33 480.00 448.00 C 479.99 437.33 480.00 426.66 480.00 416.00 C 479.99 405.33 480.00 394.66 480.00 384.00 C 479.99 373.33 480.00 362.66 480.00 352.00 C 479.99 341.33 479.99 330.66 480.00 320.00 C 480.00 309.33 480.00 298.66 480.00 288.00 C 490.66 288.00 501.33 288.00 512.00 288.00 C 511.99 309.33 512.01 330.66 512.00 352.00 C 511.99 362.66 511.99 373.33 512.00 384.00 C 511.99 394.66 511.99 405.33 512.00 416.00 C 512.00 437.33 512.00 458.66 512.00 480.00 C 512.00 490.66 511.99 501.33 512.00 512.00 C 511.99 522.66 511.99 533.33 512.00 544.00 C 512.00 554.66 511.99 565.33 512.00 576.00 C 512.01 597.33 511.98 618.66 512.00 640.00 C 511.99 650.66 511.99 661.32 512.00 671.99 C 522.66 671.99 533.33 672.00 543.99 672.01 C 543.99 682.67 543.99 693.33 544.01 704.01 C 565.33 703.99 586.66 703.99 608.00 704.01 C 608.00 693.33 607.99 682.66 608.00 672.00 C 618.66 671.99 629.32 671.99 639.99 672.00 C 639.99 661.33 640.00 650.66 640.01 640.01 C 650.66 640.00 661.32 639.99 671.99 639.99 C 671.99 629.32 671.99 618.66 672.01 608.01 C 682.66 608.00 693.33 607.99 704.00 607.99 C 704.00 554.66 704.00 501.33 704.00 448.00 C 703.99 437.33 704.00 426.66 704.00 416.00 C 703.99 405.33 703.99 394.66 704.00 384.00 C 703.99 373.33 704.00 362.66 704.00 352.00 C 703.99 341.33 703.99 330.66 704.00 320.00 C 704.00 309.33 704.00 298.66 704.00 288.00 C 714.66 288.00 725.32 288.00 736.00 288.00 C 735.99 309.33 736.00 330.66 736.00 352.00 C 735.99 362.66 735.99 373.33 736.00 384.00 C 735.99 394.66 735.99 405.33 736.00 416.00 C 736.00 437.33 736.00 458.66 736.00 480.00 C 736.00 490.66 735.99 501.33 736.00 512.00 C 736.00 522.66 736.00 533.33 736.00 544.00 C 735.99 554.66 735.99 565.33 736.00 576.00 C 735.99 586.66 735.99 597.33 736.00 608.00 C 746.66 607.99 757.33 607.99 768.00 608.00 C 767.99 618.66 767.99 629.33 768.00 640.00 C 778.66 640.00 789.32 639.99 799.99 640.00 C 799.99 629.33 800.00 618.66 800.00 608.00 C 799.99 597.33 799.99 586.66 800.00 576.00 C 810.66 575.99 821.32 575.99 832.00 576.00 C 831.99 586.66 832.00 597.33 832.00 608.00 C 831.98 618.66 831.98 629.33 832.01 640.00 C 842.66 640.00 853.32 639.99 863.99 640.00 C 863.99 629.33 864.00 618.66 864.00 608.00 C 863.99 597.33 863.99 586.66 864.00 576.00 C 874.66 575.99 885.32 575.99 896.00 576.00 C 896.00 586.66 896.00 597.33 896.00 608.00 C 895.99 618.66 895.98 629.33 896.00 640.00 C 896.01 650.66 895.99 661.33 895.99 672.00 C 895.99 693.33 896.01 714.66 896.00 735.99 C 906.65 735.99 917.32 736.00 927.99 736.01 C 927.99 746.66 927.99 757.32 928.01 767.99 C 938.66 767.99 949.32 767.99 959.99 768.01 C 959.99 778.66 959.99 789.32 960.01 799.98 C 970.66 799.99 981.32 800.00 992.00 800.00 C 992.00 757.33 992.00 714.66 992.00 672.00 C 991.99 661.33 991.99 650.66 992.00 640.00 C 991.99 629.33 991.99 618.66 992.00 608.00 C 992.00 554.67 992.00 501.33 992.00 448.00 C 991.99 437.33 991.99 426.66 992.00 416.00 C 991.99 405.33 991.99 394.66 992.00 384.00 C 991.99 373.33 992.00 362.66 992.00 352.00 C 991.98 341.33 991.98 330.66 992.00 320.00 C 991.99 309.33 991.99 298.67 992.00 288.01 C 1002.66 287.99 1013.32 287.98 1024.00 288.00 L 1024.00 864.00 C 1013.33 863.98 1002.66 863.98 992.01 864.01 C 991.99 874.66 991.99 885.32 991.99 895.98 C 981.32 895.99 970.66 896.00 960.01 896.00 C 960.01 874.66 959.97 853.33 960.00 832.01 C 949.33 831.99 938.66 831.99 928.01 831.99 C 927.99 821.32 927.99 810.66 927.99 800.01 C 917.32 799.99 906.66 799.99 896.01 799.99 C 895.99 789.32 895.99 778.66 895.99 768.01 C 885.32 768.00 874.66 767.99 864.01 767.99 C 864.01 746.66 863.97 725.33 864.00 704.01 C 853.33 703.99 842.66 703.99 832.01 703.99 C 831.99 693.33 831.99 682.67 831.99 672.02 C 821.32 671.99 810.66 671.99 800.00 672.00 C 799.99 682.65 799.99 693.31 799.99 703.98 C 789.32 703.99 778.66 704.00 768.01 704.00 C 767.99 693.33 767.99 682.66 767.99 672.01 C 757.32 672.00 746.66 671.99 736.01 671.99 C 736.00 661.33 735.99 650.67 735.99 640.02 C 725.32 639.99 714.66 639.99 704.01 640.00 C 703.99 650.66 703.99 661.32 703.99 671.99 C 693.32 671.99 682.66 671.99 672.01 672.01 C 672.00 682.66 671.99 693.32 671.99 703.99 C 661.32 703.99 650.66 703.99 640.01 704.01 C 640.00 714.66 639.99 725.32 639.99 735.99 C 629.32 735.99 618.66 735.99 608.01 736.01 C 608.01 757.34 607.97 778.67 608.00 800.01 C 586.67 799.99 565.33 799.98 544.00 800.01 C 544.02 778.67 543.97 757.34 544.00 736.01 C 533.33 735.99 522.67 735.99 512.01 735.99 C 512.00 725.33 511.99 714.67 511.99 704.02 C 501.33 703.99 490.66 703.99 480.01 704.00 C 480.00 714.66 479.99 725.32 479.99 735.99 C 469.33 735.99 458.67 735.99 448.01 736.01 C 448.01 757.33 447.97 778.66 448.00 799.99 C 437.33 800.00 426.67 800.00 416.01 800.00 C 416.00 789.32 415.99 778.66 415.99 768.01 C 405.33 767.99 394.66 767.99 384.01 767.99 C 384.00 757.32 384.00 746.66 383.99 736.01 C 373.33 736.00 362.66 735.99 352.01 735.99 C 352.00 725.32 352.00 714.66 351.99 704.01 C 341.33 704.00 330.66 703.99 320.01 703.99 C 320.00 693.32 320.00 682.65 319.99 671.99 C 298.66 672.00 277.33 672.00 256.01 671.99 C 256.00 682.65 256.00 693.32 255.99 703.99 C 245.33 703.99 234.67 703.99 224.01 704.01 C 224.00 714.66 224.00 725.32 223.99 735.99 C 202.66 735.98 181.33 736.02 160.01 736.00 C 160.00 746.65 160.00 757.32 159.99 767.99 C 149.33 767.99 138.67 767.99 128.01 768.01 C 128.00 778.66 128.00 789.32 127.99 799.99 C 117.33 799.99 106.67 799.99 96.01 800.01 C 96.00 810.66 96.00 821.32 95.99 831.99 C 85.33 831.99 74.67 831.99 64.01 832.01 C 64.02 853.33 63.97 874.66 64.00 895.99 C 53.34 896.00 42.67 896.00 32.00 896.00 C 32.00 863.99 31.99 832.00 32.00 800.00 C 42.66 799.99 53.33 799.99 63.99 800.00 C 64.00 789.32 64.00 778.66 64.01 768.01 C 74.67 767.99 85.33 767.99 95.99 767.99 C 96.00 757.32 96.00 746.66 96.01 736.01 C 106.67 736.00 117.33 735.99 127.99 735.99 C 127.99 725.32 128.00 714.66 128.00 704.00 C 138.66 703.99 149.33 703.99 159.99 704.00 C 160.00 693.32 160.00 682.66 160.01 672.01 C 170.67 672.00 181.33 672.00 192.00 672.00 C 202.66 671.99 213.33 671.99 224.00 672.00 C 224.00 661.33 224.00 650.66 224.00 640.00 C 234.67 639.99 245.33 639.99 256.00 640.00 C 256.00 576.00 256.00 512.00 256.00 448.00 C 256.00 437.33 256.00 426.66 256.00 416.00 C 256.00 405.33 256.00 394.66 256.00 384.00 C 256.00 373.33 256.00 362.66 256.00 352.00 C 255.99 341.33 255.99 330.66 256.00 320.00 C 256.00 309.33 256.00 298.66 256.00 288.00 Z" />
<path fill="#000000" opacity="1.00" d=" M 128.28 352.28 C 138.85 352.05 149.42 351.98 160.00 351.97 C 170.57 351.98 181.15 352.05 191.72 352.28 C 191.92 362.85 191.99 373.42 192.02 384.00 C 192.03 394.66 192.02 405.33 192.00 416.00 C 181.33 416.00 170.66 416.00 160.00 416.00 C 160.01 448.00 159.99 480.00 160.00 512.00 C 160.00 522.66 160.00 533.33 160.00 544.00 C 149.33 543.99 138.67 543.99 128.00 544.00 C 127.99 512.00 128.00 480.00 128.00 448.00 C 128.01 437.33 128.01 426.66 128.00 416.00 C 127.98 405.33 127.97 394.66 127.98 384.00 C 128.00 373.42 128.08 362.85 128.28 352.28 Z" />
<path fill="#000000" opacity="1.00" d=" M 352.28 352.28 C 362.85 352.05 373.42 351.98 384.00 351.97 C 394.57 351.98 405.14 352.05 415.72 352.28 C 415.92 362.85 415.99 373.42 416.02 384.00 C 416.03 394.66 416.02 405.33 416.00 416.00 C 405.33 416.00 394.66 416.00 384.00 416.00 C 384.02 448.00 383.97 480.00 384.00 512.00 C 373.33 512.00 362.66 512.00 352.00 511.99 C 352.01 490.66 351.99 469.33 352.00 448.00 C 352.01 437.33 352.01 426.66 352.00 416.00 C 351.98 405.33 351.97 394.66 351.98 384.00 C 352.00 373.42 352.07 362.85 352.28 352.28 Z" />
<path fill="#000000" opacity="1.00" d=" M 576.28 352.28 C 586.84 352.05 597.42 351.98 608.00 351.97 C 618.57 351.98 629.14 352.05 639.72 352.28 C 639.92 362.85 639.99 373.42 640.02 384.00 C 640.03 394.66 640.01 405.33 640.00 416.00 C 629.32 416.00 618.66 416.00 608.00 416.00 C 608.01 448.00 607.98 480.00 608.00 512.00 C 608.00 522.66 607.99 533.33 608.00 544.00 C 597.33 543.99 586.66 543.99 576.00 544.00 C 575.99 512.00 576.00 480.00 576.00 448.00 C 576.00 437.33 576.00 426.66 576.00 416.00 C 575.98 405.33 575.97 394.66 575.98 384.00 C 576.00 373.42 576.07 362.85 576.28 352.28 Z" />
</g>
<g id="#ff6b00ff">
<path fill="#ff6b00" opacity="1.00" d=" M 32.01 320.00 C 42.68 320.00 53.34 319.99 64.00 320.00 C 64.00 330.67 64.00 341.33 64.00 352.00 C 53.33 352.00 42.67 351.99 32.00 352.00 C 32.02 341.33 32.03 330.66 32.01 320.00 Z" />
<path fill="#ff6b00" opacity="1.00" d=" M 96.01 320.00 C 106.67 319.99 117.33 320.00 128.00 320.02 C 128.00 330.67 128.01 341.33 128.00 352.00 C 117.33 352.00 106.66 352.00 96.00 352.00 C 96.00 341.33 96.00 330.66 96.01 320.00 Z" />
<path fill="#ff6b00" opacity="1.00" d=" M 160.01 320.00 C 170.67 319.99 181.33 320.00 191.99 320.02 C 191.99 330.67 192.00 341.33 192.01 352.00 C 202.67 351.99 213.33 352.00 224.00 352.00 C 223.99 362.66 223.99 373.33 224.00 384.00 C 213.34 384.00 202.68 384.00 192.02 384.00 C 191.99 373.42 191.92 362.85 191.72 352.28 C 181.15 352.05 170.57 351.98 160.00 351.97 C 160.00 341.31 160.00 330.65 160.01 320.00 Z" />
<path fill="#ff6b00" opacity="1.00" d=" M 224.00 320.01 C 234.67 319.99 245.33 320.00 256.00 320.00 C 255.99 330.66 255.99 341.33 256.00 352.00 C 245.33 352.00 234.66 352.00 224.00 352.00 C 224.00 341.33 224.00 330.67 224.00 320.01 Z" />
<path fill="#ff6b00" opacity="1.00" d=" M 320.00 320.00 C 330.66 320.00 341.33 320.00 352.00 320.00 C 351.99 330.66 352.00 341.33 352.00 352.00 C 341.33 351.99 330.66 352.00 320.00 352.00 C 319.99 341.33 320.00 330.66 320.00 320.00 Z" />
<path fill="#ff6b00" opacity="1.00" d=" M 384.01 320.00 C 394.67 319.99 405.33 320.00 415.99 320.02 C 415.99 330.67 416.00 341.33 416.01 352.00 C 426.67 351.99 437.33 352.00 448.00 352.00 C 447.99 362.66 447.99 373.33 448.00 384.00 C 437.34 384.00 426.67 384.00 416.02 384.00 C 415.99 373.42 415.92 362.85 415.72 352.28 C 405.14 352.05 394.57 351.98 384.00 351.97 C 383.99 341.31 384.00 330.65 384.01 320.00 Z" />
<path fill="#ff6b00" opacity="1.00" d=" M 448.00 320.01 C 458.66 319.99 469.33 320.00 480.00 320.00 C 479.99 330.66 479.99 341.33 480.00 352.00 C 469.33 352.00 458.66 352.00 448.00 352.00 C 448.00 341.33 448.00 330.67 448.00 320.01 Z" />
<path fill="#ff6b00" opacity="1.00" d=" M 544.00 320.00 C 554.66 320.00 565.33 320.00 576.00 320.00 C 575.99 330.66 576.00 341.33 576.00 352.00 C 565.33 351.99 554.66 352.00 544.00 352.00 C 543.99 341.33 543.99 330.66 544.00 320.00 Z" />
<path fill="#ff6b00" opacity="1.00" d=" M 608.01 320.00 C 618.67 319.99 629.33 320.00 639.99 320.02 C 639.99 330.67 640.00 341.33 640.01 352.00 C 650.67 351.99 661.33 352.00 672.00 352.00 C 671.99 362.66 671.99 373.33 672.00 384.00 C 661.33 384.00 650.67 384.00 640.02 384.00 C 639.99 373.42 639.92 362.85 639.72 352.28 C 629.14 352.05 618.57 351.98 608.00 351.97 C 607.99 341.31 607.99 330.65 608.01 320.00 Z" />
<path fill="#ff6b00" opacity="1.00" d=" M 672.00 320.01 C 682.66 319.99 693.33 320.00 704.00 320.00 C 703.99 330.66 703.99 341.33 704.00 352.00 C 693.33 352.00 682.66 352.00 672.00 352.00 C 672.00 341.33 672.00 330.67 672.00 320.01 Z" />
<path fill="#ff6b00" opacity="1.00" d=" M 768.00 320.00 C 778.66 320.00 789.32 320.00 800.00 320.00 C 800.00 330.66 800.00 341.33 800.00 352.00 C 789.32 352.00 778.66 352.00 768.00 352.00 C 767.99 341.33 767.99 330.66 768.00 320.00 Z" />
<path fill="#ff6b00" opacity="1.00" d=" M 832.01 320.00 C 842.66 320.00 853.33 320.00 864.00 320.00 C 863.98 330.66 863.98 341.33 864.00 352.00 C 853.33 352.00 842.66 352.00 832.00 352.00 C 831.97 341.33 831.99 330.66 832.01 320.00 Z" />
<path fill="#ff6b00" opacity="1.00" d=" M 896.01 320.00 C 906.66 320.00 917.32 319.99 928.00 320.00 C 927.99 330.66 927.99 341.33 928.00 352.00 C 917.32 352.00 906.66 352.00 896.00 352.00 C 895.99 341.33 896.00 330.66 896.01 320.00 Z" />
<path fill="#ff6b00" opacity="1.00" d=" M 960.00 320.00 C 970.66 320.00 981.32 319.99 992.00 320.00 C 991.98 330.66 991.98 341.33 992.00 352.00 C 981.32 352.00 970.66 352.00 960.00 352.00 C 959.99 341.33 959.99 330.67 960.00 320.00 Z" />
<path fill="#ff6b00" opacity="1.00" d=" M 64.00 352.00 C 74.67 352.00 85.33 352.00 96.00 352.00 C 96.00 362.66 95.99 373.33 96.00 384.00 C 85.33 384.00 74.67 384.00 64.00 384.00 C 64.00 373.33 64.01 362.66 64.00 352.00 Z" />
<path fill="#ff6b00" opacity="1.00" d=" M 288.00 352.00 C 298.66 352.00 309.33 352.00 320.00 352.00 C 320.00 362.66 320.00 373.33 320.00 384.00 C 309.33 384.00 298.67 384.00 288.00 384.00 C 288.00 373.33 287.99 362.66 288.00 352.00 Z" />
<path fill="#ff6b00" opacity="1.00" d=" M 512.00 352.00 C 522.66 352.00 533.33 352.00 544.00 352.00 C 544.00 362.66 543.99 373.33 544.00 384.00 C 533.33 384.00 522.66 384.00 512.00 384.00 C 511.99 373.33 511.99 362.66 512.00 352.00 Z" />
<path fill="#ff6b00" opacity="1.00" d=" M 736.00 352.00 C 746.66 352.00 757.32 352.00 768.00 352.00 C 767.99 362.66 767.99 373.33 768.00 384.00 C 757.33 384.00 746.66 384.00 736.00 384.00 C 735.99 373.33 735.99 362.66 736.00 352.00 Z" />
<path fill="#ff6b00" opacity="1.00" d=" M 800.00 352.00 C 810.66 352.00 821.33 352.00 832.00 352.00 C 832.00 362.66 831.99 373.33 832.00 384.00 C 821.33 384.00 810.66 384.00 800.00 384.00 C 799.99 373.33 799.99 362.66 800.00 352.00 Z" />
<path fill="#ff6b00" opacity="1.00" d=" M 864.00 352.00 C 874.66 352.00 885.32 352.00 896.00 352.00 C 895.99 362.66 895.99 373.33 896.00 384.00 C 885.32 384.00 874.66 384.00 864.00 384.00 C 863.99 373.33 863.99 362.66 864.00 352.00 Z" />
<path fill="#ff6b00" opacity="1.00" d=" M 928.00 352.00 C 938.66 352.00 949.32 352.00 960.00 352.00 C 959.99 362.66 959.98 373.33 960.00 384.00 C 949.32 384.00 938.66 384.00 928.00 384.00 C 928.00 373.33 928.00 362.66 928.00 352.00 Z" />
<path fill="#ff6b00" opacity="1.00" d=" M 32.00 384.00 C 42.67 384.00 53.33 384.00 64.00 384.00 C 64.00 394.66 64.01 405.33 64.00 416.00 C 53.33 416.00 42.67 416.00 32.00 416.00 C 32.00 405.33 32.00 394.66 32.00 384.00 Z" />
<path fill="#ff6b00" opacity="1.00" d=" M 96.00 384.00 C 106.66 384.00 117.32 384.00 127.98 384.00 C 127.97 394.66 127.98 405.33 128.00 416.00 C 117.33 416.00 106.66 416.00 96.00 416.00 C 95.99 405.33 95.99 394.66 96.00 384.00 Z" />
<path fill="#ff6b00" opacity="1.00" d=" M 224.00 384.00 C 234.67 384.00 245.33 384.00 256.00 384.00 C 256.00 394.66 256.00 405.33 256.00 416.00 C 245.33 416.00 234.66 416.00 224.00 416.00 C 223.99 405.33 223.99 394.66 224.00 384.00 Z" />
<path fill="#ff6b00" opacity="1.00" d=" M 320.00 384.00 C 330.66 384.00 341.32 384.00 351.98 384.00 C 351.97 394.66 351.98 405.33 352.00 416.00 C 341.33 416.00 330.66 416.00 320.00 416.00 C 319.99 405.33 319.99 394.66 320.00 384.00 Z" />
<path fill="#ff6b00" opacity="1.00" d=" M 448.00 384.00 C 458.66 384.00 469.33 384.00 480.00 384.00 C 480.00 394.66 479.99 405.33 480.00 416.00 C 469.33 416.00 458.66 416.00 448.00 416.00 C 447.99 405.33 447.99 394.66 448.00 384.00 Z" />
<path fill="#ff6b00" opacity="1.00" d=" M 544.00 384.00 C 554.66 384.00 565.32 384.00 575.98 384.00 C 575.97 394.66 575.98 405.33 576.00 416.00 C 565.33 416.00 554.66 416.00 544.00 416.00 C 543.99 405.33 543.99 394.66 544.00 384.00 Z" />
<path fill="#ff6b00" opacity="1.00" d=" M 672.00 384.00 C 682.66 384.00 693.33 384.00 704.00 384.00 C 703.99 394.66 703.99 405.33 704.00 416.00 C 693.33 416.00 682.66 416.00 672.00 416.00 C 671.99 405.33 671.99 394.66 672.00 384.00 Z" />
<path fill="#ff6b00" opacity="1.00" d=" M 768.00 384.00 C 778.66 384.00 789.33 384.00 800.00 384.00 C 800.00 394.66 800.00 405.33 800.00 416.00 C 789.33 416.00 778.66 416.00 768.00 416.00 C 767.98 405.33 767.99 394.66 768.00 384.00 Z" />
<path fill="#ff6b00" opacity="1.00" d=" M 832.00 384.00 C 842.66 384.00 853.32 384.00 864.00 384.00 C 863.99 394.66 864.00 405.33 864.00 416.00 C 853.32 416.00 842.66 416.00 832.00 416.00 C 831.98 405.33 831.99 394.66 832.00 384.00 Z" />
<path fill="#ff6b00" opacity="1.00" d=" M 896.00 384.00 C 906.66 384.00 917.32 384.00 928.00 384.00 C 927.99 394.66 927.99 405.33 928.00 416.00 C 917.32 416.00 906.66 416.00 896.00 416.00 C 895.98 405.33 895.99 394.66 896.00 384.00 Z" />
<path fill="#ff6b00" opacity="1.00" d=" M 960.00 384.00 C 970.66 384.00 981.32 384.00 992.00 384.00 C 991.99 394.66 991.99 405.33 992.00 416.00 C 981.32 416.00 970.66 416.00 960.00 416.00 C 959.98 405.33 959.98 394.66 960.00 384.00 Z" />
<path fill="#ff6b00" opacity="1.00" d=" M 64.00 416.00 C 74.67 416.00 85.33 416.00 96.00 416.00 C 96.00 426.66 96.00 437.33 96.00 448.00 C 106.67 448.00 117.33 447.99 128.00 448.00 C 128.00 480.00 127.99 512.00 128.00 544.00 C 128.00 554.66 127.99 565.33 128.00 576.00 C 138.66 576.00 149.33 575.99 159.99 576.00 C 160.00 565.33 160.00 554.66 160.00 544.00 C 160.00 533.33 160.00 522.66 160.00 512.00 C 170.67 512.01 181.33 512.00 192.00 512.00 C 202.67 511.99 213.33 512.00 224.00 512.00 C 224.00 501.33 224.00 490.67 224.00 480.01 C 213.33 480.00 202.66 479.99 192.00 480.00 C 192.00 458.66 192.00 437.33 192.00 416.00 C 202.66 415.99 213.33 415.99 224.00 416.00 C 224.00 426.66 224.00 437.33 224.00 448.00 C 234.67 447.99 245.33 447.99 256.00 448.00 C 256.00 512.00 256.00 576.00 256.00 640.00 C 245.33 639.99 234.67 639.99 224.00 640.00 C 213.33 640.00 202.67 640.00 192.00 640.00 C 192.00 629.33 192.00 618.66 192.00 608.00 C 181.33 607.99 170.66 607.99 160.00 608.00 C 160.01 618.66 160.01 629.33 160.02 640.00 C 149.35 639.99 138.67 639.99 128.00 640.00 C 128.00 629.33 128.00 618.66 128.00 608.00 C 117.33 607.99 106.67 607.99 96.01 608.00 C 96.00 618.66 96.00 629.33 96.00 640.00 C 85.33 639.99 74.67 639.99 64.00 640.00 C 64.00 629.33 64.00 618.66 64.00 608.00 C 53.33 607.99 42.67 608.00 32.00 608.00 C 32.00 554.66 32.00 501.33 32.00 448.00 C 42.67 447.99 53.33 448.00 64.00 448.00 C 64.00 437.33 64.00 426.66 64.00 416.00 M 63.99 479.99 C 64.01 490.66 64.02 501.33 63.99 512.01 C 74.66 511.98 85.33 511.98 96.01 512.01 C 95.99 501.33 95.98 490.66 96.01 479.99 C 85.33 480.01 74.66 480.01 63.99 479.99 M 63.99 543.99 C 64.01 554.66 64.02 565.33 63.99 576.01 C 74.66 575.98 85.33 575.98 96.01 576.01 C 95.99 565.33 95.98 554.66 96.01 543.99 C 85.33 544.01 74.66 544.01 63.99 543.99 M 191.99 543.99 C 192.01 554.66 192.01 565.33 191.99 576.01 C 202.66 575.98 213.33 575.98 224.01 576.01 C 223.98 565.33 223.98 554.66 224.01 543.99 C 213.33 544.01 202.66 544.01 191.99 543.99 Z" />
<path fill="#ff6b00" opacity="1.00" d=" M 288.00 416.00 C 298.66 416.00 309.33 416.00 320.00 416.00 C 320.00 426.66 320.00 437.33 320.00 448.00 C 330.66 447.99 341.33 447.99 352.00 448.00 C 351.99 469.33 352.01 490.66 352.00 511.99 C 362.66 512.00 373.33 512.00 384.00 512.00 C 383.99 522.66 383.99 533.33 384.00 544.00 C 394.66 544.00 405.33 543.99 415.99 544.00 C 415.99 533.33 416.00 522.66 416.00 512.00 C 426.66 512.00 437.33 511.99 448.00 512.00 C 448.00 501.33 447.99 490.67 448.00 480.01 C 437.33 480.00 426.66 479.99 416.00 480.00 C 415.99 458.66 416.00 437.33 416.00 416.00 C 426.66 415.99 437.33 415.99 448.00 416.00 C 448.00 426.66 448.00 437.33 448.00 448.00 C 458.66 447.99 469.33 447.99 480.00 448.00 C 480.00 501.33 480.00 554.67 480.00 608.00 C 469.33 607.99 458.66 607.99 448.00 608.01 C 448.00 618.66 448.00 629.33 448.00 640.00 C 437.33 639.99 426.66 639.99 416.00 640.00 C 416.00 629.32 416.00 618.66 415.99 608.00 C 405.33 607.99 394.67 607.99 384.01 608.00 C 384.00 618.67 384.00 629.34 384.00 640.02 C 373.43 639.98 362.86 639.90 352.29 639.72 C 352.07 629.14 351.99 618.57 351.94 608.00 C 341.29 608.00 330.64 608.00 320.00 608.00 C 309.33 607.99 298.67 607.98 288.00 608.00 C 288.00 597.33 288.00 586.66 288.00 576.00 C 298.66 575.99 309.33 576.00 320.00 575.99 C 320.00 565.33 320.00 554.67 320.00 544.01 C 309.33 543.99 298.66 543.99 288.00 544.00 C 288.00 533.33 288.00 522.66 288.00 512.00 C 298.66 512.00 309.33 512.00 320.00 511.99 C 320.00 501.33 320.00 490.67 320.00 480.01 C 309.33 480.00 298.66 479.99 288.00 480.00 C 288.00 458.66 288.00 437.33 288.00 416.00 M 351.99 543.97 C 352.01 554.65 352.01 565.32 351.99 576.01 C 362.68 575.98 373.36 575.97 384.05 576.01 C 383.92 565.37 384.77 554.63 383.06 544.08 C 372.70 543.66 362.34 543.96 351.99 543.97 M 416.08 544.94 C 415.66 555.29 415.96 565.65 415.97 576.01 C 426.65 575.98 437.33 575.98 448.01 576.01 C 447.98 565.32 447.97 554.63 448.01 543.95 C 437.37 544.07 426.63 543.22 416.08 544.94 Z" />
<path fill="#ff6b00" opacity="1.00" d=" M 512.00 416.00 C 522.66 416.00 533.33 416.00 544.00 416.00 C 543.99 426.66 544.00 437.33 544.00 448.00 C 554.66 448.00 565.33 447.99 576.00 448.00 C 576.00 480.00 575.99 512.00 576.00 544.00 C 575.99 554.66 575.99 565.33 576.00 576.00 C 586.66 576.00 597.32 575.99 607.99 576.00 C 607.99 565.33 607.99 554.66 608.00 544.00 C 607.99 533.33 608.00 522.66 608.00 512.00 C 618.66 512.01 629.33 512.00 640.00 512.00 C 650.66 511.99 661.33 512.00 672.00 512.00 C 672.00 501.33 671.99 490.67 672.00 480.01 C 661.33 480.00 650.66 479.99 640.00 480.00 C 640.00 458.66 640.00 437.33 640.00 416.00 C 650.66 415.99 661.32 415.99 672.00 416.00 C 671.99 426.66 672.00 437.33 672.00 448.00 C 682.66 448.00 693.33 447.99 704.00 448.00 C 704.00 501.33 704.00 554.66 704.00 607.99 C 693.33 607.99 682.66 608.00 672.01 608.01 C 671.99 618.66 671.99 629.32 671.99 639.99 C 661.32 639.99 650.66 640.00 640.01 640.01 C 640.00 650.66 639.99 661.33 639.99 672.00 C 629.32 671.99 618.66 671.99 608.00 672.00 C 608.00 661.33 608.00 650.68 608.00 640.02 C 618.56 639.98 629.14 639.91 639.72 639.72 C 639.91 629.14 639.99 618.57 640.05 608.00 C 629.37 607.99 618.69 607.99 608.01 608.00 C 608.00 618.67 607.99 629.34 608.00 640.02 C 597.33 640.01 586.66 640.00 576.00 640.00 C 576.00 629.32 576.00 618.66 575.99 608.00 C 565.33 607.99 554.67 607.99 544.02 608.00 C 544.00 618.66 543.98 629.33 543.97 640.00 C 533.31 639.99 522.65 639.99 512.00 640.00 C 511.98 618.66 512.01 597.33 512.00 576.00 C 522.66 575.99 533.33 576.00 544.00 575.99 C 544.00 565.33 543.99 554.67 544.00 544.01 C 533.33 543.99 522.66 543.99 512.00 544.00 C 511.99 533.33 511.99 522.66 512.00 512.00 C 522.66 512.00 533.33 512.00 544.00 511.99 C 544.00 501.33 543.99 490.67 544.00 480.01 C 533.33 480.00 522.66 479.99 512.00 480.00 C 512.00 458.66 512.00 437.33 512.00 416.00 M 639.99 543.99 C 640.01 554.66 640.01 565.33 639.99 576.01 C 650.66 575.98 661.33 575.98 672.01 576.01 C 671.98 565.33 671.98 554.66 672.01 543.99 C 661.33 544.01 650.66 544.01 639.99 543.99 Z" />
<path fill="#ff6b00" opacity="1.00" d=" M 736.00 416.00 C 746.66 416.00 757.32 416.00 768.00 416.00 C 767.99 426.66 767.99 437.33 768.00 448.00 C 778.66 448.00 789.32 447.99 799.99 448.00 C 799.99 437.33 799.99 426.66 800.00 416.00 C 810.66 416.00 821.32 416.00 832.00 416.00 C 831.99 426.66 831.99 437.33 832.00 448.00 C 842.66 448.00 853.32 447.99 863.99 448.00 C 863.99 437.33 863.99 426.66 864.00 416.00 C 874.66 416.00 885.32 416.00 896.00 416.00 C 895.99 426.66 895.99 437.33 896.00 448.00 C 906.66 448.00 917.32 447.99 927.99 448.00 C 927.98 437.33 927.99 426.66 928.00 416.00 C 938.66 416.00 949.32 416.00 960.00 416.00 C 959.99 426.66 959.99 437.33 960.00 448.00 C 970.66 447.99 981.32 447.99 992.00 448.00 C 992.00 501.33 992.00 554.67 992.00 608.00 C 981.32 607.99 970.66 607.99 960.00 608.01 C 959.99 618.66 959.99 629.33 960.00 640.00 C 949.32 639.99 938.66 639.99 928.00 640.00 C 928.00 629.33 927.99 618.66 927.99 608.00 C 917.32 607.99 906.66 608.00 896.00 608.00 C 896.00 597.33 896.00 586.66 896.00 576.00 C 895.99 565.33 896.00 554.66 896.00 544.00 C 885.32 543.99 874.66 544.00 864.01 544.00 C 863.99 554.66 863.99 565.33 864.00 576.00 C 863.99 586.66 863.99 597.33 864.00 608.00 C 853.33 607.99 842.66 607.99 832.00 608.00 C 832.00 597.33 831.99 586.66 832.00 576.00 C 832.00 565.33 832.00 554.66 831.99 544.00 C 821.32 543.99 810.66 544.00 800.01 544.00 C 799.99 554.66 799.99 565.33 800.00 576.00 C 799.99 586.66 799.99 597.33 800.00 608.00 C 789.32 608.00 778.66 608.00 768.00 608.00 C 757.33 607.99 746.66 607.99 736.00 608.00 C 735.99 597.33 735.99 586.66 736.00 576.00 C 746.66 575.99 757.32 576.00 768.00 575.99 C 768.00 565.33 767.99 554.67 768.00 544.01 C 757.32 543.99 746.66 543.99 736.00 544.00 C 736.00 533.33 736.00 522.66 736.00 512.00 C 746.66 512.00 757.32 512.00 768.00 511.99 C 768.00 501.33 767.99 490.67 768.00 480.01 C 757.32 480.00 746.66 479.99 736.00 480.00 C 736.00 458.66 736.00 437.33 736.00 416.00 M 799.99 479.99 C 800.01 490.66 800.01 501.33 799.99 512.01 C 810.66 511.98 821.33 511.98 832.01 512.01 C 831.98 501.33 831.97 490.66 832.01 479.99 C 821.33 480.01 810.66 480.01 799.99 479.99 M 863.99 479.99 C 864.00 490.66 864.01 501.33 863.99 512.01 C 874.66 511.98 885.33 511.98 896.01 512.01 C 895.98 501.33 895.97 490.66 896.01 479.99 C 885.33 480.01 874.65 480.01 863.99 479.99 M 927.99 479.99 C 928.00 490.66 928.01 501.33 927.99 512.01 C 938.66 511.98 949.33 511.98 960.01 512.01 C 959.98 501.33 959.97 490.66 960.01 479.99 C 949.32 480.01 938.65 480.01 927.99 479.99 M 927.99 543.99 C 928.00 554.66 928.01 565.33 927.99 576.01 C 938.66 575.98 949.33 575.98 960.01 576.01 C 959.98 565.33 959.97 554.66 960.01 543.99 C 949.32 544.01 938.65 544.01 927.99 543.99 Z" />
<path fill="#ff6b00" opacity="1.00" d=" M 32.00 640.00 C 42.67 639.99 53.33 639.99 64.00 640.00 C 64.00 650.66 64.00 661.33 64.00 672.00 C 53.33 671.99 42.67 671.99 32.00 672.00 C 32.00 661.33 32.00 650.66 32.00 640.00 Z" />
<path fill="#ff6b00" opacity="1.00" d=" M 96.00 640.00 C 106.66 639.99 117.33 639.99 128.00 640.00 C 128.00 650.67 128.00 661.34 128.00 672.03 C 117.33 672.01 106.67 672.00 96.00 672.00 C 96.00 661.32 96.00 650.66 96.00 640.00 Z" />
<path fill="#ff6b00" opacity="1.00" d=" M 160.02 640.00 C 170.68 639.99 181.34 639.99 192.00 640.00 C 192.01 650.66 192.00 661.32 192.00 672.00 C 181.33 672.00 170.67 672.00 160.01 672.01 C 160.00 682.66 160.00 693.32 159.99 704.00 C 149.33 703.99 138.66 703.99 128.00 704.00 C 128.00 693.33 128.01 682.68 128.00 672.03 C 138.57 671.98 149.15 671.90 159.72 671.72 C 159.90 661.14 159.98 650.57 160.02 640.00 Z" />
<path fill="#ff6b00" opacity="1.00" d=" M 384.00 640.02 C 394.66 640.01 405.33 640.00 416.00 640.00 C 415.99 650.66 415.99 661.32 416.00 672.00 C 405.33 672.00 394.66 672.00 384.00 672.00 C 383.99 661.33 383.99 650.68 384.00 640.02 Z" />
<path fill="#ff6b00" opacity="1.00" d=" M 448.00 640.00 C 458.66 639.99 469.33 639.99 480.00 640.00 C 479.99 650.66 480.00 661.32 480.00 672.00 C 469.33 671.99 458.66 672.00 448.00 672.00 C 448.00 661.33 448.00 650.66 448.00 640.00 Z" />
<path fill="#ff6b00" opacity="1.00" d=" M 543.97 640.00 C 554.64 639.99 565.32 639.99 576.00 640.00 C 576.00 650.68 576.00 661.36 576.00 672.05 C 565.42 671.99 554.85 671.91 544.28 671.72 C 544.08 661.14 544.00 650.57 543.97 640.00 Z" />
<path fill="#ff6b00" opacity="1.00" d=" M 896.00 640.00 C 906.66 639.99 917.33 639.99 928.00 640.00 C 928.00 650.66 927.99 661.32 927.99 672.00 C 917.32 672.00 906.65 671.99 895.99 672.00 C 895.99 661.33 896.01 650.66 896.00 640.00 Z" />
<path fill="#ff6b00" opacity="1.00" d=" M 960.00 640.00 C 970.65 639.99 981.32 639.99 992.00 640.00 C 991.99 650.66 991.99 661.33 992.00 672.00 C 981.32 671.99 970.66 671.99 960.01 672.00 C 959.99 661.32 959.98 650.66 960.00 640.00 Z" />
<path fill="#ff6b00" opacity="1.00" d=" M 64.00 672.00 C 74.67 671.99 85.33 671.99 96.00 672.00 C 96.00 682.66 96.00 693.32 95.99 704.00 C 85.33 703.99 74.67 704.00 64.00 704.00 C 64.00 693.33 64.00 682.66 64.00 672.00 Z" />
</g>
<g id="#e00036ff">
<path fill="#e00036" opacity="1.00" d=" M 63.99 543.99 C 74.66 544.01 85.33 544.01 96.01 543.99 C 95.98 554.66 95.99 565.33 96.01 576.01 C 85.33 575.98 74.66 575.98 63.99 576.01 C 64.02 565.33 64.01 554.66 63.99 543.99 Z" />
<path fill="#e00036" opacity="1.00" d=" M 128.00 544.00 C 138.67 543.99 149.33 543.99 160.00 544.00 C 160.00 554.66 160.00 565.33 159.99 576.00 C 149.33 575.99 138.66 576.00 128.00 576.00 C 127.99 565.33 128.00 554.66 128.00 544.00 Z" />
<path fill="#e00036" opacity="1.00" d=" M 191.99 543.99 C 202.66 544.01 213.33 544.01 224.01 543.99 C 223.98 554.66 223.98 565.33 224.01 576.01 C 213.33 575.98 202.66 575.98 191.99 576.01 C 192.01 565.33 192.01 554.66 191.99 543.99 Z" />
<path fill="#e00036" opacity="1.00" d=" M 288.00 544.00 C 298.66 543.99 309.33 543.99 320.00 544.01 C 320.00 554.67 320.00 565.33 320.00 575.99 C 309.33 576.00 298.66 575.99 288.00 576.00 C 287.99 565.33 287.99 554.66 288.00 544.00 Z" />
<path fill="#e00036" opacity="1.00" d=" M 351.99 543.97 C 362.34 543.96 372.70 543.66 383.06 544.08 C 384.77 554.63 383.92 565.37 384.05 576.01 C 373.36 575.97 362.68 575.98 351.99 576.01 C 352.01 565.32 352.01 554.65 351.99 543.97 Z" />
<path fill="#e00036" opacity="1.00" d=" M 416.08 544.94 C 426.63 543.22 437.37 544.07 448.01 543.95 C 447.97 554.63 447.98 565.32 448.01 576.01 C 437.33 575.98 426.65 575.98 415.97 576.01 C 415.96 565.65 415.66 555.29 416.08 544.94 Z" />
<path fill="#e00036" opacity="1.00" d=" M 512.00 544.00 C 522.66 543.99 533.33 543.99 544.00 544.01 C 543.99 554.67 544.00 565.33 544.00 575.99 C 533.33 576.00 522.66 575.99 512.00 576.00 C 511.99 565.33 512.00 554.66 512.00 544.00 Z" />
<path fill="#e00036" opacity="1.00" d=" M 576.00 544.00 C 586.66 543.99 597.33 543.99 608.00 544.00 C 607.99 554.66 607.99 565.33 607.99 576.00 C 597.32 575.99 586.66 576.00 576.00 576.00 C 575.99 565.33 575.99 554.66 576.00 544.00 Z" />
<path fill="#e00036" opacity="1.00" d=" M 639.99 543.99 C 650.66 544.01 661.33 544.01 672.01 543.99 C 671.98 554.66 671.98 565.33 672.01 576.01 C 661.33 575.98 650.66 575.98 639.99 576.01 C 640.01 565.33 640.01 554.66 639.99 543.99 Z" />
<path fill="#e00036" opacity="1.00" d=" M 736.00 544.00 C 746.66 543.99 757.32 543.99 768.00 544.01 C 767.99 554.67 768.00 565.33 768.00 575.99 C 757.32 576.00 746.66 575.99 736.00 576.00 C 735.99 565.33 735.99 554.66 736.00 544.00 Z" />
<path fill="#e00036" opacity="1.00" d=" M 800.01 544.00 C 810.66 544.00 821.32 543.99 831.99 544.00 C 832.00 554.66 832.00 565.33 832.00 576.00 C 821.32 575.99 810.66 575.99 800.00 576.00 C 799.99 565.33 799.99 554.66 800.01 544.00 Z" />
<path fill="#e00036" opacity="1.00" d=" M 864.01 544.00 C 874.66 544.00 885.32 543.99 896.00 544.00 C 896.00 554.66 895.99 565.33 896.00 576.00 C 885.32 575.99 874.66 575.99 864.00 576.00 C 863.99 565.33 863.99 554.66 864.01 544.00 Z" />
<path fill="#e00036" opacity="1.00" d=" M 927.99 543.99 C 938.65 544.01 949.32 544.01 960.01 543.99 C 959.97 554.66 959.98 565.33 960.01 576.01 C 949.33 575.98 938.66 575.98 927.99 576.01 C 928.01 565.33 928.00 554.66 927.99 543.99 Z" />
<path fill="#e00036" opacity="1.00" d=" M 32.00 608.00 C 42.67 608.00 53.33 607.99 64.00 608.00 C 64.00 618.66 64.00 629.33 64.00 640.00 C 53.33 639.99 42.67 639.99 32.00 640.00 C 32.00 629.33 32.00 618.66 32.00 608.00 Z" />
<path fill="#e00036" opacity="1.00" d=" M 96.01 608.00 C 106.67 607.99 117.33 607.99 128.00 608.00 C 128.00 618.66 128.00 629.33 128.00 640.00 C 117.33 639.99 106.66 639.99 96.00 640.00 C 96.00 629.33 96.00 618.66 96.01 608.00 Z" />
<path fill="#e00036" opacity="1.00" d=" M 160.00 608.00 C 170.66 607.99 181.33 607.99 192.00 608.00 C 192.00 618.66 192.00 629.33 192.00 640.00 C 181.34 639.99 170.68 639.99 160.02 640.00 C 160.01 629.33 160.01 618.66 160.00 608.00 Z" />
<path fill="#e00036" opacity="1.00" d=" M 320.00 608.00 C 330.64 608.00 341.29 608.00 351.94 608.00 C 351.99 618.57 352.07 629.14 352.29 639.72 C 362.86 639.90 373.43 639.98 384.00 640.02 C 383.99 650.68 383.99 661.33 384.00 672.00 C 373.33 671.99 362.67 671.99 352.01 671.99 C 352.00 661.32 351.99 650.66 351.99 640.01 C 341.33 640.00 330.66 639.99 320.00 639.99 C 320.00 629.32 320.00 618.66 320.00 608.00 Z" />
<path fill="#e00036" opacity="1.00" d=" M 384.01 608.00 C 394.67 607.99 405.33 607.99 415.99 608.00 C 416.00 618.66 416.00 629.32 416.00 640.00 C 405.33 640.00 394.66 640.01 384.00 640.02 C 384.00 629.34 384.00 618.67 384.01 608.00 Z" />
<path fill="#e00036" opacity="1.00" d=" M 448.00 608.01 C 458.66 607.99 469.33 607.99 480.00 608.00 C 480.00 618.66 480.00 629.33 480.00 640.00 C 469.33 639.99 458.66 639.99 448.00 640.00 C 448.00 629.33 448.00 618.66 448.00 608.01 Z" />
<path fill="#e00036" opacity="1.00" d=" M 544.02 608.00 C 554.67 607.99 565.33 607.99 575.99 608.00 C 576.00 618.66 576.00 629.32 576.00 640.00 C 565.32 639.99 554.64 639.99 543.97 640.00 C 543.98 629.33 544.00 618.66 544.02 608.00 Z" />
<path fill="#e00036" opacity="1.00" d=" M 608.01 608.00 C 618.69 607.99 629.37 607.99 640.05 608.00 C 639.99 618.57 639.91 629.14 639.72 639.72 C 629.14 639.91 618.56 639.98 608.00 640.02 C 607.99 629.34 608.00 618.67 608.01 608.00 Z" />
<path fill="#e00036" opacity="1.00" d=" M 768.00 608.00 C 778.66 608.00 789.32 608.00 800.00 608.00 C 800.00 618.66 799.99 629.33 799.99 640.00 C 789.32 639.99 778.66 640.00 768.00 640.00 C 767.99 629.33 767.99 618.66 768.00 608.00 Z" />
<path fill="#e00036" opacity="1.00" d=" M 832.00 608.00 C 842.66 607.99 853.33 607.99 864.00 608.00 C 864.00 618.66 863.99 629.33 863.99 640.00 C 853.32 639.99 842.66 640.00 832.01 640.00 C 831.98 629.33 831.98 618.66 832.00 608.00 Z" />
<path fill="#e00036" opacity="1.00" d=" M 896.00 608.00 C 906.66 608.00 917.32 607.99 927.99 608.00 C 927.99 618.66 928.00 629.33 928.00 640.00 C 917.33 639.99 906.66 639.99 896.00 640.00 C 895.98 629.33 895.99 618.66 896.00 608.00 Z" />
<path fill="#e00036" opacity="1.00" d=" M 960.00 608.01 C 970.66 607.99 981.32 607.99 992.00 608.00 C 991.99 618.66 991.99 629.33 992.00 640.00 C 981.32 639.99 970.65 639.99 960.00 640.00 C 959.99 629.33 959.99 618.66 960.00 608.01 Z" />
<path fill="#e00036" opacity="1.00" d=" M 64.00 640.00 C 74.67 639.99 85.33 639.99 96.00 640.00 C 96.00 650.66 96.00 661.32 96.00 672.00 C 85.33 671.99 74.67 671.99 64.00 672.00 C 64.00 661.33 64.00 650.66 64.00 640.00 Z" />
<path fill="#e00036" opacity="1.00" d=" M 128.00 640.00 C 138.67 639.99 149.35 639.99 160.02 640.00 C 159.98 650.57 159.90 661.14 159.72 671.72 C 149.15 671.90 138.57 671.98 128.00 672.03 C 128.00 661.34 128.00 650.67 128.00 640.00 Z" />
<path fill="#e00036" opacity="1.00" d=" M 192.00 640.00 C 202.67 640.00 213.33 640.00 224.00 640.00 C 224.00 650.66 224.00 661.33 224.00 672.00 C 213.33 671.99 202.66 671.99 192.00 672.00 C 192.00 661.32 192.01 650.66 192.00 640.00 Z" />
<path fill="#e00036" opacity="1.00" d=" M 416.00 640.00 C 426.66 639.99 437.33 639.99 448.00 640.00 C 448.00 650.66 448.00 661.33 448.00 672.00 C 447.99 682.66 448.00 693.32 447.99 704.00 C 437.33 703.99 426.66 704.00 416.00 704.00 C 415.99 693.32 416.00 682.66 416.00 672.00 C 415.99 661.32 415.99 650.66 416.00 640.00 Z" />
<path fill="#e00036" opacity="1.00" d=" M 512.00 640.00 C 522.65 639.99 533.31 639.99 543.97 640.00 C 544.00 650.57 544.08 661.14 544.28 671.72 C 554.85 671.91 565.42 671.99 576.00 672.05 C 576.00 661.36 576.00 650.68 576.00 640.00 C 586.66 640.00 597.33 640.01 608.00 640.02 C 608.00 650.68 608.00 661.33 608.00 672.00 C 607.99 682.66 608.00 693.33 608.00 704.01 C 586.66 703.99 565.33 703.99 544.01 704.01 C 543.99 693.33 543.99 682.67 543.99 672.01 C 533.33 672.00 522.66 671.99 512.00 671.99 C 511.99 661.32 511.99 650.66 512.00 640.00 Z" />
<path fill="#e00036" opacity="1.00" d=" M 928.00 640.00 C 938.66 639.99 949.32 639.99 960.00 640.00 C 959.98 650.66 959.99 661.32 960.01 672.00 C 970.66 671.99 981.32 671.99 992.00 672.00 C 992.00 714.66 992.00 757.33 992.00 800.00 C 981.32 800.00 970.66 799.99 960.01 799.98 C 959.99 789.32 959.99 778.66 959.99 768.01 C 949.32 767.99 938.66 767.99 928.01 767.99 C 927.99 757.32 927.99 746.66 927.99 736.01 C 917.32 736.00 906.65 735.99 896.00 735.99 C 896.01 714.66 895.99 693.33 895.99 672.00 C 906.65 671.99 917.32 672.00 927.99 672.00 C 927.99 661.32 928.00 650.66 928.00 640.00 Z" />
<path fill="#e00036" opacity="1.00" d=" M 32.00 672.00 C 42.67 671.99 53.33 671.99 64.00 672.00 C 64.00 682.66 64.00 693.33 64.00 704.00 C 74.67 704.00 85.33 703.99 95.99 704.00 C 96.00 693.32 96.00 682.66 96.00 672.00 C 106.67 672.00 117.33 672.01 128.00 672.03 C 128.01 682.68 128.00 693.33 128.00 704.00 C 128.00 714.66 127.99 725.32 127.99 735.99 C 117.33 735.99 106.67 736.00 96.01 736.01 C 96.00 746.66 96.00 757.32 95.99 767.99 C 85.33 767.99 74.67 767.99 64.01 768.01 C 64.00 778.66 64.00 789.32 63.99 800.00 C 53.33 799.99 42.66 799.99 32.00 800.00 C 32.00 757.33 32.00 714.66 32.00 672.00 Z" />
</g>
</svg>
