<?xml version="1.0" encoding="UTF-8" ?>
<!DOCTYPE svg PUBLIC "-//W3C//DTD SVG 1.1//EN" "http://www.w3.org/Graphics/SVG/1.1/DTD/svg11.dtd">
<svg width="1024pt" height="960pt" viewBox="0 0 1024 960" version="1.1" xmlns="http://www.w3.org/2000/svg">
<g id="#800000ff">
<path fill="#800000" opacity="1.00" d=" M 416.01 192.00 C 469.34 191.99 522.66 191.99 575.98 192.01 C 575.98 202.67 576.00 213.33 576.02 224.00 C 597.34 223.97 618.66 224.02 639.99 224.00 C 639.99 234.66 640.00 245.32 640.01 255.99 C 650.66 255.99 661.32 256.00 671.99 256.01 C 671.99 266.67 672.00 277.32 672.01 287.99 C 682.66 287.99 693.32 288.00 703.99 288.01 C 703.99 298.67 704.00 309.32 704.01 319.99 C 714.67 319.99 725.33 320.00 736.00 320.01 C 735.97 341.34 736.02 362.66 736.00 383.99 C 746.66 383.99 757.32 384.00 768.00 384.01 C 768.00 437.34 768.00 490.66 768.00 543.99 C 757.32 544.00 746.66 544.00 736.00 544.01 C 736.02 565.24 736.09 586.46 735.80 607.69 C 725.21 607.92 714.62 608.01 704.03 608.08 C 704.00 618.71 703.99 629.34 703.97 639.97 C 693.32 639.98 682.67 640.00 672.03 640.03 C 672.00 650.67 671.99 661.32 671.97 671.97 C 661.33 671.98 650.70 672.00 640.07 672.03 C 640.01 682.58 639.93 693.15 639.74 703.72 C 618.51 704.11 597.29 704.03 576.07 704.00 C 576.00 714.57 575.93 725.14 575.74 735.72 C 522.60 736.23 469.45 736.10 416.31 735.80 C 416.07 725.19 415.98 714.59 415.92 704.00 C 394.71 704.02 373.51 704.09 352.31 703.80 C 352.07 693.20 351.98 682.60 351.92 672.01 C 341.28 672.00 330.64 672.00 320.00 671.99 C 320.00 661.32 319.99 650.67 319.99 640.02 C 309.33 640.00 298.67 639.99 288.01 639.99 C 288.00 629.32 287.99 618.67 287.99 608.01 C 277.32 608.00 266.66 607.99 256.00 607.99 C 256.02 586.66 255.97 565.34 256.00 544.01 C 245.33 544.00 234.67 543.99 224.00 543.99 C 223.99 490.66 223.99 437.34 224.01 384.02 C 234.67 384.01 245.33 383.99 256.00 383.98 C 255.97 362.66 256.02 341.34 256.00 320.01 C 266.66 320.00 277.32 319.99 287.99 319.99 C 287.99 309.33 288.00 298.67 288.01 288.01 C 298.67 288.00 309.32 287.99 319.99 287.99 C 319.99 277.33 320.00 266.67 320.01 256.01 C 330.67 256.00 341.32 255.99 351.99 255.99 C 351.99 245.32 352.00 234.66 352.01 224.00 C 373.34 224.02 394.66 223.97 415.99 224.00 C 415.99 213.33 416.00 202.67 416.01 192.00 M 415.98 224.64 C 415.98 235.09 415.98 245.55 415.99 256.01 C 394.66 256.08 373.30 255.54 351.98 256.64 C 351.98 267.05 351.98 277.47 351.99 287.90 C 341.32 287.96 330.64 288.07 319.98 288.64 C 319.98 299.07 319.98 309.50 319.99 319.94 C 309.39 319.97 298.80 320.03 288.22 320.33 C 287.81 341.53 288.03 362.74 288.01 383.94 C 277.41 383.97 266.81 384.03 256.22 384.33 C 256.10 437.55 255.32 490.81 256.64 544.02 C 267.09 544.01 277.55 544.01 288.01 544.01 C 288.08 565.34 287.53 586.69 288.64 608.02 C 299.05 608.01 309.47 608.01 319.90 608.01 C 319.96 618.67 320.07 629.35 320.64 640.02 C 331.07 640.00 341.50 640.01 351.94 640.01 C 351.97 650.60 352.03 661.19 352.33 671.78 C 373.53 672.18 394.74 671.96 415.94 671.99 C 415.97 682.58 416.03 693.18 416.33 703.78 C 469.55 703.90 522.81 704.68 576.02 703.36 C 576.01 692.90 576.01 682.44 576.01 671.99 C 597.34 671.92 618.69 672.46 640.02 671.36 C 640.00 660.94 640.01 650.52 640.01 640.10 C 650.67 640.02 661.35 639.92 672.02 639.36 C 672.00 628.92 672.01 618.49 672.01 608.06 C 682.60 608.02 693.19 607.96 703.78 607.67 C 704.18 586.46 703.96 565.26 703.99 544.06 C 714.58 544.02 725.18 543.96 735.78 543.67 C 735.90 490.45 736.68 437.19 735.36 383.98 C 724.90 383.98 714.44 383.98 703.99 383.99 C 703.92 362.66 704.46 341.30 703.36 319.98 C 692.94 319.98 682.52 319.98 672.10 319.99 C 672.02 309.32 671.92 298.64 671.36 287.98 C 660.92 287.99 650.49 287.98 640.06 287.99 C 640.02 277.39 639.96 266.80 639.67 256.22 C 618.46 255.81 597.26 256.03 576.06 256.01 C 576.02 245.41 575.96 234.81 575.67 224.22 C 522.45 224.10 469.19 223.32 415.98 224.64 Z" />
</g>
<g id="#ff0000ff">
<path fill="#ff0000" opacity="1.00" d=" M 415.98 224.64 C 469.19 223.32 522.45 224.10 575.67 224.22 C 575.96 234.81 576.02 245.41 576.06 256.01 C 597.26 256.03 618.46 255.81 639.67 256.22 C 639.96 266.80 640.02 277.39 640.06 287.99 C 650.49 287.98 660.92 287.99 671.36 287.98 C 671.92 298.64 672.02 309.32 672.10 319.99 C 682.52 319.98 692.94 319.98 703.36 319.98 C 704.46 341.30 703.92 362.66 703.99 383.99 C 714.44 383.98 724.90 383.98 735.36 383.98 C 736.68 437.19 735.90 490.45 735.78 543.67 C 725.18 543.96 714.58 544.02 703.99 544.06 C 703.96 565.26 704.18 586.46 703.78 607.67 C 693.19 607.96 682.60 608.02 672.01 608.06 C 672.01 618.49 672.00 628.92 672.02 639.36 C 661.35 639.92 650.67 640.02 640.01 640.10 C 640.01 650.52 640.00 660.94 640.02 671.36 C 618.69 672.46 597.34 671.92 576.01 671.99 C 576.01 682.44 576.01 692.90 576.02 703.36 C 522.81 704.68 469.55 703.90 416.33 703.78 C 416.03 693.18 415.97 682.58 415.94 671.99 C 394.74 671.96 373.53 672.18 352.33 671.78 C 352.03 661.19 351.97 650.60 351.94 640.01 C 341.50 640.01 331.07 640.00 320.64 640.02 C 320.07 629.35 319.96 618.67 319.90 608.01 C 309.47 608.01 299.05 608.01 288.64 608.02 C 287.53 586.69 288.08 565.34 288.01 544.01 C 277.55 544.01 267.09 544.01 256.64 544.02 C 255.32 490.81 256.10 437.55 256.22 384.33 C 266.81 384.03 277.41 383.97 288.01 383.94 C 288.03 362.74 287.81 341.53 288.22 320.33 C 298.80 320.03 309.39 319.97 319.99 319.94 C 319.98 309.50 319.98 299.07 319.98 288.64 C 330.64 288.07 341.32 287.96 351.99 287.90 C 351.98 277.47 351.98 267.05 351.98 256.64 C 373.30 255.54 394.66 256.08 415.99 256.01 C 415.98 245.55 415.98 235.09 415.98 224.64 M 384.01 319.99 C 384.00 330.65 383.99 341.32 383.99 351.99 C 373.32 351.99 362.66 352.00 352.00 352.01 C 352.01 362.67 352.01 373.32 351.99 383.99 C 362.65 383.99 373.32 384.00 383.99 384.01 C 383.99 394.67 384.00 405.32 384.01 415.99 C 394.67 415.99 405.32 416.00 415.99 416.01 C 415.99 426.67 416.00 437.32 416.01 447.99 C 426.67 447.99 437.34 448.00 448.00 448.01 C 447.98 458.67 447.99 469.32 448.01 479.99 C 437.34 479.99 426.67 480.00 416.01 480.01 C 416.00 490.67 415.99 501.32 415.99 511.99 C 405.32 511.99 394.67 512.00 384.01 512.01 C 384.00 522.67 383.99 533.32 383.99 543.99 C 373.32 543.99 362.66 544.00 352.00 544.01 C 352.01 554.67 352.01 565.32 351.99 575.99 C 362.65 575.99 373.32 576.00 383.99 576.01 C 383.99 586.67 384.00 597.33 384.01 608.00 C 394.67 607.98 405.32 607.98 415.99 608.01 C 415.99 597.34 416.00 586.67 416.01 576.01 C 426.67 576.00 437.32 575.99 447.99 575.99 C 447.99 565.32 448.00 554.67 448.01 544.01 C 458.67 544.00 469.32 543.99 479.99 543.99 C 479.99 533.32 480.00 522.65 480.01 512.00 C 490.67 512.01 501.32 512.00 511.99 511.99 C 511.99 522.65 512.00 533.32 512.01 543.99 C 522.67 543.99 533.32 544.00 543.99 544.01 C 543.99 554.67 544.00 565.32 544.01 575.99 C 554.67 575.99 565.32 576.00 575.99 576.01 C 575.99 586.67 576.00 597.33 576.01 608.00 C 586.67 607.98 597.32 607.98 607.99 608.01 C 607.99 597.34 608.00 586.67 608.01 576.01 C 618.67 576.00 629.33 575.99 640.00 575.99 C 639.98 565.32 639.98 554.67 640.01 544.01 C 629.34 544.00 618.67 543.99 608.01 543.99 C 608.00 533.32 607.99 522.67 607.99 512.01 C 597.32 512.00 586.66 511.99 576.01 511.99 C 576.00 501.32 575.99 490.67 575.99 480.01 C 565.32 480.00 554.65 479.99 544.00 479.99 C 544.01 469.32 544.00 458.67 543.99 448.01 C 554.65 448.00 565.31 447.99 575.99 447.99 C 575.99 437.32 576.00 426.67 576.01 416.01 C 586.67 416.00 597.32 415.99 607.99 415.99 C 607.99 405.32 608.00 394.67 608.01 384.01 C 618.67 384.00 629.33 383.99 640.00 383.99 C 639.98 373.32 639.98 362.67 640.01 352.01 C 629.34 352.00 618.67 351.99 608.01 351.99 C 608.00 341.32 607.99 330.66 607.99 320.00 C 597.32 320.01 586.66 320.01 576.01 319.99 C 576.00 330.65 575.99 341.32 575.99 351.99 C 565.32 351.99 554.67 352.00 544.01 352.01 C 544.00 362.67 543.99 373.33 543.99 383.99 C 533.32 383.99 522.67 384.00 512.01 384.01 C 512.00 394.67 511.99 405.34 511.99 416.00 C 501.32 415.98 490.67 415.99 480.01 416.01 C 480.00 405.34 479.99 394.67 479.99 384.01 C 469.32 384.00 458.67 383.99 448.01 383.99 C 448.00 373.32 447.99 362.67 447.99 352.01 C 437.32 352.00 426.67 351.99 416.01 351.99 C 416.00 341.32 415.99 330.66 415.99 320.00 C 405.32 320.01 394.67 320.01 384.01 319.99 Z" />
</g>
<g id="#ffffffff">
<path fill="#ffffff" opacity="1.00" d=" M 384.01 319.99 C 394.67 320.01 405.32 320.01 415.99 320.00 C 415.99 330.66 416.00 341.32 416.01 351.99 C 426.67 351.99 437.32 352.00 447.99 352.01 C 447.99 362.67 448.00 373.32 448.01 383.99 C 458.67 383.99 469.32 384.00 479.99 384.01 C 479.99 394.67 480.00 405.34 480.01 416.01 C 490.67 415.99 501.32 415.98 511.99 416.00 C 511.99 405.34 512.00 394.67 512.01 384.01 C 522.67 384.00 533.32 383.99 543.99 383.99 C 543.99 373.33 544.00 362.67 544.01 352.01 C 554.67 352.00 565.32 351.99 575.99 351.99 C 575.99 341.32 576.00 330.65 576.01 319.99 C 586.66 320.01 597.32 320.01 607.99 320.00 C 607.99 330.66 608.00 341.32 608.01 351.99 C 618.67 351.99 629.34 352.00 640.01 352.01 C 639.98 362.67 639.98 373.32 640.00 383.99 C 629.33 383.99 618.67 384.00 608.01 384.01 C 608.00 394.67 607.99 405.32 607.99 415.99 C 597.32 415.99 586.67 416.00 576.01 416.01 C 576.00 426.67 575.99 437.32 575.99 447.99 C 565.31 447.99 554.65 448.00 543.99 448.01 C 544.00 458.67 544.01 469.32 544.00 479.99 C 554.65 479.99 565.32 480.00 575.99 480.01 C 575.99 490.67 576.00 501.32 576.01 511.99 C 586.66 511.99 597.32 512.00 607.99 512.01 C 607.99 522.67 608.00 533.32 608.01 543.99 C 618.67 543.99 629.34 544.00 640.01 544.01 C 639.98 554.67 639.98 565.32 640.00 575.99 C 629.33 575.99 618.67 576.00 608.01 576.01 C 608.00 586.67 607.99 597.34 607.99 608.01 C 597.32 607.98 586.67 607.98 576.01 608.00 C 576.00 597.33 575.99 586.67 575.99 576.01 C 565.32 576.00 554.67 575.99 544.01 575.99 C 544.00 565.32 543.99 554.67 543.99 544.01 C 533.32 544.00 522.67 543.99 512.01 543.99 C 512.00 533.32 511.99 522.65 511.99 511.99 C 501.32 512.00 490.67 512.01 480.01 512.00 C 480.00 522.65 479.99 533.32 479.99 543.99 C 469.32 543.99 458.67 544.00 448.01 544.01 C 448.00 554.67 447.99 565.32 447.99 575.99 C 437.32 575.99 426.67 576.00 416.01 576.01 C 416.00 586.67 415.99 597.34 415.99 608.01 C 405.32 607.98 394.67 607.98 384.01 608.00 C 384.00 597.33 383.99 586.67 383.99 576.01 C 373.32 576.00 362.65 575.99 351.99 575.99 C 352.01 565.32 352.01 554.67 352.00 544.01 C 362.66 544.00 373.32 543.99 383.99 543.99 C 383.99 533.32 384.00 522.67 384.01 512.01 C 394.67 512.00 405.32 511.99 415.99 511.99 C 415.99 501.32 416.00 490.67 416.01 480.01 C 426.67 480.00 437.34 479.99 448.01 479.99 C 447.99 469.32 447.98 458.67 448.00 448.01 C 437.34 448.00 426.67 447.99 416.01 447.99 C 416.00 437.32 415.99 426.67 415.99 416.01 C 405.32 416.00 394.67 415.99 384.01 415.99 C 384.00 405.32 383.99 394.67 383.99 384.01 C 373.32 384.00 362.65 383.99 351.99 383.99 C 352.01 373.32 352.01 362.67 352.00 352.01 C 362.66 352.00 373.32 351.99 383.99 351.99 C 383.99 341.32 384.00 330.65 384.01 319.99 Z" />
</g>
<g id="#808080ff">
<path fill="#808080" opacity="1.00" d=" M 736.00 544.01 C 746.66 544.00 757.32 544.00 768.00 543.99 C 768.01 565.32 768.01 586.65 767.99 607.99 C 757.32 607.99 746.66 608.00 736.00 608.01 C 736.02 629.33 735.97 650.66 736.00 671.99 C 725.33 671.99 714.67 672.00 704.01 672.01 C 704.00 682.67 703.99 693.33 703.99 704.00 C 682.66 703.97 661.34 704.02 640.01 704.00 C 640.00 714.66 639.99 725.33 639.99 736.00 C 618.66 735.97 597.34 736.02 576.01 736.00 C 576.00 746.66 575.99 757.32 575.99 768.00 C 522.66 768.00 469.34 768.00 416.02 767.99 C 416.01 757.32 415.99 746.66 415.98 736.00 C 394.66 736.02 373.34 735.97 352.01 736.00 C 352.00 725.33 351.99 714.67 351.99 704.01 C 341.32 704.00 330.65 703.99 319.99 703.99 C 320.01 693.31 320.01 682.65 320.00 671.99 C 330.64 672.00 341.28 672.00 351.92 672.01 C 351.98 682.60 352.07 693.20 352.31 703.80 C 373.51 704.09 394.71 704.02 415.92 704.00 C 415.98 714.59 416.07 725.19 416.31 735.80 C 469.45 736.10 522.60 736.23 575.74 735.72 C 575.93 725.14 576.00 714.57 576.07 704.00 C 597.29 704.03 618.51 704.11 639.74 703.72 C 639.93 693.15 640.01 682.58 640.07 672.03 C 650.70 672.00 661.33 671.98 671.97 671.97 C 671.99 661.32 672.00 650.67 672.03 640.03 C 682.67 640.00 693.32 639.98 703.97 639.97 C 703.99 629.34 704.00 618.71 704.03 608.08 C 714.62 608.01 725.21 607.92 735.80 607.69 C 736.09 586.46 736.02 565.24 736.00 544.01 Z" />
</g>
</svg>
