<?xml version="1.0" encoding="UTF-8" ?>
<!DOCTYPE svg PUBLIC "-//W3C//DTD SVG 1.1//EN" "http://www.w3.org/Graphics/SVG/1.1/DTD/svg11.dtd">
<svg width="1024pt" height="1024pt" viewBox="0 0 1024 1024" version="1.1" xmlns="http://www.w3.org/2000/svg">
<g id="#7f7f7fff">
<path fill="#7f7f7f" opacity="1.00" d=" M 128.00 0.00 L 768.00 0.00 C 767.99 10.66 767.99 21.33 768.00 31.99 C 757.32 32.00 746.66 32.00 736.00 32.00 C 554.67 32.00 373.33 32.00 192.00 32.00 C 181.33 32.01 170.66 32.01 159.99 32.00 C 160.01 341.33 160.00 650.67 160.00 960.00 C 160.00 970.66 160.00 981.32 160.00 992.00 C 149.33 991.99 138.66 991.99 128.00 992.00 C 128.00 661.33 128.00 330.67 128.00 0.00 Z" />
</g>
<g id="#dadadaff">
<path fill="#dadada" opacity="1.00" d=" M 159.99 32.00 C 170.66 32.01 181.33 32.01 192.00 32.00 C 192.00 341.33 192.00 650.67 192.00 960.00 C 181.33 959.99 170.66 959.99 160.00 960.00 C 160.00 650.67 160.01 341.33 159.99 32.00 Z" />
</g>
<g id="#ffffffff">
<path fill="#ffffff" opacity="1.00" d=" M 192.00 32.00 C 373.33 32.00 554.67 32.00 736.00 32.00 C 735.99 96.00 736.01 160.00 735.99 224.01 C 746.65 223.99 757.32 223.98 768.00 224.00 C 800.00 224.00 832.00 224.00 864.00 224.00 C 864.00 469.33 864.00 714.67 864.00 960.00 C 640.00 960.00 416.00 960.00 192.00 960.00 C 192.00 650.67 192.00 341.33 192.00 32.00 M 576.00 320.00 C 576.02 330.67 575.97 341.34 576.00 352.02 C 554.66 351.92 533.33 352.08 512.00 351.98 C 512.02 362.65 511.97 373.32 512.00 384.00 C 501.33 383.97 490.66 384.02 480.00 384.00 C 480.02 394.67 479.97 405.34 480.00 416.02 C 458.66 415.92 437.33 416.08 416.00 415.98 C 416.02 426.66 415.97 437.33 416.00 448.01 C 405.33 447.97 394.66 447.97 384.00 448.01 C 384.03 437.33 383.97 426.66 384.00 415.99 C 373.33 416.03 362.66 416.02 352.00 415.99 C 352.01 437.32 351.98 458.66 352.00 480.01 C 394.67 479.98 437.34 480.02 480.01 479.99 C 479.95 490.66 480.02 501.32 480.00 512.00 C 458.67 512.01 437.33 511.98 416.00 512.01 C 416.02 522.67 415.97 533.34 416.00 544.01 C 405.33 543.97 394.66 543.97 384.00 544.01 C 384.03 533.33 383.97 522.66 384.00 511.99 C 373.33 512.03 362.66 512.02 352.00 511.99 C 352.02 533.32 351.98 554.66 352.01 576.01 C 394.67 575.99 437.34 576.00 480.00 576.00 C 479.99 586.66 480.00 597.33 480.00 608.00 C 458.67 608.01 437.33 607.98 416.00 608.01 C 416.02 618.67 415.97 629.34 416.00 640.01 C 405.33 639.96 394.66 639.97 384.00 640.01 C 384.03 629.33 383.97 618.66 384.00 607.99 C 373.33 608.02 362.66 608.02 352.00 607.99 C 352.02 629.32 351.98 650.66 352.01 672.01 C 394.67 671.99 437.34 672.00 480.00 672.00 C 480.00 682.67 479.97 693.34 480.00 704.02 C 458.67 703.91 437.33 704.08 416.00 703.98 C 416.02 714.65 415.97 725.33 416.00 736.01 C 405.33 735.96 394.66 735.97 384.00 736.01 C 384.03 725.33 383.97 714.65 384.00 703.99 C 373.33 704.02 362.66 704.02 352.00 703.99 C 352.01 725.32 351.98 746.66 352.00 768.01 C 405.34 767.99 458.67 768.00 512.00 768.00 C 511.97 757.32 512.02 746.65 512.00 735.98 C 533.33 736.08 554.66 735.92 576.00 736.02 C 575.97 725.33 576.02 714.66 576.00 703.99 C 618.67 704.01 661.33 703.99 703.99 704.00 C 704.03 714.67 704.02 725.34 703.98 736.02 C 714.65 735.96 725.32 735.96 736.01 736.02 C 746.66 735.97 757.33 735.96 768.00 736.00 C 768.01 746.67 768.00 757.33 767.99 768.01 C 778.66 767.96 789.33 767.97 800.01 768.01 C 799.99 640.00 799.99 511.99 800.01 383.98 C 789.33 384.03 778.66 384.03 768.00 383.99 C 767.98 373.32 767.98 362.65 768.01 351.98 C 757.33 352.04 746.67 352.02 736.01 352.00 C 735.96 341.32 735.96 330.65 736.02 319.98 C 725.33 320.05 714.66 320.01 703.99 319.99 C 661.33 320.01 618.66 320.00 576.00 320.00 M 256.00 384.00 C 256.01 405.34 255.98 426.67 256.00 448.00 C 277.34 447.98 298.67 448.01 320.00 448.00 C 319.98 426.66 320.01 405.33 320.00 384.00 C 298.66 384.01 277.33 383.98 256.00 384.00 M 256.00 480.00 C 256.01 501.34 255.98 522.67 256.00 544.00 C 277.34 543.98 298.67 544.01 320.00 544.00 C 319.98 522.66 320.01 501.33 320.00 480.00 C 298.66 480.01 277.33 479.98 256.00 480.00 M 256.00 576.00 C 256.01 597.33 255.98 618.67 256.00 640.00 C 277.34 639.98 298.67 640.01 320.00 640.00 C 319.98 618.66 320.01 597.33 320.00 576.00 C 298.66 576.01 277.33 575.98 256.00 576.00 M 256.00 672.00 C 256.01 693.33 255.98 714.67 256.00 736.00 C 277.34 735.98 298.67 736.01 320.00 736.00 C 319.98 714.66 320.01 693.33 320.00 672.00 C 298.66 672.01 277.33 671.98 256.00 672.00 Z" />
</g>
<g id="#808080ff">
<path fill="#808080" opacity="1.00" d=" M 736.00 32.00 C 746.66 32.00 757.32 32.00 768.00 31.99 C 768.00 42.63 767.99 53.27 768.00 63.92 C 768.00 74.58 767.99 85.25 768.00 95.92 C 768.00 106.58 767.99 117.25 768.00 127.92 C 768.00 149.28 768.00 170.64 768.00 192.00 C 767.99 202.67 768.00 213.33 768.00 224.00 C 757.32 223.98 746.65 223.99 735.99 224.01 C 736.01 160.00 735.99 96.00 736.00 32.00 Z" />
</g>
<g id="#000000ff">
<path fill="#000000" opacity="1.00" d=" M 768.00 31.99 C 778.65 32.01 789.32 32.01 799.99 32.00 C 799.99 42.67 799.99 53.33 800.01 63.99 C 810.66 64.00 821.32 64.00 831.99 64.01 C 831.99 74.67 831.99 85.33 832.01 95.99 C 842.66 96.00 853.32 96.00 863.99 96.01 C 863.99 106.67 863.99 117.33 864.01 127.99 C 874.66 128.00 885.32 128.00 895.99 128.01 C 895.99 138.67 895.99 149.33 896.01 159.99 C 906.66 160.00 917.32 160.00 927.99 160.01 C 927.99 170.67 927.99 181.33 928.01 191.99 C 938.67 191.99 949.33 192.00 960.01 192.02 C 959.99 469.34 960.01 746.67 960.00 1024.00 L 128.00 1024.00 C 128.00 1013.32 128.00 1002.66 128.00 992.00 C 138.66 991.99 149.33 991.99 160.00 992.00 C 170.67 991.99 181.33 991.99 192.00 992.00 C 426.67 992.00 661.33 992.00 896.00 992.00 C 906.66 991.98 917.33 991.98 928.01 992.00 C 927.99 736.00 928.00 480.00 928.01 224.00 C 917.33 224.01 906.66 224.01 896.00 224.00 C 885.32 223.99 874.66 223.99 864.00 224.00 C 832.00 224.00 800.00 224.00 768.00 224.00 C 768.00 213.33 767.99 202.67 768.00 192.00 C 789.36 192.01 810.72 191.99 832.09 192.00 C 842.74 192.00 853.41 192.00 864.08 192.00 C 874.72 191.99 885.36 191.99 896.01 192.00 C 895.98 181.54 895.98 171.08 896.05 160.62 C 885.36 160.16 874.68 160.01 864.01 159.87 C 863.98 149.44 864.01 139.02 864.04 128.59 C 853.38 128.19 842.71 128.08 832.06 127.94 C 831.83 117.27 831.86 106.60 831.47 95.94 C 820.97 96.01 810.49 96.02 800.01 95.98 C 799.98 85.52 800.00 75.06 800.04 64.60 C 789.36 64.20 778.67 64.04 768.00 63.92 C 767.99 53.27 768.00 42.63 768.00 31.99 Z" />
<path fill="#000000" opacity="1.00" d=" M 576.00 320.00 C 618.66 320.00 661.33 320.01 703.99 319.99 C 704.00 330.66 704.00 341.33 704.00 352.01 C 714.66 351.98 725.33 351.97 736.01 352.00 C 746.67 352.02 757.33 352.04 768.01 351.98 C 767.98 362.65 767.98 373.32 768.00 383.99 C 768.00 447.99 768.00 511.99 768.00 576.00 C 757.33 576.00 746.66 576.00 736.00 576.01 C 735.98 565.33 735.98 554.66 736.00 544.00 C 725.32 544.01 714.66 544.00 703.99 544.00 C 682.66 543.98 661.33 544.02 640.00 544.00 C 629.33 543.99 618.66 544.00 608.00 544.00 C 597.33 544.00 586.67 544.01 576.02 544.00 C 576.00 554.65 575.99 565.32 575.99 575.99 C 565.33 575.99 554.67 576.00 544.01 576.01 C 544.00 586.66 543.99 597.32 543.99 607.99 C 533.32 607.99 522.66 607.99 511.99 608.01 C 511.99 640.00 512.01 671.99 511.99 703.99 C 522.65 703.98 533.32 703.98 543.99 704.08 C 554.60 704.03 565.33 704.78 575.85 702.95 C 576.33 692.63 576.09 682.31 576.05 672.00 C 586.69 671.97 597.34 671.98 608.00 672.00 C 607.98 661.33 607.98 650.66 608.00 640.00 C 618.66 639.99 629.33 639.99 640.00 640.00 C 661.33 640.00 682.66 639.99 704.00 640.00 C 704.00 650.66 704.00 661.33 704.00 672.01 C 714.66 671.98 725.33 671.98 736.00 672.00 C 746.66 672.00 757.33 672.00 768.00 672.00 C 768.01 693.33 767.98 714.66 768.00 736.00 C 757.33 735.96 746.66 735.97 736.01 736.02 C 735.99 725.33 735.98 714.66 736.00 703.99 C 725.32 704.00 714.66 704.01 703.99 704.00 C 661.33 703.99 618.67 704.01 576.00 703.99 C 576.02 714.66 575.97 725.33 576.00 736.02 C 554.66 735.92 533.33 736.08 512.00 735.98 C 512.02 746.65 511.97 757.32 512.00 768.00 C 458.67 768.00 405.34 767.99 352.00 768.01 C 351.98 746.66 352.01 725.32 352.00 703.99 C 362.66 704.02 373.33 704.02 384.00 703.99 C 383.97 714.65 384.03 725.33 384.00 736.01 C 394.66 735.97 405.33 735.96 416.00 736.01 C 415.97 725.33 416.02 714.65 416.00 703.98 C 437.33 704.08 458.67 703.91 480.00 704.02 C 479.97 693.34 480.00 682.67 480.00 672.00 C 480.01 650.66 479.98 629.33 480.00 608.00 C 480.00 597.33 479.99 586.66 480.00 576.00 C 479.98 554.66 480.01 533.33 480.00 512.00 C 480.02 501.32 479.95 490.66 480.01 479.99 C 437.34 480.02 394.67 479.98 352.00 480.01 C 351.98 458.66 352.01 437.32 352.00 415.99 C 362.66 416.02 373.33 416.03 384.00 415.99 C 383.97 426.66 384.03 437.33 384.00 448.01 C 394.66 447.97 405.33 447.97 416.00 448.01 C 415.97 437.33 416.02 426.66 416.00 415.98 C 437.33 416.08 458.66 415.92 480.00 416.02 C 479.97 405.34 480.02 394.67 480.00 384.00 C 490.66 384.02 501.33 383.97 512.00 384.00 C 511.97 373.32 512.02 362.65 512.00 351.98 C 533.33 352.08 554.66 351.92 576.00 352.02 C 575.97 341.34 576.02 330.67 576.00 320.00 M 576.00 383.99 C 576.02 394.66 575.97 405.33 576.00 416.00 C 565.32 415.97 554.66 416.02 544.00 416.00 C 544.02 426.66 543.97 437.33 544.00 448.00 C 533.32 447.98 522.65 448.01 511.99 448.00 C 512.00 480.01 512.01 512.01 511.99 544.02 C 522.65 543.95 533.32 543.97 543.99 544.03 C 554.22 544.00 564.47 544.41 574.69 543.73 C 574.93 543.45 575.40 542.87 575.64 542.58 C 576.45 532.40 575.99 522.19 576.02 512.00 C 586.68 511.96 597.34 511.95 608.02 512.02 C 607.96 501.34 607.96 490.67 608.01 480.01 C 618.66 479.95 629.33 479.96 640.00 480.01 C 661.33 479.97 682.66 480.02 703.99 480.00 C 704.03 490.67 704.01 501.34 703.99 512.01 C 714.66 511.96 725.33 511.96 736.02 512.01 C 735.95 501.34 735.97 490.67 736.01 480.00 C 735.99 458.66 736.00 437.33 736.00 416.00 C 735.96 405.33 735.97 394.65 736.01 383.98 C 725.33 384.04 714.66 384.02 703.99 383.99 C 682.66 384.00 661.33 384.00 640.00 383.99 C 629.33 384.04 618.66 384.02 608.00 383.99 C 597.33 384.02 586.66 384.02 576.00 383.99 Z" />
<path fill="#000000" opacity="1.00" d=" M 256.00 384.00 C 277.33 383.98 298.66 384.01 320.00 384.00 C 320.01 405.33 319.98 426.66 320.00 448.00 C 298.67 448.01 277.34 447.98 256.00 448.00 C 255.98 426.67 256.01 405.34 256.00 384.00 Z" />
<path fill="#000000" opacity="1.00" d=" M 256.00 672.00 C 277.33 671.98 298.66 672.01 320.00 672.00 C 320.01 693.33 319.98 714.66 320.00 736.00 C 298.67 736.01 277.34 735.98 256.00 736.00 C 255.98 714.67 256.01 693.33 256.00 672.00 Z" />
</g>
<g id="#7e7e7eff">
<path fill="#7e7e7e" opacity="1.00" d=" M 768.00 63.92 C 778.67 64.04 789.36 64.20 800.04 64.60 C 800.00 75.06 799.98 85.52 800.01 95.98 C 810.49 96.02 820.97 96.01 831.47 95.94 C 831.86 106.60 831.83 117.27 832.06 127.94 C 821.37 127.95 810.68 127.99 800.01 128.02 C 799.99 117.54 800.00 107.07 800.04 96.60 C 789.36 96.20 778.67 96.04 768.00 95.92 C 767.99 85.25 768.00 74.58 768.00 63.92 Z" />
</g>
<g id="#bebebeff">
<path fill="#bebebe" opacity="1.00" d=" M 768.00 95.92 C 778.67 96.04 789.36 96.20 800.04 96.60 C 800.00 107.07 799.99 117.54 800.01 128.02 C 810.68 127.99 821.37 127.95 832.06 127.94 C 832.06 138.62 831.99 149.31 831.98 159.99 C 842.45 160.00 852.92 159.98 863.40 159.96 C 863.79 170.63 863.95 181.32 864.08 192.00 C 853.41 192.00 842.74 192.00 832.09 192.00 C 831.89 181.31 831.83 170.62 831.46 159.94 C 820.97 160.01 810.48 160.02 800.01 159.98 C 799.98 149.52 800.00 139.06 800.04 128.60 C 789.36 128.20 778.67 128.04 768.00 127.92 C 767.99 117.25 768.00 106.58 768.00 95.92 Z" />
</g>
<g id="#fefefeff">
<path fill="#fefefe" opacity="1.00" d=" M 768.00 127.92 C 778.67 128.04 789.36 128.20 800.04 128.60 C 800.00 139.06 799.98 149.52 800.01 159.98 C 810.48 160.02 820.97 160.01 831.46 159.94 C 831.83 170.62 831.89 181.31 832.09 192.00 C 810.72 191.99 789.36 192.01 768.00 192.00 C 768.00 170.64 768.00 149.28 768.00 127.92 Z" />
</g>
<g id="#7a7a7aff">
<path fill="#7a7a7a" opacity="1.00" d=" M 832.06 127.94 C 842.71 128.08 853.38 128.19 864.04 128.59 C 864.01 139.02 863.98 149.44 864.01 159.87 C 874.68 160.01 885.36 160.16 896.05 160.62 C 895.98 171.08 895.98 181.54 896.01 192.00 C 885.36 191.99 874.72 191.99 864.08 192.00 C 863.95 181.32 863.79 170.63 863.40 159.96 C 852.92 159.98 842.45 160.00 831.98 159.99 C 831.99 149.31 832.06 138.62 832.06 127.94 Z" />
</g>
<g id="#fcfcfcff">
<path fill="#fcfcfc" opacity="1.00" d=" M 864.00 224.00 C 874.66 223.99 885.32 223.99 896.00 224.00 C 896.00 469.33 896.00 714.67 896.00 960.00 C 885.32 959.99 874.66 959.99 864.00 960.00 C 864.00 714.67 864.00 469.33 864.00 224.00 Z" />
</g>
<g id="#b2b2b2ff">
<path fill="#b2b2b2" opacity="1.00" d=" M 896.00 224.00 C 906.66 224.01 917.33 224.01 928.01 224.00 C 928.00 480.00 927.99 736.00 928.01 992.00 C 917.33 991.98 906.66 991.98 896.00 992.00 C 895.99 981.32 895.99 970.66 896.00 960.00 C 896.00 714.67 896.00 469.33 896.00 224.00 Z" />
</g>
<g id="#f8f8f8ff">
<path fill="#f8f8f8" opacity="1.00" d=" M 703.99 319.99 C 714.66 320.01 725.33 320.05 736.02 319.98 C 735.96 330.65 735.96 341.32 736.01 352.00 C 725.33 351.97 714.66 351.98 704.00 352.01 C 704.00 341.33 704.00 330.66 703.99 319.99 Z" />
</g>
<g id="#ff0000ff">
<path fill="#ff0000" opacity="1.00" d=" M 576.00 383.99 C 586.66 384.02 597.33 384.02 608.00 383.99 C 608.00 415.99 607.99 448.00 608.01 480.01 C 597.33 480.01 586.66 480.01 576.00 480.00 C 576.00 490.66 576.01 501.33 576.02 512.00 C 565.34 512.01 554.67 512.01 544.00 512.00 C 544.00 522.67 544.01 533.35 543.99 544.03 C 533.32 543.97 522.65 543.95 511.99 544.02 C 512.01 512.01 512.00 480.01 511.99 448.00 C 522.65 448.01 533.32 447.98 544.00 448.00 C 543.97 437.33 544.02 426.66 544.00 416.00 C 554.66 416.02 565.32 415.97 576.00 416.00 C 575.97 405.33 576.02 394.66 576.00 383.99 Z" />
<path fill="#ff0000" opacity="1.00" d=" M 256.00 480.00 C 277.33 479.98 298.66 480.01 320.00 480.00 C 320.01 501.33 319.98 522.66 320.00 544.00 C 298.67 544.01 277.34 543.98 256.00 544.00 C 255.98 522.67 256.01 501.34 256.00 480.00 Z" />
</g>
<g id="#110000ff">
<path fill="#110000" opacity="1.00" d=" M 608.00 383.99 C 618.66 384.02 629.33 384.04 640.00 383.99 C 640.00 416.00 640.00 448.00 640.00 480.01 C 629.33 479.96 618.66 479.95 608.01 480.01 C 607.99 448.00 608.00 415.99 608.00 383.99 Z" />
</g>
<g id="#007f00ff">
<path fill="#007f00" opacity="1.00" d=" M 640.00 383.99 C 661.33 384.00 682.66 384.00 703.99 383.99 C 704.00 394.66 704.00 405.33 704.00 416.00 C 714.66 415.99 725.33 415.98 736.00 416.00 C 736.00 437.33 735.99 458.66 736.01 480.00 C 725.33 480.00 714.66 479.99 703.99 480.00 C 682.66 480.02 661.33 479.97 640.00 480.01 C 640.00 448.00 640.00 416.00 640.00 383.99 Z" />
</g>
<g id="#000200ff">
<path fill="#000200" opacity="1.00" d=" M 703.99 383.99 C 714.66 384.02 725.33 384.04 736.01 383.98 C 735.97 394.65 735.96 405.33 736.00 416.00 C 725.33 415.98 714.66 415.99 704.00 416.00 C 704.00 405.33 704.00 394.66 703.99 383.99 Z" />
</g>
<g id="#010101ff">
<path fill="#010101" opacity="1.00" d=" M 768.00 383.99 C 778.66 384.03 789.33 384.03 800.01 383.98 C 799.99 511.99 799.99 640.00 800.01 768.01 C 789.33 767.97 778.66 767.96 767.99 768.01 C 768.00 757.33 768.01 746.67 768.00 736.00 C 767.98 714.66 768.01 693.33 768.00 672.00 C 767.99 640.00 768.00 608.00 768.00 576.00 C 768.00 511.99 768.00 447.99 768.00 383.99 Z" />
</g>
<g id="#150000ff">
<path fill="#150000" opacity="1.00" d=" M 576.00 480.00 C 586.66 480.01 597.33 480.01 608.01 480.01 C 607.96 490.67 607.96 501.34 608.02 512.02 C 597.34 511.95 586.68 511.96 576.02 512.00 C 576.01 501.33 576.00 490.66 576.00 480.00 Z" />
</g>
<g id="#007d00ff">
<path fill="#007d00" opacity="1.00" d=" M 703.99 480.00 C 714.66 479.99 725.33 480.00 736.01 480.00 C 735.97 490.67 735.95 501.34 736.02 512.01 C 725.33 511.96 714.66 511.96 703.99 512.01 C 704.01 501.34 704.03 490.67 703.99 480.00 Z" />
</g>
<g id="#fe0000fe">
<path fill="#fe0000" opacity="1.00" d=" M 352.00 511.99 C 362.66 512.02 373.33 512.03 384.00 511.99 C 383.97 522.66 384.03 533.33 384.00 544.01 C 394.66 543.97 405.33 543.97 416.00 544.01 C 415.97 533.34 416.02 522.67 416.00 512.01 C 437.33 511.98 458.67 512.01 480.00 512.00 C 480.01 533.33 479.98 554.66 480.00 576.00 C 437.34 576.00 394.67 575.99 352.01 576.01 C 351.98 554.66 352.02 533.32 352.00 511.99 Z" />
</g>
<g id="#0c0000ff">
<path fill="#0c0000" opacity="1.00" d=" M 544.00 512.00 C 554.67 512.01 565.34 512.01 576.02 512.00 C 575.99 522.19 576.45 532.40 575.64 542.58 C 575.40 542.87 574.93 543.45 574.69 543.73 C 564.47 544.41 554.22 544.00 543.99 544.03 C 544.01 533.35 544.00 522.67 544.00 512.00 Z" />
</g>
<g id="#0000ffff">
<path fill="#0000ff" opacity="1.00" d=" M 576.02 544.00 C 586.67 544.01 597.33 544.00 608.00 544.00 C 608.00 576.00 608.00 608.00 608.00 640.00 C 597.33 640.00 586.65 640.00 575.99 640.00 C 576.00 650.66 576.02 661.33 576.05 672.00 C 565.36 672.01 554.68 672.01 544.00 672.00 C 544.01 682.68 544.01 693.38 543.99 704.08 C 533.32 703.98 522.65 703.98 511.99 703.99 C 512.01 671.99 511.99 640.00 511.99 608.01 C 522.66 607.99 533.32 607.99 543.99 607.99 C 543.99 597.32 544.00 586.66 544.01 576.01 C 554.67 576.00 565.33 575.99 575.99 575.99 C 575.99 565.32 576.00 554.65 576.02 544.00 Z" />
<path fill="#0000ff" opacity="1.00" d=" M 256.00 576.00 C 277.33 575.98 298.66 576.01 320.00 576.00 C 320.01 597.33 319.98 618.66 320.00 640.00 C 298.67 640.01 277.34 639.98 256.00 640.00 C 255.98 618.67 256.01 597.33 256.00 576.00 Z" />
</g>
<g id="#000011ff">
<path fill="#000011" opacity="1.00" d=" M 608.00 544.00 C 618.66 544.00 629.33 543.99 640.00 544.00 C 640.00 576.00 640.00 608.00 640.00 640.00 C 629.33 639.99 618.66 639.99 608.00 640.00 C 608.00 608.00 608.00 576.00 608.00 544.00 Z" />
</g>
<g id="#ffff00ff">
<path fill="#ffff00" opacity="1.00" d=" M 640.00 544.00 C 661.33 544.02 682.66 543.98 703.99 544.00 C 704.00 554.66 704.01 565.33 704.00 576.00 C 714.66 575.98 725.33 575.98 736.00 576.01 C 736.01 597.33 735.98 618.67 736.00 640.00 C 725.33 639.99 714.66 639.99 704.00 640.00 C 682.66 639.99 661.33 640.00 640.00 640.00 C 640.00 608.00 640.00 576.00 640.00 544.00 Z" />
</g>
<g id="#050500ff">
<path fill="#050500" opacity="1.00" d=" M 703.99 544.00 C 714.66 544.00 725.32 544.01 736.00 544.00 C 735.98 554.66 735.98 565.33 736.00 576.01 C 725.33 575.98 714.66 575.98 704.00 576.00 C 704.01 565.33 704.00 554.66 703.99 544.00 Z" />
</g>
<g id="#010100ff">
<path fill="#010100" opacity="1.00" d=" M 736.00 576.01 C 746.66 576.00 757.33 576.00 768.00 576.00 C 768.00 608.00 767.99 640.00 768.00 672.00 C 757.33 672.00 746.66 672.00 736.00 672.00 C 735.99 661.33 736.00 650.66 736.00 640.00 C 735.98 618.67 736.01 597.33 736.00 576.01 Z" />
</g>
<g id="#0000fefe">
<path fill="#0000fe" opacity="1.00" d=" M 352.00 607.99 C 362.66 608.02 373.33 608.02 384.00 607.99 C 383.97 618.66 384.03 629.33 384.00 640.01 C 394.66 639.97 405.33 639.96 416.00 640.01 C 415.97 629.34 416.02 618.67 416.00 608.01 C 437.33 607.98 458.67 608.01 480.00 608.00 C 479.98 629.33 480.01 650.66 480.00 672.00 C 437.34 672.00 394.67 671.99 352.01 672.01 C 351.98 650.66 352.02 629.32 352.00 607.99 Z" />
</g>
<g id="#000015ff">
<path fill="#000015" opacity="1.00" d=" M 575.99 640.00 C 586.65 640.00 597.33 640.00 608.00 640.00 C 607.98 650.66 607.98 661.33 608.00 672.00 C 597.34 671.98 586.69 671.97 576.05 672.00 C 576.02 661.33 576.00 650.66 575.99 640.00 Z" />
</g>
<g id="#f8f800ff">
<path fill="#f8f800" opacity="1.00" d=" M 704.00 640.00 C 714.66 639.99 725.33 639.99 736.00 640.00 C 736.00 650.66 735.99 661.33 736.00 672.00 C 725.33 671.98 714.66 671.98 704.00 672.01 C 704.00 661.33 704.00 650.66 704.00 640.00 Z" />
</g>
<g id="#00000cff">
<path fill="#00000c" opacity="1.00" d=" M 544.00 672.00 C 554.68 672.01 565.36 672.01 576.05 672.00 C 576.09 682.31 576.33 692.63 575.85 702.95 C 565.33 704.78 554.60 704.03 543.99 704.08 C 544.01 693.38 544.01 682.68 544.00 672.00 Z" />
</g>
<g id="#050505ff">
<path fill="#050505" opacity="1.00" d=" M 703.99 704.00 C 714.66 704.01 725.32 704.00 736.00 703.99 C 735.98 714.66 735.99 725.33 736.01 736.02 C 725.32 735.96 714.65 735.96 703.98 736.02 C 704.02 725.34 704.03 714.67 703.99 704.00 Z" />
</g>
<g id="#acacacff">
<path fill="#acacac" opacity="1.00" d=" M 160.00 960.00 C 170.66 959.99 181.33 959.99 192.00 960.00 C 192.00 970.66 192.00 981.32 192.00 992.00 C 181.33 991.99 170.67 991.99 160.00 992.00 C 160.00 981.32 160.00 970.66 160.00 960.00 Z" />
</g>
<g id="#c0c0c0ff">
<path fill="#c0c0c0" opacity="1.00" d=" M 192.00 960.00 C 416.00 960.00 640.00 960.00 864.00 960.00 C 874.66 959.99 885.32 959.99 896.00 960.00 C 895.99 970.66 895.99 981.32 896.00 992.00 C 661.33 992.00 426.67 992.00 192.00 992.00 C 192.00 981.32 192.00 970.66 192.00 960.00 Z" />
</g>
</svg>
