<?xml version="1.0" encoding="UTF-8" ?>
<!DOCTYPE svg PUBLIC "-//W3C//DTD SVG 1.1//EN" "http://www.w3.org/Graphics/SVG/1.1/DTD/svg11.dtd">
<svg width="1024pt" height="1024pt" viewBox="0 0 1024 1024" version="1.1" xmlns="http://www.w3.org/2000/svg">
<g id="#000000ff">
<path fill="#000000" opacity="1.00" d=" M 416.01 32.00 C 437.34 32.01 458.67 31.98 480.00 32.01 C 479.99 42.67 479.99 53.34 480.00 64.00 C 458.67 63.99 437.34 64.01 416.01 64.00 C 415.97 53.33 415.98 42.67 416.01 32.00 Z" />
<path fill="#000000" opacity="1.00" d=" M 576.00 32.01 C 597.33 32.00 618.66 31.99 640.00 32.01 C 640.01 42.67 640.00 53.33 639.99 64.00 C 618.66 64.02 597.33 63.98 576.00 64.00 C 575.99 53.34 575.99 42.67 576.00 32.01 Z" />
<path fill="#000000" opacity="1.00" d=" M 352.01 64.01 C 362.67 63.98 373.33 63.98 384.00 64.01 C 384.01 74.67 384.00 85.33 383.99 95.99 C 373.33 96.01 362.67 96.02 352.01 96.00 C 351.97 85.34 351.97 74.67 352.01 64.01 Z" />
<path fill="#000000" opacity="1.00" d=" M 864.00 224.01 C 874.66 223.98 885.32 223.98 896.00 224.01 C 896.00 256.01 895.99 288.00 896.00 320.00 C 906.66 319.99 917.32 320.00 928.00 320.00 C 928.00 416.00 928.00 512.00 928.00 608.00 C 917.32 607.99 906.66 608.00 896.00 608.00 C 895.99 650.67 896.00 693.33 896.00 736.00 C 885.32 735.98 874.66 736.00 864.00 736.00 C 863.97 757.33 864.03 778.66 863.99 800.00 C 853.32 799.99 842.65 799.99 832.00 800.00 C 832.00 810.66 831.99 821.33 832.00 832.00 C 821.33 831.99 810.66 831.99 800.00 832.00 C 799.97 853.33 800.03 874.66 799.99 896.00 C 789.32 895.99 778.66 895.99 768.00 896.00 C 768.00 906.66 767.99 917.32 768.00 928.00 C 757.32 927.99 746.66 927.99 736.00 928.00 C 736.00 938.66 735.99 949.32 736.00 960.00 C 714.66 960.02 693.33 959.97 672.00 960.01 C 672.00 970.66 671.99 981.32 672.00 992.00 C 597.33 992.00 522.66 992.00 448.00 991.99 C 448.00 981.32 447.99 970.66 448.00 960.00 C 426.66 959.97 405.33 960.03 384.00 959.99 C 384.00 949.32 383.99 938.65 384.00 928.00 C 373.33 927.99 362.66 927.99 352.00 928.00 C 352.00 917.32 352.00 906.66 352.00 896.00 C 341.34 896.00 330.68 895.99 320.03 896.00 C 320.06 885.31 320.04 874.62 319.49 863.96 C 308.98 864.04 298.48 864.04 287.98 863.97 C 287.80 842.63 288.53 821.27 287.53 799.95 C 277.01 800.03 266.50 800.05 255.98 799.98 C 255.80 778.63 256.53 757.27 255.53 735.95 C 245.02 736.03 234.51 736.05 224.00 735.97 C 224.00 714.65 224.00 693.32 224.00 672.00 C 234.66 671.98 245.32 671.99 255.98 672.00 C 256.08 693.33 255.92 714.66 256.01 736.00 C 266.67 735.99 277.32 736.00 287.98 736.00 C 288.08 757.33 287.92 778.66 288.01 800.00 C 298.67 799.99 309.32 800.00 319.98 800.00 C 320.09 821.33 319.90 842.66 320.03 863.99 C 352.02 864.01 384.01 863.99 416.00 864.00 C 415.98 874.66 415.98 885.32 416.01 895.99 C 426.67 896.00 437.33 896.00 448.00 896.00 C 458.66 895.98 469.33 895.98 480.00 896.00 C 490.66 896.00 501.33 895.98 512.00 896.00 C 544.00 896.00 576.00 895.99 608.00 896.00 C 618.66 896.00 629.32 895.99 639.99 896.00 C 640.01 885.32 640.01 874.65 640.00 864.00 C 672.00 864.00 704.00 864.00 736.00 864.00 C 735.99 853.32 735.99 842.66 736.00 832.00 C 746.66 832.00 757.32 831.98 768.00 832.00 C 767.99 800.00 768.00 768.00 767.99 736.00 C 778.65 736.00 789.31 735.98 799.98 736.00 C 800.02 725.33 800.01 714.66 800.00 704.00 C 810.66 704.01 821.32 704.01 831.99 703.99 C 832.01 693.32 831.99 682.66 832.00 672.00 C 832.01 650.66 831.99 629.33 832.00 608.00 C 842.66 608.00 853.32 607.98 863.99 608.00 C 864.01 554.67 863.99 501.33 864.00 448.00 C 874.66 448.00 885.32 447.99 895.99 448.00 C 896.01 426.67 895.98 405.33 896.01 384.00 C 885.33 384.00 874.66 383.99 864.01 384.00 C 863.99 330.67 864.00 277.34 864.00 224.01 Z" />
<path fill="#000000" opacity="1.00" d=" M 704.00 320.01 C 714.66 319.98 725.33 319.98 736.00 320.00 C 735.98 330.66 736.00 341.32 736.00 351.99 C 757.33 352.05 778.66 351.96 800.00 352.00 C 799.97 362.66 799.98 373.33 800.00 384.00 C 800.00 394.66 800.00 405.32 799.99 415.98 C 778.66 416.09 757.33 415.91 736.00 416.02 C 736.00 426.67 735.99 437.33 736.00 447.99 C 704.00 448.00 672.00 448.01 640.00 447.99 C 640.00 437.33 639.99 426.67 640.00 416.01 C 629.33 415.97 618.66 415.99 608.00 416.00 C 607.99 405.33 607.98 394.66 608.00 384.00 C 618.66 384.00 629.33 384.00 640.00 384.00 C 639.99 373.33 640.00 362.67 640.00 352.01 C 650.62 351.97 661.25 351.98 671.88 352.00 C 682.58 352.01 693.29 352.02 704.00 351.99 C 703.99 341.33 703.99 330.67 704.00 320.01 Z" />
<path fill="#000000" opacity="1.00" d=" M 287.98 352.00 C 319.99 351.99 351.99 352.00 384.00 352.00 C 383.99 362.66 384.01 373.32 384.00 383.99 C 394.70 384.02 405.40 384.01 416.11 384.00 C 426.74 383.98 437.36 383.97 447.99 384.01 C 448.01 394.67 448.01 405.33 448.00 416.00 C 437.33 415.98 426.67 415.97 416.01 416.02 C 415.99 426.67 415.98 437.33 416.00 448.00 C 405.33 447.99 394.66 448.00 384.00 448.00 C 362.67 447.98 341.33 448.02 320.00 448.00 C 320.00 437.33 319.99 426.67 320.00 416.02 C 298.67 415.91 277.34 416.09 256.01 415.98 C 255.98 405.31 255.98 394.65 256.00 384.00 C 266.66 384.01 277.32 384.01 287.98 383.99 C 288.03 373.33 288.00 362.66 287.98 352.00 Z" />
<path fill="#000000" opacity="1.00" d=" M 160.01 448.00 C 170.67 447.98 181.33 447.99 191.99 448.01 C 192.01 458.66 192.02 469.33 192.00 479.99 C 181.34 480.01 170.67 480.01 160.01 479.99 C 159.97 469.32 159.98 458.66 160.01 448.00 Z" />
<path fill="#000000" opacity="1.00" d=" M 192.01 544.00 C 202.67 543.98 213.33 543.99 223.99 544.01 C 224.01 554.66 224.01 565.32 224.00 575.99 C 213.33 576.02 202.67 576.01 192.01 575.99 C 191.97 565.32 191.98 554.66 192.01 544.00 Z" />
<path fill="#000000" opacity="1.00" d=" M 512.00 544.00 C 533.33 544.01 554.67 543.98 576.00 544.00 C 586.66 544.00 597.33 544.00 608.00 544.00 C 608.01 554.66 608.01 565.32 607.99 575.99 C 575.99 576.01 544.00 576.00 512.01 575.99 C 511.98 565.32 511.98 554.66 512.00 544.00 Z" />
<path fill="#000000" opacity="1.00" d=" M 448.00 608.01 C 458.66 607.96 469.32 607.96 479.99 608.01 C 480.01 618.67 480.00 629.33 480.00 640.00 C 479.99 650.66 479.98 661.33 480.00 672.00 C 480.01 682.66 479.99 693.33 480.00 704.00 C 480.00 746.67 480.00 789.33 480.00 832.00 C 469.33 832.00 458.66 832.00 448.00 832.00 C 448.01 821.33 448.01 810.66 447.99 800.01 C 437.32 799.98 426.66 799.99 416.00 800.00 C 416.00 789.33 415.99 778.66 416.00 768.00 C 416.00 746.66 416.00 725.33 416.00 704.00 C 426.66 704.01 437.33 704.00 448.00 703.99 C 448.01 693.32 448.00 682.66 448.00 672.00 C 448.00 661.33 447.99 650.66 448.00 640.00 C 448.00 629.33 447.98 618.67 448.00 608.01 Z" />
<path fill="#000000" opacity="1.00" d=" M 512.00 608.08 C 522.66 607.99 533.32 607.99 543.99 607.99 C 544.01 618.65 544.00 629.32 544.00 640.00 C 543.99 650.66 543.98 661.33 544.00 672.00 C 544.01 682.66 543.99 693.33 544.00 704.00 C 544.00 736.00 544.00 768.00 544.00 800.00 C 544.01 810.66 544.01 821.32 543.99 831.99 C 533.32 832.00 522.66 832.00 512.00 832.00 C 512.00 789.33 512.00 746.67 512.00 704.00 C 511.99 693.33 511.99 682.66 512.00 672.00 C 511.99 661.33 511.99 650.66 512.00 640.00 C 511.99 629.35 511.99 618.71 512.00 608.08 Z" />
<path fill="#000000" opacity="1.00" d=" M 576.01 607.99 C 586.66 607.99 597.33 608.00 608.00 608.09 C 607.99 618.72 607.99 629.36 608.00 640.00 C 608.00 704.00 608.00 768.00 608.00 832.00 C 597.33 832.01 586.66 831.99 576.00 831.99 C 575.99 821.32 575.99 810.66 576.00 800.00 C 576.00 768.00 576.00 736.00 576.00 704.00 C 576.00 693.33 575.99 682.66 576.00 672.00 C 576.00 661.33 576.00 650.66 576.00 640.00 C 575.98 629.32 575.98 618.65 576.01 607.99 Z" />
<path fill="#000000" opacity="1.00" d=" M 640.00 608.01 C 650.66 607.96 661.33 607.96 672.00 608.01 C 672.00 618.67 671.98 629.33 672.00 640.00 C 672.01 661.33 671.98 682.66 672.00 704.00 C 682.66 704.00 693.33 703.99 704.00 704.00 C 703.99 714.66 704.00 725.32 704.00 735.99 C 703.98 746.66 703.99 757.32 704.00 768.00 C 704.00 778.66 704.00 789.32 704.00 800.00 C 693.33 799.99 682.66 799.99 672.00 800.00 C 672.00 810.66 671.98 821.32 672.00 831.99 C 661.33 832.00 650.66 832.00 640.00 832.00 C 640.00 768.00 640.00 704.00 640.00 640.00 C 639.99 629.33 639.99 618.67 640.00 608.01 Z" />
</g>
<g id="#b6b6a3ff">
<path fill="#b6b6a3" opacity="1.00" d=" M 480.00 32.01 C 490.66 31.97 501.33 31.99 512.00 32.01 C 511.99 42.67 512.00 53.34 512.00 64.00 C 501.33 64.00 490.66 64.00 480.00 64.00 C 479.99 53.34 479.99 42.67 480.00 32.01 Z" />
<path fill="#b6b6a3" opacity="1.00" d=" M 544.00 32.01 C 554.66 31.98 565.33 31.97 576.00 32.01 C 575.99 42.67 575.99 53.34 576.00 64.00 C 565.33 64.01 554.66 64.00 544.00 64.00 C 543.99 53.34 544.00 42.68 544.00 32.01 Z" />
<path fill="#b6b6a3" opacity="1.00" d=" M 512.00 64.00 C 522.66 64.00 533.33 64.00 544.00 64.00 C 544.01 74.67 544.00 85.33 544.00 96.00 C 533.33 96.01 522.66 96.01 512.00 96.00 C 512.00 85.33 511.99 74.67 512.00 64.00 Z" />
<path fill="#b6b6a3" opacity="1.00" d=" M 288.00 96.02 C 298.66 95.98 309.33 95.97 320.00 96.01 C 320.01 106.66 320.00 117.30 319.99 127.95 C 309.41 127.99 298.82 128.07 288.24 128.28 C 288.05 138.84 287.98 149.39 287.96 159.95 C 277.38 159.99 266.81 160.07 256.24 160.28 C 256.05 170.85 255.98 181.42 255.96 191.99 C 245.31 192.00 234.66 192.01 224.01 192.00 C 223.97 181.33 223.98 170.67 224.01 160.00 C 234.67 160.00 245.34 159.99 256.00 160.00 C 255.99 149.33 256.00 138.66 256.00 128.00 C 266.67 128.00 277.33 128.00 288.00 128.00 C 287.99 117.34 288.00 106.68 288.00 96.02 Z" />
<path fill="#b6b6a3" opacity="1.00" d=" M 480.01 96.01 C 490.67 95.98 501.33 95.99 512.00 96.00 C 512.00 106.66 512.01 117.33 512.00 127.99 C 501.33 128.01 490.67 128.01 480.01 128.00 C 479.96 117.34 479.97 106.67 480.01 96.01 Z" />
<path fill="#b6b6a3" opacity="1.00" d=" M 544.00 96.00 C 554.66 95.99 565.32 95.99 575.99 96.00 C 576.01 106.66 576.01 117.32 576.00 127.99 C 565.33 128.03 554.67 128.03 544.01 127.99 C 543.98 117.32 543.98 106.66 544.00 96.00 Z" />
<path fill="#b6b6a3" opacity="1.00" d=" M 736.00 96.01 C 746.66 95.98 757.32 95.98 768.00 96.01 C 767.99 106.67 768.00 117.34 768.00 128.00 C 778.66 127.99 789.33 128.00 800.00 128.00 C 799.99 138.67 799.99 149.33 800.00 160.00 C 810.66 159.99 821.33 160.00 832.00 160.00 C 831.99 170.67 831.99 181.33 832.00 192.00 C 842.66 191.99 853.32 192.00 863.99 192.00 C 864.00 202.67 864.00 213.34 864.00 224.01 C 864.00 277.34 863.99 330.67 864.01 384.00 C 874.66 383.99 885.33 384.00 896.01 384.00 C 895.98 405.33 896.01 426.67 895.99 448.00 C 885.32 447.99 874.66 448.00 864.00 448.00 C 863.99 501.33 864.01 554.67 863.99 608.00 C 853.32 607.98 842.66 608.00 832.00 608.00 C 831.99 629.33 832.01 650.66 832.00 672.00 C 821.33 671.98 810.67 671.98 800.01 672.01 C 799.97 682.67 799.97 693.33 800.00 704.00 C 800.01 714.66 800.02 725.33 799.98 736.00 C 789.31 735.98 778.65 736.00 767.99 736.00 C 768.00 768.00 767.99 800.00 768.00 832.00 C 757.32 831.98 746.66 832.00 736.00 832.00 C 735.99 842.66 735.99 853.32 736.00 864.00 C 704.00 864.00 672.00 864.00 640.00 864.00 C 629.33 863.98 618.66 863.98 608.01 864.01 C 607.98 874.66 607.98 885.33 608.00 896.00 C 576.00 895.99 544.00 896.00 512.00 896.00 C 512.01 885.33 512.01 874.67 511.99 864.01 C 501.32 863.96 490.66 863.96 480.00 864.01 C 479.99 874.67 479.99 885.33 480.00 896.00 C 469.33 895.98 458.66 895.98 448.00 896.00 C 448.01 885.33 448.01 874.66 447.99 864.01 C 437.32 863.98 426.66 863.98 416.00 864.00 C 384.01 863.99 352.02 864.01 320.03 863.99 C 319.90 842.66 320.09 821.33 319.98 800.00 C 309.32 800.00 298.67 799.99 288.01 800.00 C 287.92 778.66 288.08 757.33 287.98 736.00 C 277.32 736.00 266.67 735.99 256.01 736.00 C 255.92 714.66 256.08 693.33 255.98 672.00 C 245.32 671.99 234.66 671.98 224.00 672.00 C 224.01 650.66 223.98 629.33 224.01 608.00 C 234.67 608.00 245.34 607.99 256.00 608.00 C 255.98 618.66 255.98 629.32 256.01 639.99 C 266.67 640.01 277.34 640.01 288.00 640.00 C 287.99 650.66 287.98 661.32 288.01 671.99 C 298.67 672.01 309.33 672.01 320.00 672.00 C 320.00 682.66 319.99 693.33 320.00 704.00 C 309.32 703.98 298.65 703.97 287.98 704.01 C 287.95 714.57 287.99 725.14 288.26 735.71 C 298.84 735.95 309.42 736.00 320.00 736.02 C 319.98 746.67 319.98 757.33 320.01 767.99 C 330.67 768.01 341.33 768.01 352.00 768.00 C 351.98 778.65 351.98 789.32 352.01 799.99 C 362.67 800.01 373.33 800.01 384.00 799.99 C 383.98 810.65 383.97 821.32 384.01 832.00 C 405.34 832.02 426.67 831.97 448.00 832.00 C 458.66 832.00 469.33 832.00 480.00 832.00 C 490.66 831.98 501.33 831.98 512.00 832.00 C 522.66 832.00 533.32 832.00 543.99 831.99 C 544.01 821.32 544.01 810.66 544.00 800.00 C 554.66 799.99 565.33 799.99 576.00 800.00 C 575.99 810.66 575.99 821.32 576.00 831.99 C 586.66 831.99 597.33 832.01 608.00 832.00 C 618.66 831.97 629.33 831.98 640.00 832.00 C 650.66 832.00 661.33 832.00 672.00 831.99 C 671.98 821.32 672.00 810.66 672.00 800.00 C 682.66 799.99 693.33 799.99 704.00 800.00 C 704.00 789.32 704.00 778.66 704.00 768.00 C 714.66 768.01 725.32 768.01 735.99 767.99 C 736.01 757.33 736.01 746.68 736.00 736.04 C 746.35 736.10 756.72 736.36 767.08 735.82 C 768.32 725.26 768.04 714.60 768.20 704.01 C 757.46 703.97 746.73 703.98 736.00 704.01 C 735.99 693.33 735.99 682.66 736.00 672.00 C 746.66 672.01 757.32 672.01 767.99 671.99 C 768.01 661.32 768.01 650.66 768.00 640.00 C 778.65 640.01 789.31 640.01 799.99 639.99 C 800.02 629.32 800.02 618.66 799.99 608.00 C 789.32 607.98 778.66 607.99 768.00 608.00 C 768.00 597.33 767.99 586.66 768.00 576.00 C 778.65 576.01 789.32 576.01 799.99 575.99 C 800.02 565.32 800.02 554.66 799.99 544.00 C 789.32 543.98 778.66 543.99 768.00 544.00 C 767.98 533.33 767.97 522.66 768.01 512.00 C 778.67 512.00 789.33 511.99 800.00 512.00 C 799.99 501.33 799.99 490.66 800.00 480.00 C 810.66 480.00 821.33 479.99 832.00 480.00 C 832.00 469.33 832.01 458.66 831.99 448.00 C 821.31 448.00 810.63 447.99 799.96 448.00 C 799.96 437.42 800.01 426.85 800.25 416.28 C 810.82 416.07 821.40 415.99 831.99 415.95 C 832.02 405.29 832.02 394.65 831.99 384.00 C 821.32 383.99 810.66 383.99 800.00 384.00 C 799.98 373.33 799.97 362.66 800.00 352.00 C 810.65 352.02 821.32 352.01 831.99 351.99 C 832.02 341.34 832.02 330.69 831.99 320.05 C 821.41 320.00 810.84 319.95 800.29 319.76 C 800.04 309.19 799.98 298.62 799.98 288.06 C 810.64 288.03 821.31 288.02 831.99 287.98 C 832.02 277.32 832.02 266.66 831.99 256.00 C 821.31 255.98 810.65 255.99 800.00 256.00 C 799.99 245.33 799.99 234.66 799.99 224.00 C 810.66 224.01 821.34 224.02 832.02 223.99 C 832.04 213.42 831.99 202.85 831.74 192.29 C 821.17 192.04 810.61 191.99 800.06 191.98 C 800.09 181.82 800.44 171.63 799.59 161.50 C 799.31 161.23 798.77 160.69 798.50 160.42 C 788.37 159.55 778.20 159.90 768.06 159.94 C 768.08 149.81 768.48 139.65 767.53 129.56 C 767.29 129.26 766.81 128.66 766.57 128.36 C 756.39 127.59 746.18 127.89 736.00 127.94 C 735.99 117.29 735.99 106.65 736.00 96.01 Z" />
<path fill="#b6b6a3" opacity="1.00" d=" M 704.01 128.02 C 714.67 127.98 725.33 127.96 736.00 127.94 C 736.00 138.63 736.00 149.31 736.00 160.00 C 725.33 160.01 714.67 160.01 704.01 160.00 C 703.96 149.34 703.96 138.68 704.01 128.02 Z" />
<path fill="#b6b6a3" opacity="1.00" d=" M 736.00 160.00 C 746.68 159.99 757.37 159.97 768.06 159.94 C 768.01 170.62 768.00 181.31 767.99 192.00 C 757.32 192.02 746.66 192.02 736.01 191.99 C 735.98 181.33 735.98 170.66 736.00 160.00 Z" />
<path fill="#b6b6a3" opacity="1.00" d=" M 767.99 192.00 C 778.68 192.01 789.36 191.98 800.06 191.98 C 800.01 202.65 800.00 213.32 799.99 224.00 C 789.32 224.01 778.66 223.99 768.01 224.00 C 767.99 213.33 767.99 202.66 767.99 192.00 Z" />
<path fill="#b6b6a3" opacity="1.00" d=" M 608.01 224.01 C 618.66 223.97 629.32 223.98 639.98 224.01 C 640.01 234.67 640.02 245.33 639.99 255.99 C 629.32 256.01 618.66 256.02 608.00 256.00 C 607.97 245.33 607.98 234.67 608.01 224.01 Z" />
<path fill="#b6b6a3" opacity="1.00" d=" M 736.01 224.01 C 746.67 223.98 757.33 223.98 768.01 224.00 C 767.99 234.67 767.97 245.33 767.94 256.00 C 757.28 256.01 746.64 256.00 736.00 256.00 C 735.97 245.33 735.98 234.67 736.01 224.01 Z" />
<path fill="#b6b6a3" opacity="1.00" d=" M 192.01 256.00 C 202.67 255.99 213.33 255.99 223.99 256.00 C 224.03 266.66 224.03 277.33 223.99 287.99 C 213.33 288.00 202.67 288.01 192.01 288.00 C 191.97 277.33 191.98 266.66 192.01 256.00 Z" />
<path fill="#b6b6a3" opacity="1.00" d=" M 384.00 256.01 C 394.66 255.97 405.32 255.97 415.99 256.01 C 416.01 266.67 416.00 277.34 416.00 288.00 C 405.33 288.00 394.67 288.02 384.01 287.99 C 383.98 277.33 383.98 266.67 384.00 256.01 Z" />
<path fill="#b6b6a3" opacity="1.00" d=" M 576.01 256.01 C 586.67 255.99 597.33 255.98 608.00 256.00 C 608.01 266.66 608.01 277.32 607.99 287.99 C 597.33 288.02 586.67 288.02 576.02 287.99 C 575.97 277.33 575.97 266.67 576.01 256.01 Z" />
<path fill="#b6b6a3" opacity="1.00" d=" M 704.00 256.01 C 714.66 255.98 725.33 255.98 736.00 256.00 C 735.99 266.63 736.00 277.27 736.00 287.90 C 725.43 287.99 714.82 287.64 704.33 288.91 C 703.55 298.88 704.78 309.23 703.01 318.98 C 693.53 320.95 682.83 319.44 672.91 320.32 C 671.63 330.82 671.98 341.44 671.88 352.00 C 661.25 351.98 650.62 351.97 640.00 352.01 C 640.00 362.67 639.99 373.33 640.00 384.00 C 629.33 384.00 618.66 384.00 608.00 384.00 C 607.98 394.66 607.99 405.33 608.00 416.00 C 597.33 416.01 586.67 416.02 576.01 415.99 C 575.98 405.34 575.98 394.70 576.00 384.05 C 586.15 384.09 596.34 384.46 606.48 383.57 C 606.76 383.31 607.33 382.79 607.61 382.53 C 608.43 372.38 608.10 362.18 608.06 352.02 C 618.62 352.00 629.19 351.95 639.76 351.71 C 639.94 341.14 640.00 330.57 640.05 320.00 C 650.69 320.00 661.34 320.00 672.00 320.00 C 671.99 309.33 671.99 298.66 672.00 288.00 C 682.66 288.00 693.33 288.00 704.00 288.00 C 703.98 277.33 704.00 266.67 704.00 256.01 Z" />
<path fill="#b6b6a3" opacity="1.00" d=" M 767.94 256.00 C 778.62 256.00 789.30 256.00 800.00 256.00 C 800.00 266.69 799.98 277.37 799.98 288.06 C 789.72 287.72 778.68 289.16 768.92 287.06 C 766.96 277.02 768.17 266.29 767.94 256.00 Z" />
<path fill="#b6b6a3" opacity="1.00" d=" M 288.00 288.00 C 309.33 287.99 330.66 288.01 351.99 288.00 C 352.01 298.66 352.01 309.32 352.00 319.99 C 330.76 320.09 309.53 319.79 288.30 320.22 C 288.04 330.81 287.97 341.40 287.98 352.00 C 288.00 362.66 288.03 373.33 287.98 383.99 C 277.32 384.01 266.66 384.01 256.00 384.00 C 256.03 362.66 255.96 341.33 256.01 320.00 C 266.67 320.00 277.33 320.00 288.00 320.00 C 287.99 309.33 288.00 298.67 288.00 288.00 Z" />
<path fill="#b6b6a3" opacity="1.00" d=" M 416.00 288.00 C 426.66 287.98 437.32 287.97 447.99 288.01 C 448.01 298.67 448.01 309.34 448.01 320.00 C 437.33 320.00 426.67 320.01 416.01 320.00 C 415.98 309.33 416.00 298.66 416.00 288.00 Z" />
<path fill="#b6b6a3" opacity="1.00" d=" M 192.01 320.00 C 202.67 319.99 213.33 319.99 223.99 320.00 C 224.03 330.66 224.03 341.32 223.99 351.99 C 213.33 352.00 202.67 352.01 192.01 352.00 C 191.98 341.33 191.97 330.66 192.01 320.00 Z" />
<path fill="#b6b6a3" opacity="1.00" d=" M 383.88 320.00 C 394.58 320.00 405.29 319.99 416.01 320.00 C 415.98 330.66 415.97 341.32 416.01 351.99 C 426.65 352.01 437.29 352.02 447.94 352.00 C 448.17 362.29 446.96 373.01 448.92 383.06 C 458.68 385.17 469.74 383.72 480.00 384.05 C 480.01 394.69 480.01 405.34 479.99 415.99 C 469.32 416.02 458.66 416.01 448.00 416.00 C 448.01 405.33 448.01 394.67 447.99 384.01 C 437.36 383.97 426.74 383.98 416.11 384.00 C 416.01 373.43 416.36 362.80 415.09 352.28 C 405.03 351.80 394.96 352.19 384.91 351.72 C 383.63 341.20 383.99 330.57 383.88 320.00 Z" />
<path fill="#b6b6a3" opacity="1.00" d=" M 448.01 320.00 C 458.66 319.98 469.32 319.98 479.99 320.01 C 480.01 330.67 480.01 341.33 480.00 352.00 C 469.31 351.99 458.62 352.00 447.94 352.00 C 447.97 341.33 447.99 330.66 448.01 320.00 Z" />
<path fill="#b6b6a3" opacity="1.00" d=" M 512.01 320.01 C 522.66 319.96 533.32 319.97 543.98 320.01 C 544.02 330.67 544.01 341.33 544.00 352.00 C 533.33 352.00 522.66 352.00 512.00 352.00 C 511.99 341.33 511.97 330.67 512.01 320.01 Z" />
<path fill="#b6b6a3" opacity="1.00" d=" M 576.00 320.01 C 586.65 319.97 597.31 319.97 607.98 320.01 C 608.01 330.68 608.03 341.35 608.06 352.02 C 597.37 352.00 586.68 351.99 576.00 352.00 C 575.99 341.33 575.98 330.67 576.00 320.01 Z" />
<path fill="#b6b6a3" opacity="1.00" d=" M 480.00 352.00 C 490.66 352.00 501.33 351.99 512.00 352.00 C 512.01 362.66 512.02 373.32 511.99 383.98 C 501.32 384.01 490.66 384.03 480.00 384.05 C 479.98 373.37 479.99 362.68 480.00 352.00 Z" />
<path fill="#b6b6a3" opacity="1.00" d=" M 544.00 352.00 C 554.66 351.99 565.33 352.00 576.00 352.00 C 576.00 362.68 576.00 373.37 576.00 384.05 C 565.33 384.03 554.67 384.01 544.02 383.98 C 543.96 373.32 543.98 362.66 544.00 352.00 Z" />
<path fill="#b6b6a3" opacity="1.00" d=" M 192.01 384.00 C 202.66 383.99 213.32 383.99 223.99 384.00 C 224.03 394.63 224.03 405.27 223.99 415.91 C 213.62 415.88 203.25 415.64 192.90 416.19 C 191.58 426.65 192.04 437.23 192.13 447.76 C 202.74 447.95 213.36 448.00 223.99 448.05 C 224.03 458.69 224.03 469.34 223.99 479.99 C 213.32 480.01 202.66 480.01 192.00 479.99 C 192.02 469.33 192.01 458.66 191.99 448.01 C 181.33 447.99 170.67 447.98 160.01 448.00 C 159.97 437.33 159.98 426.66 160.01 416.00 C 170.67 416.00 181.34 415.99 192.00 416.00 C 191.99 405.33 192.00 394.66 192.01 384.00 Z" />
<path fill="#b6b6a3" opacity="1.00" d=" M 256.01 448.02 C 266.67 447.97 277.32 447.97 287.99 448.01 C 288.01 458.67 288.02 469.33 288.00 480.00 C 277.33 480.01 266.67 480.01 256.01 479.99 C 255.97 469.33 255.98 458.67 256.01 448.02 Z" />
<path fill="#b6b6a3" opacity="1.00" d=" M 384.00 448.00 C 394.66 448.00 405.33 447.99 416.00 448.00 C 416.01 458.66 416.01 469.33 416.00 480.00 C 405.33 480.01 394.66 479.99 384.00 480.00 C 383.99 469.33 383.99 458.66 384.00 448.00 Z" />
<path fill="#b6b6a3" opacity="1.00" d=" M 448.00 448.01 C 458.66 447.98 469.32 447.98 479.99 448.00 C 480.03 458.66 480.02 469.32 479.99 479.99 C 469.32 480.01 458.66 480.01 448.00 480.00 C 447.99 469.33 447.98 458.67 448.00 448.01 Z" />
<path fill="#b6b6a3" opacity="1.00" d=" M 576.00 448.01 C 586.66 447.96 597.32 447.97 607.99 448.01 C 608.01 458.67 608.00 469.33 608.00 480.00 C 597.33 480.00 586.67 480.02 576.01 479.99 C 575.98 469.33 575.98 458.67 576.00 448.01 Z" />
<path fill="#b6b6a3" opacity="1.00" d=" M 288.00 480.00 C 298.66 479.98 309.32 479.98 319.99 480.01 C 320.02 490.66 320.02 501.32 319.99 511.98 C 309.33 512.02 298.67 512.02 288.01 511.99 C 287.99 501.32 287.98 490.66 288.00 480.00 Z" />
<path fill="#b6b6a3" opacity="1.00" d=" M 352.01 480.01 C 362.67 479.98 373.33 479.98 384.00 480.00 C 384.00 490.66 384.01 501.32 384.00 511.99 C 373.33 512.01 362.67 512.01 352.01 512.00 C 351.96 501.33 351.97 490.67 352.01 480.01 Z" />
<path fill="#b6b6a3" opacity="1.00" d=" M 416.00 480.00 C 426.66 479.98 437.33 480.00 448.00 480.00 C 447.99 490.66 448.00 501.33 448.00 512.00 C 437.33 512.02 426.67 512.02 416.01 511.99 C 415.98 501.32 415.97 490.66 416.00 480.00 Z" />
<path fill="#b6b6a3" opacity="1.00" d=" M 608.00 480.00 C 618.66 479.98 629.33 479.97 640.00 480.01 C 640.01 490.67 639.99 501.33 639.93 512.00 C 629.28 512.01 618.64 512.00 608.00 512.00 C 607.98 501.33 607.99 490.66 608.00 480.00 Z" />
<path fill="#b6b6a3" opacity="1.00" d=" M 192.01 512.00 C 202.66 511.98 213.30 511.99 223.95 512.01 C 223.99 522.59 224.07 533.17 224.28 543.76 C 234.85 543.94 245.42 544.01 255.99 544.04 C 256.02 554.69 256.01 565.34 256.00 576.00 C 245.33 576.00 234.66 576.00 224.00 575.99 C 224.01 565.32 224.01 554.66 223.99 544.01 C 213.33 543.99 202.67 543.98 192.01 544.00 C 191.97 533.33 191.98 522.66 192.01 512.00 Z" />
<path fill="#b6b6a3" opacity="1.00" d=" M 448.00 512.00 C 458.73 511.97 469.46 511.97 480.20 512.01 C 480.04 522.61 480.33 533.26 479.08 543.82 C 468.72 544.37 458.35 544.10 447.99 544.05 C 448.00 533.36 447.99 522.68 448.00 512.00 Z" />
<path fill="#b6b6a3" opacity="1.00" d=" M 576.01 512.01 C 586.67 511.98 597.33 511.98 608.00 512.00 C 607.99 522.66 607.99 533.33 608.00 544.00 C 597.33 544.00 586.66 544.00 576.00 544.00 C 575.98 533.33 575.98 522.67 576.01 512.01 Z" />
<path fill="#b6b6a3" opacity="1.00" d=" M 639.93 512.00 C 650.61 511.97 661.30 511.98 671.99 512.01 C 672.01 522.69 672.01 533.37 672.00 544.06 C 661.74 543.72 650.68 545.17 640.92 543.06 C 638.96 533.01 640.16 522.29 639.93 512.00 Z" />
<path fill="#b6b6a3" opacity="1.00" d=" M 704.00 512.01 C 714.66 511.96 725.32 511.97 735.99 512.01 C 736.01 522.67 736.01 533.33 736.00 544.00 C 725.32 543.99 714.66 543.99 704.00 543.99 C 703.99 533.33 703.98 522.67 704.00 512.01 Z" />
<path fill="#b6b6a3" opacity="1.00" d=" M 352.00 544.01 C 362.66 543.96 373.32 543.97 383.99 544.01 C 384.01 554.67 384.01 565.33 384.00 576.00 C 373.33 576.00 362.67 576.01 352.01 576.00 C 351.98 565.33 351.98 554.67 352.00 544.01 Z" />
<path fill="#b6b6a3" opacity="1.00" d=" M 416.01 544.00 C 426.67 543.98 437.33 543.99 447.99 544.05 C 448.00 554.69 448.01 565.34 448.06 576.00 C 437.37 575.99 426.69 575.99 416.00 576.00 C 415.98 565.33 415.98 554.66 416.01 544.00 Z" />
<path fill="#b6b6a3" opacity="1.00" d=" M 672.00 544.06 C 682.66 544.01 693.33 544.00 704.00 543.99 C 703.99 554.66 704.00 565.33 704.00 576.00 C 693.30 575.99 682.62 575.99 671.94 576.00 C 671.96 565.35 671.99 554.70 672.00 544.06 Z" />
<path fill="#b6b6a3" opacity="1.00" d=" M 736.00 544.00 C 746.66 544.00 757.32 543.99 768.00 544.00 C 767.99 554.66 768.00 565.33 768.00 576.00 C 757.32 575.99 746.66 575.98 736.00 576.00 C 735.98 565.33 735.99 554.66 736.00 544.00 Z" />
<path fill="#b6b6a3" opacity="1.00" d=" M 256.00 576.00 C 266.66 575.97 277.32 575.98 287.99 576.01 C 288.02 586.67 288.01 597.33 288.00 608.00 C 277.33 607.99 266.67 608.00 256.00 608.00 C 255.99 597.33 256.01 586.66 256.00 576.00 Z" />
<path fill="#b6b6a3" opacity="1.00" d=" M 384.00 576.00 C 394.66 576.00 405.33 575.99 416.00 576.00 C 416.00 586.68 416.00 597.37 416.00 608.06 C 405.33 608.02 394.66 608.00 384.00 608.00 C 383.98 597.32 384.00 586.66 384.00 576.00 Z" />
<path fill="#b6b6a3" opacity="1.00" d=" M 448.06 576.00 C 458.68 575.99 469.30 575.99 479.93 576.00 C 479.90 586.30 479.70 596.62 480.16 606.93 C 490.65 608.84 501.39 607.99 512.00 608.08 C 511.99 618.71 511.99 629.35 512.00 640.00 C 501.33 639.99 490.66 639.99 480.00 640.00 C 480.00 629.33 480.01 618.67 479.99 608.01 C 469.32 607.96 458.66 607.96 448.00 608.01 C 447.98 618.67 448.00 629.33 448.00 640.00 C 437.33 639.99 426.66 639.99 416.00 640.00 C 416.00 629.35 415.99 618.70 416.00 608.06 C 426.16 608.10 436.35 608.45 446.50 607.58 C 446.77 607.31 447.31 606.77 447.59 606.50 C 448.45 596.35 448.10 586.16 448.06 576.00 Z" />
<path fill="#b6b6a3" opacity="1.00" d=" M 640.08 576.00 C 650.69 575.99 661.31 575.99 671.94 576.00 C 671.89 586.16 671.54 596.35 672.41 606.50 C 672.69 606.77 673.23 607.31 673.50 607.58 C 683.63 608.44 693.82 608.09 704.00 608.06 C 704.00 618.70 703.99 629.35 704.00 640.00 C 693.33 639.99 682.66 639.99 672.00 640.00 C 671.98 629.33 672.00 618.67 672.00 608.01 C 661.33 607.96 650.66 607.96 640.00 608.01 C 639.99 618.67 639.99 629.33 640.00 640.00 C 629.33 639.99 618.66 639.99 608.00 640.00 C 607.99 629.36 607.99 618.72 608.00 608.09 C 618.60 608.01 629.33 608.81 639.84 606.94 C 640.29 596.62 640.09 586.31 640.08 576.00 Z" />
<path fill="#b6b6a3" opacity="1.00" d=" M 704.00 576.00 C 714.66 575.99 725.33 576.00 736.00 576.00 C 735.99 586.66 735.99 597.32 736.00 607.99 C 725.33 608.00 714.66 608.02 704.00 608.06 C 703.99 597.37 704.00 586.68 704.00 576.00 Z" />
<path fill="#b6b6a3" opacity="1.00" d=" M 288.00 608.00 C 298.66 607.97 309.32 607.98 319.99 608.01 C 320.01 618.67 320.01 629.33 320.00 640.00 C 309.33 639.99 298.67 639.99 288.00 640.00 C 287.99 629.33 288.01 618.66 288.00 608.00 Z" />
<path fill="#b6b6a3" opacity="1.00" d=" M 352.01 608.01 C 362.67 607.98 373.33 607.98 384.00 608.00 C 383.99 618.66 383.99 629.33 384.00 640.00 C 373.33 639.99 362.67 639.99 352.00 640.00 C 351.98 629.33 351.98 618.67 352.01 608.01 Z" />
<path fill="#b6b6a3" opacity="1.00" d=" M 736.00 607.99 C 746.66 608.00 757.33 607.99 768.00 608.00 C 767.99 618.66 767.99 629.33 768.00 640.00 C 757.32 639.99 746.66 639.98 736.00 640.00 C 735.99 629.33 735.99 618.66 736.00 607.99 Z" />
<path fill="#b6b6a3" opacity="1.00" d=" M 320.00 640.00 C 330.66 639.99 341.33 639.99 352.00 640.00 C 352.00 650.66 352.00 661.33 352.00 672.00 C 341.33 671.99 330.66 671.99 320.00 672.00 C 319.99 661.32 320.00 650.66 320.00 640.00 Z" />
<path fill="#b6b6a3" opacity="1.00" d=" M 384.00 640.00 C 394.66 639.99 405.33 639.99 416.00 640.00 C 416.00 650.66 416.00 661.33 416.00 672.00 C 405.33 671.99 394.66 671.99 384.00 672.00 C 384.00 661.33 383.99 650.66 384.00 640.00 Z" />
<path fill="#b6b6a3" opacity="1.00" d=" M 704.00 640.00 C 714.66 639.99 725.33 639.99 736.00 640.00 C 735.99 650.66 735.99 661.32 736.00 672.00 C 725.33 672.01 714.67 672.00 704.01 672.00 C 703.97 661.32 703.98 650.66 704.00 640.00 Z" />
<path fill="#b6b6a3" opacity="1.00" d=" M 352.00 672.00 C 362.66 671.99 373.33 671.99 384.00 672.00 C 384.01 682.66 384.01 693.32 383.99 703.99 C 373.32 704.01 362.66 704.01 352.00 704.00 C 352.00 693.32 351.99 682.66 352.00 672.00 Z" />
<path fill="#b6b6a3" opacity="1.00" d=" M 416.00 672.00 C 426.66 671.99 437.33 671.99 448.00 672.00 C 448.00 682.66 448.01 693.32 448.00 703.99 C 437.33 704.00 426.66 704.01 416.00 704.00 C 416.00 693.32 415.99 682.66 416.00 672.00 Z" />
<path fill="#b6b6a3" opacity="1.00" d=" M 480.00 672.00 C 490.66 671.99 501.33 671.99 512.00 672.00 C 511.99 682.66 511.99 693.33 512.00 704.00 C 501.33 703.99 490.66 703.99 480.00 704.00 C 479.99 693.33 480.01 682.66 480.00 672.00 Z" />
<path fill="#b6b6a3" opacity="1.00" d=" M 544.00 672.00 C 554.66 671.99 565.33 671.99 576.00 672.00 C 575.99 682.66 576.00 693.33 576.00 704.00 C 565.33 703.99 554.66 703.99 544.00 704.00 C 543.99 693.33 544.01 682.66 544.00 672.00 Z" />
<path fill="#b6b6a3" opacity="1.00" d=" M 320.00 704.00 C 330.66 703.98 341.33 704.00 352.00 704.00 C 352.00 714.66 351.99 725.33 352.00 736.00 C 341.33 735.98 330.66 736.01 320.00 736.02 C 320.00 725.34 320.01 714.67 320.00 704.00 Z" />
<path fill="#b6b6a3" opacity="1.00" d=" M 704.00 704.00 C 714.66 703.99 725.33 703.98 736.00 704.01 C 735.99 714.68 735.99 725.35 736.00 736.04 C 725.32 736.00 714.66 736.00 704.00 735.99 C 704.00 725.32 703.99 714.66 704.00 704.00 Z" />
<path fill="#b6b6a3" opacity="1.00" d=" M 352.00 736.00 C 362.66 735.97 373.32 735.97 383.99 736.01 C 384.02 746.67 384.01 757.33 384.00 768.00 C 373.33 767.99 362.66 767.99 352.00 768.00 C 352.00 757.32 352.01 746.66 352.00 736.00 Z" />
<path fill="#b6b6a3" opacity="1.00" d=" M 384.00 768.00 C 394.66 767.99 405.33 767.99 416.00 768.00 C 415.99 778.66 416.00 789.33 416.00 800.00 C 405.33 799.99 394.67 800.01 384.00 799.99 C 383.99 789.32 384.01 778.66 384.00 768.00 Z" />
</g>
<g id="#fff9e8ff">
<path fill="#fff9e8" opacity="1.00" d=" M 512.00 32.01 C 522.66 31.98 533.33 31.97 544.00 32.01 C 544.00 42.68 543.99 53.34 544.00 64.00 C 533.33 64.00 522.66 64.00 512.00 64.00 C 512.00 53.34 511.99 42.67 512.00 32.01 Z" />
<path fill="#fff9e8" opacity="1.00" d=" M 640.00 32.01 C 650.66 31.97 661.33 31.99 672.00 32.01 C 671.99 42.67 672.00 53.33 672.00 64.00 C 693.33 64.03 714.66 63.97 735.99 64.01 C 736.00 74.67 736.00 85.34 736.00 96.01 C 735.99 106.65 735.99 117.29 736.00 127.94 C 725.33 127.96 714.67 127.98 704.01 128.02 C 703.96 138.68 703.96 149.34 704.01 160.00 C 714.67 160.01 725.33 160.01 736.00 160.00 C 735.98 170.66 735.98 181.33 736.01 191.99 C 746.66 192.02 757.32 192.02 767.99 192.00 C 767.99 202.66 767.99 213.33 768.01 224.00 C 757.33 223.98 746.67 223.98 736.01 224.01 C 735.98 234.67 735.97 245.33 736.00 256.00 C 725.33 255.98 714.66 255.98 704.00 256.01 C 704.00 266.67 703.98 277.33 704.00 288.00 C 693.33 288.00 682.66 288.00 672.00 288.00 C 671.99 298.66 671.99 309.33 672.00 320.00 C 661.34 320.00 650.69 320.00 640.05 320.00 C 640.00 330.57 639.94 341.14 639.76 351.71 C 629.19 351.95 618.62 352.00 608.06 352.02 C 608.03 341.35 608.01 330.68 607.98 320.01 C 597.31 319.97 586.65 319.97 576.00 320.01 C 575.98 330.67 575.99 341.33 576.00 352.00 C 565.33 352.00 554.66 351.99 544.00 352.00 C 544.01 341.33 544.02 330.67 543.98 320.01 C 533.32 319.97 522.66 319.96 512.01 320.01 C 511.97 330.67 511.99 341.33 512.00 352.00 C 501.33 351.99 490.66 352.00 480.00 352.00 C 480.01 341.33 480.01 330.67 479.99 320.01 C 469.32 319.98 458.66 319.98 448.01 320.00 C 448.01 309.34 448.01 298.67 447.99 288.01 C 437.32 287.97 426.66 287.98 416.00 288.00 C 416.00 277.34 416.01 266.67 415.99 256.01 C 405.32 255.97 394.66 255.97 384.00 256.01 C 383.98 266.67 383.98 277.33 384.01 287.99 C 394.67 288.02 405.33 288.00 416.00 288.00 C 416.00 298.66 415.98 309.33 416.01 320.00 C 405.29 319.99 394.58 320.00 383.88 320.00 C 373.24 320.01 362.62 319.97 352.00 319.99 C 352.01 309.32 352.01 298.66 351.99 288.00 C 330.66 288.01 309.33 287.99 288.00 288.00 C 288.00 298.67 287.99 309.33 288.00 320.00 C 277.33 320.00 266.67 320.00 256.01 320.00 C 255.96 341.33 256.03 362.66 256.00 384.00 C 255.98 394.65 255.98 405.31 256.01 415.98 C 277.34 416.09 298.67 415.91 320.00 416.02 C 319.99 426.67 320.00 437.33 320.00 448.00 C 341.33 448.02 362.67 447.98 384.00 448.00 C 383.99 458.66 383.99 469.33 384.00 480.00 C 373.33 479.98 362.67 479.98 352.01 480.01 C 351.97 490.67 351.96 501.33 352.01 512.00 C 362.67 512.01 373.33 512.01 384.00 511.99 C 384.01 501.32 384.00 490.66 384.00 480.00 C 394.66 479.99 405.33 480.01 416.00 480.00 C 415.97 490.66 415.98 501.32 416.01 511.99 C 426.67 512.02 437.33 512.02 448.00 512.00 C 447.99 522.68 448.00 533.36 447.99 544.05 C 437.33 543.99 426.67 543.98 416.01 544.00 C 415.98 554.66 415.98 565.33 416.00 576.00 C 405.33 575.99 394.66 576.00 384.00 576.00 C 384.01 565.33 384.01 554.67 383.99 544.01 C 373.32 543.97 362.66 543.96 352.00 544.01 C 351.98 554.67 351.98 565.33 352.01 576.00 C 362.67 576.01 373.33 576.00 384.00 576.00 C 384.00 586.66 383.98 597.32 384.00 608.00 C 373.33 607.98 362.67 607.98 352.01 608.01 C 351.98 618.67 351.98 629.33 352.00 640.00 C 341.33 639.99 330.66 639.99 320.00 640.00 C 320.01 629.33 320.01 618.67 319.99 608.01 C 309.32 607.98 298.66 607.97 288.00 608.00 C 288.01 597.33 288.02 586.67 287.99 576.01 C 277.32 575.98 266.66 575.97 256.00 576.00 C 256.01 565.34 256.02 554.69 255.99 544.04 C 245.42 544.01 234.85 543.94 224.28 543.76 C 224.07 533.17 223.99 522.59 223.95 512.01 C 213.30 511.99 202.66 511.98 192.01 512.00 C 191.99 501.33 191.97 490.66 192.00 479.99 C 202.66 480.01 213.32 480.01 223.99 479.99 C 224.03 469.34 224.03 458.69 223.99 448.05 C 213.36 448.00 202.74 447.95 192.13 447.76 C 192.04 437.23 191.58 426.65 192.90 416.19 C 203.25 415.64 213.62 415.88 223.99 415.91 C 224.03 405.27 224.03 394.63 223.99 384.00 C 213.32 383.99 202.66 383.99 192.01 384.00 C 191.98 373.33 191.98 362.66 192.01 352.00 C 202.67 352.01 213.33 352.00 223.99 351.99 C 224.03 341.32 224.03 330.66 223.99 320.00 C 213.33 319.99 202.67 319.99 192.01 320.00 C 191.98 309.33 191.97 298.66 192.01 288.00 C 202.67 288.01 213.33 288.00 223.99 287.99 C 224.03 277.33 224.03 266.66 223.99 256.00 C 213.33 255.99 202.67 255.99 192.01 256.00 C 191.98 245.33 191.97 234.66 192.01 224.00 C 202.67 224.00 213.34 223.99 224.00 224.00 C 223.99 213.33 223.99 202.67 224.01 192.00 C 234.66 192.01 245.31 192.00 255.96 191.99 C 255.98 181.42 256.05 170.85 256.24 160.28 C 266.81 160.07 277.38 159.99 287.96 159.95 C 287.98 149.39 288.05 138.84 288.24 128.28 C 298.82 128.07 309.41 127.99 319.99 127.95 C 320.00 117.30 320.01 106.66 320.00 96.01 C 330.66 95.98 341.33 95.98 352.01 96.00 C 362.67 96.02 373.33 96.01 383.99 95.99 C 384.00 85.33 384.01 74.67 384.00 64.01 C 394.66 63.99 405.33 63.99 416.01 64.00 C 437.34 64.01 458.67 63.99 480.00 64.00 C 490.66 64.00 501.33 64.00 512.00 64.00 C 511.99 74.67 512.00 85.33 512.00 96.00 C 501.33 95.99 490.67 95.98 480.01 96.01 C 479.97 106.67 479.96 117.34 480.01 128.00 C 490.67 128.01 501.33 128.01 512.00 127.99 C 512.01 117.33 512.00 106.66 512.00 96.00 C 522.66 96.01 533.33 96.01 544.00 96.00 C 543.98 106.66 543.98 117.32 544.01 127.99 C 554.67 128.03 565.33 128.03 576.00 127.99 C 576.01 117.32 576.01 106.66 575.99 96.00 C 565.32 95.99 554.66 95.99 544.00 96.00 C 544.00 85.33 544.01 74.67 544.00 64.00 C 554.66 64.00 565.33 64.01 576.00 64.00 C 597.33 63.98 618.66 64.02 639.99 64.00 C 640.00 53.33 640.01 42.67 640.00 32.01 M 608.01 224.01 C 607.98 234.67 607.97 245.33 608.00 256.00 C 618.66 256.02 629.32 256.01 639.99 255.99 C 640.02 245.33 640.01 234.67 639.98 224.01 C 629.32 223.98 618.66 223.97 608.01 224.01 M 576.01 256.01 C 575.97 266.67 575.97 277.33 576.02 287.99 C 586.67 288.02 597.33 288.02 607.99 287.99 C 608.01 277.32 608.01 266.66 608.00 256.00 C 597.33 255.98 586.67 255.99 576.01 256.01 M 256.01 448.02 C 255.98 458.67 255.97 469.33 256.01 479.99 C 266.67 480.01 277.33 480.01 288.00 480.00 C 288.02 469.33 288.01 458.67 287.99 448.01 C 277.32 447.97 266.67 447.97 256.01 448.02 M 288.00 480.00 C 287.98 490.66 287.99 501.32 288.01 511.99 C 298.67 512.02 309.33 512.02 319.99 511.98 C 320.02 501.32 320.02 490.66 319.99 480.01 C 309.32 479.98 298.66 479.98 288.00 480.00 Z" />
<path fill="#fff9e8" opacity="1.00" d=" M 736.00 127.94 C 746.18 127.89 756.39 127.59 766.57 128.36 C 766.81 128.66 767.29 129.26 767.53 129.56 C 768.48 139.65 768.08 149.81 768.06 159.94 C 757.37 159.97 746.68 159.99 736.00 160.00 C 736.00 149.31 736.00 138.63 736.00 127.94 Z" />
<path fill="#fff9e8" opacity="1.00" d=" M 768.06 159.94 C 778.20 159.90 788.37 159.55 798.50 160.42 C 798.77 160.69 799.31 161.23 799.59 161.50 C 800.44 171.63 800.09 181.82 800.06 191.98 C 789.36 191.98 778.68 192.01 767.99 192.00 C 768.00 181.31 768.01 170.62 768.06 159.94 Z" />
<path fill="#fff9e8" opacity="1.00" d=" M 800.06 191.98 C 810.61 191.99 821.17 192.04 831.74 192.29 C 831.99 202.85 832.04 213.42 832.02 223.99 C 821.34 224.02 810.66 224.01 799.99 224.00 C 800.00 213.32 800.01 202.65 800.06 191.98 Z" />
<path fill="#fff9e8" opacity="1.00" d=" M 768.01 224.00 C 778.66 223.99 789.32 224.01 799.99 224.00 C 799.99 234.66 799.99 245.33 800.00 256.00 C 789.30 256.00 778.62 256.00 767.94 256.00 C 767.97 245.33 767.99 234.67 768.01 224.00 Z" />
<path fill="#fff9e8" opacity="1.00" d=" M 736.00 256.00 C 746.64 256.00 757.28 256.01 767.94 256.00 C 768.17 266.29 766.96 277.02 768.92 287.06 C 778.68 289.16 789.72 287.72 799.98 288.06 C 799.98 298.62 800.04 309.19 800.29 319.76 C 810.84 319.95 821.41 320.00 831.99 320.05 C 832.02 330.69 832.02 341.34 831.99 351.99 C 821.32 352.01 810.65 352.02 800.00 352.00 C 800.01 341.33 800.01 330.66 799.99 320.00 C 789.32 320.01 778.66 319.99 768.00 320.00 C 767.99 309.34 767.99 298.68 768.00 288.03 C 757.32 287.97 746.66 287.97 736.00 287.90 C 736.00 277.27 735.99 266.63 736.00 256.00 Z" />
<path fill="#fff9e8" opacity="1.00" d=" M 800.00 256.00 C 810.65 255.99 821.31 255.98 831.99 256.00 C 832.02 266.66 832.02 277.32 831.99 287.98 C 821.31 288.02 810.64 288.03 799.98 288.06 C 799.98 277.37 800.00 266.69 800.00 256.00 Z" />
<path fill="#fff9e8" opacity="1.00" d=" M 416.01 320.00 C 426.67 320.01 437.33 320.00 448.01 320.00 C 447.99 330.66 447.97 341.33 447.94 352.00 C 437.29 352.02 426.65 352.01 416.01 351.99 C 415.97 341.32 415.98 330.66 416.01 320.00 Z" />
<path fill="#fff9e8" opacity="1.00" d=" M 447.94 352.00 C 458.62 352.00 469.31 351.99 480.00 352.00 C 479.99 362.68 479.98 373.37 480.00 384.05 C 469.74 383.72 458.68 385.17 448.92 383.06 C 446.96 373.01 448.17 362.29 447.94 352.00 Z" />
<path fill="#fff9e8" opacity="1.00" d=" M 512.00 352.00 C 522.66 352.00 533.33 352.00 544.00 352.00 C 543.98 362.66 543.96 373.32 544.02 383.98 C 554.67 384.01 565.33 384.03 576.00 384.05 C 575.98 394.70 575.98 405.34 576.01 415.99 C 586.67 416.02 597.33 416.01 608.00 416.00 C 618.66 415.99 629.33 415.97 640.00 416.01 C 639.99 426.67 640.00 437.33 640.00 447.99 C 672.00 448.01 704.00 448.00 736.00 447.99 C 735.99 437.33 736.00 426.67 736.00 416.02 C 757.33 415.91 778.66 416.09 799.99 415.98 C 800.00 405.32 800.00 394.66 800.00 384.00 C 810.66 383.99 821.32 383.99 831.99 384.00 C 832.02 394.65 832.02 405.29 831.99 415.95 C 821.40 415.99 810.82 416.07 800.25 416.28 C 800.01 426.85 799.96 437.42 799.96 448.00 C 810.63 447.99 821.31 448.00 831.99 448.00 C 832.01 458.66 832.00 469.33 832.00 480.00 C 821.33 479.99 810.66 480.00 800.00 480.00 C 799.99 490.66 799.99 501.33 800.00 512.00 C 789.33 511.99 778.67 512.00 768.01 512.00 C 767.97 522.66 767.98 533.33 768.00 544.00 C 757.32 543.99 746.66 544.00 736.00 544.00 C 736.01 533.33 736.01 522.67 735.99 512.01 C 725.32 511.97 714.66 511.96 704.00 512.01 C 703.98 522.67 703.99 533.33 704.00 543.99 C 693.33 544.00 682.66 544.01 672.00 544.06 C 672.01 533.37 672.01 522.69 671.99 512.01 C 661.30 511.98 650.61 511.97 639.93 512.00 C 639.99 501.33 640.01 490.67 640.00 480.01 C 629.33 479.97 618.66 479.98 608.00 480.00 C 608.00 469.33 608.01 458.67 607.99 448.01 C 597.32 447.97 586.66 447.96 576.00 448.01 C 575.98 458.67 575.98 469.33 576.01 479.99 C 586.67 480.02 597.33 480.00 608.00 480.00 C 607.99 490.66 607.98 501.33 608.00 512.00 C 597.33 511.98 586.67 511.98 576.01 512.01 C 575.98 522.67 575.98 533.33 576.00 544.00 C 554.67 543.98 533.33 544.01 512.00 544.00 C 501.34 543.99 490.68 543.98 480.02 544.01 C 479.99 554.67 479.97 565.33 479.93 576.00 C 469.30 575.99 458.68 575.99 448.06 576.00 C 448.01 565.34 448.00 554.69 447.99 544.05 C 458.35 544.10 468.72 544.37 479.08 543.82 C 480.33 533.26 480.04 522.61 480.20 512.01 C 469.46 511.97 458.73 511.97 448.00 512.00 C 448.00 501.33 447.99 490.66 448.00 480.00 C 458.66 480.01 469.32 480.01 479.99 479.99 C 480.02 469.32 480.03 458.66 479.99 448.00 C 469.32 447.98 458.66 447.98 448.00 448.01 C 447.98 458.67 447.99 469.33 448.00 480.00 C 437.33 480.00 426.66 479.98 416.00 480.00 C 416.01 469.33 416.01 458.66 416.00 448.00 C 415.98 437.33 415.99 426.67 416.01 416.02 C 426.67 415.97 437.33 415.98 448.00 416.00 C 458.66 416.01 469.32 416.02 479.99 415.99 C 480.01 405.34 480.01 394.69 480.00 384.05 C 490.66 384.03 501.32 384.01 511.99 383.98 C 512.02 373.32 512.01 362.66 512.00 352.00 Z" />
<path fill="#fff9e8" opacity="1.00" d=" M 576.00 352.00 C 586.68 351.99 597.37 352.00 608.06 352.02 C 608.10 362.18 608.43 372.38 607.61 382.53 C 607.33 382.79 606.76 383.31 606.48 383.57 C 596.34 384.46 586.15 384.09 576.00 384.05 C 576.00 373.37 576.00 362.68 576.00 352.00 Z" />
<path fill="#fff9e8" opacity="1.00" d=" M 608.00 512.00 C 618.64 512.00 629.28 512.01 639.93 512.00 C 640.16 522.29 638.96 533.01 640.92 543.06 C 650.68 545.17 661.74 543.72 672.00 544.06 C 671.99 554.70 671.96 565.35 671.94 576.00 C 661.31 575.99 650.69 575.99 640.08 576.00 C 640.02 565.33 640.00 554.67 639.98 544.01 C 629.31 543.98 618.65 543.98 608.00 544.00 C 607.99 533.33 607.99 522.66 608.00 512.00 Z" />
<path fill="#fff9e8" opacity="1.00" d=" M 704.00 543.99 C 714.66 543.99 725.32 543.99 736.00 544.00 C 735.99 554.66 735.98 565.33 736.00 576.00 C 725.33 576.00 714.66 575.99 704.00 576.00 C 704.00 565.33 703.99 554.66 704.00 543.99 Z" />
<path fill="#fff9e8" opacity="1.00" d=" M 768.00 544.00 C 778.66 543.99 789.32 543.98 799.99 544.00 C 800.02 554.66 800.02 565.32 799.99 575.99 C 789.32 576.01 778.65 576.01 768.00 576.00 C 768.00 565.33 767.99 554.66 768.00 544.00 Z" />
<path fill="#fff9e8" opacity="1.00" d=" M 224.00 575.99 C 234.66 576.00 245.33 576.00 256.00 576.00 C 256.01 586.66 255.99 597.33 256.00 608.00 C 245.34 607.99 234.67 608.00 224.01 608.00 C 223.98 597.32 223.98 586.66 224.00 575.99 Z" />
<path fill="#fff9e8" opacity="1.00" d=" M 416.00 576.00 C 426.69 575.99 437.37 575.99 448.06 576.00 C 448.10 586.16 448.45 596.35 447.59 606.50 C 447.31 606.77 446.77 607.31 446.50 607.58 C 436.35 608.45 426.16 608.10 416.00 608.06 C 416.00 597.37 416.00 586.68 416.00 576.00 Z" />
<path fill="#fff9e8" opacity="1.00" d=" M 671.94 576.00 C 682.62 575.99 693.30 575.99 704.00 576.00 C 704.00 586.68 703.99 597.37 704.00 608.06 C 693.82 608.09 683.63 608.44 673.50 607.58 C 673.23 607.31 672.69 606.77 672.41 606.50 C 671.54 596.35 671.89 586.16 671.94 576.00 Z" />
<path fill="#fff9e8" opacity="1.00" d=" M 736.00 576.00 C 746.66 575.98 757.32 575.99 768.00 576.00 C 767.99 586.66 768.00 597.33 768.00 608.00 C 757.33 607.99 746.66 608.00 736.00 607.99 C 735.99 597.32 735.99 586.66 736.00 576.00 Z" />
<path fill="#fff9e8" opacity="1.00" d=" M 256.00 608.00 C 266.67 608.00 277.33 607.99 288.00 608.00 C 288.01 618.66 287.99 629.33 288.00 640.00 C 277.34 640.01 266.67 640.01 256.01 639.99 C 255.98 629.32 255.98 618.66 256.00 608.00 Z" />
<path fill="#fff9e8" opacity="1.00" d=" M 384.00 608.00 C 394.66 608.00 405.33 608.02 416.00 608.06 C 415.99 618.70 416.00 629.35 416.00 640.00 C 405.33 639.99 394.66 639.99 384.00 640.00 C 383.99 629.33 383.99 618.66 384.00 608.00 Z" />
<path fill="#fff9e8" opacity="1.00" d=" M 704.00 608.06 C 714.66 608.02 725.33 608.00 736.00 607.99 C 735.99 618.66 735.99 629.33 736.00 640.00 C 725.33 639.99 714.66 639.99 704.00 640.00 C 703.99 629.35 704.00 618.70 704.00 608.06 Z" />
<path fill="#fff9e8" opacity="1.00" d=" M 768.00 608.00 C 778.66 607.99 789.32 607.98 799.99 608.00 C 800.02 618.66 800.02 629.32 799.99 639.99 C 789.31 640.01 778.65 640.01 768.00 640.00 C 767.99 629.33 767.99 618.66 768.00 608.00 Z" />
<path fill="#fff9e8" opacity="1.00" d=" M 288.00 640.00 C 298.67 639.99 309.33 639.99 320.00 640.00 C 320.00 650.66 319.99 661.32 320.00 672.00 C 309.33 672.01 298.67 672.01 288.01 671.99 C 287.98 661.32 287.99 650.66 288.00 640.00 Z" />
<path fill="#fff9e8" opacity="1.00" d=" M 352.00 640.00 C 362.67 639.99 373.33 639.99 384.00 640.00 C 383.99 650.66 384.00 661.33 384.00 672.00 C 373.33 671.99 362.66 671.99 352.00 672.00 C 352.00 661.33 352.00 650.66 352.00 640.00 Z" />
<path fill="#fff9e8" opacity="1.00" d=" M 416.00 640.00 C 426.66 639.99 437.33 639.99 448.00 640.00 C 447.99 650.66 448.00 661.33 448.00 672.00 C 437.33 671.99 426.66 671.99 416.00 672.00 C 416.00 661.33 416.00 650.66 416.00 640.00 Z" />
<path fill="#fff9e8" opacity="1.00" d=" M 480.00 640.00 C 490.66 639.99 501.33 639.99 512.00 640.00 C 511.99 650.66 511.99 661.33 512.00 672.00 C 501.33 671.99 490.66 671.99 480.00 672.00 C 479.98 661.33 479.99 650.66 480.00 640.00 Z" />
<path fill="#fff9e8" opacity="1.00" d=" M 544.00 640.00 C 554.66 639.99 565.33 639.99 576.00 640.00 C 576.00 650.66 576.00 661.33 576.00 672.00 C 565.33 671.99 554.66 671.99 544.00 672.00 C 543.98 661.33 543.99 650.66 544.00 640.00 Z" />
<path fill="#fff9e8" opacity="1.00" d=" M 608.00 640.00 C 618.66 639.99 629.33 639.99 640.00 640.00 C 640.00 704.00 640.00 768.00 640.00 832.00 C 629.33 831.98 618.66 831.97 608.00 832.00 C 608.00 768.00 608.00 704.00 608.00 640.00 Z" />
<path fill="#fff9e8" opacity="1.00" d=" M 672.00 640.00 C 682.66 639.99 693.33 639.99 704.00 640.00 C 703.98 650.66 703.97 661.32 704.01 672.00 C 714.67 672.00 725.33 672.01 736.00 672.00 C 735.99 682.66 735.99 693.33 736.00 704.01 C 725.33 703.98 714.66 703.99 704.00 704.00 C 693.33 703.99 682.66 704.00 672.00 704.00 C 671.98 682.66 672.01 661.33 672.00 640.00 Z" />
<path fill="#fff9e8" opacity="1.00" d=" M 736.00 640.00 C 746.66 639.98 757.32 639.99 768.00 640.00 C 768.01 650.66 768.01 661.32 767.99 671.99 C 757.32 672.01 746.66 672.01 736.00 672.00 C 735.99 661.32 735.99 650.66 736.00 640.00 Z" />
<path fill="#fff9e8" opacity="1.00" d=" M 320.00 672.00 C 330.66 671.99 341.33 671.99 352.00 672.00 C 351.99 682.66 352.00 693.32 352.00 704.00 C 341.33 704.00 330.66 703.98 320.00 704.00 C 319.99 693.33 320.00 682.66 320.00 672.00 Z" />
<path fill="#fff9e8" opacity="1.00" d=" M 384.00 672.00 C 394.66 671.99 405.33 671.99 416.00 672.00 C 415.99 682.66 416.00 693.32 416.00 704.00 C 416.00 725.33 416.00 746.66 416.00 768.00 C 405.33 767.99 394.66 767.99 384.00 768.00 C 384.01 757.33 384.02 746.67 383.99 736.01 C 373.32 735.97 362.66 735.97 352.00 736.00 C 351.99 725.33 352.00 714.66 352.00 704.00 C 362.66 704.01 373.32 704.01 383.99 703.99 C 384.01 693.32 384.01 682.66 384.00 672.00 Z" />
<path fill="#fff9e8" opacity="1.00" d=" M 800.01 672.01 C 810.67 671.98 821.33 671.98 832.00 672.00 C 831.99 682.66 832.01 693.32 831.99 703.99 C 821.32 704.01 810.66 704.01 800.00 704.00 C 799.97 693.33 799.97 682.67 800.01 672.01 Z" />
<path fill="#fff9e8" opacity="1.00" d=" M 287.98 704.01 C 298.65 703.97 309.32 703.98 320.00 704.00 C 320.01 714.67 320.00 725.34 320.00 736.02 C 309.42 736.00 298.84 735.95 288.26 735.71 C 287.99 725.14 287.95 714.57 287.98 704.01 Z" />
<path fill="#fff9e8" opacity="1.00" d=" M 480.00 704.00 C 490.66 703.99 501.33 703.99 512.00 704.00 C 512.00 746.67 512.00 789.33 512.00 832.00 C 501.33 831.98 490.66 831.98 480.00 832.00 C 480.00 789.33 480.00 746.67 480.00 704.00 Z" />
<path fill="#fff9e8" opacity="1.00" d=" M 544.00 704.00 C 554.66 703.99 565.33 703.99 576.00 704.00 C 576.00 736.00 576.00 768.00 576.00 800.00 C 565.33 799.99 554.66 799.99 544.00 800.00 C 544.00 768.00 544.00 736.00 544.00 704.00 Z" />
<path fill="#fff9e8" opacity="1.00" d=" M 736.00 704.01 C 746.73 703.98 757.46 703.97 768.20 704.01 C 768.04 714.60 768.32 725.26 767.08 735.82 C 756.72 736.36 746.35 736.10 736.00 736.04 C 735.99 725.35 735.99 714.68 736.00 704.01 Z" />
<path fill="#fff9e8" opacity="1.00" d=" M 320.00 736.02 C 330.66 736.01 341.33 735.98 352.00 736.00 C 352.01 746.66 352.00 757.32 352.00 768.00 C 341.33 768.01 330.67 768.01 320.01 767.99 C 319.98 757.33 319.98 746.67 320.00 736.02 Z" />
<path fill="#fff9e8" opacity="1.00" d=" M 704.00 735.99 C 714.66 736.00 725.32 736.00 736.00 736.04 C 736.01 746.68 736.01 757.33 735.99 767.99 C 725.32 768.01 714.66 768.01 704.00 768.00 C 703.99 757.32 703.98 746.66 704.00 735.99 Z" />
<path fill="#fff9e8" opacity="1.00" d=" M 352.00 768.00 C 362.66 767.99 373.33 767.99 384.00 768.00 C 384.01 778.66 383.99 789.32 384.00 799.99 C 373.33 800.01 362.67 800.01 352.01 799.99 C 351.98 789.32 351.98 778.65 352.00 768.00 Z" />
<path fill="#fff9e8" opacity="1.00" d=" M 384.00 799.99 C 394.67 800.01 405.33 799.99 416.00 800.00 C 426.66 799.99 437.32 799.98 447.99 800.01 C 448.01 810.66 448.01 821.33 448.00 832.00 C 426.67 831.97 405.34 832.02 384.01 832.00 C 383.97 821.32 383.98 810.65 384.00 799.99 Z" />
<path fill="#fff9e8" opacity="1.00" d=" M 416.00 864.00 C 426.66 863.98 437.32 863.98 447.99 864.01 C 448.01 874.66 448.01 885.33 448.00 896.00 C 437.33 896.00 426.67 896.00 416.01 895.99 C 415.98 885.32 415.98 874.66 416.00 864.00 Z" />
<path fill="#fff9e8" opacity="1.00" d=" M 480.00 864.01 C 490.66 863.96 501.32 863.96 511.99 864.01 C 512.01 874.67 512.01 885.33 512.00 896.00 C 501.33 895.98 490.66 896.00 480.00 896.00 C 479.99 885.33 479.99 874.67 480.00 864.01 Z" />
<path fill="#fff9e8" opacity="1.00" d=" M 608.01 864.01 C 618.66 863.98 629.33 863.98 640.00 864.00 C 640.01 874.65 640.01 885.32 639.99 896.00 C 629.32 895.99 618.66 896.00 608.00 896.00 C 607.98 885.33 607.98 874.66 608.01 864.01 Z" />
</g>
<g id="#727266ff">
<path fill="#727266" opacity="1.00" d=" M 704.33 288.91 C 714.82 287.64 725.43 287.99 736.00 287.90 C 746.66 287.97 757.32 287.97 768.00 288.03 C 767.99 298.68 767.99 309.34 768.00 320.00 C 778.66 319.99 789.32 320.01 799.99 320.00 C 800.01 330.66 800.01 341.33 800.00 352.00 C 778.66 351.96 757.33 352.05 736.00 351.99 C 736.00 341.32 735.98 330.66 736.00 320.00 C 725.33 319.98 714.66 319.98 704.00 320.01 C 703.99 330.67 703.99 341.33 704.00 351.99 C 693.29 352.02 682.58 352.01 671.88 352.00 C 671.98 341.44 671.63 330.82 672.91 320.32 C 682.83 319.44 693.53 320.95 703.01 318.98 C 704.78 309.23 703.55 298.88 704.33 288.91 Z" />
<path fill="#727266" opacity="1.00" d=" M 288.30 320.22 C 309.53 319.79 330.76 320.09 352.00 319.99 C 362.62 319.97 373.24 320.01 383.88 320.00 C 383.99 330.57 383.63 341.20 384.91 351.72 C 394.96 352.19 405.03 351.80 415.09 352.28 C 416.36 362.80 416.01 373.43 416.11 384.00 C 405.40 384.01 394.70 384.02 384.00 383.99 C 384.01 373.32 383.99 362.66 384.00 352.00 C 351.99 352.00 319.99 351.99 287.98 352.00 C 287.97 341.40 288.04 330.81 288.30 320.22 Z" />
<path fill="#727266" opacity="1.00" d=" M 480.02 544.01 C 490.68 543.98 501.34 543.99 512.00 544.00 C 511.98 554.66 511.98 565.32 512.01 575.99 C 544.00 576.00 575.99 576.01 607.99 575.99 C 608.01 565.32 608.01 554.66 608.00 544.00 C 618.65 543.98 629.31 543.98 639.98 544.01 C 640.00 554.67 640.02 565.33 640.08 576.00 C 640.09 586.31 640.29 596.62 639.84 606.94 C 629.33 608.81 618.60 608.01 608.00 608.09 C 597.33 608.00 586.66 607.99 576.01 607.99 C 575.98 618.65 575.98 629.32 576.00 640.00 C 565.33 639.99 554.66 639.99 544.00 640.00 C 544.00 629.32 544.01 618.65 543.99 607.99 C 533.32 607.99 522.66 607.99 512.00 608.08 C 501.39 607.99 490.65 608.84 480.16 606.93 C 479.70 596.62 479.90 586.30 479.93 576.00 C 479.97 565.33 479.99 554.67 480.02 544.01 Z" />
</g>
</svg>
