<?xml version="1.0" encoding="UTF-8" ?>
<!DOCTYPE svg PUBLIC "-//W3C//DTD SVG 1.1//EN" "http://www.w3.org/Graphics/SVG/1.1/DTD/svg11.dtd">
<svg width="1024pt" height="1024pt" viewBox="0 0 1024 1024" version="1.1" xmlns="http://www.w3.org/2000/svg">
<g id="#808080ff">
<path fill="#808080" opacity="1.00" d=" M 128.00 0.00 L 768.01 0.00 C 767.97 10.67 767.98 21.33 768.01 32.00 C 767.99 42.66 767.97 53.32 768.02 63.98 C 778.46 64.00 788.91 64.00 799.37 63.95 C 799.82 74.62 800.01 85.30 800.13 95.98 C 810.54 96.00 820.95 96.00 831.37 95.96 C 831.82 106.62 832.01 117.30 832.13 127.98 C 842.54 128.00 852.95 128.00 863.37 127.96 C 863.82 138.62 864.01 149.30 864.13 159.98 C 874.54 160.00 884.96 159.99 895.39 159.96 C 895.82 170.63 895.98 181.31 896.12 191.99 C 885.43 192.01 874.75 192.00 864.07 192.00 C 863.97 181.31 863.81 170.62 863.45 159.94 C 852.96 160.00 842.49 160.00 832.02 159.98 C 831.99 149.53 831.99 139.08 832.04 128.63 C 821.37 128.17 810.69 127.98 800.02 127.87 C 799.99 117.45 799.99 107.03 800.04 96.61 C 789.36 96.17 778.68 96.01 768.01 95.88 C 767.98 106.56 767.98 117.24 768.00 127.92 C 767.97 149.28 768.02 170.64 768.00 192.00 C 767.99 202.66 767.99 213.33 768.00 224.00 C 757.33 224.01 746.66 224.01 736.00 223.98 C 735.98 159.99 736.02 96.00 735.99 32.01 C 554.66 31.99 373.33 32.01 192.00 32.00 C 181.33 31.99 170.67 32.00 160.00 32.01 C 159.99 341.34 160.00 650.67 160.00 960.00 C 160.00 970.66 160.00 981.32 160.00 992.00 C 149.33 991.99 138.67 991.99 128.00 992.00 C 128.00 661.33 128.00 330.67 128.00 0.00 Z" />
</g>
<g id="#dadadaff">
<path fill="#dadada" opacity="1.00" d=" M 160.00 32.01 C 170.67 32.00 181.33 31.99 192.00 32.00 C 192.00 341.33 192.00 650.67 192.00 960.00 C 181.33 959.99 170.67 959.99 160.00 960.00 C 160.00 650.67 159.99 341.34 160.00 32.01 Z" />
</g>
<g id="#ffffffff">
<path fill="#ffffff" opacity="1.00" d=" M 192.00 32.00 C 373.33 32.01 554.66 31.99 735.99 32.01 C 736.02 96.00 735.98 159.99 736.00 223.98 C 746.66 224.01 757.33 224.01 768.00 224.00 C 810.66 224.02 853.33 223.98 896.00 224.00 C 895.99 469.33 896.01 714.66 895.99 959.99 C 661.33 960.01 426.66 959.99 192.00 960.00 C 192.00 650.67 192.00 341.33 192.00 32.00 Z" />
<path fill="#ffffff" opacity="1.00" d=" M 768.00 127.92 C 778.68 128.01 789.36 128.18 800.04 128.61 C 799.99 139.07 799.99 149.52 800.02 159.98 C 810.49 160.00 820.96 160.00 831.45 159.94 C 831.80 170.62 831.98 181.31 832.08 192.00 C 810.71 192.00 789.35 192.00 768.00 192.00 C 768.02 170.64 767.97 149.28 768.00 127.92 Z" />
</g>
<g id="#000000ff">
<path fill="#000000" opacity="1.00" d=" M 768.01 32.00 C 778.66 31.98 789.31 32.00 799.98 32.02 C 799.99 42.67 800.00 53.33 800.02 63.98 C 810.66 63.99 821.32 64.01 831.98 64.02 C 831.98 74.67 832.00 85.32 832.02 95.98 C 842.66 95.99 853.32 96.01 863.98 96.02 C 863.98 106.67 864.00 117.32 864.02 127.98 C 874.66 127.99 885.32 128.01 895.98 128.02 C 895.98 138.67 896.00 149.32 896.02 159.98 C 906.66 159.99 917.32 160.01 927.98 160.02 C 927.98 170.67 928.00 181.32 928.02 191.98 C 938.67 191.99 949.32 192.01 959.99 192.02 C 960.01 469.35 959.99 746.67 960.00 1024.00 L 128.00 1024.00 C 127.99 1013.32 128.00 1002.66 128.00 992.00 C 138.67 991.99 149.33 991.99 160.00 992.00 C 416.00 992.00 671.99 992.01 927.99 991.99 C 928.01 736.00 928.00 480.01 927.99 224.02 C 917.32 223.98 906.66 223.98 896.00 224.00 C 853.33 223.98 810.66 224.02 768.00 224.00 C 767.99 213.33 767.99 202.66 768.00 192.00 C 789.35 192.00 810.71 192.00 832.08 192.00 C 842.73 192.02 853.40 192.01 864.07 192.00 C 874.75 192.00 885.43 192.01 896.12 191.99 C 895.98 181.31 895.82 170.63 895.39 159.96 C 884.96 159.99 874.54 160.00 864.13 159.98 C 864.01 149.30 863.82 138.62 863.37 127.96 C 852.95 128.00 842.54 128.00 832.13 127.98 C 832.01 117.30 831.82 106.62 831.37 95.96 C 820.95 96.00 810.54 96.00 800.13 95.98 C 800.01 85.30 799.82 74.62 799.37 63.95 C 788.91 64.00 778.46 64.00 768.02 63.98 C 767.97 53.32 767.99 42.66 768.01 32.00 Z" />
</g>
<g id="#b9b9b9ff">
<path fill="#b9b9b9" opacity="1.00" d=" M 768.01 95.88 C 778.68 96.01 789.36 96.17 800.04 96.61 C 799.99 107.03 799.99 117.45 800.02 127.87 C 810.69 127.98 821.37 128.17 832.04 128.63 C 831.99 139.08 831.99 149.53 832.02 159.98 C 842.49 160.00 852.96 160.00 863.45 159.94 C 863.81 170.62 863.97 181.31 864.07 192.00 C 853.40 192.01 842.73 192.02 832.08 192.00 C 831.98 181.31 831.80 170.62 831.45 159.94 C 820.96 160.00 810.49 160.00 800.02 159.98 C 799.99 149.52 799.99 139.07 800.04 128.61 C 789.36 128.18 778.68 128.01 768.00 127.92 C 767.98 117.24 767.98 106.56 768.01 95.88 Z" />
<path fill="#b9b9b9" opacity="1.00" d=" M 896.00 224.00 C 906.66 223.98 917.32 223.98 927.99 224.02 C 928.00 480.01 928.01 736.00 927.99 991.99 C 671.99 992.01 416.00 992.00 160.00 992.00 C 160.00 981.32 160.00 970.66 160.00 960.00 C 170.67 959.99 181.33 959.99 192.00 960.00 C 426.66 959.99 661.33 960.01 895.99 959.99 C 896.01 714.66 895.99 469.33 896.00 224.00 Z" />
</g>
</svg>
