<?xml version="1.0" encoding="UTF-8" ?>
<!DOCTYPE svg PUBLIC "-//W3C//DTD SVG 1.1//EN" "http://www.w3.org/Graphics/SVG/1.1/DTD/svg11.dtd">
<svg width="1024pt" height="1024pt" viewBox="0 0 1024 1024" version="1.1" xmlns="http://www.w3.org/2000/svg">
<g id="#fdff71ff">
<path fill="#fdff71" opacity="1.00" d=" M 351.99 0.00 L 672.00 0.00 C 671.99 10.67 671.99 21.34 672.00 32.01 C 661.33 32.01 650.66 31.99 640.00 32.00 C 639.99 42.66 639.99 53.32 640.00 63.99 C 629.32 64.01 618.65 64.01 607.99 64.00 C 608.01 53.33 608.01 42.68 607.99 32.02 C 597.33 31.97 586.67 31.97 576.02 32.02 C 575.99 42.68 575.98 53.34 576.01 64.00 C 565.33 64.00 554.66 64.00 543.99 64.00 C 544.01 53.34 544.01 42.68 543.99 32.02 C 533.33 31.97 522.67 31.97 512.02 32.02 C 511.99 42.68 511.98 53.34 512.01 64.00 C 501.33 64.00 490.66 64.00 479.99 64.00 C 480.01 53.34 480.01 42.68 479.99 32.02 C 469.33 31.97 458.67 31.97 448.02 32.02 C 447.99 42.68 447.98 53.34 448.01 64.00 C 437.33 64.00 426.66 64.00 415.99 64.00 C 416.01 53.34 416.01 42.68 415.99 32.02 C 405.33 31.97 394.67 31.97 384.02 32.02 C 383.99 42.68 383.98 53.34 384.01 64.01 C 373.33 63.99 362.66 63.98 352.00 64.01 C 352.00 74.66 352.00 85.32 352.00 95.98 C 341.33 96.01 330.66 96.01 319.99 96.00 C 320.01 85.32 320.01 74.64 319.99 63.97 C 309.42 63.98 298.86 64.04 288.29 64.25 C 288.06 74.83 288.00 85.42 287.98 96.01 C 277.32 95.99 266.66 95.98 256.00 96.01 C 256.00 106.67 256.00 117.32 256.00 127.98 C 234.77 128.03 213.53 127.86 192.30 128.19 C 192.07 138.78 191.99 149.37 191.95 159.96 C 181.39 159.99 170.84 160.05 160.29 160.24 C 160.08 170.81 160.00 181.38 159.95 191.96 C 149.39 191.99 138.84 192.05 128.29 192.24 C 128.08 202.81 128.00 213.38 127.95 223.96 C 117.39 223.99 106.84 224.05 96.29 224.24 C 96.08 234.82 96.00 245.41 95.95 255.99 C 85.30 256.01 74.66 256.01 64.01 255.99 C 63.99 245.33 63.98 234.66 64.02 224.00 C 74.68 223.99 85.34 224.00 96.00 224.00 C 96.00 213.33 96.00 202.67 96.00 192.00 C 106.66 191.99 117.33 192.00 128.00 192.00 C 128.00 181.33 128.00 170.67 128.00 160.00 C 138.66 159.99 149.33 160.00 160.00 160.00 C 160.00 149.33 160.00 138.67 160.00 128.00 C 170.66 128.00 181.33 128.00 192.00 128.00 C 192.00 117.33 192.00 106.67 192.00 96.00 C 202.66 96.00 213.33 96.00 224.00 96.00 C 224.00 85.34 223.99 74.67 224.00 64.00 C 245.33 63.99 266.66 64.02 288.00 63.98 C 288.00 53.32 287.99 42.66 288.00 32.00 C 309.32 32.00 330.65 32.01 351.99 32.00 C 352.02 21.33 352.02 10.67 351.99 0.00 Z" />
<path fill="#fdff71" opacity="1.00" d=" M 384.01 64.01 C 394.67 63.99 405.33 63.99 415.99 64.00 C 416.01 74.66 416.00 85.32 415.98 95.98 C 405.32 96.03 394.66 96.03 384.01 95.98 C 383.98 85.32 383.98 74.67 384.01 64.01 Z" />
<path fill="#fdff71" opacity="1.00" d=" M 448.01 64.00 C 458.66 64.00 469.33 64.00 479.99 64.00 C 480.01 74.66 480.00 85.32 479.98 95.98 C 469.32 96.03 458.66 96.03 448.01 95.98 C 447.98 85.32 447.98 74.66 448.01 64.00 Z" />
<path fill="#fdff71" opacity="1.00" d=" M 512.01 64.00 C 522.66 64.00 533.33 64.00 543.99 64.00 C 544.01 74.66 544.00 85.32 543.98 95.98 C 533.32 96.03 522.66 96.03 512.01 95.98 C 511.98 85.32 511.98 74.66 512.01 64.00 Z" />
<path fill="#fdff71" opacity="1.00" d=" M 576.01 64.00 C 586.66 64.00 597.32 64.01 607.99 64.00 C 608.01 74.66 608.00 85.32 607.98 95.98 C 597.32 96.03 586.66 96.03 576.01 95.98 C 575.98 85.32 575.98 74.66 576.01 64.00 Z" />
<path fill="#fdff71" opacity="1.00" d=" M 287.98 96.01 C 298.65 95.99 309.32 96.01 319.99 96.00 C 320.01 106.66 320.01 117.32 319.98 127.98 C 309.32 128.03 298.67 128.03 288.01 127.98 C 287.98 117.32 287.96 106.66 287.98 96.01 Z" />
<path fill="#fdff71" opacity="1.00" d=" M 32.01 288.01 C 42.67 287.98 53.33 287.98 63.99 288.01 C 64.01 298.67 64.03 309.33 63.99 319.99 C 53.33 320.01 42.67 320.01 32.01 319.99 C 31.99 309.33 31.97 298.67 32.01 288.01 Z" />
<path fill="#fdff71" opacity="1.00" d=" M 0.00 352.00 C 10.66 352.00 21.33 352.00 31.99 352.00 C 32.01 362.66 32.03 373.32 31.99 383.99 C 21.33 384.02 10.66 384.02 0.00 383.99 L 0.00 352.00 Z" />
<path fill="#fdff71" opacity="1.00" d=" M 288.01 352.00 C 320.01 352.01 352.01 351.99 384.00 352.00 C 383.97 362.67 383.98 373.33 384.01 384.00 C 352.01 383.99 320.01 384.00 288.01 384.00 C 287.98 373.33 287.98 362.66 288.01 352.00 Z" />
<path fill="#fdff71" opacity="1.00" d=" M 352.00 512.00 C 373.33 512.02 394.67 511.99 416.01 512.00 C 415.97 522.66 415.98 533.32 416.01 543.99 C 394.67 543.99 373.33 544.01 351.99 543.99 C 352.01 533.32 352.02 522.66 352.00 512.00 Z" />
<path fill="#fdff71" opacity="1.00" d=" M 415.99 672.01 C 426.66 671.99 437.33 671.99 448.01 672.00 C 447.97 682.66 447.98 693.33 448.01 704.01 C 437.34 703.96 426.66 703.98 416.00 704.01 C 416.01 693.33 416.02 682.67 415.99 672.01 Z" />
</g>
<g id="#8fea43ff">
<path fill="#8fea43" opacity="1.00" d=" M 384.02 32.02 C 394.67 31.97 405.33 31.97 415.99 32.02 C 416.01 42.68 416.01 53.34 415.99 64.00 C 405.33 63.99 394.67 63.99 384.01 64.01 C 383.98 53.34 383.99 42.68 384.02 32.02 Z" />
<path fill="#8fea43" opacity="1.00" d=" M 448.02 32.02 C 458.67 31.97 469.33 31.97 479.99 32.02 C 480.01 42.68 480.01 53.34 479.99 64.00 C 469.33 64.00 458.66 64.00 448.01 64.00 C 447.98 53.34 447.99 42.68 448.02 32.02 Z" />
<path fill="#8fea43" opacity="1.00" d=" M 512.02 32.02 C 522.67 31.97 533.33 31.97 543.99 32.02 C 544.01 42.68 544.01 53.34 543.99 64.00 C 533.33 64.00 522.66 64.00 512.01 64.00 C 511.98 53.34 511.99 42.68 512.02 32.02 Z" />
<path fill="#8fea43" opacity="1.00" d=" M 576.02 32.02 C 586.67 31.97 597.33 31.97 607.99 32.02 C 608.01 42.68 608.01 53.33 607.99 64.00 C 597.32 64.01 586.66 64.00 576.01 64.00 C 575.98 53.34 575.99 42.68 576.02 32.02 Z" />
<path fill="#8fea43" opacity="1.00" d=" M 640.00 32.00 C 650.66 31.99 661.33 32.01 672.00 32.01 C 682.66 31.98 693.33 31.99 704.01 32.00 C 703.98 42.67 703.98 53.33 704.01 63.99 C 714.66 64.03 725.32 64.01 735.99 63.99 C 746.66 64.00 757.33 64.01 768.01 64.01 C 767.98 74.66 767.98 85.31 768.01 95.96 C 778.57 95.99 789.14 96.05 799.71 96.24 C 799.91 106.81 799.99 117.38 800.05 127.96 C 810.60 127.99 821.15 128.05 831.71 128.24 C 831.91 138.81 831.99 149.38 832.05 159.96 C 842.60 159.99 853.15 160.05 863.71 160.24 C 863.91 170.81 863.99 181.38 864.05 191.96 C 874.60 191.99 885.15 192.05 895.71 192.24 C 896.14 213.49 896.00 234.75 896.00 256.01 C 906.65 256.00 917.31 256.00 927.98 256.00 C 928.02 277.33 927.98 298.67 928.00 320.00 C 938.65 320.00 949.31 319.99 959.98 320.00 C 960.02 341.33 959.98 362.67 960.00 384.00 C 970.65 384.00 981.30 383.99 991.96 384.00 C 992.01 394.66 992.03 405.33 991.99 416.00 C 981.32 415.99 970.66 415.99 960.01 416.00 C 959.98 426.67 959.98 437.34 960.00 448.01 C 949.33 447.98 938.67 447.98 928.02 448.01 C 927.96 458.66 927.96 469.32 928.02 479.98 C 938.67 480.00 949.33 480.01 960.00 479.99 C 959.99 490.66 959.99 501.33 960.00 512.01 C 949.32 511.98 938.66 511.98 928.00 512.01 C 927.98 522.67 927.98 533.34 928.00 544.01 C 917.33 543.99 906.67 543.97 896.02 544.01 C 895.96 554.66 895.96 565.32 896.02 575.98 C 906.67 576.00 917.33 576.00 928.00 576.00 C 927.99 586.66 927.99 597.33 928.00 608.01 C 917.32 607.98 906.66 607.97 896.00 608.01 C 895.98 618.67 895.98 629.33 896.00 640.01 C 885.33 639.99 874.66 639.97 864.00 640.01 C 863.98 650.67 863.98 661.33 864.00 672.01 C 853.33 671.98 842.66 671.98 832.00 672.01 C 831.98 682.67 831.98 693.33 832.00 704.01 C 821.33 703.98 810.66 703.98 800.00 704.01 C 799.98 714.67 799.98 725.33 800.00 736.01 C 789.33 735.98 778.66 735.98 768.00 736.01 C 767.98 746.67 767.99 757.33 768.00 768.01 C 757.33 767.98 746.66 767.98 736.00 768.01 C 735.98 778.67 735.99 789.33 736.00 800.01 C 725.33 799.98 714.66 799.98 704.00 800.01 C 703.98 810.66 703.99 821.33 704.00 832.00 C 693.33 832.00 682.66 831.99 671.99 832.00 C 672.00 821.33 672.01 810.67 671.99 800.02 C 661.33 799.96 650.67 799.96 640.02 800.02 C 639.99 810.67 639.98 821.34 640.00 832.01 C 629.33 831.98 618.67 831.98 608.01 832.01 C 607.98 842.66 607.99 853.33 608.00 864.00 C 597.33 863.99 586.66 863.99 576.00 864.00 C 576.00 853.33 576.01 842.67 575.99 832.02 C 565.33 831.96 554.67 831.96 544.02 832.02 C 543.98 842.67 543.99 853.33 544.00 864.00 C 533.33 863.99 522.66 863.99 512.00 864.00 C 512.00 853.33 512.01 842.67 511.99 832.02 C 501.33 831.96 490.67 831.96 480.02 832.02 C 479.98 842.67 479.99 853.33 480.00 864.00 C 469.33 863.99 458.66 863.99 448.00 864.00 C 448.00 853.33 448.01 842.67 447.99 832.02 C 437.33 831.96 426.67 831.96 416.02 832.02 C 415.98 842.67 415.99 853.33 416.00 864.00 C 405.33 863.99 394.66 863.99 384.00 864.00 C 384.00 853.33 384.01 842.66 383.99 832.00 C 373.32 831.98 362.66 831.98 351.99 832.00 C 352.01 821.33 352.01 810.67 351.99 800.02 C 341.33 799.96 330.67 799.96 320.02 800.02 C 319.99 810.67 319.99 821.33 320.00 832.00 C 309.33 831.99 298.66 831.99 287.99 832.00 C 288.01 821.33 288.01 810.66 287.99 800.00 C 277.32 799.98 266.66 799.98 255.99 800.00 C 256.01 789.33 256.01 778.67 255.99 768.02 C 245.33 767.96 234.67 767.96 224.02 768.02 C 223.99 778.67 223.99 789.33 224.00 800.00 C 213.33 799.99 202.66 800.00 191.99 800.00 C 192.01 789.33 192.02 778.67 191.99 768.02 C 181.33 767.96 170.67 767.96 160.02 768.02 C 159.99 778.67 159.98 789.32 160.01 799.99 C 149.34 800.00 138.67 800.01 128.00 799.99 C 128.00 789.32 128.00 778.65 128.00 768.00 C 117.33 767.99 106.66 768.00 96.00 768.00 C 96.00 757.34 96.00 746.68 96.00 736.03 C 85.43 736.00 74.86 735.95 64.29 735.76 C 63.86 714.52 64.00 693.27 64.00 672.04 C 53.43 672.00 42.85 671.94 32.28 671.76 C 31.64 597.18 32.17 522.60 32.00 448.02 C 21.33 447.98 10.67 447.97 0.00 448.01 L 0.00 383.99 C 10.66 384.02 21.33 384.02 31.99 383.99 C 32.03 373.32 32.01 362.66 31.99 352.00 C 31.99 341.33 32.01 330.66 32.01 319.99 C 42.67 320.01 53.33 320.01 63.99 319.99 C 64.03 309.33 64.01 298.67 63.99 288.01 C 64.00 277.33 64.01 266.66 64.01 255.99 C 74.66 256.01 85.30 256.01 95.95 255.99 C 96.00 245.41 96.08 234.82 96.29 224.24 C 106.84 224.05 117.39 223.99 127.95 223.96 C 128.00 213.38 128.08 202.81 128.29 192.24 C 138.84 192.05 149.39 191.99 159.95 191.96 C 160.00 181.38 160.08 170.81 160.29 160.24 C 170.84 160.05 181.39 159.99 191.95 159.96 C 191.99 149.37 192.07 138.78 192.30 128.19 C 213.53 127.86 234.77 128.03 256.00 127.98 C 256.00 117.32 256.00 106.67 256.00 96.01 C 266.66 95.98 277.32 95.99 287.98 96.01 C 287.96 106.66 287.98 117.32 288.01 127.98 C 298.67 128.03 309.32 128.03 319.98 127.98 C 320.01 117.32 320.01 106.66 319.99 96.00 C 330.66 96.01 341.33 96.01 352.00 95.98 C 352.00 85.32 352.00 74.66 352.00 64.01 C 362.66 63.98 373.33 63.99 384.01 64.01 C 383.98 74.67 383.98 85.32 384.01 95.98 C 394.66 96.03 405.32 96.03 415.98 95.98 C 416.00 85.32 416.01 74.66 415.99 64.00 C 426.66 64.00 437.33 64.00 448.01 64.00 C 447.98 74.66 447.98 85.32 448.01 95.98 C 458.66 96.03 469.32 96.03 479.98 95.98 C 480.00 85.32 480.01 74.66 479.99 64.00 C 490.66 64.00 501.33 64.00 512.01 64.00 C 511.98 74.66 511.98 85.32 512.01 95.98 C 522.66 96.03 533.32 96.03 543.98 95.98 C 544.00 85.32 544.01 74.66 543.99 64.00 C 554.66 64.00 565.33 64.00 576.01 64.00 C 575.98 74.66 575.98 85.32 576.01 95.98 C 586.66 96.03 597.32 96.03 607.98 95.98 C 608.00 85.32 608.01 74.66 607.99 64.00 C 618.65 64.01 629.32 64.01 640.00 63.99 C 639.99 53.32 639.99 42.66 640.00 32.00 M 192.05 256.00 C 192.01 266.63 192.69 277.37 191.04 287.92 C 180.70 288.37 170.34 288.01 159.99 288.03 C 160.01 298.69 160.02 309.36 159.99 320.03 C 160.01 330.69 160.02 341.35 160.00 352.01 C 170.66 351.98 181.33 351.96 192.01 352.00 C 192.01 362.67 191.98 373.33 192.00 384.00 C 224.00 383.99 256.01 384.00 288.01 384.00 C 320.01 384.00 352.01 383.99 384.01 384.00 C 383.98 373.33 383.97 362.67 384.00 352.00 C 448.00 352.00 512.00 352.00 576.00 352.00 C 576.05 362.67 575.94 373.33 576.01 384.00 C 618.67 384.00 661.33 384.00 703.99 384.00 C 704.05 394.67 703.93 405.33 704.01 416.00 C 736.00 415.99 768.00 416.00 799.99 416.01 C 800.05 426.67 799.93 437.34 800.01 448.01 C 810.67 447.98 821.33 447.98 832.01 448.01 C 842.67 447.98 853.33 447.98 864.01 448.01 C 874.66 447.99 885.32 447.98 895.99 448.00 C 896.01 426.68 895.99 405.37 896.00 384.05 C 885.36 384.01 874.62 384.68 864.08 383.04 C 863.62 372.71 863.97 362.38 863.97 352.05 C 853.34 352.01 842.61 352.68 832.08 351.04 C 831.63 340.70 831.98 330.34 831.97 320.00 C 810.68 319.46 789.27 321.32 768.08 319.04 C 767.63 308.70 767.97 298.34 767.96 288.00 C 732.31 288.06 696.65 287.86 661.00 288.14 C 654.02 288.04 646.96 288.23 640.08 287.04 C 639.62 276.69 639.98 266.34 639.97 256.00 C 490.66 256.00 341.36 256.00 192.05 256.00 M 320.04 416.00 C 320.04 426.21 320.40 436.44 319.72 446.64 C 319.43 446.90 318.86 447.40 318.57 447.65 C 287.08 448.66 255.55 447.66 224.05 448.00 C 224.01 458.63 224.69 469.37 223.04 479.92 C 212.70 480.36 202.35 480.01 192.01 480.03 C 191.98 501.36 192.00 522.68 192.01 544.01 C 202.67 543.98 213.33 543.98 224.00 543.99 C 245.33 544.00 266.67 544.00 288.01 543.99 C 287.98 533.32 287.97 522.66 288.01 512.00 C 298.67 511.97 309.34 512.01 320.00 512.00 C 330.67 512.00 341.33 511.97 352.00 512.00 C 352.02 522.66 352.01 533.32 351.99 543.99 C 373.33 544.01 394.67 543.99 416.01 543.99 C 415.98 533.32 415.97 522.66 416.01 512.00 C 448.00 512.00 479.99 511.99 511.99 512.00 C 522.65 511.99 533.32 511.97 544.00 512.00 C 544.02 522.66 544.01 533.33 543.99 544.00 C 586.66 544.00 629.33 544.00 672.00 544.00 C 672.05 554.66 671.94 565.33 672.01 576.00 C 693.33 575.97 714.66 576.03 735.99 575.99 C 736.05 586.66 735.93 597.33 736.01 608.01 C 746.66 607.98 757.32 607.98 767.99 608.01 C 778.66 607.98 789.33 607.98 800.01 608.01 C 810.67 607.98 821.33 607.97 832.00 608.00 C 831.99 576.00 831.99 544.00 832.00 512.00 C 800.04 511.29 767.95 513.42 736.08 511.04 C 735.62 500.69 735.97 490.34 735.97 480.00 C 714.68 479.46 693.27 481.32 672.08 479.04 C 671.63 468.70 671.97 458.35 671.97 448.01 C 623.97 448.03 575.98 447.90 527.99 448.12 C 522.68 447.91 517.30 448.04 512.08 447.04 C 511.63 436.69 511.97 426.34 511.96 416.00 C 447.99 416.00 384.01 416.00 320.04 416.00 M 320.04 576.00 C 320.04 586.21 320.40 596.44 319.72 606.64 C 319.43 606.90 318.86 607.40 318.57 607.65 C 287.08 608.66 255.55 607.65 224.05 608.00 C 224.01 618.62 224.69 629.37 223.04 639.92 C 212.70 640.35 202.34 640.01 191.99 640.04 C 192.01 650.69 192.03 661.35 191.99 672.01 C 202.66 671.97 213.34 671.99 224.01 671.99 C 256.01 672.01 288.01 672.00 320.01 671.99 C 352.00 672.01 384.00 671.98 415.99 672.01 C 416.02 682.67 416.01 693.33 416.00 704.01 C 426.66 703.98 437.34 703.96 448.01 704.01 C 447.98 693.33 447.97 682.66 448.01 672.00 C 469.33 671.99 490.66 672.00 511.99 672.00 C 533.32 671.98 554.66 672.01 576.00 672.00 C 576.01 682.66 576.01 693.32 575.99 703.99 C 597.32 704.00 618.65 703.99 639.99 704.00 C 650.65 703.97 661.32 703.96 671.99 704.01 C 672.02 714.67 672.02 725.34 671.99 736.01 C 682.65 735.98 693.31 735.97 703.98 736.01 C 714.65 735.98 725.33 735.97 736.01 736.00 C 735.98 725.37 735.97 714.74 736.01 704.13 C 735.98 693.43 735.97 682.73 736.01 672.05 C 725.36 672.00 714.62 672.68 704.08 671.04 C 703.63 660.69 703.98 650.34 703.97 640.00 C 682.68 639.46 661.27 641.32 640.08 639.04 C 639.63 628.69 639.97 618.34 639.96 608.00 C 604.31 608.06 568.65 607.86 533.00 608.14 C 526.02 608.03 518.96 608.23 512.08 607.04 C 511.63 596.69 511.97 586.34 511.96 576.00 C 447.99 576.00 384.01 576.00 320.04 576.00 Z" />
<path fill="#8fea43" opacity="1.00" d=" M 288.29 64.25 C 298.86 64.04 309.42 63.98 319.99 63.97 C 320.01 74.64 320.01 85.32 319.99 96.00 C 309.32 96.01 298.65 95.99 287.98 96.01 C 288.00 85.42 288.06 74.83 288.29 64.25 Z" />
<path fill="#8fea43" opacity="1.00" d=" M 960.00 448.01 C 970.66 447.98 981.31 447.98 991.98 448.02 C 992.02 458.67 992.02 469.33 991.98 479.99 C 981.31 480.01 970.65 480.01 960.00 479.99 C 959.99 469.33 959.98 458.67 960.00 448.01 Z" />
<path fill="#8fea43" opacity="1.00" d=" M 960.00 512.01 C 970.65 511.98 981.31 511.99 991.98 512.02 C 992.02 522.67 992.02 533.33 991.98 543.99 C 981.31 544.01 970.65 544.00 960.00 543.99 C 959.99 533.33 959.99 522.66 960.00 512.01 Z" />
<path fill="#8fea43" opacity="1.00" d=" M 928.00 544.01 C 938.66 543.99 949.33 544.00 960.00 543.99 C 959.99 554.66 959.99 565.33 960.00 576.00 C 949.32 575.98 938.66 576.00 928.00 576.00 C 927.99 565.33 927.98 554.67 928.00 544.01 Z" />
<path fill="#8fea43" opacity="1.00" d=" M 960.00 576.00 C 970.65 575.99 981.31 575.98 991.98 576.02 C 992.02 586.67 992.02 597.33 991.98 607.99 C 981.31 608.01 970.65 608.00 960.00 607.99 C 960.00 597.32 960.00 586.66 960.00 576.00 Z" />
<path fill="#8fea43" opacity="1.00" d=" M 928.00 608.01 C 938.66 607.99 949.32 608.00 960.00 607.99 C 960.00 618.65 960.00 629.32 960.00 639.99 C 949.32 640.01 938.66 640.00 928.00 639.99 C 927.99 629.32 927.99 618.66 928.00 608.01 Z" />
<path fill="#8fea43" opacity="1.00" d=" M 896.00 640.01 C 906.66 639.99 917.33 640.00 928.00 639.99 C 927.99 650.66 927.99 661.33 928.00 672.00 C 917.32 671.99 906.66 671.99 896.00 672.00 C 895.99 661.33 895.98 650.67 896.00 640.01 Z" />
<path fill="#8fea43" opacity="1.00" d=" M 864.00 672.01 C 874.66 671.99 885.33 671.99 896.00 672.00 C 895.99 682.66 896.00 693.33 896.00 704.00 C 885.32 704.00 874.66 703.99 864.00 704.00 C 863.99 693.33 863.98 682.67 864.00 672.01 Z" />
<path fill="#8fea43" opacity="1.00" d=" M 928.00 672.00 C 938.65 671.98 949.31 671.99 959.98 672.02 C 960.02 682.67 960.02 693.33 959.98 703.99 C 949.31 704.01 938.65 704.00 928.00 703.99 C 928.00 693.32 928.00 682.66 928.00 672.00 Z" />
<path fill="#8fea43" opacity="1.00" d=" M 832.00 704.01 C 842.66 703.98 853.33 703.99 864.00 704.00 C 863.99 714.66 864.00 725.32 864.00 736.00 C 853.32 736.00 842.66 735.99 832.00 736.00 C 831.99 725.33 831.98 714.67 832.00 704.01 Z" />
<path fill="#8fea43" opacity="1.00" d=" M 896.00 704.00 C 906.65 704.00 917.32 704.00 928.00 703.99 C 928.00 714.65 928.00 725.32 928.00 735.99 C 917.32 736.01 906.65 736.00 896.00 735.99 C 896.00 725.32 896.00 714.66 896.00 704.00 Z" />
<path fill="#8fea43" opacity="1.00" d=" M 800.00 736.01 C 810.66 735.98 821.33 735.99 832.00 736.00 C 831.99 746.66 832.00 757.32 832.00 768.00 C 821.32 768.00 810.66 767.99 800.00 768.00 C 799.99 757.33 799.98 746.67 800.00 736.01 Z" />
<path fill="#8fea43" opacity="1.00" d=" M 864.00 736.00 C 874.66 736.00 885.32 736.00 896.00 735.99 C 896.00 746.65 896.00 757.32 896.00 767.99 C 885.32 768.01 874.65 768.00 864.00 767.99 C 864.00 757.32 864.00 746.66 864.00 736.00 Z" />
<path fill="#8fea43" opacity="1.00" d=" M 768.00 768.01 C 778.66 767.98 789.33 767.99 800.00 768.00 C 799.99 778.66 800.00 789.32 800.00 800.00 C 789.32 800.00 778.66 799.99 768.00 800.00 C 767.99 789.33 767.98 778.66 768.00 768.01 Z" />
<path fill="#8fea43" opacity="1.00" d=" M 832.00 768.00 C 842.66 768.00 853.32 768.00 864.00 767.99 C 864.00 778.65 864.00 789.32 864.00 799.99 C 853.32 800.01 842.65 800.00 832.00 799.99 C 832.00 789.32 832.00 778.66 832.00 768.00 Z" />
<path fill="#8fea43" opacity="1.00" d=" M 160.01 799.99 C 170.67 800.00 181.33 800.00 191.99 800.00 C 192.00 810.66 191.99 821.32 192.01 832.00 C 181.34 832.00 170.67 832.00 160.01 832.00 C 159.98 821.32 159.98 810.65 160.01 799.99 Z" />
<path fill="#8fea43" opacity="1.00" d=" M 224.00 800.00 C 234.66 799.99 245.33 799.98 255.99 800.00 C 256.01 810.66 256.00 821.33 256.00 832.00 C 245.33 831.99 234.67 831.99 224.00 832.00 C 223.99 821.32 223.99 810.66 224.00 800.00 Z" />
<path fill="#8fea43" opacity="1.00" d=" M 736.00 800.01 C 746.66 799.98 757.33 799.99 768.00 800.00 C 767.99 810.66 768.00 821.32 768.00 832.00 C 757.32 831.99 746.66 831.99 736.00 832.00 C 735.99 821.33 735.98 810.66 736.00 800.01 Z" />
<path fill="#8fea43" opacity="1.00" d=" M 800.00 800.00 C 810.66 800.00 821.32 800.00 832.00 799.99 C 832.00 810.65 832.00 821.32 832.00 831.99 C 821.32 832.01 810.65 832.00 800.00 831.99 C 800.00 821.32 800.00 810.65 800.00 800.00 Z" />
<path fill="#8fea43" opacity="1.00" d=" M 192.01 832.00 C 202.67 832.00 213.33 832.00 224.00 832.00 C 223.99 842.66 223.99 853.32 224.01 864.00 C 213.34 864.00 202.67 864.00 192.01 864.00 C 191.98 853.32 191.99 842.65 192.01 832.00 Z" />
<path fill="#8fea43" opacity="1.00" d=" M 256.00 832.00 C 266.66 831.99 277.33 831.99 287.99 832.00 C 288.00 842.66 288.00 853.32 288.00 864.00 C 277.33 863.99 266.66 863.99 256.00 864.00 C 255.99 853.32 256.00 842.66 256.00 832.00 Z" />
<path fill="#8fea43" opacity="1.00" d=" M 320.00 832.00 C 330.66 831.99 341.33 831.98 351.99 832.00 C 352.00 842.66 352.00 853.33 352.00 864.00 C 341.33 863.99 330.66 863.99 320.00 864.00 C 319.99 853.32 319.99 842.66 320.00 832.00 Z" />
<path fill="#8fea43" opacity="1.00" d=" M 640.00 832.01 C 650.66 831.98 661.32 831.99 671.99 832.00 C 672.00 842.66 672.00 853.32 672.00 864.00 C 661.33 863.99 650.66 863.99 640.00 864.00 C 639.99 853.33 639.99 842.66 640.00 832.01 Z" />
<path fill="#8fea43" opacity="1.00" d=" M 704.00 832.00 C 714.66 831.99 725.33 831.99 736.00 832.00 C 735.99 842.66 736.00 853.32 736.00 864.00 C 725.33 863.99 714.66 863.99 704.00 864.00 C 703.98 853.32 703.99 842.66 704.00 832.00 Z" />
<path fill="#8fea43" opacity="1.00" d=" M 768.00 832.00 C 778.66 832.00 789.32 832.00 800.00 831.99 C 800.00 842.65 800.00 853.32 800.00 863.99 C 789.32 864.01 778.65 864.00 768.00 863.99 C 768.00 853.32 768.00 842.66 768.00 832.00 Z" />
<path fill="#8fea43" opacity="1.00" d=" M 224.01 864.00 C 234.67 864.00 245.33 864.00 256.00 864.00 C 255.99 874.66 255.99 885.32 256.01 896.00 C 245.34 896.00 234.67 896.00 224.01 896.00 C 223.98 885.32 223.99 874.65 224.01 864.00 Z" />
<path fill="#8fea43" opacity="1.00" d=" M 288.00 864.00 C 298.66 863.99 309.33 863.99 320.00 864.00 C 319.99 874.66 319.99 885.32 320.01 896.00 C 309.33 895.99 298.66 895.99 288.00 896.00 C 288.00 885.32 288.00 874.66 288.00 864.00 Z" />
<path fill="#8fea43" opacity="1.00" d=" M 352.00 864.00 C 362.66 863.99 373.33 863.99 384.00 864.00 C 384.00 874.66 383.99 885.32 384.00 896.00 C 373.33 895.99 362.66 895.99 352.00 896.00 C 352.00 885.32 352.00 874.66 352.00 864.00 Z" />
<path fill="#8fea43" opacity="1.00" d=" M 416.00 864.00 C 426.66 863.99 437.33 863.99 448.00 864.00 C 448.00 874.66 447.99 885.32 448.00 896.00 C 437.33 895.99 426.66 895.99 416.00 896.00 C 416.01 885.32 415.99 874.66 416.00 864.00 Z" />
<path fill="#8fea43" opacity="1.00" d=" M 480.00 864.00 C 490.66 863.99 501.33 863.99 512.00 864.00 C 512.00 874.66 511.99 885.32 512.00 896.00 C 501.33 895.99 490.66 895.99 480.00 896.00 C 480.00 885.32 479.99 874.66 480.00 864.00 Z" />
<path fill="#8fea43" opacity="1.00" d=" M 544.00 864.00 C 554.66 863.99 565.32 863.99 576.00 864.00 C 576.00 874.66 575.99 885.32 576.00 896.00 C 565.33 895.99 554.66 895.99 544.00 896.00 C 544.00 885.32 543.98 874.66 544.00 864.00 Z" />
<path fill="#8fea43" opacity="1.00" d=" M 608.00 864.00 C 618.66 863.99 629.33 863.99 640.00 864.00 C 639.99 874.66 639.99 885.32 640.01 896.00 C 629.33 895.99 618.66 895.99 608.00 896.00 C 608.00 885.32 607.98 874.66 608.00 864.00 Z" />
<path fill="#8fea43" opacity="1.00" d=" M 672.00 864.00 C 682.66 863.99 693.33 863.99 704.00 864.00 C 703.99 874.66 703.98 885.32 704.01 896.00 C 693.33 895.99 682.66 895.99 672.00 896.00 C 672.00 885.32 672.00 874.66 672.00 864.00 Z" />
<path fill="#8fea43" opacity="1.00" d=" M 736.00 864.00 C 746.66 864.00 757.32 864.00 768.00 863.99 C 768.00 874.65 768.00 885.32 768.00 895.99 C 757.32 896.01 746.66 896.00 736.00 895.99 C 736.00 885.32 735.99 874.65 736.00 864.00 Z" />
<path fill="#8fea43" opacity="1.00" d=" M 256.01 896.00 C 266.67 896.00 277.33 896.00 288.00 896.00 C 288.01 906.65 288.00 917.31 287.98 927.98 C 277.32 928.02 266.66 928.02 256.01 927.98 C 255.98 917.31 255.99 906.65 256.01 896.00 Z" />
<path fill="#8fea43" opacity="1.00" d=" M 320.01 896.00 C 330.67 895.99 341.33 895.99 352.00 896.00 C 352.01 906.65 352.00 917.31 351.98 927.98 C 341.32 928.02 330.66 928.02 320.01 927.98 C 319.98 917.31 319.99 906.65 320.01 896.00 Z" />
<path fill="#8fea43" opacity="1.00" d=" M 384.00 896.00 C 394.67 895.99 405.33 895.99 416.00 896.00 C 416.00 906.65 416.01 917.31 415.98 927.98 C 405.32 928.02 394.66 928.02 384.01 927.98 C 383.98 917.31 383.99 906.65 384.00 896.00 Z" />
<path fill="#8fea43" opacity="1.00" d=" M 448.00 896.00 C 458.66 895.99 469.33 895.99 480.00 896.00 C 480.00 906.65 480.01 917.31 479.98 927.98 C 469.32 928.02 458.66 928.02 448.01 927.98 C 447.98 917.31 447.99 906.65 448.00 896.00 Z" />
<path fill="#8fea43" opacity="1.00" d=" M 512.00 896.00 C 522.66 895.99 533.33 895.99 544.00 896.00 C 544.00 906.65 544.01 917.31 543.98 927.98 C 533.32 928.02 522.66 928.02 512.01 927.98 C 511.98 917.31 511.99 906.65 512.00 896.00 Z" />
<path fill="#8fea43" opacity="1.00" d=" M 576.00 896.00 C 586.66 895.99 597.33 895.99 608.00 896.00 C 608.00 906.65 608.00 917.31 607.98 927.98 C 597.32 928.02 586.66 928.02 576.01 927.98 C 575.97 917.31 575.99 906.65 576.00 896.00 Z" />
<path fill="#8fea43" opacity="1.00" d=" M 640.01 896.00 C 650.66 895.99 661.33 895.99 672.00 896.00 C 672.00 906.65 672.00 917.31 671.98 927.98 C 661.32 928.02 650.66 928.02 640.01 927.98 C 639.98 917.31 639.98 906.65 640.01 896.00 Z" />
<path fill="#8fea43" opacity="1.00" d=" M 704.01 896.00 C 714.66 896.00 725.32 896.00 736.00 895.99 C 736.00 906.65 736.00 917.31 735.98 927.98 C 725.32 928.02 714.66 928.02 704.01 927.98 C 703.98 917.31 703.98 906.65 704.01 896.00 Z" />
</g>
<g id="#1ba525ff">
<path fill="#1ba525" opacity="1.00" d=" M 704.01 32.00 C 714.66 32.00 725.32 31.99 735.99 32.00 C 736.01 42.66 736.00 53.33 735.99 63.99 C 725.32 64.01 714.66 64.03 704.01 63.99 C 703.98 53.33 703.98 42.67 704.01 32.00 Z" />
<path fill="#1ba525" opacity="1.00" d=" M 768.01 64.01 C 778.67 63.99 789.33 63.98 800.00 64.02 C 800.00 74.68 799.99 85.34 800.00 96.00 C 810.66 96.00 821.32 96.00 832.00 96.00 C 832.00 106.66 831.99 117.33 832.00 128.00 C 842.66 128.00 853.32 128.00 864.00 128.00 C 863.99 138.66 863.99 149.33 864.00 160.00 C 874.66 160.00 885.32 160.00 896.00 160.00 C 895.99 170.66 895.99 181.33 896.00 192.00 C 906.66 192.00 917.32 192.00 928.00 192.00 C 927.99 202.66 927.99 213.33 928.00 224.00 C 938.65 224.00 949.32 223.99 960.00 224.00 C 960.01 245.33 959.97 266.66 960.02 288.00 C 970.67 288.00 981.33 287.99 992.00 288.00 C 992.00 309.32 991.99 330.65 992.00 351.99 C 1002.66 352.02 1013.32 352.02 1024.00 351.99 L 1024.00 672.01 C 1013.32 671.97 1002.66 671.97 992.00 672.01 C 991.98 693.24 992.12 714.47 991.81 735.70 C 981.20 735.92 970.59 736.00 960.00 736.05 C 959.98 757.26 960.12 778.48 959.81 799.70 C 949.21 799.92 938.62 800.00 928.04 800.05 C 928.00 810.60 927.94 821.15 927.76 831.71 C 917.18 831.91 906.61 831.99 896.04 832.05 C 896.00 842.60 895.94 853.15 895.76 863.71 C 885.18 863.91 874.61 863.99 864.04 864.05 C 864.00 874.60 863.94 885.15 863.76 895.71 C 853.18 895.91 842.61 895.99 832.04 896.05 C 832.00 906.60 831.94 917.15 831.76 927.71 C 821.18 927.91 810.61 927.99 800.04 928.05 C 800.00 938.60 799.94 949.15 799.76 959.71 C 778.52 960.14 757.27 960.00 736.04 960.00 C 736.00 970.56 735.94 981.14 735.76 991.72 C 586.60 992.22 437.44 992.12 288.29 991.77 C 288.08 981.17 287.99 970.58 287.95 960.00 C 266.73 959.98 245.51 960.12 224.30 959.81 C 224.07 949.21 223.99 938.62 223.95 928.04 C 213.39 928.00 202.84 927.94 192.29 927.76 C 192.08 917.18 192.00 906.61 191.95 896.04 C 181.39 896.00 170.84 895.94 160.29 895.76 C 160.08 885.18 160.00 874.61 159.95 864.04 C 149.39 864.00 138.84 863.94 128.29 863.76 C 128.08 853.18 128.00 842.61 127.95 832.04 C 117.39 832.00 106.84 831.94 96.29 831.76 C 96.08 821.18 96.00 810.61 95.95 800.04 C 85.39 800.00 74.84 799.94 64.29 799.76 C 63.86 778.52 64.00 757.27 64.00 736.04 C 53.43 736.00 42.86 735.94 32.29 735.76 C 31.85 714.51 32.00 693.26 32.00 672.02 C 21.33 671.98 10.67 671.97 0.00 672.01 L 0.00 448.01 C 10.67 447.97 21.33 447.98 32.00 448.02 C 32.17 522.60 31.64 597.18 32.28 671.76 C 42.85 671.94 53.43 672.00 64.00 672.04 C 64.00 693.27 63.86 714.52 64.29 735.76 C 74.86 735.95 85.43 736.00 96.00 736.03 C 96.00 746.68 96.00 757.34 96.00 768.00 C 106.66 768.00 117.33 767.99 128.00 768.00 C 128.00 778.65 128.00 789.32 128.00 799.99 C 138.67 800.01 149.34 800.00 160.01 799.99 C 159.98 810.65 159.98 821.32 160.01 832.00 C 170.67 832.00 181.34 832.00 192.01 832.00 C 191.99 842.65 191.98 853.32 192.01 864.00 C 202.67 864.00 213.34 864.00 224.01 864.00 C 223.99 874.65 223.98 885.32 224.01 896.00 C 234.67 896.00 245.34 896.00 256.01 896.00 C 255.99 906.65 255.98 917.31 256.01 927.98 C 266.66 928.02 277.32 928.02 287.98 927.98 C 288.00 917.31 288.01 906.65 288.00 896.00 C 298.66 895.99 309.33 895.99 320.01 896.00 C 319.99 906.65 319.98 917.31 320.01 927.98 C 330.66 928.02 341.32 928.02 351.98 927.98 C 352.00 917.31 352.01 906.65 352.00 896.00 C 362.66 895.99 373.33 895.99 384.00 896.00 C 383.99 906.65 383.98 917.31 384.01 927.98 C 394.66 928.02 405.32 928.02 415.98 927.98 C 416.01 917.31 416.00 906.65 416.00 896.00 C 426.66 895.99 437.33 895.99 448.00 896.00 C 447.99 906.65 447.98 917.31 448.01 927.98 C 458.66 928.02 469.32 928.02 479.98 927.98 C 480.01 917.31 480.00 906.65 480.00 896.00 C 490.66 895.99 501.33 895.99 512.00 896.00 C 511.99 906.65 511.98 917.31 512.01 927.98 C 522.66 928.02 533.32 928.02 543.98 927.98 C 544.01 917.31 544.00 906.65 544.00 896.00 C 554.66 895.99 565.33 895.99 576.00 896.00 C 575.99 906.65 575.97 917.31 576.01 927.98 C 586.66 928.02 597.32 928.02 607.98 927.98 C 608.00 917.31 608.00 906.65 608.00 896.00 C 618.66 895.99 629.33 895.99 640.01 896.00 C 639.98 906.65 639.98 917.31 640.01 927.98 C 650.66 928.02 661.32 928.02 671.98 927.98 C 672.00 917.31 672.00 906.65 672.00 896.00 C 682.66 895.99 693.33 895.99 704.01 896.00 C 703.98 906.65 703.98 917.31 704.01 927.98 C 714.66 928.02 725.32 928.02 735.98 927.98 C 736.00 917.31 736.00 906.65 736.00 895.99 C 746.66 896.00 757.32 896.01 768.00 895.99 C 768.00 885.32 768.00 874.65 768.00 863.99 C 778.65 864.00 789.32 864.01 800.00 863.99 C 800.00 853.32 800.00 842.65 800.00 831.99 C 810.65 832.00 821.32 832.01 832.00 831.99 C 832.00 821.32 832.00 810.65 832.00 799.99 C 842.65 800.00 853.32 800.01 864.00 799.99 C 864.00 789.32 864.00 778.65 864.00 767.99 C 874.65 768.00 885.32 768.01 896.00 767.99 C 896.00 757.32 896.00 746.65 896.00 735.99 C 906.65 736.00 917.32 736.01 928.00 735.99 C 928.00 725.32 928.00 714.65 928.00 703.99 C 938.65 704.00 949.31 704.01 959.98 703.99 C 960.02 693.33 960.02 682.67 959.98 672.02 C 949.31 671.99 938.65 671.98 928.00 672.00 C 927.99 661.33 927.99 650.66 928.00 639.99 C 938.66 640.00 949.32 640.01 960.00 639.99 C 960.00 629.32 960.00 618.65 960.00 607.99 C 970.65 608.00 981.31 608.01 991.98 607.99 C 992.02 597.33 992.02 586.67 991.98 576.02 C 981.31 575.98 970.65 575.99 960.00 576.00 C 959.99 565.33 959.99 554.66 960.00 543.99 C 970.65 544.00 981.31 544.01 991.98 543.99 C 992.02 533.33 992.02 522.67 991.98 512.02 C 981.31 511.99 970.65 511.98 960.00 512.01 C 959.99 501.33 959.99 490.66 960.00 479.99 C 970.65 480.01 981.31 480.01 991.98 479.99 C 992.02 469.33 992.02 458.67 991.98 448.02 C 981.31 447.98 970.66 447.98 960.00 448.01 C 959.98 437.34 959.98 426.67 960.01 416.00 C 970.66 415.99 981.32 415.99 991.99 416.00 C 992.03 405.33 992.01 394.66 991.96 384.00 C 981.30 383.99 970.65 384.00 960.00 384.00 C 959.98 362.67 960.02 341.33 959.98 320.00 C 949.31 319.99 938.65 320.00 928.00 320.00 C 927.98 298.67 928.02 277.33 927.98 256.00 C 917.31 256.00 906.65 256.00 896.00 256.01 C 896.00 234.75 896.14 213.49 895.71 192.24 C 885.15 192.05 874.60 191.99 864.05 191.96 C 863.99 181.38 863.91 170.81 863.71 160.24 C 853.15 160.05 842.60 159.99 832.05 159.96 C 831.99 149.38 831.91 138.81 831.71 128.24 C 821.15 128.05 810.60 127.99 800.05 127.96 C 799.99 117.38 799.91 106.81 799.71 96.24 C 789.14 96.05 778.57 95.99 768.01 95.96 C 767.98 85.31 767.98 74.66 768.01 64.01 Z" />
<path fill="#1ba525" opacity="1.00" d=" M 192.05 256.00 C 341.36 256.00 490.66 256.00 639.97 256.00 C 639.98 266.34 639.62 276.69 640.08 287.04 C 646.96 288.23 654.02 288.04 661.00 288.14 C 696.65 287.86 732.31 288.06 767.96 288.00 C 767.97 298.34 767.63 308.70 768.08 319.04 C 789.27 321.32 810.68 319.46 831.97 320.00 C 831.98 330.34 831.63 340.70 832.08 351.04 C 842.61 352.68 853.34 352.01 863.97 352.05 C 863.97 362.38 863.62 372.71 864.08 383.04 C 874.62 384.68 885.36 384.01 896.00 384.05 C 895.99 405.37 896.01 426.68 895.99 448.00 C 885.32 447.98 874.66 447.99 864.01 448.01 C 863.99 426.68 863.99 405.36 864.00 384.04 C 853.42 384.01 842.85 383.95 832.29 383.76 C 832.07 373.17 831.99 362.58 831.95 352.00 C 810.73 351.98 789.51 352.13 768.30 351.81 C 768.07 341.20 767.98 330.60 767.95 319.99 C 725.40 319.91 682.84 320.23 640.30 319.80 C 640.07 309.20 639.98 298.60 639.95 288.00 C 490.65 288.00 341.34 288.00 192.04 288.00 C 192.01 298.56 191.95 309.13 191.76 319.70 C 181.17 319.93 170.58 320.00 159.99 320.03 C 160.02 309.36 160.01 298.69 159.99 288.03 C 170.34 288.01 180.70 288.37 191.04 287.92 C 192.69 277.37 192.01 266.63 192.05 256.00 Z" />
<path fill="#1ba525" opacity="1.00" d=" M 320.04 416.00 C 384.01 416.00 447.99 416.00 511.96 416.00 C 511.97 426.34 511.63 436.69 512.08 447.04 C 517.30 448.04 522.68 447.91 527.99 448.12 C 575.98 447.90 623.97 448.03 671.97 448.01 C 671.97 458.35 671.63 468.70 672.08 479.04 C 693.27 481.32 714.68 479.46 735.97 480.00 C 735.97 490.34 735.62 500.69 736.08 511.04 C 767.95 513.42 800.04 511.29 832.00 512.00 C 831.99 544.00 831.99 576.00 832.00 608.00 C 821.33 607.97 810.67 607.98 800.01 608.01 C 799.99 586.67 799.99 565.34 800.00 544.01 C 778.76 543.96 757.53 544.14 736.30 543.81 C 736.07 533.20 735.98 522.60 735.95 512.00 C 714.73 511.98 693.51 512.13 672.30 511.81 C 672.07 501.20 671.98 490.60 671.95 480.00 C 618.73 479.87 565.51 480.26 512.29 479.80 C 512.07 469.20 511.98 458.60 511.95 448.00 C 447.98 448.00 384.01 448.00 320.03 448.00 C 320.00 458.57 319.95 469.14 319.76 479.72 C 287.84 480.24 255.93 479.93 224.01 480.00 C 223.97 490.66 223.99 501.33 224.01 512.00 C 224.00 522.66 223.98 533.32 224.00 543.99 C 213.33 543.98 202.67 543.98 192.01 544.01 C 192.00 522.68 191.98 501.36 192.01 480.03 C 202.35 480.01 212.70 480.36 223.04 479.92 C 224.69 469.37 224.01 458.63 224.05 448.00 C 255.55 447.66 287.08 448.66 318.57 447.65 C 318.86 447.40 319.43 446.90 319.72 446.64 C 320.40 436.44 320.04 426.21 320.04 416.00 Z" />
<path fill="#1ba525" opacity="1.00" d=" M 928.02 448.01 C 938.67 447.98 949.33 447.98 960.00 448.01 C 959.98 458.67 959.99 469.33 960.00 479.99 C 949.33 480.01 938.67 480.00 928.02 479.98 C 927.96 469.32 927.96 458.66 928.02 448.01 Z" />
<path fill="#1ba525" opacity="1.00" d=" M 928.00 512.01 C 938.66 511.98 949.32 511.98 960.00 512.01 C 959.99 522.66 959.99 533.33 960.00 543.99 C 949.33 544.00 938.66 543.99 928.00 544.01 C 927.98 533.34 927.98 522.67 928.00 512.01 Z" />
<path fill="#1ba525" opacity="1.00" d=" M 896.02 544.01 C 906.67 543.97 917.33 543.99 928.00 544.01 C 927.98 554.67 927.99 565.33 928.00 576.00 C 917.33 576.00 906.67 576.00 896.02 575.98 C 895.96 565.32 895.96 554.66 896.02 544.01 Z" />
<path fill="#1ba525" opacity="1.00" d=" M 320.04 576.00 C 384.01 576.00 447.99 576.00 511.96 576.00 C 511.97 586.34 511.63 596.69 512.08 607.04 C 518.96 608.23 526.02 608.03 533.00 608.14 C 568.65 607.86 604.31 608.06 639.96 608.00 C 639.97 618.34 639.63 628.69 640.08 639.04 C 661.27 641.32 682.68 639.46 703.97 640.00 C 703.98 650.34 703.63 660.69 704.08 671.04 C 714.62 672.68 725.36 672.00 736.01 672.05 C 735.97 682.73 735.98 693.43 736.01 704.13 C 725.38 704.16 714.68 704.45 704.14 703.01 C 703.59 692.67 703.93 682.33 703.89 672.00 C 682.69 671.98 661.49 672.12 640.30 671.81 C 640.07 661.20 639.99 650.59 639.95 639.99 C 597.40 639.91 554.84 640.23 512.30 639.80 C 512.07 629.19 511.99 618.59 511.95 608.00 C 447.98 608.00 384.01 608.00 320.03 608.00 C 320.00 618.57 319.95 629.14 319.76 639.72 C 287.85 640.24 255.93 639.93 224.02 640.00 C 223.98 650.65 223.97 661.32 224.01 671.99 C 213.34 671.99 202.66 671.97 191.99 672.01 C 192.03 661.35 192.01 650.69 191.99 640.04 C 202.34 640.01 212.70 640.35 223.04 639.92 C 224.69 629.37 224.01 618.62 224.05 608.00 C 255.55 607.65 287.08 608.66 318.57 607.65 C 318.86 607.40 319.43 606.90 319.72 606.64 C 320.40 596.44 320.04 586.21 320.04 576.00 Z" />
<path fill="#1ba525" opacity="1.00" d=" M 928.00 576.00 C 938.66 576.00 949.32 575.98 960.00 576.00 C 960.00 586.66 960.00 597.32 960.00 607.99 C 949.32 608.00 938.66 607.99 928.00 608.01 C 927.99 597.33 927.99 586.66 928.00 576.00 Z" />
<path fill="#1ba525" opacity="1.00" d=" M 896.00 608.01 C 906.66 607.97 917.32 607.98 928.00 608.01 C 927.99 618.66 927.99 629.32 928.00 639.99 C 917.33 640.00 906.66 639.99 896.00 640.01 C 895.98 629.33 895.98 618.67 896.00 608.01 Z" />
<path fill="#1ba525" opacity="1.00" d=" M 864.00 640.01 C 874.66 639.97 885.33 639.99 896.00 640.01 C 895.98 650.67 895.99 661.33 896.00 672.00 C 885.33 671.99 874.66 671.99 864.00 672.01 C 863.98 661.33 863.98 650.67 864.00 640.01 Z" />
<path fill="#1ba525" opacity="1.00" d=" M 832.00 672.01 C 842.66 671.98 853.33 671.98 864.00 672.01 C 863.98 682.67 863.99 693.33 864.00 704.00 C 853.33 703.99 842.66 703.98 832.00 704.01 C 831.98 693.33 831.98 682.67 832.00 672.01 Z" />
<path fill="#1ba525" opacity="1.00" d=" M 896.00 672.00 C 906.66 671.99 917.32 671.99 928.00 672.00 C 928.00 682.66 928.00 693.32 928.00 703.99 C 917.32 704.00 906.65 704.00 896.00 704.00 C 896.00 693.33 895.99 682.66 896.00 672.00 Z" />
<path fill="#1ba525" opacity="1.00" d=" M 800.00 704.01 C 810.66 703.98 821.33 703.98 832.00 704.01 C 831.98 714.67 831.99 725.33 832.00 736.00 C 821.33 735.99 810.66 735.98 800.00 736.01 C 799.98 725.33 799.98 714.67 800.00 704.01 Z" />
<path fill="#1ba525" opacity="1.00" d=" M 864.00 704.00 C 874.66 703.99 885.32 704.00 896.00 704.00 C 896.00 714.66 896.00 725.32 896.00 735.99 C 885.32 736.00 874.66 736.00 864.00 736.00 C 864.00 725.32 863.99 714.66 864.00 704.00 Z" />
<path fill="#1ba525" opacity="1.00" d=" M 768.00 736.01 C 778.66 735.98 789.33 735.98 800.00 736.01 C 799.98 746.67 799.99 757.33 800.00 768.00 C 789.33 767.99 778.66 767.98 768.00 768.01 C 767.99 757.33 767.98 746.67 768.00 736.01 Z" />
<path fill="#1ba525" opacity="1.00" d=" M 832.00 736.00 C 842.66 735.99 853.32 736.00 864.00 736.00 C 864.00 746.66 864.00 757.32 864.00 767.99 C 853.32 768.00 842.66 768.00 832.00 768.00 C 832.00 757.32 831.99 746.66 832.00 736.00 Z" />
<path fill="#1ba525" opacity="1.00" d=" M 160.02 768.02 C 170.67 767.96 181.33 767.96 191.99 768.02 C 192.02 778.67 192.01 789.33 191.99 800.00 C 181.33 800.00 170.67 800.00 160.01 799.99 C 159.98 789.32 159.99 778.67 160.02 768.02 Z" />
<path fill="#1ba525" opacity="1.00" d=" M 224.02 768.02 C 234.67 767.96 245.33 767.96 255.99 768.02 C 256.01 778.67 256.01 789.33 255.99 800.00 C 245.33 799.98 234.66 799.99 224.00 800.00 C 223.99 789.33 223.99 778.67 224.02 768.02 Z" />
<path fill="#1ba525" opacity="1.00" d=" M 736.00 768.01 C 746.66 767.98 757.33 767.98 768.00 768.01 C 767.98 778.66 767.99 789.33 768.00 800.00 C 757.33 799.99 746.66 799.98 736.00 800.01 C 735.99 789.33 735.98 778.67 736.00 768.01 Z" />
<path fill="#1ba525" opacity="1.00" d=" M 800.00 768.00 C 810.66 767.99 821.32 768.00 832.00 768.00 C 832.00 778.66 832.00 789.32 832.00 799.99 C 821.32 800.00 810.66 800.00 800.00 800.00 C 800.00 789.32 799.99 778.66 800.00 768.00 Z" />
<path fill="#1ba525" opacity="1.00" d=" M 191.99 800.00 C 202.66 800.00 213.33 799.99 224.00 800.00 C 223.99 810.66 223.99 821.32 224.00 832.00 C 213.33 832.00 202.67 832.00 192.01 832.00 C 191.99 821.32 192.00 810.66 191.99 800.00 Z" />
<path fill="#1ba525" opacity="1.00" d=" M 255.99 800.00 C 266.66 799.98 277.32 799.98 287.99 800.00 C 288.01 810.66 288.01 821.33 287.99 832.00 C 277.33 831.99 266.66 831.99 256.00 832.00 C 256.00 821.33 256.01 810.66 255.99 800.00 Z" />
<path fill="#1ba525" opacity="1.00" d=" M 320.02 800.02 C 330.67 799.96 341.33 799.96 351.99 800.02 C 352.01 810.67 352.01 821.33 351.99 832.00 C 341.33 831.98 330.66 831.99 320.00 832.00 C 319.99 821.33 319.99 810.67 320.02 800.02 Z" />
<path fill="#1ba525" opacity="1.00" d=" M 640.02 800.02 C 650.67 799.96 661.33 799.96 671.99 800.02 C 672.01 810.67 672.00 821.33 671.99 832.00 C 661.32 831.99 650.66 831.98 640.00 832.01 C 639.98 821.34 639.99 810.67 640.02 800.02 Z" />
<path fill="#1ba525" opacity="1.00" d=" M 704.00 800.01 C 714.66 799.98 725.33 799.98 736.00 800.01 C 735.98 810.66 735.99 821.33 736.00 832.00 C 725.33 831.99 714.66 831.99 704.00 832.00 C 703.99 821.33 703.98 810.66 704.00 800.01 Z" />
<path fill="#1ba525" opacity="1.00" d=" M 768.00 800.00 C 778.66 799.99 789.32 800.00 800.00 800.00 C 800.00 810.65 800.00 821.32 800.00 831.99 C 789.32 832.00 778.66 832.00 768.00 832.00 C 768.00 821.32 767.99 810.66 768.00 800.00 Z" />
<path fill="#1ba525" opacity="1.00" d=" M 224.00 832.00 C 234.67 831.99 245.33 831.99 256.00 832.00 C 256.00 842.66 255.99 853.32 256.00 864.00 C 245.33 864.00 234.67 864.00 224.01 864.00 C 223.99 853.32 223.99 842.66 224.00 832.00 Z" />
<path fill="#1ba525" opacity="1.00" d=" M 287.99 832.00 C 298.66 831.99 309.33 831.99 320.00 832.00 C 319.99 842.66 319.99 853.32 320.00 864.00 C 309.33 863.99 298.66 863.99 288.00 864.00 C 288.00 853.32 288.00 842.66 287.99 832.00 Z" />
<path fill="#1ba525" opacity="1.00" d=" M 351.99 832.00 C 362.66 831.98 373.32 831.98 383.99 832.00 C 384.01 842.66 384.00 853.33 384.00 864.00 C 373.33 863.99 362.66 863.99 352.00 864.00 C 352.00 853.33 352.00 842.66 351.99 832.00 Z" />
<path fill="#1ba525" opacity="1.00" d=" M 416.02 832.02 C 426.67 831.96 437.33 831.96 447.99 832.02 C 448.01 842.67 448.00 853.33 448.00 864.00 C 437.33 863.99 426.66 863.99 416.00 864.00 C 415.99 853.33 415.98 842.67 416.02 832.02 Z" />
<path fill="#1ba525" opacity="1.00" d=" M 480.02 832.02 C 490.67 831.96 501.33 831.96 511.99 832.02 C 512.01 842.67 512.00 853.33 512.00 864.00 C 501.33 863.99 490.66 863.99 480.00 864.00 C 479.99 853.33 479.98 842.67 480.02 832.02 Z" />
<path fill="#1ba525" opacity="1.00" d=" M 544.02 832.02 C 554.67 831.96 565.33 831.96 575.99 832.02 C 576.01 842.67 576.00 853.33 576.00 864.00 C 565.32 863.99 554.66 863.99 544.00 864.00 C 543.99 853.33 543.98 842.67 544.02 832.02 Z" />
<path fill="#1ba525" opacity="1.00" d=" M 608.01 832.01 C 618.67 831.98 629.33 831.98 640.00 832.01 C 639.99 842.66 639.99 853.33 640.00 864.00 C 629.33 863.99 618.66 863.99 608.00 864.00 C 607.99 853.33 607.98 842.66 608.01 832.01 Z" />
<path fill="#1ba525" opacity="1.00" d=" M 671.99 832.00 C 682.66 831.99 693.33 832.00 704.00 832.00 C 703.99 842.66 703.98 853.32 704.00 864.00 C 693.33 863.99 682.66 863.99 672.00 864.00 C 672.00 853.32 672.00 842.66 671.99 832.00 Z" />
<path fill="#1ba525" opacity="1.00" d=" M 736.00 832.00 C 746.66 831.99 757.32 831.99 768.00 832.00 C 768.00 842.66 768.00 853.32 768.00 863.99 C 757.32 864.00 746.66 864.00 736.00 864.00 C 736.00 853.32 735.99 842.66 736.00 832.00 Z" />
<path fill="#1ba525" opacity="1.00" d=" M 256.00 864.00 C 266.66 863.99 277.33 863.99 288.00 864.00 C 288.00 874.66 288.00 885.32 288.00 896.00 C 277.33 896.00 266.67 896.00 256.01 896.00 C 255.99 885.32 255.99 874.66 256.00 864.00 Z" />
<path fill="#1ba525" opacity="1.00" d=" M 320.00 864.00 C 330.66 863.99 341.33 863.99 352.00 864.00 C 352.00 874.66 352.00 885.32 352.00 896.00 C 341.33 895.99 330.67 895.99 320.01 896.00 C 319.99 885.32 319.99 874.66 320.00 864.00 Z" />
<path fill="#1ba525" opacity="1.00" d=" M 384.00 864.00 C 394.66 863.99 405.33 863.99 416.00 864.00 C 415.99 874.66 416.01 885.32 416.00 896.00 C 405.33 895.99 394.67 895.99 384.00 896.00 C 383.99 885.32 384.00 874.66 384.00 864.00 Z" />
<path fill="#1ba525" opacity="1.00" d=" M 448.00 864.00 C 458.66 863.99 469.33 863.99 480.00 864.00 C 479.99 874.66 480.00 885.32 480.00 896.00 C 469.33 895.99 458.66 895.99 448.00 896.00 C 447.99 885.32 448.00 874.66 448.00 864.00 Z" />
<path fill="#1ba525" opacity="1.00" d=" M 512.00 864.00 C 522.66 863.99 533.33 863.99 544.00 864.00 C 543.98 874.66 544.00 885.32 544.00 896.00 C 533.33 895.99 522.66 895.99 512.00 896.00 C 511.99 885.32 512.00 874.66 512.00 864.00 Z" />
<path fill="#1ba525" opacity="1.00" d=" M 576.00 864.00 C 586.66 863.99 597.33 863.99 608.00 864.00 C 607.98 874.66 608.00 885.32 608.00 896.00 C 597.33 895.99 586.66 895.99 576.00 896.00 C 575.99 885.32 576.00 874.66 576.00 864.00 Z" />
<path fill="#1ba525" opacity="1.00" d=" M 640.00 864.00 C 650.66 863.99 661.33 863.99 672.00 864.00 C 672.00 874.66 672.00 885.32 672.00 896.00 C 661.33 895.99 650.66 895.99 640.01 896.00 C 639.99 885.32 639.99 874.66 640.00 864.00 Z" />
<path fill="#1ba525" opacity="1.00" d=" M 704.00 864.00 C 714.66 863.99 725.33 863.99 736.00 864.00 C 735.99 874.65 736.00 885.32 736.00 895.99 C 725.32 896.00 714.66 896.00 704.01 896.00 C 703.98 885.32 703.99 874.66 704.00 864.00 Z" />
</g>
<g id="#000000ff">
<path fill="#000000" opacity="1.00" d=" M 192.04 288.00 C 341.34 288.00 490.65 288.00 639.95 288.00 C 639.98 298.60 640.07 309.20 640.30 319.80 C 682.84 320.23 725.40 319.91 767.95 319.99 C 767.98 330.60 768.07 341.20 768.30 351.81 C 789.51 352.13 810.73 351.98 831.95 352.00 C 831.99 362.58 832.07 373.17 832.29 383.76 C 842.85 383.95 853.42 384.01 864.00 384.04 C 863.99 405.36 863.99 426.68 864.01 448.01 C 853.33 447.98 842.67 447.98 832.01 448.01 C 831.99 426.67 831.99 405.34 832.00 384.01 C 810.66 383.98 789.33 384.01 768.00 384.00 C 767.99 373.33 768.00 362.66 768.00 352.00 C 725.33 352.01 682.66 351.98 639.99 352.00 C 640.00 341.33 639.99 330.67 640.00 320.00 C 490.67 319.99 341.34 320.00 192.01 320.00 C 191.98 330.66 191.98 341.33 192.01 352.00 C 181.33 351.96 170.66 351.98 160.00 352.01 C 160.02 341.35 160.01 330.69 159.99 320.03 C 170.58 320.00 181.17 319.93 191.76 319.70 C 191.95 309.13 192.01 298.56 192.04 288.00 Z" />
<path fill="#000000" opacity="1.00" d=" M 320.03 448.00 C 384.01 448.00 447.98 448.00 511.95 448.00 C 511.98 458.60 512.07 469.20 512.29 479.80 C 565.51 480.26 618.73 479.87 671.95 480.00 C 671.98 490.60 672.07 501.20 672.30 511.81 C 693.51 512.13 714.73 511.98 735.95 512.00 C 735.98 522.60 736.07 533.20 736.30 543.81 C 757.53 544.14 778.76 543.96 800.00 544.01 C 799.99 565.34 799.99 586.67 800.01 608.01 C 789.33 607.98 778.66 607.98 767.99 608.01 C 768.01 597.35 768.00 586.69 767.99 576.04 C 757.42 576.00 746.85 575.94 736.29 575.76 C 736.07 565.17 735.99 554.58 735.95 544.00 C 714.73 543.98 693.51 544.13 672.30 543.81 C 672.07 533.20 671.98 522.60 671.95 512.00 C 629.30 512.00 586.65 512.00 544.00 512.00 C 533.32 511.97 522.65 511.99 511.99 512.00 C 512.01 501.33 512.01 490.66 511.99 480.00 C 448.00 480.00 384.01 480.00 320.01 480.00 C 319.99 490.66 319.99 501.33 320.00 512.00 C 309.34 512.01 298.67 511.97 288.01 512.00 C 266.67 512.02 245.34 511.98 224.01 512.00 C 223.99 501.33 223.97 490.66 224.01 480.00 C 255.93 479.93 287.84 480.24 319.76 479.72 C 319.95 469.14 320.00 458.57 320.03 448.00 Z" />
<path fill="#000000" opacity="1.00" d=" M 320.03 608.00 C 384.01 608.00 447.98 608.00 511.95 608.00 C 511.99 618.59 512.07 629.19 512.30 639.80 C 554.84 640.23 597.40 639.91 639.95 639.99 C 639.99 650.59 640.07 661.20 640.30 671.81 C 661.49 672.12 682.69 671.98 703.89 672.00 C 703.93 682.33 703.59 692.67 704.14 703.01 C 714.68 704.45 725.38 704.16 736.01 704.13 C 735.97 714.74 735.98 725.37 736.01 736.00 C 725.33 735.97 714.65 735.98 703.98 736.01 C 704.01 725.33 704.01 714.66 703.99 704.00 C 693.32 703.98 682.65 704.00 671.99 704.01 C 661.32 703.96 650.65 703.97 639.99 704.00 C 640.01 693.33 640.01 682.66 639.99 672.00 C 618.66 672.00 597.33 672.01 576.00 672.00 C 554.66 672.01 533.32 671.98 511.99 672.00 C 512.01 661.32 512.01 650.66 511.99 640.00 C 448.00 640.00 384.01 640.00 320.02 640.00 C 319.99 650.66 319.98 661.32 320.01 671.99 C 288.01 672.00 256.01 672.01 224.01 671.99 C 223.97 661.32 223.98 650.65 224.02 640.00 C 255.93 639.93 287.85 640.24 319.76 639.72 C 319.95 629.14 320.00 618.57 320.03 608.00 Z" />
<path fill="#000000" opacity="1.00" d=" M 0.00 672.01 C 10.67 671.97 21.33 671.98 32.00 672.02 C 32.00 693.26 31.85 714.51 32.29 735.76 C 42.86 735.94 53.43 736.00 64.00 736.04 C 64.00 757.27 63.86 778.52 64.29 799.76 C 74.84 799.94 85.39 800.00 95.95 800.04 C 96.00 810.61 96.08 821.18 96.29 831.76 C 106.84 831.94 117.39 832.00 127.95 832.04 C 128.00 842.61 128.08 853.18 128.29 863.76 C 138.84 863.94 149.39 864.00 159.95 864.04 C 160.00 874.61 160.08 885.18 160.29 895.76 C 170.84 895.94 181.39 896.00 191.95 896.04 C 192.00 906.61 192.08 917.18 192.29 927.76 C 202.84 927.94 213.39 928.00 223.95 928.04 C 223.99 938.62 224.07 949.21 224.30 959.81 C 245.51 960.12 266.73 959.98 287.95 960.00 C 287.99 970.58 288.08 981.17 288.29 991.77 C 437.44 992.12 586.60 992.22 735.76 991.72 C 735.94 981.14 736.00 970.56 736.04 960.00 C 757.27 960.00 778.52 960.14 799.76 959.71 C 799.94 949.15 800.00 938.60 800.04 928.05 C 810.61 927.99 821.18 927.91 831.76 927.71 C 831.94 917.15 832.00 906.60 832.04 896.05 C 842.61 895.99 853.18 895.91 863.76 895.71 C 863.94 885.15 864.00 874.60 864.04 864.05 C 874.61 863.99 885.18 863.91 895.76 863.71 C 895.94 853.15 896.00 842.60 896.04 832.05 C 906.61 831.99 917.18 831.91 927.76 831.71 C 927.94 821.15 928.00 810.60 928.04 800.05 C 938.62 800.00 949.21 799.92 959.81 799.70 C 960.12 778.48 959.98 757.26 960.00 736.05 C 970.59 736.00 981.20 735.92 991.81 735.70 C 992.12 714.47 991.98 693.24 992.00 672.01 C 1002.66 671.97 1013.32 671.97 1024.00 672.01 L 1024.00 736.01 C 1013.32 735.97 1002.66 735.97 992.00 736.01 C 991.99 757.34 992.00 778.67 992.00 800.00 C 981.32 800.00 970.65 799.99 960.00 800.00 C 959.99 810.66 959.99 821.33 960.00 832.00 C 949.32 831.99 938.65 831.99 928.00 832.00 C 927.99 842.66 927.99 853.33 928.00 864.00 C 917.32 863.99 906.66 863.99 896.00 864.00 C 895.99 874.66 895.99 885.33 896.00 896.00 C 885.32 895.99 874.66 895.99 864.00 896.00 C 863.99 906.66 863.99 917.33 864.00 928.00 C 853.32 927.99 842.66 927.99 832.00 928.00 C 831.99 938.66 832.00 949.33 832.00 960.00 C 821.32 959.99 810.66 959.99 800.00 960.00 C 799.99 970.65 800.00 981.31 800.00 991.98 C 778.67 992.02 757.34 991.98 736.01 992.00 C 735.97 1002.66 735.97 1013.32 736.01 1024.00 L 287.99 1024.00 C 288.02 1013.32 288.02 1002.66 287.99 992.00 C 266.66 991.99 245.33 992.00 224.00 992.00 C 223.99 981.32 224.00 970.65 224.00 960.00 C 213.33 959.99 202.66 959.99 192.00 960.00 C 192.00 949.32 192.00 938.65 192.00 928.00 C 181.33 927.99 170.66 927.99 160.00 928.00 C 160.00 917.32 160.00 906.66 160.00 896.00 C 149.33 895.99 138.66 895.99 128.00 896.00 C 128.00 885.32 128.00 874.66 128.00 864.00 C 117.33 863.99 106.66 863.99 96.00 864.00 C 96.00 853.32 96.00 842.66 96.00 832.00 C 85.33 831.99 74.66 832.00 64.00 832.00 C 64.00 821.32 64.00 810.66 64.00 800.00 C 53.34 799.99 42.68 800.00 32.02 800.00 C 31.98 778.67 32.01 757.34 32.00 736.01 C 21.33 735.97 10.67 735.97 0.00 736.01 L 0.00 672.01 Z" />
</g>
</svg>
