<svg width="64" height="54" viewBox="0 0 64 54" fill="none" xmlns="http://www.w3.org/2000/svg">
<path d="M4 12H6V14H4V12Z" fill="#FFFF00"/>
<path d="M6 6H8V8H6V6Z" fill="#FFFF00"/>
<path d="M8 4H10V6H8V4Z" fill="#FFFF00"/>
<path d="M6 4H8V6H6V4Z" fill="white"/>
<path d="M26 4H28V6H26V4Z" fill="#C0C0C0"/>
<path d="M28 6H30V8H28V6Z" fill="#C0C0C0"/>
<path d="M4 6H6V8H4V6Z" fill="white"/>
<path d="M2 6H4V8H2V6Z" fill="#808080"/>
<path d="M4 4H6V6H4V4Z" fill="#808080"/>
<path d="M6 2H8V4H6V2Z" fill="#808080"/>
<path d="M26 2H28V4H26V2Z" fill="#808080"/>
<path d="M28 4H30V6H28V4Z" fill="#808080"/>
<path d="M30 6H32V8H30V6Z" fill="#808080"/>
<path d="M8 0H26V2H8V0Z" fill="#808080"/>
<path d="M4 16H6V18H4V16Z" fill="#FFFF00"/>
<path d="M4 20H6V22H4V20Z" fill="#FFFF00"/>
<path d="M4 24H6V26H4V24Z" fill="#FFFF00"/>
<path d="M4 28H6V30H4V28Z" fill="#FFFF00"/>
<path d="M4 32H6V34H4V32Z" fill="#FFFF00"/>
<path d="M4 36H6V38H4V36Z" fill="#FFFF00"/>
<path d="M4 40H6V42H4V40Z" fill="#FFFF00"/>
<path d="M4 44H6V46H4V44Z" fill="#FFFF00"/>
<path d="M4 48H6V50H4V48Z" fill="#FFFF00"/>
<path d="M6 14H8V16H6V14Z" fill="#FFFF00"/>
<path d="M6 18H8V20H6V18Z" fill="#FFFF00"/>
<path d="M6 22H8V24H6V22Z" fill="#FFFF00"/>
<path d="M6 26H8V28H6V26Z" fill="#FFFF00"/>
<path d="M6 30H8V32H6V30Z" fill="#FFFF00"/>
<path d="M6 34H8V36H6V34Z" fill="#FFFF00"/>
<path d="M6 38H8V40H6V38Z" fill="#FFFF00"/>
<path d="M6 42H8V44H6V42Z" fill="#FFFF00"/>
<path d="M6 46H8V48H6V46Z" fill="#FFFF00"/>
<path d="M8 12H10V14H8V12Z" fill="#FFFF00"/>
<path d="M10 6H12V8H10V6Z" fill="#FFFF00"/>
<path d="M12 4H14V6H12V4Z" fill="#FFFF00"/>
<path d="M8 16H10V18H8V16Z" fill="#FFFF00"/>
<path d="M8 20H10V22H8V20Z" fill="#FFFF00"/>
<path d="M8 24H10V26H8V24Z" fill="#FFFF00"/>
<path d="M8 28H10V30H8V28Z" fill="#FFFF00"/>
<path d="M8 32H10V34H8V32Z" fill="#FFFF00"/>
<path d="M8 36H10V38H8V36Z" fill="#FFFF00"/>
<path d="M8 40H10V42H8V40Z" fill="#FFFF00"/>
<path d="M8 44H10V46H8V44Z" fill="#FFFF00"/>
<path d="M8 48H10V50H8V48Z" fill="#FFFF00"/>
<path d="M10 14H12V16H10V14Z" fill="#FFFF00"/>
<path d="M10 18H12V20H10V18Z" fill="#FFFF00"/>
<path d="M10 22H12V24H10V22Z" fill="#FFFF00"/>
<path d="M10 26H12V28H10V26Z" fill="#FFFF00"/>
<path d="M10 30H12V32H10V30Z" fill="#FFFF00"/>
<path d="M10 34H12V36H10V34Z" fill="#FFFF00"/>
<path d="M10 38H12V40H10V38Z" fill="#FFFF00"/>
<path d="M10 42H12V44H10V42Z" fill="#FFFF00"/>
<path d="M10 46H12V48H10V46Z" fill="#FFFF00"/>
<path d="M12 12H14V14H12V12Z" fill="#FFFF00"/>
<path d="M14 6H16V8H14V6Z" fill="#FFFF00"/>
<path d="M16 4H18V6H16V4Z" fill="#FFFF00"/>
<path d="M12 16H14V18H12V16Z" fill="#FFFF00"/>
<path d="M12 20H14V22H12V20Z" fill="#FFFF00"/>
<path d="M12 24H14V26H12V24Z" fill="#FFFF00"/>
<path d="M12 28H14V30H12V28Z" fill="#FFFF00"/>
<path d="M12 32H14V34H12V32Z" fill="#FFFF00"/>
<path d="M12 36H14V38H12V36Z" fill="#FFFF00"/>
<path d="M12 40H14V42H12V40Z" fill="#FFFF00"/>
<path d="M12 44H14V46H12V44Z" fill="#FFFF00"/>
<path d="M12 48H14V50H12V48Z" fill="#FFFF00"/>
<path d="M14 14H16V16H14V14Z" fill="#FFFF00"/>
<path d="M14 18H16V20H14V18Z" fill="#FFFF00"/>
<path d="M14 22H16V24H14V22Z" fill="#FFFF00"/>
<path d="M14 26H16V28H14V26Z" fill="#FFFF00"/>
<path d="M14 30H16V32H14V30Z" fill="#FFFF00"/>
<path d="M14 34H16V36H14V34Z" fill="#FFFF00"/>
<path d="M14 38H16V40H14V38Z" fill="#FFFF00"/>
<path d="M14 42H16V44H14V42Z" fill="#FFFF00"/>
<path d="M14 46H16V48H14V46Z" fill="#FFFF00"/>
<path d="M16 12H18V14H16V12Z" fill="#FFFF00"/>
<path d="M18 6H20V8H18V6Z" fill="#FFFF00"/>
<path d="M20 4H22V6H20V4Z" fill="#FFFF00"/>
<path d="M16 16H18V18H16V16Z" fill="#FFFF00"/>
<path d="M16 20H18V22H16V20Z" fill="#FFFF00"/>
<path d="M16 24H18V26H16V24Z" fill="#FFFF00"/>
<path d="M16 28H18V30H16V28Z" fill="#FFFF00"/>
<path d="M16 32H18V34H16V32Z" fill="#FFFF00"/>
<path d="M16 36H18V38H16V36Z" fill="#FFFF00"/>
<path d="M16 40H18V42H16V40Z" fill="#FFFF00"/>
<path d="M16 44H18V46H16V44Z" fill="#FFFF00"/>
<path d="M16 48H18V50H16V48Z" fill="#FFFF00"/>
<path d="M18 14H20V16H18V14Z" fill="#FFFF00"/>
<path d="M18 18H20V20H18V18Z" fill="#FFFF00"/>
<path d="M18 22H20V24H18V22Z" fill="#FFFF00"/>
<path d="M18 26H20V28H18V26Z" fill="#FFFF00"/>
<path d="M18 30H20V32H18V30Z" fill="#FFFF00"/>
<path d="M18 34H20V36H18V34Z" fill="#FFFF00"/>
<path d="M18 38H20V40H18V38Z" fill="#FFFF00"/>
<path d="M18 42H20V44H18V42Z" fill="#FFFF00"/>
<path d="M18 46H20V48H18V46Z" fill="#FFFF00"/>
<path d="M20 12H22V14H20V12Z" fill="#FFFF00"/>
<path d="M22 6H24V8H22V6Z" fill="#FFFF00"/>
<path d="M24 4H26V6H24V4Z" fill="#FFFF00"/>
<path d="M20 16H22V18H20V16Z" fill="#FFFF00"/>
<path d="M20 20H22V22H20V20Z" fill="#FFFF00"/>
<path d="M20 24H22V26H20V24Z" fill="#FFFF00"/>
<path d="M20 28H22V30H20V28Z" fill="#FFFF00"/>
<path d="M20 32H22V34H20V32Z" fill="#FFFF00"/>
<path d="M20 36H22V38H20V36Z" fill="#FFFF00"/>
<path d="M20 40H22V42H20V40Z" fill="#FFFF00"/>
<path d="M20 44H22V46H20V44Z" fill="#FFFF00"/>
<path d="M20 48H22V50H20V48Z" fill="#FFFF00"/>
<path d="M22 14H24V16H22V14Z" fill="#FFFF00"/>
<path d="M22 18H24V20H22V18Z" fill="#FFFF00"/>
<path d="M22 22H24V24H22V22Z" fill="#FFFF00"/>
<path d="M22 26H24V28H22V26Z" fill="#FFFF00"/>
<path d="M22 30H24V32H22V30Z" fill="#FFFF00"/>
<path d="M22 34H24V36H22V34Z" fill="#FFFF00"/>
<path d="M22 38H24V40H22V38Z" fill="#FFFF00"/>
<path d="M22 42H24V44H22V42Z" fill="#FFFF00"/>
<path d="M22 46H24V48H22V46Z" fill="#FFFF00"/>
<path d="M24 12H26V14H24V12Z" fill="#FFFF00"/>
<path d="M26 6H28V8H26V6Z" fill="#FFFF00"/>
<path d="M24 16H26V18H24V16Z" fill="#FFFF00"/>
<path d="M24 20H26V22H24V20Z" fill="#FFFF00"/>
<path d="M24 24H26V26H24V24Z" fill="#FFFF00"/>
<path d="M24 28H26V30H24V28Z" fill="#FFFF00"/>
<path d="M24 32H26V34H24V32Z" fill="#FFFF00"/>
<path d="M24 36H26V38H24V36Z" fill="#FFFF00"/>
<path d="M24 40H26V42H24V40Z" fill="#FFFF00"/>
<path d="M24 44H26V46H24V44Z" fill="#FFFF00"/>
<path d="M24 48H26V50H24V48Z" fill="#FFFF00"/>
<path d="M26 14H28V16H26V14Z" fill="#FFFF00"/>
<path d="M26 18H28V20H26V18Z" fill="#FFFF00"/>
<path d="M26 22H28V24H26V22Z" fill="#FFFF00"/>
<path d="M26 26H28V28H26V26Z" fill="#FFFF00"/>
<path d="M26 30H28V32H26V30Z" fill="#FFFF00"/>
<path d="M26 34H28V36H26V34Z" fill="#FFFF00"/>
<path d="M26 38H28V40H26V38Z" fill="#FFFF00"/>
<path d="M26 42H28V44H26V42Z" fill="#FFFF00"/>
<path d="M26 46H28V48H26V46Z" fill="#FFFF00"/>
<path d="M28 12H30V14H28V12Z" fill="#FFFF00"/>
<path d="M28 16H30V18H28V16Z" fill="#FFFF00"/>
<path d="M28 20H30V22H28V20Z" fill="#FFFF00"/>
<path d="M28 24H30V26H28V24Z" fill="#FFFF00"/>
<path d="M28 28H30V30H28V28Z" fill="#FFFF00"/>
<path d="M28 32H30V34H28V32Z" fill="#FFFF00"/>
<path d="M28 36H30V38H28V36Z" fill="#FFFF00"/>
<path d="M28 40H30V42H28V40Z" fill="#FFFF00"/>
<path d="M28 44H30V46H28V44Z" fill="#FFFF00"/>
<path d="M28 48H30V50H28V48Z" fill="#FFFF00"/>
<path d="M30 14H32V16H30V14Z" fill="#FFFF00"/>
<path d="M30 18H32V20H30V18Z" fill="#FFFF00"/>
<path d="M30 22H32V24H30V22Z" fill="#FFFF00"/>
<path d="M30 26H32V28H30V26Z" fill="#FFFF00"/>
<path d="M30 30H32V32H30V30Z" fill="#FFFF00"/>
<path d="M30 34H32V36H30V34Z" fill="#FFFF00"/>
<path d="M30 38H32V40H30V38Z" fill="#FFFF00"/>
<path d="M30 42H32V44H30V42Z" fill="#FFFF00"/>
<path d="M30 46H32V48H30V46Z" fill="#FFFF00"/>
<path d="M32 12H34V14H32V12Z" fill="#FFFF00"/>
<path d="M32 16H34V18H32V16Z" fill="#FFFF00"/>
<path d="M32 20H34V22H32V20Z" fill="#FFFF00"/>
<path d="M32 24H34V26H32V24Z" fill="#FFFF00"/>
<path d="M32 28H34V30H32V28Z" fill="#FFFF00"/>
<path d="M32 32H34V34H32V32Z" fill="#FFFF00"/>
<path d="M32 36H34V38H32V36Z" fill="#FFFF00"/>
<path d="M32 40H34V42H32V40Z" fill="#FFFF00"/>
<path d="M32 44H34V46H32V44Z" fill="#FFFF00"/>
<path d="M32 48H34V50H32V48Z" fill="#FFFF00"/>
<path d="M34 14H36V16H34V14Z" fill="#FFFF00"/>
<path d="M34 18H36V20H34V18Z" fill="#FFFF00"/>
<path d="M34 22H36V24H34V22Z" fill="#FFFF00"/>
<path d="M34 26H36V28H34V26Z" fill="#FFFF00"/>
<path d="M34 30H36V32H34V30Z" fill="#FFFF00"/>
<path d="M34 34H36V36H34V34Z" fill="#FFFF00"/>
<path d="M34 38H36V40H34V38Z" fill="#FFFF00"/>
<path d="M34 42H36V44H34V42Z" fill="#FFFF00"/>
<path d="M34 46H36V48H34V46Z" fill="#FFFF00"/>
<path d="M36 12H38V14H36V12Z" fill="#FFFF00"/>
<path d="M36 16H38V18H36V16Z" fill="#FFFF00"/>
<path d="M36 20H38V22H36V20Z" fill="#FFFF00"/>
<path d="M36 24H38V26H36V24Z" fill="#FFFF00"/>
<path d="M36 28H38V30H36V28Z" fill="#FFFF00"/>
<path d="M36 32H38V34H36V32Z" fill="#FFFF00"/>
<path d="M36 36H38V38H36V36Z" fill="#FFFF00"/>
<path d="M36 40H38V42H36V40Z" fill="#FFFF00"/>
<path d="M36 44H38V46H36V44Z" fill="#FFFF00"/>
<path d="M36 48H38V50H36V48Z" fill="#FFFF00"/>
<path d="M38 14H40V16H38V14Z" fill="#FFFF00"/>
<path d="M38 18H40V20H38V18Z" fill="#FFFF00"/>
<path d="M38 22H40V24H38V22Z" fill="#FFFF00"/>
<path d="M38 26H40V28H38V26Z" fill="#FFFF00"/>
<path d="M38 30H40V32H38V30Z" fill="#FFFF00"/>
<path d="M38 34H40V36H38V34Z" fill="#FFFF00"/>
<path d="M38 38H40V40H38V38Z" fill="#FFFF00"/>
<path d="M38 42H40V44H38V42Z" fill="#FFFF00"/>
<path d="M38 46H40V48H38V46Z" fill="#FFFF00"/>
<path d="M40 12H42V14H40V12Z" fill="#FFFF00"/>
<path d="M40 16H42V18H40V16Z" fill="#FFFF00"/>
<path d="M40 20H42V22H40V20Z" fill="#FFFF00"/>
<path d="M40 24H42V26H40V24Z" fill="#FFFF00"/>
<path d="M40 28H42V30H40V28Z" fill="#FFFF00"/>
<path d="M40 32H42V34H40V32Z" fill="#FFFF00"/>
<path d="M40 36H42V38H40V36Z" fill="#FFFF00"/>
<path d="M40 40H42V42H40V40Z" fill="#FFFF00"/>
<path d="M40 44H42V46H40V44Z" fill="#FFFF00"/>
<path d="M40 48H42V50H40V48Z" fill="#FFFF00"/>
<path d="M42 14H44V16H42V14Z" fill="#FFFF00"/>
<path d="M42 18H44V20H42V18Z" fill="#FFFF00"/>
<path d="M42 22H44V24H42V22Z" fill="#FFFF00"/>
<path d="M42 26H44V28H42V26Z" fill="#FFFF00"/>
<path d="M42 30H44V32H42V30Z" fill="#FFFF00"/>
<path d="M42 34H44V36H42V34Z" fill="#FFFF00"/>
<path d="M42 38H44V40H42V38Z" fill="#FFFF00"/>
<path d="M42 42H44V44H42V42Z" fill="#FFFF00"/>
<path d="M42 46H44V48H42V46Z" fill="#FFFF00"/>
<path d="M44 12H46V14H44V12Z" fill="#FFFF00"/>
<path d="M44 16H46V18H44V16Z" fill="#FFFF00"/>
<path d="M44 20H46V22H44V20Z" fill="#FFFF00"/>
<path d="M44 24H46V26H44V24Z" fill="#FFFF00"/>
<path d="M44 28H46V30H44V28Z" fill="#FFFF00"/>
<path d="M44 32H46V34H44V32Z" fill="#FFFF00"/>
<path d="M44 36H46V38H44V36Z" fill="#FFFF00"/>
<path d="M44 40H46V42H44V40Z" fill="#FFFF00"/>
<path d="M44 44H46V46H44V44Z" fill="#FFFF00"/>
<path d="M44 48H46V50H44V48Z" fill="#FFFF00"/>
<path d="M46 14H48V16H46V14Z" fill="#FFFF00"/>
<path d="M46 18H48V20H46V18Z" fill="#FFFF00"/>
<path d="M46 22H48V24H46V22Z" fill="#FFFF00"/>
<path d="M46 26H48V28H46V26Z" fill="#FFFF00"/>
<path d="M46 30H48V32H46V30Z" fill="#FFFF00"/>
<path d="M46 34H48V36H46V34Z" fill="#FFFF00"/>
<path d="M46 38H48V40H46V38Z" fill="#FFFF00"/>
<path d="M46 42H48V44H46V42Z" fill="#FFFF00"/>
<path d="M46 46H48V48H46V46Z" fill="#FFFF00"/>
<path d="M48 12H50V14H48V12Z" fill="#FFFF00"/>
<path d="M48 16H50V18H48V16Z" fill="#FFFF00"/>
<path d="M48 20H50V22H48V20Z" fill="#FFFF00"/>
<path d="M48 24H50V26H48V24Z" fill="#FFFF00"/>
<path d="M48 28H50V30H48V28Z" fill="#FFFF00"/>
<path d="M48 32H50V34H48V32Z" fill="#FFFF00"/>
<path d="M48 36H50V38H48V36Z" fill="#FFFF00"/>
<path d="M48 40H50V42H48V40Z" fill="#FFFF00"/>
<path d="M48 44H50V46H48V44Z" fill="#FFFF00"/>
<path d="M48 48H50V50H48V48Z" fill="#FFFF00"/>
<path d="M50 14H52V16H50V14Z" fill="#FFFF00"/>
<path d="M50 18H52V20H50V18Z" fill="#FFFF00"/>
<path d="M50 22H52V24H50V22Z" fill="#FFFF00"/>
<path d="M50 26H52V28H50V26Z" fill="#FFFF00"/>
<path d="M50 30H52V32H50V30Z" fill="#FFFF00"/>
<path d="M50 34H52V36H50V34Z" fill="#FFFF00"/>
<path d="M50 38H52V40H50V38Z" fill="#FFFF00"/>
<path d="M50 42H52V44H50V42Z" fill="#FFFF00"/>
<path d="M50 46H52V48H50V46Z" fill="#FFFF00"/>
<path d="M52 12H54V14H52V12Z" fill="#FFFF00"/>
<path d="M52 16H54V18H52V16Z" fill="#FFFF00"/>
<path d="M52 20H54V22H52V20Z" fill="#FFFF00"/>
<path d="M52 24H54V26H52V24Z" fill="#FFFF00"/>
<path d="M52 28H54V30H52V28Z" fill="#FFFF00"/>
<path d="M52 32H54V34H52V32Z" fill="#FFFF00"/>
<path d="M52 36H54V38H52V36Z" fill="#FFFF00"/>
<path d="M52 40H54V42H52V40Z" fill="#FFFF00"/>
<path d="M52 44H54V46H52V44Z" fill="#FFFF00"/>
<path d="M52 48H54V50H52V48Z" fill="#FFFF00"/>
<path d="M54 14H56V16H54V14Z" fill="#FFFF00"/>
<path d="M54 18H56V20H54V18Z" fill="#FFFF00"/>
<path d="M54 22H56V24H54V22Z" fill="#FFFF00"/>
<path d="M54 26H56V28H54V26Z" fill="#FFFF00"/>
<path d="M54 30H56V32H54V30Z" fill="#FFFF00"/>
<path d="M54 34H56V36H54V34Z" fill="#FFFF00"/>
<path d="M54 38H56V40H54V38Z" fill="#FFFF00"/>
<path d="M54 42H56V44H54V42Z" fill="#FFFF00"/>
<path d="M54 46H56V48H54V46Z" fill="#FFFF00"/>
<path d="M56 12H58V14H56V12Z" fill="#FFFF00"/>
<path d="M56 16H58V18H56V16Z" fill="#FFFF00"/>
<path d="M56 20H58V22H56V20Z" fill="#FFFF00"/>
<path d="M56 24H58V26H56V24Z" fill="#FFFF00"/>
<path d="M56 28H58V30H56V28Z" fill="#FFFF00"/>
<path d="M56 32H58V34H56V32Z" fill="#FFFF00"/>
<path d="M56 36H58V38H56V36Z" fill="#FFFF00"/>
<path d="M56 40H58V42H56V40Z" fill="#FFFF00"/>
<path d="M56 44H58V46H56V44Z" fill="#FFFF00"/>
<path d="M56 48H58V50H56V48Z" fill="#FFFF00"/>
<path d="M58 14H60V16H58V14Z" fill="#FFFF00"/>
<path d="M58 18H60V20H58V18Z" fill="#FFFF00"/>
<path d="M58 22H60V24H58V22Z" fill="#FFFF00"/>
<path d="M58 26H60V28H58V26Z" fill="#FFFF00"/>
<path d="M58 30H60V32H58V30Z" fill="#FFFF00"/>
<path d="M58 34H60V36H58V34Z" fill="#FFFF00"/>
<path d="M58 38H60V40H58V38Z" fill="#FFFF00"/>
<path d="M58 42H60V44H58V42Z" fill="#FFFF00"/>
<path d="M58 46H60V48H58V46Z" fill="#FFFF00"/>
<path d="M6 12H8V14H6V12Z" fill="#C0C0C0"/>
<path d="M8 6H10V8H8V6Z" fill="#C0C0C0"/>
<path d="M10 4H12V6H10V4Z" fill="#C0C0C0"/>
<path d="M6 16H8V18H6V16Z" fill="#C0C0C0"/>
<path d="M6 20H8V22H6V20Z" fill="#C0C0C0"/>
<path d="M6 24H8V26H6V24Z" fill="#C0C0C0"/>
<path d="M6 28H8V30H6V28Z" fill="#C0C0C0"/>
<path d="M6 32H8V34H6V32Z" fill="#C0C0C0"/>
<path d="M6 36H8V38H6V36Z" fill="#C0C0C0"/>
<path d="M6 40H8V42H6V40Z" fill="#C0C0C0"/>
<path d="M6 44H8V46H6V44Z" fill="#C0C0C0"/>
<path d="M6 48H8V50H6V48Z" fill="#C0C0C0"/>
<path d="M8 14H10V16H8V14Z" fill="#C0C0C0"/>
<path d="M8 18H10V20H8V18Z" fill="#C0C0C0"/>
<path d="M8 22H10V24H8V22Z" fill="#C0C0C0"/>
<path d="M8 26H10V28H8V26Z" fill="#C0C0C0"/>
<path d="M8 30H10V32H8V30Z" fill="#C0C0C0"/>
<path d="M8 34H10V36H8V34Z" fill="#C0C0C0"/>
<path d="M8 38H10V40H8V38Z" fill="#C0C0C0"/>
<path d="M8 42H10V44H8V42Z" fill="#C0C0C0"/>
<path d="M8 46H10V48H8V46Z" fill="#C0C0C0"/>
<path d="M10 12H12V14H10V12Z" fill="#C0C0C0"/>
<path d="M12 6H14V8H12V6Z" fill="#C0C0C0"/>
<path d="M14 4H16V6H14V4Z" fill="#C0C0C0"/>
<path d="M10 16H12V18H10V16Z" fill="#C0C0C0"/>
<path d="M10 20H12V22H10V20Z" fill="#C0C0C0"/>
<path d="M10 24H12V26H10V24Z" fill="#C0C0C0"/>
<path d="M10 28H12V30H10V28Z" fill="#C0C0C0"/>
<path d="M10 32H12V34H10V32Z" fill="#C0C0C0"/>
<path d="M10 36H12V38H10V36Z" fill="#C0C0C0"/>
<path d="M10 40H12V42H10V40Z" fill="#C0C0C0"/>
<path d="M10 44H12V46H10V44Z" fill="#C0C0C0"/>
<path d="M10 48H12V50H10V48Z" fill="#C0C0C0"/>
<path d="M12 14H14V16H12V14Z" fill="#C0C0C0"/>
<path d="M12 18H14V20H12V18Z" fill="#C0C0C0"/>
<path d="M12 22H14V24H12V22Z" fill="#C0C0C0"/>
<path d="M12 26H14V28H12V26Z" fill="#C0C0C0"/>
<path d="M12 30H14V32H12V30Z" fill="#C0C0C0"/>
<path d="M12 34H14V36H12V34Z" fill="#C0C0C0"/>
<path d="M12 38H14V40H12V38Z" fill="#C0C0C0"/>
<path d="M12 42H14V44H12V42Z" fill="#C0C0C0"/>
<path d="M12 46H14V48H12V46Z" fill="#C0C0C0"/>
<path d="M14 12H16V14H14V12Z" fill="#C0C0C0"/>
<path d="M16 6H18V8H16V6Z" fill="#C0C0C0"/>
<path d="M18 4H20V6H18V4Z" fill="#C0C0C0"/>
<path d="M14 16H16V18H14V16Z" fill="#C0C0C0"/>
<path d="M14 20H16V22H14V20Z" fill="#C0C0C0"/>
<path d="M14 24H16V26H14V24Z" fill="#C0C0C0"/>
<path d="M14 28H16V30H14V28Z" fill="#C0C0C0"/>
<path d="M14 32H16V34H14V32Z" fill="#C0C0C0"/>
<path d="M14 36H16V38H14V36Z" fill="#C0C0C0"/>
<path d="M14 40H16V42H14V40Z" fill="#C0C0C0"/>
<path d="M14 44H16V46H14V44Z" fill="#C0C0C0"/>
<path d="M14 48H16V50H14V48Z" fill="#C0C0C0"/>
<path d="M16 14H18V16H16V14Z" fill="#C0C0C0"/>
<path d="M16 18H18V20H16V18Z" fill="#C0C0C0"/>
<path d="M16 22H18V24H16V22Z" fill="#C0C0C0"/>
<path d="M16 26H18V28H16V26Z" fill="#C0C0C0"/>
<path d="M16 30H18V32H16V30Z" fill="#C0C0C0"/>
<path d="M16 34H18V36H16V34Z" fill="#C0C0C0"/>
<path d="M16 38H18V40H16V38Z" fill="#C0C0C0"/>
<path d="M16 42H18V44H16V42Z" fill="#C0C0C0"/>
<path d="M16 46H18V48H16V46Z" fill="#C0C0C0"/>
<path d="M18 12H20V14H18V12Z" fill="#C0C0C0"/>
<path d="M20 6H22V8H20V6Z" fill="#C0C0C0"/>
<path d="M22 4H24V6H22V4Z" fill="#C0C0C0"/>
<path d="M18 16H20V18H18V16Z" fill="#C0C0C0"/>
<path d="M18 20H20V22H18V20Z" fill="#C0C0C0"/>
<path d="M18 24H20V26H18V24Z" fill="#C0C0C0"/>
<path d="M18 28H20V30H18V28Z" fill="#C0C0C0"/>
<path d="M18 32H20V34H18V32Z" fill="#C0C0C0"/>
<path d="M18 36H20V38H18V36Z" fill="#C0C0C0"/>
<path d="M18 40H20V42H18V40Z" fill="#C0C0C0"/>
<path d="M18 44H20V46H18V44Z" fill="#C0C0C0"/>
<path d="M18 48H20V50H18V48Z" fill="#C0C0C0"/>
<path d="M20 14H22V16H20V14Z" fill="#C0C0C0"/>
<path d="M20 18H22V20H20V18Z" fill="#C0C0C0"/>
<path d="M20 22H22V24H20V22Z" fill="#C0C0C0"/>
<path d="M20 26H22V28H20V26Z" fill="#C0C0C0"/>
<path d="M20 30H22V32H20V30Z" fill="#C0C0C0"/>
<path d="M20 34H22V36H20V34Z" fill="#C0C0C0"/>
<path d="M20 38H22V40H20V38Z" fill="#C0C0C0"/>
<path d="M20 42H22V44H20V42Z" fill="#C0C0C0"/>
<path d="M20 46H22V48H20V46Z" fill="#C0C0C0"/>
<path d="M22 12H24V14H22V12Z" fill="#C0C0C0"/>
<path d="M24 6H26V8H24V6Z" fill="#C0C0C0"/>
<path d="M22 16H24V18H22V16Z" fill="#C0C0C0"/>
<path d="M22 20H24V22H22V20Z" fill="#C0C0C0"/>
<path d="M22 24H24V26H22V24Z" fill="#C0C0C0"/>
<path d="M22 28H24V30H22V28Z" fill="#C0C0C0"/>
<path d="M22 32H24V34H22V32Z" fill="#C0C0C0"/>
<path d="M22 36H24V38H22V36Z" fill="#C0C0C0"/>
<path d="M22 40H24V42H22V40Z" fill="#C0C0C0"/>
<path d="M22 44H24V46H22V44Z" fill="#C0C0C0"/>
<path d="M22 48H24V50H22V48Z" fill="#C0C0C0"/>
<path d="M24 14H26V16H24V14Z" fill="#C0C0C0"/>
<path d="M24 18H26V20H24V18Z" fill="#C0C0C0"/>
<path d="M24 22H26V24H24V22Z" fill="#C0C0C0"/>
<path d="M24 26H26V28H24V26Z" fill="#C0C0C0"/>
<path d="M24 30H26V32H24V30Z" fill="#C0C0C0"/>
<path d="M24 34H26V36H24V34Z" fill="#C0C0C0"/>
<path d="M24 38H26V40H24V38Z" fill="#C0C0C0"/>
<path d="M24 42H26V44H24V42Z" fill="#C0C0C0"/>
<path d="M24 46H26V48H24V46Z" fill="#C0C0C0"/>
<path d="M26 12H28V14H26V12Z" fill="#C0C0C0"/>
<path d="M26 16H28V18H26V16Z" fill="#C0C0C0"/>
<path d="M26 20H28V22H26V20Z" fill="#C0C0C0"/>
<path d="M26 24H28V26H26V24Z" fill="#C0C0C0"/>
<path d="M26 28H28V30H26V28Z" fill="#C0C0C0"/>
<path d="M26 32H28V34H26V32Z" fill="#C0C0C0"/>
<path d="M26 36H28V38H26V36Z" fill="#C0C0C0"/>
<path d="M26 40H28V42H26V40Z" fill="#C0C0C0"/>
<path d="M26 44H28V46H26V44Z" fill="#C0C0C0"/>
<path d="M26 48H28V50H26V48Z" fill="#C0C0C0"/>
<path d="M28 14H30V16H28V14Z" fill="#C0C0C0"/>
<path d="M28 18H30V20H28V18Z" fill="#C0C0C0"/>
<path d="M28 22H30V24H28V22Z" fill="#C0C0C0"/>
<path d="M28 26H30V28H28V26Z" fill="#C0C0C0"/>
<path d="M28 30H30V32H28V30Z" fill="#C0C0C0"/>
<path d="M28 34H30V36H28V34Z" fill="#C0C0C0"/>
<path d="M28 38H30V40H28V38Z" fill="#C0C0C0"/>
<path d="M28 42H30V44H28V42Z" fill="#C0C0C0"/>
<path d="M28 46H30V48H28V46Z" fill="#C0C0C0"/>
<path d="M30 12H32V14H30V12Z" fill="#C0C0C0"/>
<path d="M30 16H32V18H30V16Z" fill="#C0C0C0"/>
<path d="M30 20H32V22H30V20Z" fill="#C0C0C0"/>
<path d="M30 24H32V26H30V24Z" fill="#C0C0C0"/>
<path d="M30 28H32V30H30V28Z" fill="#C0C0C0"/>
<path d="M30 32H32V34H30V32Z" fill="#C0C0C0"/>
<path d="M30 36H32V38H30V36Z" fill="#C0C0C0"/>
<path d="M30 40H32V42H30V40Z" fill="#C0C0C0"/>
<path d="M30 44H32V46H30V44Z" fill="#C0C0C0"/>
<path d="M30 48H32V50H30V48Z" fill="#C0C0C0"/>
<path d="M32 14H34V16H32V14Z" fill="#C0C0C0"/>
<path d="M32 18H34V20H32V18Z" fill="#C0C0C0"/>
<path d="M32 22H34V24H32V22Z" fill="#C0C0C0"/>
<path d="M32 26H34V28H32V26Z" fill="#C0C0C0"/>
<path d="M32 30H34V32H32V30Z" fill="#C0C0C0"/>
<path d="M32 34H34V36H32V34Z" fill="#C0C0C0"/>
<path d="M32 38H34V40H32V38Z" fill="#C0C0C0"/>
<path d="M32 42H34V44H32V42Z" fill="#C0C0C0"/>
<path d="M32 46H34V48H32V46Z" fill="#C0C0C0"/>
<path d="M34 12H36V14H34V12Z" fill="#C0C0C0"/>
<path d="M34 16H36V18H34V16Z" fill="#C0C0C0"/>
<path d="M34 20H36V22H34V20Z" fill="#C0C0C0"/>
<path d="M34 24H36V26H34V24Z" fill="#C0C0C0"/>
<path d="M34 28H36V30H34V28Z" fill="#C0C0C0"/>
<path d="M34 32H36V34H34V32Z" fill="#C0C0C0"/>
<path d="M34 36H36V38H34V36Z" fill="#C0C0C0"/>
<path d="M34 40H36V42H34V40Z" fill="#C0C0C0"/>
<path d="M34 44H36V46H34V44Z" fill="#C0C0C0"/>
<path d="M34 48H36V50H34V48Z" fill="#C0C0C0"/>
<path d="M36 14H38V16H36V14Z" fill="#C0C0C0"/>
<path d="M36 18H38V20H36V18Z" fill="#C0C0C0"/>
<path d="M36 22H38V24H36V22Z" fill="#C0C0C0"/>
<path d="M36 26H38V28H36V26Z" fill="#C0C0C0"/>
<path d="M36 30H38V32H36V30Z" fill="#C0C0C0"/>
<path d="M36 34H38V36H36V34Z" fill="#C0C0C0"/>
<path d="M36 38H38V40H36V38Z" fill="#C0C0C0"/>
<path d="M36 42H38V44H36V42Z" fill="#C0C0C0"/>
<path d="M36 46H38V48H36V46Z" fill="#C0C0C0"/>
<path d="M38 12H40V14H38V12Z" fill="#C0C0C0"/>
<path d="M38 16H40V18H38V16Z" fill="#C0C0C0"/>
<path d="M38 20H40V22H38V20Z" fill="#C0C0C0"/>
<path d="M38 24H40V26H38V24Z" fill="#C0C0C0"/>
<path d="M38 28H40V30H38V28Z" fill="#C0C0C0"/>
<path d="M38 32H40V34H38V32Z" fill="#C0C0C0"/>
<path d="M38 36H40V38H38V36Z" fill="#C0C0C0"/>
<path d="M38 40H40V42H38V40Z" fill="#C0C0C0"/>
<path d="M38 44H40V46H38V44Z" fill="#C0C0C0"/>
<path d="M38 48H40V50H38V48Z" fill="#C0C0C0"/>
<path d="M40 14H42V16H40V14Z" fill="#C0C0C0"/>
<path d="M40 18H42V20H40V18Z" fill="#C0C0C0"/>
<path d="M40 22H42V24H40V22Z" fill="#C0C0C0"/>
<path d="M40 26H42V28H40V26Z" fill="#C0C0C0"/>
<path d="M40 30H42V32H40V30Z" fill="#C0C0C0"/>
<path d="M40 34H42V36H40V34Z" fill="#C0C0C0"/>
<path d="M40 38H42V40H40V38Z" fill="#C0C0C0"/>
<path d="M40 42H42V44H40V42Z" fill="#C0C0C0"/>
<path d="M40 46H42V48H40V46Z" fill="#C0C0C0"/>
<path d="M42 12H44V14H42V12Z" fill="#C0C0C0"/>
<path d="M42 16H44V18H42V16Z" fill="#C0C0C0"/>
<path d="M42 20H44V22H42V20Z" fill="#C0C0C0"/>
<path d="M42 24H44V26H42V24Z" fill="#C0C0C0"/>
<path d="M42 28H44V30H42V28Z" fill="#C0C0C0"/>
<path d="M42 32H44V34H42V32Z" fill="#C0C0C0"/>
<path d="M42 36H44V38H42V36Z" fill="#C0C0C0"/>
<path d="M42 40H44V42H42V40Z" fill="#C0C0C0"/>
<path d="M42 44H44V46H42V44Z" fill="#C0C0C0"/>
<path d="M42 48H44V50H42V48Z" fill="#C0C0C0"/>
<path d="M44 14H46V16H44V14Z" fill="#C0C0C0"/>
<path d="M44 18H46V20H44V18Z" fill="#C0C0C0"/>
<path d="M44 22H46V24H44V22Z" fill="#C0C0C0"/>
<path d="M44 26H46V28H44V26Z" fill="#C0C0C0"/>
<path d="M44 30H46V32H44V30Z" fill="#C0C0C0"/>
<path d="M44 34H46V36H44V34Z" fill="#C0C0C0"/>
<path d="M44 38H46V40H44V38Z" fill="#C0C0C0"/>
<path d="M44 42H46V44H44V42Z" fill="#C0C0C0"/>
<path d="M44 46H46V48H44V46Z" fill="#C0C0C0"/>
<path d="M46 12H48V14H46V12Z" fill="#C0C0C0"/>
<path d="M46 16H48V18H46V16Z" fill="#C0C0C0"/>
<path d="M46 20H48V22H46V20Z" fill="#C0C0C0"/>
<path d="M46 24H48V26H46V24Z" fill="#C0C0C0"/>
<path d="M46 28H48V30H46V28Z" fill="#C0C0C0"/>
<path d="M46 32H48V34H46V32Z" fill="#C0C0C0"/>
<path d="M46 36H48V38H46V36Z" fill="#C0C0C0"/>
<path d="M46 40H48V42H46V40Z" fill="#C0C0C0"/>
<path d="M46 44H48V46H46V44Z" fill="#C0C0C0"/>
<path d="M46 48H48V50H46V48Z" fill="#C0C0C0"/>
<path d="M48 14H50V16H48V14Z" fill="#C0C0C0"/>
<path d="M48 18H50V20H48V18Z" fill="#C0C0C0"/>
<path d="M48 22H50V24H48V22Z" fill="#C0C0C0"/>
<path d="M48 26H50V28H48V26Z" fill="#C0C0C0"/>
<path d="M48 30H50V32H48V30Z" fill="#C0C0C0"/>
<path d="M48 34H50V36H48V34Z" fill="#C0C0C0"/>
<path d="M48 38H50V40H48V38Z" fill="#C0C0C0"/>
<path d="M48 42H50V44H48V42Z" fill="#C0C0C0"/>
<path d="M48 46H50V48H48V46Z" fill="#C0C0C0"/>
<path d="M50 12H52V14H50V12Z" fill="#C0C0C0"/>
<path d="M50 16H52V18H50V16Z" fill="#C0C0C0"/>
<path d="M50 20H52V22H50V20Z" fill="#C0C0C0"/>
<path d="M50 24H52V26H50V24Z" fill="#C0C0C0"/>
<path d="M50 28H52V30H50V28Z" fill="#C0C0C0"/>
<path d="M50 32H52V34H50V32Z" fill="#C0C0C0"/>
<path d="M50 36H52V38H50V36Z" fill="#C0C0C0"/>
<path d="M50 40H52V42H50V40Z" fill="#C0C0C0"/>
<path d="M50 44H52V46H50V44Z" fill="#C0C0C0"/>
<path d="M50 48H52V50H50V48Z" fill="#C0C0C0"/>
<path d="M52 14H54V16H52V14Z" fill="#C0C0C0"/>
<path d="M52 18H54V20H52V18Z" fill="#C0C0C0"/>
<path d="M52 22H54V24H52V22Z" fill="#C0C0C0"/>
<path d="M52 26H54V28H52V26Z" fill="#C0C0C0"/>
<path d="M52 30H54V32H52V30Z" fill="#C0C0C0"/>
<path d="M52 34H54V36H52V34Z" fill="#C0C0C0"/>
<path d="M52 38H54V40H52V38Z" fill="#C0C0C0"/>
<path d="M52 42H54V44H52V42Z" fill="#C0C0C0"/>
<path d="M52 46H54V48H52V46Z" fill="#C0C0C0"/>
<path d="M54 12H56V14H54V12Z" fill="#C0C0C0"/>
<path d="M54 16H56V18H54V16Z" fill="#C0C0C0"/>
<path d="M54 20H56V22H54V20Z" fill="#C0C0C0"/>
<path d="M54 24H56V26H54V24Z" fill="#C0C0C0"/>
<path d="M54 28H56V30H54V28Z" fill="#C0C0C0"/>
<path d="M54 32H56V34H54V32Z" fill="#C0C0C0"/>
<path d="M54 36H56V38H54V36Z" fill="#C0C0C0"/>
<path d="M54 40H56V42H54V40Z" fill="#C0C0C0"/>
<path d="M54 44H56V46H54V44Z" fill="#C0C0C0"/>
<path d="M54 48H56V50H54V48Z" fill="#C0C0C0"/>
<path d="M56 14H58V16H56V14Z" fill="#C0C0C0"/>
<path d="M56 18H58V20H56V18Z" fill="#C0C0C0"/>
<path d="M56 22H58V24H56V22Z" fill="#C0C0C0"/>
<path d="M56 26H58V28H56V26Z" fill="#C0C0C0"/>
<path d="M56 30H58V32H56V30Z" fill="#C0C0C0"/>
<path d="M56 34H58V36H56V34Z" fill="#C0C0C0"/>
<path d="M56 38H58V40H56V38Z" fill="#C0C0C0"/>
<path d="M56 42H58V44H56V42Z" fill="#C0C0C0"/>
<path d="M56 46H58V48H56V46Z" fill="#C0C0C0"/>
<path d="M58 12H60V14H58V12Z" fill="#C0C0C0"/>
<path d="M58 16H60V18H58V16Z" fill="#C0C0C0"/>
<path d="M58 20H60V22H58V20Z" fill="#C0C0C0"/>
<path d="M58 24H60V26H58V24Z" fill="#C0C0C0"/>
<path d="M58 28H60V30H58V28Z" fill="#C0C0C0"/>
<path d="M58 32H60V34H58V32Z" fill="#C0C0C0"/>
<path d="M58 36H60V38H58V36Z" fill="#C0C0C0"/>
<path d="M58 40H60V42H58V40Z" fill="#C0C0C0"/>
<path d="M58 44H60V46H58V44Z" fill="#C0C0C0"/>
<path d="M58 48H60V50H58V48Z" fill="#C0C0C0"/>
<path d="M4 14H6V16H4V14Z" fill="#C0C0C0"/>
<path d="M4 18H6V20H4V18Z" fill="#C0C0C0"/>
<path d="M4 22H6V24H4V22Z" fill="#C0C0C0"/>
<path d="M4 26H6V28H4V26Z" fill="#C0C0C0"/>
<path d="M4 30H6V32H4V30Z" fill="#C0C0C0"/>
<path d="M4 34H6V36H4V34Z" fill="#C0C0C0"/>
<path d="M4 38H6V40H4V38Z" fill="#C0C0C0"/>
<path d="M4 42H6V44H4V42Z" fill="#C0C0C0"/>
<path d="M4 46H6V48H4V46Z" fill="#C0C0C0"/>
<path d="M60 12H62V52H60V12Z" fill="#808000"/>
<path d="M62 10H64V52H62V10Z" fill="black"/>
<path d="M60 8H62V12H60V8Z" fill="black"/>
<path d="M2 10H4V50H2V10Z" fill="white"/>
<path d="M0 8H2V52H0V8Z" fill="#808080"/>
<path d="M2 50H60V52H2V50Z" fill="#808000"/>
<path d="M2 52H62V54H2V52Z" fill="black"/>
<path d="M4 10H60V12H4V10Z" fill="white"/>
<path d="M8 2H26V4H8V2Z" fill="white"/>
<path d="M32 8H60V10H32V8Z" fill="#808080"/>
<path d="M2 8H32V10H2V8Z" fill="#C0C0C0"/>
</svg>
