<?xml version="1.0" encoding="UTF-8" ?>
<!DOCTYPE svg PUBLIC "-//W3C//DTD SVG 1.1//EN" "http://www.w3.org/Graphics/SVG/1.1/DTD/svg11.dtd">
<svg width="1024pt" height="1024pt" viewBox="0 0 1024 1024" version="1.1" xmlns="http://www.w3.org/2000/svg">
<g id="#8daad9ff">
<path fill="#8daad9" opacity="1.00" d=" M 96.00 32.00 C 362.67 32.00 629.33 32.00 896.00 32.00 C 895.99 42.67 895.99 53.34 896.00 64.01 C 906.46 64.01 916.93 64.00 927.42 63.96 C 927.81 74.63 927.96 85.31 928.03 96.00 C 917.34 95.99 906.66 96.00 895.99 96.00 C 895.98 85.53 895.99 75.07 896.04 64.60 C 885.35 64.19 874.67 64.02 863.99 63.88 C 863.99 74.58 863.99 85.29 864.01 95.99 C 853.33 95.99 842.66 95.99 831.99 96.00 C 831.99 85.34 832.00 74.67 832.01 64.01 C 821.33 64.01 810.66 64.00 799.99 64.00 C 799.99 74.66 800.00 85.33 800.01 95.99 C 789.33 95.99 778.66 95.99 767.99 96.00 C 767.99 85.34 768.00 74.67 768.01 64.01 C 757.33 64.01 746.66 64.00 735.99 64.00 C 735.99 74.66 736.00 85.33 736.01 95.99 C 725.33 95.99 714.66 95.99 703.99 96.00 C 703.99 85.34 704.00 74.67 704.01 64.01 C 693.33 64.01 682.66 64.00 671.99 64.00 C 671.99 74.66 672.00 85.33 672.01 95.99 C 661.33 95.99 650.66 95.99 639.99 96.00 C 639.99 85.34 640.00 74.67 640.01 64.01 C 629.33 64.01 618.66 64.00 607.99 64.00 C 607.99 74.66 608.00 85.33 608.01 95.99 C 597.33 95.99 586.66 95.99 575.99 96.00 C 575.99 85.34 576.00 74.67 576.01 64.01 C 565.33 64.01 554.66 64.00 543.99 64.00 C 543.99 74.66 544.00 85.33 544.01 95.99 C 533.33 95.99 522.66 95.99 511.99 96.00 C 511.99 85.34 512.00 74.67 512.01 64.01 C 501.33 64.01 490.66 64.00 479.99 64.00 C 479.99 74.66 480.00 85.33 480.01 95.99 C 469.33 95.99 458.66 95.99 447.99 96.00 C 447.99 85.34 448.00 74.67 448.01 64.01 C 437.33 64.01 426.66 64.00 415.99 64.00 C 415.99 74.66 416.00 85.33 416.01 95.99 C 405.33 95.99 394.66 95.99 383.99 96.00 C 383.99 85.34 384.00 74.67 384.01 64.01 C 373.33 64.01 362.66 64.00 351.99 64.00 C 351.99 74.66 352.00 85.33 352.01 95.99 C 341.33 95.99 330.66 95.99 319.99 96.00 C 319.99 85.34 320.00 74.67 320.01 64.01 C 309.33 64.01 298.66 64.00 287.99 64.00 C 287.99 74.66 288.00 85.33 288.01 95.99 C 277.33 95.99 266.66 95.99 255.99 96.00 C 255.99 85.34 256.00 74.67 256.01 64.01 C 245.33 64.01 234.66 64.00 223.99 64.00 C 223.99 74.66 224.00 85.33 224.01 95.99 C 213.33 95.99 202.66 95.99 191.99 96.00 C 191.99 85.34 192.00 74.67 192.01 64.01 C 181.33 64.01 170.66 64.00 159.99 64.00 C 159.99 74.66 160.00 85.33 160.01 96.00 C 149.33 95.99 138.66 95.99 128.00 96.00 C 128.00 85.34 128.00 74.67 128.00 64.01 C 117.53 64.01 107.06 64.01 96.59 63.97 C 96.19 74.61 96.06 85.25 95.95 95.90 C 85.36 96.03 74.69 95.45 64.18 96.98 C 63.63 107.31 63.86 117.66 63.90 128.00 C 53.27 128.00 42.63 128.00 32.00 128.00 C 32.02 117.33 32.01 106.66 31.99 96.00 C 42.66 96.00 53.33 96.00 64.00 96.00 C 64.00 85.33 64.00 74.67 64.00 64.00 C 74.66 63.99 85.33 64.00 96.00 64.00 C 96.00 53.33 96.00 42.67 96.00 32.00 Z" />
<path fill="#8daad9" opacity="1.00" d=" M 95.95 95.90 C 106.63 95.98 117.31 96.01 128.00 96.00 C 127.99 106.67 128.00 117.33 128.00 128.00 C 117.34 128.00 106.68 128.00 96.02 128.00 C 95.98 117.30 95.97 106.60 95.95 95.90 Z" />
</g>
<g id="#2d466dff">
<path fill="#2d466d" opacity="1.00" d=" M 896.00 32.00 C 906.66 32.02 917.33 32.01 928.00 31.99 C 927.99 42.66 927.99 53.33 928.00 64.00 C 938.66 64.00 949.32 64.00 960.00 64.00 C 959.98 74.66 959.98 85.33 960.00 96.00 C 960.02 356.33 959.97 616.67 960.02 877.00 C 959.84 893.92 961.04 910.96 959.01 927.81 C 948.67 928.36 938.32 928.13 927.99 928.10 C 927.98 938.53 927.99 948.97 928.04 959.42 C 917.69 959.83 907.34 959.95 897.00 960.01 C 635.32 960.04 373.65 959.89 111.97 960.09 C 106.70 959.88 101.39 959.91 96.19 959.01 C 95.63 948.67 95.86 938.32 95.90 927.99 C 85.47 927.98 75.03 927.99 64.60 928.04 C 64.17 917.36 64.03 906.67 63.89 896.00 C 53.26 895.99 42.63 895.99 32.00 896.00 C 32.02 885.33 32.01 874.66 31.99 864.00 C 42.64 863.99 53.28 863.99 63.93 864.00 C 63.90 874.15 63.54 884.34 64.43 894.49 C 64.69 894.76 65.23 895.31 65.50 895.58 C 75.63 896.44 85.80 896.09 95.95 896.07 C 95.87 906.38 95.63 916.71 96.17 927.03 C 106.71 928.44 117.40 928.05 128.00 928.20 C 128.00 917.45 128.00 906.72 128.00 895.99 C 138.66 895.99 149.33 895.99 160.00 896.00 C 160.00 906.66 160.00 917.32 160.00 928.00 C 170.66 927.99 181.33 927.99 192.00 928.00 C 192.00 917.32 191.99 906.66 192.00 896.00 C 202.66 895.99 213.33 895.99 224.00 896.00 C 224.00 906.66 223.99 917.32 224.00 928.00 C 234.66 927.99 245.33 927.99 256.00 928.00 C 256.00 917.32 255.99 906.66 256.00 896.00 C 266.66 895.99 277.33 895.99 288.00 896.00 C 288.00 906.66 287.99 917.32 288.00 928.00 C 298.66 927.99 309.33 927.99 320.00 928.00 C 320.00 917.32 319.99 906.66 320.00 896.00 C 330.66 895.99 341.33 895.99 352.00 896.00 C 352.00 906.66 351.99 917.32 352.00 928.00 C 362.66 927.99 373.33 927.99 384.00 928.00 C 383.99 917.32 383.99 906.66 384.00 896.00 C 394.66 895.99 405.33 895.99 416.00 896.00 C 416.00 906.66 415.99 917.32 416.00 928.00 C 426.66 927.99 437.33 927.99 448.00 928.00 C 447.99 917.32 447.99 906.66 448.00 896.00 C 458.66 895.99 469.33 895.99 480.00 896.00 C 480.00 906.66 479.99 917.32 480.00 928.00 C 490.66 927.99 501.33 927.99 512.00 928.00 C 511.99 917.32 511.99 906.66 512.00 896.00 C 522.66 895.99 533.33 895.99 544.00 896.00 C 544.00 906.66 543.99 917.32 544.00 928.00 C 554.66 927.99 565.33 927.99 576.00 928.00 C 575.99 917.32 575.99 906.66 576.00 896.00 C 586.66 895.99 597.33 895.99 608.00 896.00 C 607.99 906.66 607.99 917.32 608.00 928.00 C 618.66 927.99 629.33 927.99 640.00 928.00 C 639.99 917.32 639.99 906.66 640.00 896.00 C 650.66 895.99 661.33 895.99 672.00 896.00 C 671.99 906.66 671.99 917.32 672.00 928.00 C 682.66 927.99 693.32 927.99 704.00 928.00 C 703.99 917.32 703.99 906.66 704.00 896.00 C 714.66 895.99 725.33 895.99 736.00 896.00 C 735.99 906.66 735.99 917.32 736.00 928.00 C 746.66 927.99 757.32 927.99 768.00 928.00 C 767.99 917.32 767.99 906.66 768.00 896.00 C 778.66 895.99 789.33 895.99 800.01 896.00 C 799.99 906.66 799.99 917.32 800.00 928.00 C 810.66 927.99 821.32 927.99 832.00 928.00 C 831.99 917.32 831.99 906.66 832.00 896.00 C 842.66 895.99 853.33 895.99 864.00 896.00 C 863.99 906.66 863.99 917.32 864.00 928.00 C 874.66 927.99 885.32 927.99 896.00 928.00 C 895.99 917.32 895.99 906.66 896.00 896.00 C 906.65 895.99 917.32 895.99 928.00 896.00 C 927.99 885.33 927.99 874.66 928.00 864.00 C 917.32 863.99 906.66 864.00 896.00 864.00 C 895.99 853.32 895.99 842.66 896.00 832.00 C 906.66 831.99 917.32 831.99 928.00 832.00 C 927.99 821.33 927.99 810.66 928.00 800.00 C 917.32 799.99 906.66 800.00 896.00 800.00 C 895.99 789.33 895.99 778.66 896.00 768.00 C 906.66 767.99 917.32 768.00 928.00 768.00 C 927.99 757.33 927.99 746.66 928.00 736.00 C 917.32 735.99 906.66 736.00 896.00 736.00 C 895.99 725.33 895.99 714.66 896.00 704.00 C 906.66 703.99 917.32 704.00 928.00 704.00 C 927.99 693.33 927.99 682.66 928.00 672.00 C 917.32 671.99 906.66 672.00 896.00 672.00 C 895.99 661.33 895.99 650.66 896.00 640.00 C 906.66 639.99 917.32 640.00 928.00 640.00 C 927.99 629.33 927.99 618.66 928.00 608.00 C 917.32 607.99 906.66 608.00 896.00 608.00 C 895.99 597.33 895.99 586.66 896.00 576.00 C 906.66 575.99 917.32 576.00 928.00 576.00 C 927.99 565.33 927.99 554.66 928.00 544.00 C 917.32 544.00 906.66 544.00 896.00 544.00 C 895.99 533.33 895.99 522.66 896.00 512.00 C 906.66 511.99 917.32 512.00 928.00 512.00 C 927.99 501.33 927.99 490.66 928.00 480.00 C 917.32 480.00 906.66 480.00 896.00 480.00 C 895.99 469.33 895.99 458.66 896.00 448.00 C 906.66 447.99 917.32 448.00 928.00 448.00 C 927.99 437.33 927.99 426.66 928.00 416.00 C 917.32 416.00 906.66 416.00 896.00 416.00 C 895.99 405.33 895.99 394.66 896.00 384.00 C 906.66 384.00 917.32 384.00 928.00 384.00 C 927.99 373.33 927.99 362.66 928.00 352.00 C 917.32 352.00 906.66 352.00 896.00 352.00 C 895.99 341.33 895.99 330.66 896.00 320.00 C 906.66 320.00 917.32 320.00 928.00 320.00 C 927.99 309.33 927.99 298.67 928.00 288.00 C 917.32 288.00 906.66 288.00 896.00 288.00 C 895.99 277.33 895.99 266.66 896.00 256.00 C 906.66 256.00 917.32 256.00 928.00 256.00 C 927.99 245.33 927.99 234.67 928.00 224.00 C 917.32 224.00 906.66 224.00 896.00 224.00 C 895.99 213.33 895.99 202.66 896.00 192.00 C 906.66 192.00 917.32 192.00 928.00 192.00 C 927.99 181.33 927.99 170.67 928.00 160.00 C 917.32 160.00 906.66 160.00 896.00 160.00 C 896.00 149.33 895.99 138.66 896.00 127.99 C 906.65 128.00 917.32 128.00 927.99 128.01 C 928.01 117.33 928.04 106.66 928.03 96.00 C 927.96 85.31 927.81 74.63 927.42 63.96 C 916.93 64.00 906.46 64.01 896.00 64.01 C 895.99 53.34 895.99 42.67 896.00 32.00 Z" />
<path fill="#2d466d" opacity="1.00" d=" M 64.16 128.88 C 74.72 127.52 85.42 128.15 96.04 128.48 C 95.99 138.98 95.99 149.49 95.99 160.00 C 85.31 160.00 74.63 159.99 63.95 160.00 C 63.87 149.62 63.63 139.24 64.16 128.88 Z" />
<path fill="#2d466d" opacity="1.00" d=" M 31.99 160.00 C 42.65 160.00 53.30 160.00 63.95 160.00 C 63.99 170.66 64.00 181.33 64.00 192.00 C 53.33 191.99 42.66 192.00 31.99 192.00 C 32.01 181.33 32.02 170.67 31.99 160.00 Z" />
<path fill="#2d466d" opacity="1.00" d=" M 864.00 160.00 C 874.66 159.99 885.33 160.00 896.00 160.00 C 895.99 170.67 895.99 181.33 896.00 192.00 C 885.32 191.99 874.66 192.00 864.00 192.00 C 863.99 181.33 863.99 170.66 864.00 160.00 Z" />
<path fill="#2d466d" opacity="1.00" d=" M 64.00 192.00 C 74.67 192.00 85.33 192.00 96.00 192.00 C 96.00 202.67 96.00 213.33 96.00 224.00 C 85.33 224.00 74.66 223.99 64.00 224.00 C 64.00 213.33 64.00 202.66 64.00 192.00 Z" />
<path fill="#2d466d" opacity="1.00" d=" M 31.99 224.00 C 42.66 224.00 53.33 224.00 64.00 224.00 C 64.00 234.66 64.00 245.33 64.00 256.00 C 53.33 255.99 42.66 255.99 31.99 256.00 C 32.01 245.33 32.01 234.66 31.99 224.00 Z" />
<path fill="#2d466d" opacity="1.00" d=" M 864.00 224.00 C 874.66 223.99 885.33 224.00 896.00 224.00 C 895.99 234.67 895.99 245.33 896.00 256.00 C 885.32 255.99 874.66 256.00 864.00 256.00 C 863.99 245.33 863.99 234.66 864.00 224.00 Z" />
<path fill="#2d466d" opacity="1.00" d=" M 64.00 256.00 C 74.67 256.00 85.33 256.00 96.00 256.00 C 96.00 266.67 96.00 277.33 96.00 288.00 C 85.33 288.00 74.66 287.99 64.00 288.00 C 64.00 277.33 64.00 266.66 64.00 256.00 Z" />
<path fill="#2d466d" opacity="1.00" d=" M 31.99 288.00 C 42.66 288.00 53.33 288.00 64.00 288.00 C 64.00 298.66 64.00 309.33 64.00 320.00 C 53.33 319.99 42.66 319.99 31.99 320.00 C 32.01 309.33 32.01 298.66 31.99 288.00 Z" />
<path fill="#2d466d" opacity="1.00" d=" M 864.00 288.00 C 874.66 287.99 885.33 288.00 896.00 288.00 C 895.99 298.67 895.99 309.33 896.00 320.00 C 885.32 319.99 874.66 320.00 864.00 320.00 C 863.99 309.33 863.99 298.66 864.00 288.00 Z" />
<path fill="#2d466d" opacity="1.00" d=" M 64.00 320.00 C 74.67 320.00 85.33 320.00 96.00 320.00 C 96.00 330.67 96.00 341.33 96.00 352.00 C 85.33 352.00 74.66 351.99 64.00 352.00 C 64.00 341.33 64.00 330.66 64.00 320.00 Z" />
<path fill="#2d466d" opacity="1.00" d=" M 31.99 352.00 C 42.66 352.00 53.33 352.00 64.00 352.00 C 64.00 362.66 64.00 373.33 64.00 384.00 C 53.33 383.99 42.66 383.99 31.99 384.00 C 32.01 373.33 32.01 362.66 31.99 352.00 Z" />
<path fill="#2d466d" opacity="1.00" d=" M 192.00 352.00 C 202.66 352.00 213.33 352.00 224.01 352.00 C 223.99 362.66 223.99 373.33 224.00 384.01 C 213.33 383.97 202.66 383.98 191.99 384.01 C 192.02 373.34 192.01 362.67 192.00 352.00 Z" />
<path fill="#2d466d" opacity="1.00" d=" M 799.99 352.00 C 810.66 352.00 821.33 352.00 832.01 352.00 C 831.97 362.67 831.98 373.34 832.01 384.01 C 821.33 383.98 810.66 383.97 800.00 384.00 C 800.00 373.33 800.00 362.66 799.99 352.00 Z" />
<path fill="#2d466d" opacity="1.00" d=" M 864.00 352.00 C 874.66 351.99 885.33 352.00 896.00 352.00 C 895.99 362.66 895.99 373.33 896.00 384.00 C 885.32 383.99 874.66 383.99 864.00 384.00 C 863.99 373.33 863.99 362.66 864.00 352.00 Z" />
<path fill="#2d466d" opacity="1.00" d=" M 64.00 384.00 C 74.67 384.00 85.33 384.00 96.00 384.00 C 96.00 394.66 96.00 405.33 96.00 416.00 C 85.33 416.00 74.66 415.99 64.00 416.00 C 64.00 405.33 64.00 394.66 64.00 384.00 Z" />
<path fill="#2d466d" opacity="1.00" d=" M 31.99 416.00 C 42.66 416.00 53.33 416.00 64.00 416.00 C 64.00 426.66 64.00 437.33 64.00 448.00 C 53.33 447.99 42.66 447.99 31.99 448.00 C 32.01 437.33 32.01 426.66 31.99 416.00 Z" />
<path fill="#2d466d" opacity="1.00" d=" M 223.99 416.00 C 234.66 416.00 245.33 416.00 256.01 416.00 C 255.99 426.66 255.98 437.33 256.00 448.01 C 245.33 447.97 234.66 447.98 223.99 448.01 C 224.01 437.34 224.02 426.67 223.99 416.00 Z" />
<path fill="#2d466d" opacity="1.00" d=" M 767.99 416.00 C 778.66 415.99 789.33 416.00 800.01 416.00 C 799.97 426.66 799.98 437.32 800.01 447.98 C 789.64 447.94 779.28 447.64 768.94 448.11 C 767.33 458.65 768.02 469.38 767.94 480.01 C 757.28 479.98 746.64 479.97 736.00 480.00 C 736.00 469.33 736.00 458.66 736.00 447.99 C 746.66 447.99 757.33 448.00 768.01 448.01 C 768.00 437.33 767.99 426.66 767.99 416.00 Z" />
<path fill="#2d466d" opacity="1.00" d=" M 864.00 416.00 C 874.66 415.99 885.33 416.00 896.00 416.00 C 895.99 426.66 895.99 437.33 896.00 448.00 C 885.32 447.99 874.66 447.99 864.00 448.00 C 863.99 437.33 863.99 426.66 864.00 416.00 Z" />
<path fill="#2d466d" opacity="1.00" d=" M 64.00 448.00 C 74.67 448.00 85.33 448.00 96.00 448.00 C 96.00 458.66 96.00 469.33 96.00 480.00 C 85.33 480.00 74.66 479.99 64.00 480.00 C 64.00 469.33 64.00 458.66 64.00 448.00 Z" />
<path fill="#2d466d" opacity="1.00" d=" M 31.99 480.00 C 42.66 480.00 53.33 480.00 64.00 480.00 C 64.00 490.66 64.00 501.33 64.00 512.00 C 53.33 511.99 42.66 511.99 31.99 512.00 C 32.01 501.33 32.01 490.66 31.99 480.00 Z" />
<path fill="#2d466d" opacity="1.00" d=" M 255.99 480.00 C 266.66 480.00 277.33 480.00 288.01 480.00 C 287.99 490.66 287.98 501.33 288.00 512.01 C 277.33 511.97 266.66 511.98 255.99 512.01 C 256.01 501.34 256.02 490.67 255.99 480.00 Z" />
<path fill="#2d466d" opacity="1.00" d=" M 864.00 480.00 C 874.66 479.99 885.33 480.00 896.00 480.00 C 895.99 490.66 895.99 501.33 896.00 512.00 C 885.32 511.99 874.66 511.99 864.00 512.00 C 863.99 501.33 863.99 490.66 864.00 480.00 Z" />
<path fill="#2d466d" opacity="1.00" d=" M 64.00 512.00 C 74.67 512.00 85.33 512.00 96.00 512.00 C 96.00 522.66 96.00 533.33 96.00 544.00 C 85.33 544.00 74.66 543.99 64.00 544.00 C 64.00 533.33 64.00 522.66 64.00 512.00 Z" />
<path fill="#2d466d" opacity="1.00" d=" M 31.99 544.00 C 42.66 544.00 53.33 544.00 64.00 544.00 C 64.00 554.66 64.00 565.33 64.00 576.00 C 53.33 575.99 42.66 575.99 31.99 576.00 C 32.01 565.33 32.01 554.66 31.99 544.00 Z" />
<path fill="#2d466d" opacity="1.00" d=" M 287.99 544.00 C 298.66 544.00 309.33 544.00 320.01 544.00 C 320.00 554.66 319.99 565.33 319.99 576.01 C 330.66 576.00 341.33 575.99 352.01 575.99 C 352.00 586.66 351.99 597.33 351.99 608.01 C 362.66 608.00 373.33 607.99 384.01 607.99 C 384.00 618.66 383.99 629.33 383.99 640.00 C 405.33 639.98 426.67 640.01 448.01 640.00 C 448.00 650.66 447.99 661.33 447.99 672.01 C 480.00 671.97 512.00 672.02 544.01 672.00 C 543.97 682.66 543.98 693.33 544.01 704.01 C 512.01 703.99 480.01 703.99 448.02 704.01 C 448.05 693.64 448.36 683.28 447.90 672.93 C 426.70 670.75 405.30 672.48 384.02 672.01 C 384.05 661.65 384.35 651.28 383.90 640.94 C 373.36 639.33 362.63 640.02 352.02 639.94 C 352.05 629.60 352.35 619.26 351.89 608.94 C 341.36 607.33 330.63 608.02 320.02 607.94 C 320.05 597.60 320.36 587.26 319.89 576.94 C 309.35 575.33 298.61 576.02 287.99 575.94 C 288.01 565.29 288.02 554.64 287.99 544.00 Z" />
<path fill="#2d466d" opacity="1.00" d=" M 864.00 544.00 C 874.66 543.99 885.33 544.00 896.00 544.00 C 895.99 554.66 895.99 565.33 896.00 576.00 C 885.32 575.99 874.66 575.99 864.00 576.00 C 863.99 565.33 863.99 554.66 864.00 544.00 Z" />
<path fill="#2d466d" opacity="1.00" d=" M 64.00 576.00 C 74.67 576.00 85.33 576.00 96.00 576.00 C 96.00 586.66 96.00 597.33 96.00 608.00 C 85.33 608.00 74.66 607.99 64.00 608.00 C 64.00 597.33 64.00 586.66 64.00 576.00 Z" />
<path fill="#2d466d" opacity="1.00" d=" M 575.99 575.99 C 597.33 576.02 618.67 576.01 640.01 575.99 C 639.99 586.66 639.98 597.33 640.00 608.01 C 619.08 608.28 598.13 607.35 577.24 608.24 C 574.41 618.23 576.53 629.54 575.96 640.01 C 565.30 639.97 554.65 639.97 544.00 640.00 C 544.01 629.33 544.00 618.66 544.00 607.99 C 554.66 607.99 565.33 608.00 576.01 608.01 C 576.00 597.33 575.99 586.66 575.99 575.99 Z" />
<path fill="#2d466d" opacity="1.00" d=" M 31.99 608.00 C 42.66 608.00 53.33 608.00 64.00 608.00 C 64.00 618.66 64.00 629.33 64.00 640.00 C 53.33 639.99 42.66 639.99 31.99 640.00 C 32.01 629.33 32.01 618.66 31.99 608.00 Z" />
<path fill="#2d466d" opacity="1.00" d=" M 864.00 608.00 C 874.66 607.99 885.33 607.99 896.00 608.00 C 895.99 618.66 895.99 629.33 896.00 640.00 C 885.32 639.99 874.66 639.99 864.00 640.00 C 863.99 629.33 863.99 618.66 864.00 608.00 Z" />
<path fill="#2d466d" opacity="1.00" d=" M 64.00 640.00 C 74.67 640.00 85.33 640.00 96.00 640.00 C 96.00 650.66 96.00 661.33 96.00 672.00 C 85.33 672.00 74.66 671.99 64.00 672.00 C 64.00 661.32 64.00 650.66 64.00 640.00 Z" />
<path fill="#2d466d" opacity="1.00" d=" M 640.00 640.00 C 661.33 639.99 682.67 640.01 704.01 640.00 C 703.99 650.66 703.99 661.33 703.99 672.01 C 735.99 671.96 768.00 672.03 800.00 672.00 C 799.97 682.66 799.98 693.33 800.01 704.01 C 768.01 703.99 736.01 703.99 704.02 704.01 C 704.05 693.64 704.35 683.28 703.90 672.93 C 682.69 670.75 661.28 672.48 640.00 672.01 C 640.00 661.33 640.01 650.66 640.00 640.00 Z" />
<path fill="#2d466d" opacity="1.00" d=" M 31.99 672.00 C 42.66 672.00 53.33 672.00 64.00 672.00 C 64.00 682.66 64.00 693.33 64.00 704.00 C 53.33 703.99 42.66 703.99 31.99 704.00 C 32.01 693.33 32.01 682.66 31.99 672.00 Z" />
<path fill="#2d466d" opacity="1.00" d=" M 864.00 672.00 C 874.66 671.99 885.33 671.99 896.00 672.00 C 895.99 682.66 895.99 693.32 896.00 704.00 C 885.32 703.99 874.66 703.99 864.00 704.00 C 863.99 693.32 863.99 682.66 864.00 672.00 Z" />
<path fill="#2d466d" opacity="1.00" d=" M 64.00 704.00 C 74.67 704.00 85.33 704.00 96.00 704.00 C 96.00 714.66 96.00 725.33 96.00 736.00 C 85.33 735.99 74.66 735.99 64.00 736.00 C 64.00 725.32 64.00 714.66 64.00 704.00 Z" />
<path fill="#2d466d" opacity="1.00" d=" M 31.99 736.00 C 42.66 736.00 53.33 736.00 64.00 736.00 C 64.00 746.66 64.00 757.33 64.00 768.00 C 53.33 767.99 42.66 767.99 31.99 768.00 C 32.01 757.33 32.01 746.66 31.99 736.00 Z" />
<path fill="#2d466d" opacity="1.00" d=" M 864.00 736.00 C 874.66 735.99 885.33 735.99 896.00 736.00 C 895.99 746.66 895.99 757.32 896.00 768.00 C 885.32 767.99 874.66 767.99 864.00 768.00 C 863.99 757.32 863.99 746.66 864.00 736.00 Z" />
<path fill="#2d466d" opacity="1.00" d=" M 64.00 768.00 C 74.67 768.00 85.33 767.99 96.00 768.00 C 96.00 778.66 95.99 789.33 96.00 800.00 C 85.33 799.99 74.66 799.99 64.00 800.00 C 64.00 789.33 64.00 778.66 64.00 768.00 Z" />
<path fill="#2d466d" opacity="1.00" d=" M 31.99 800.00 C 42.66 799.99 53.33 799.99 64.00 800.00 C 64.00 810.66 64.00 821.32 64.01 832.00 C 53.33 831.99 42.66 831.99 31.99 832.00 C 32.01 821.32 32.01 810.66 31.99 800.00 Z" />
<path fill="#2d466d" opacity="1.00" d=" M 96.00 800.00 C 106.66 799.99 117.33 799.99 128.00 800.00 C 128.00 810.66 127.99 821.33 128.00 832.00 C 117.33 831.99 106.66 831.99 96.00 832.00 C 96.00 821.33 96.00 810.66 96.00 800.00 Z" />
<path fill="#2d466d" opacity="1.00" d=" M 864.00 800.00 C 874.66 799.99 885.32 799.99 896.00 800.00 C 895.99 810.66 895.99 821.32 896.00 832.00 C 885.32 831.99 874.66 831.99 864.00 832.00 C 863.99 821.33 863.99 810.66 864.00 800.00 Z" />
<path fill="#2d466d" opacity="1.00" d=" M 64.01 832.00 C 74.67 831.99 85.33 831.99 96.00 832.00 C 96.00 842.66 96.00 853.32 96.00 864.00 C 85.31 863.99 74.62 863.99 63.93 864.00 C 63.98 853.32 64.00 842.66 64.01 832.00 Z" />
<path fill="#2d466d" opacity="1.00" d=" M 128.00 832.00 C 138.66 831.99 149.33 831.99 160.00 832.00 C 160.00 842.66 160.00 853.32 160.00 864.00 C 149.33 863.99 138.66 863.99 128.00 864.00 C 128.00 853.33 128.00 842.66 128.00 832.00 Z" />
<path fill="#2d466d" opacity="1.00" d=" M 832.00 832.00 C 842.66 831.99 853.32 831.99 864.00 832.00 C 863.99 842.66 863.99 853.33 864.00 864.00 C 853.33 863.99 842.66 863.99 832.00 864.00 C 831.99 853.33 831.99 842.66 832.00 832.00 Z" />
<path fill="#2d466d" opacity="1.00" d=" M 96.00 864.00 C 106.67 863.99 117.33 863.99 128.00 864.00 C 128.00 874.66 128.00 885.32 128.00 895.99 C 117.31 895.99 106.63 896.01 95.95 896.07 C 95.99 885.37 95.99 874.68 96.00 864.00 Z" />
<path fill="#2d466d" opacity="1.00" d=" M 160.00 864.00 C 170.66 863.99 181.33 863.99 192.00 864.00 C 192.00 874.66 192.00 885.32 192.00 896.00 C 181.33 895.99 170.67 895.99 160.00 896.00 C 160.00 885.32 160.00 874.66 160.00 864.00 Z" />
<path fill="#2d466d" opacity="1.00" d=" M 224.00 864.00 C 234.67 863.99 245.33 863.99 256.00 864.00 C 256.00 874.66 256.00 885.33 256.00 896.00 C 245.33 895.99 234.67 895.99 224.00 896.00 C 224.00 885.32 224.00 874.66 224.00 864.00 Z" />
<path fill="#2d466d" opacity="1.00" d=" M 288.00 864.00 C 298.67 863.99 309.33 863.99 320.00 864.00 C 320.00 874.66 320.00 885.33 320.00 896.00 C 309.33 895.99 298.67 895.99 288.00 896.00 C 288.00 885.32 288.00 874.66 288.00 864.00 Z" />
<path fill="#2d466d" opacity="1.00" d=" M 352.00 864.00 C 362.66 863.99 373.33 863.99 384.00 864.00 C 384.00 874.66 384.00 885.33 384.00 896.00 C 373.33 895.99 362.66 895.99 352.00 896.00 C 352.00 885.32 352.00 874.66 352.00 864.00 Z" />
<path fill="#2d466d" opacity="1.00" d=" M 416.00 864.00 C 426.66 863.99 437.33 863.99 448.00 864.00 C 448.00 874.66 447.99 885.33 448.00 896.00 C 437.33 895.99 426.66 895.99 416.00 896.00 C 416.00 885.32 416.00 874.66 416.00 864.00 Z" />
<path fill="#2d466d" opacity="1.00" d=" M 480.00 864.00 C 490.66 863.99 501.33 863.99 512.00 864.00 C 512.00 874.66 511.99 885.33 512.00 896.00 C 501.33 895.99 490.66 895.99 480.00 896.00 C 480.00 885.32 480.00 874.66 480.00 864.00 Z" />
<path fill="#2d466d" opacity="1.00" d=" M 544.00 864.00 C 554.66 863.99 565.33 863.99 576.00 864.00 C 576.00 874.66 575.99 885.33 576.00 896.00 C 565.33 895.99 554.66 895.99 544.00 896.00 C 544.00 885.32 544.00 874.66 544.00 864.00 Z" />
<path fill="#2d466d" opacity="1.00" d=" M 608.00 864.00 C 618.66 863.99 629.33 863.99 640.00 864.00 C 640.00 874.66 639.99 885.33 640.00 896.00 C 629.33 895.99 618.66 895.99 608.00 896.00 C 608.00 885.32 607.99 874.66 608.00 864.00 Z" />
<path fill="#2d466d" opacity="1.00" d=" M 672.00 864.00 C 682.66 863.99 693.33 863.99 704.00 864.00 C 704.00 874.66 703.99 885.33 704.00 896.00 C 693.32 895.99 682.66 895.99 672.00 896.00 C 672.00 885.32 671.99 874.66 672.00 864.00 Z" />
<path fill="#2d466d" opacity="1.00" d=" M 736.00 864.00 C 746.66 863.99 757.33 863.99 768.00 864.00 C 768.00 874.66 767.99 885.33 768.00 896.00 C 757.32 895.99 746.66 895.99 736.00 896.00 C 736.00 885.32 735.99 874.66 736.00 864.00 Z" />
<path fill="#2d466d" opacity="1.00" d=" M 800.00 864.00 C 810.66 863.99 821.33 864.00 832.00 864.00 C 831.99 874.66 831.99 885.32 832.00 896.00 C 821.33 895.99 810.66 895.99 800.01 896.00 C 799.99 885.32 799.99 874.66 800.00 864.00 Z" />
<path fill="#2d466d" opacity="1.00" d=" M 864.00 864.00 C 874.66 863.99 885.32 863.99 896.00 864.00 C 895.99 874.66 895.99 885.32 896.00 896.00 C 885.32 895.99 874.66 895.99 864.00 896.00 C 863.99 885.32 863.99 874.66 864.00 864.00 Z" />
</g>
<g id="#3b64a5ff">
<path fill="#3b64a5" opacity="1.00" d=" M 96.59 63.97 C 107.06 64.01 117.53 64.01 128.00 64.01 C 128.00 74.67 128.00 85.34 128.00 96.00 C 117.31 96.01 106.63 95.98 95.95 95.90 C 96.06 85.25 96.19 74.61 96.59 63.97 Z" />
<path fill="#3b64a5" opacity="1.00" d=" M 159.99 64.00 C 170.66 64.00 181.33 64.01 192.01 64.01 C 192.00 74.67 191.99 85.34 191.99 96.00 C 202.66 95.99 213.33 95.99 224.01 95.99 C 224.00 85.33 223.99 74.66 223.99 64.00 C 234.66 64.00 245.33 64.01 256.01 64.01 C 256.00 74.67 255.99 85.34 255.99 96.00 C 266.66 95.99 277.33 95.99 288.01 95.99 C 288.00 85.33 287.99 74.66 287.99 64.00 C 298.66 64.00 309.33 64.01 320.01 64.01 C 320.00 74.67 319.99 85.34 319.99 96.00 C 330.66 95.99 341.33 95.99 352.01 95.99 C 352.00 85.33 351.99 74.66 351.99 64.00 C 362.66 64.00 373.33 64.01 384.01 64.01 C 384.00 74.67 383.99 85.34 383.99 96.00 C 394.66 95.99 405.33 95.99 416.01 95.99 C 416.00 85.33 415.99 74.66 415.99 64.00 C 426.66 64.00 437.33 64.01 448.01 64.01 C 448.00 74.67 447.99 85.34 447.99 96.00 C 458.66 95.99 469.33 95.99 480.01 95.99 C 480.00 85.33 479.99 74.66 479.99 64.00 C 490.66 64.00 501.33 64.01 512.01 64.01 C 512.00 74.67 511.99 85.34 511.99 96.00 C 522.66 95.99 533.33 95.99 544.01 95.99 C 544.00 85.33 543.99 74.66 543.99 64.00 C 554.66 64.00 565.33 64.01 576.01 64.01 C 576.00 74.67 575.99 85.34 575.99 96.00 C 586.66 95.99 597.33 95.99 608.01 95.99 C 608.00 85.33 607.99 74.66 607.99 64.00 C 618.66 64.00 629.33 64.01 640.01 64.01 C 640.00 74.67 639.99 85.34 639.99 96.00 C 650.66 95.99 661.33 95.99 672.01 95.99 C 672.00 85.33 671.99 74.66 671.99 64.00 C 682.66 64.00 693.33 64.01 704.01 64.01 C 704.00 74.67 703.99 85.34 703.99 96.00 C 714.66 95.99 725.33 95.99 736.01 95.99 C 736.00 85.33 735.99 74.66 735.99 64.00 C 746.66 64.00 757.33 64.01 768.01 64.01 C 768.00 74.67 767.99 85.34 767.99 96.00 C 778.66 95.99 789.33 95.99 800.01 95.99 C 800.00 85.33 799.99 74.66 799.99 64.00 C 810.66 64.00 821.33 64.01 832.01 64.01 C 832.00 74.67 831.99 85.34 831.99 96.00 C 842.66 95.99 853.33 95.99 864.01 95.99 C 863.99 85.29 863.99 74.58 863.99 63.88 C 874.67 64.02 885.35 64.19 896.04 64.60 C 895.99 75.07 895.98 85.53 895.99 96.00 C 906.66 96.00 917.34 95.99 928.03 96.00 C 928.04 106.66 928.01 117.33 927.99 128.01 C 917.32 128.00 906.65 128.00 896.00 127.99 C 895.99 138.66 896.00 149.33 896.00 160.00 C 885.33 160.00 874.66 159.99 864.00 160.00 C 863.99 170.66 863.99 181.33 864.00 192.00 C 874.66 192.00 885.32 191.99 896.00 192.00 C 895.99 202.66 895.99 213.33 896.00 224.00 C 885.33 224.00 874.66 223.99 864.00 224.00 C 863.99 234.66 863.99 245.33 864.00 256.00 C 874.66 256.00 885.32 255.99 896.00 256.00 C 895.99 266.66 895.99 277.33 896.00 288.00 C 885.33 288.00 874.66 287.99 864.00 288.00 C 863.99 298.66 863.99 309.33 864.00 320.00 C 874.66 320.00 885.32 319.99 896.00 320.00 C 895.99 330.66 895.99 341.33 896.00 352.00 C 885.33 352.00 874.66 351.99 864.00 352.00 C 863.99 362.66 863.99 373.33 864.00 384.00 C 874.66 383.99 885.32 383.99 896.00 384.00 C 895.99 394.66 895.99 405.33 896.00 416.00 C 885.33 416.00 874.66 415.99 864.00 416.00 C 863.99 426.66 863.99 437.33 864.00 448.00 C 874.66 447.99 885.32 447.99 896.00 448.00 C 895.99 458.66 895.99 469.33 896.00 480.00 C 885.33 480.00 874.66 479.99 864.00 480.00 C 863.99 490.66 863.99 501.33 864.00 512.00 C 874.66 511.99 885.32 511.99 896.00 512.00 C 895.99 522.66 895.99 533.33 896.00 544.00 C 885.33 544.00 874.66 543.99 864.00 544.00 C 863.99 554.66 863.99 565.33 864.00 576.00 C 874.66 575.99 885.32 575.99 896.00 576.00 C 895.99 586.66 895.99 597.33 896.00 608.00 C 885.33 607.99 874.66 607.99 864.00 608.00 C 863.99 618.66 863.99 629.33 864.00 640.00 C 874.66 639.99 885.32 639.99 896.00 640.00 C 895.99 650.66 895.99 661.33 896.00 672.00 C 885.33 671.99 874.66 671.99 864.00 672.00 C 863.99 682.66 863.99 693.32 864.00 704.00 C 874.66 703.99 885.32 703.99 896.00 704.00 C 895.99 714.66 895.99 725.33 896.00 736.00 C 885.33 735.99 874.66 735.99 864.00 736.00 C 863.99 746.66 863.99 757.32 864.00 768.00 C 874.66 767.99 885.32 767.99 896.00 768.00 C 895.99 778.66 895.99 789.33 896.00 800.00 C 885.32 799.99 874.66 799.99 864.00 800.00 C 863.99 810.66 863.99 821.33 864.00 832.00 C 853.32 831.99 842.66 831.99 832.00 832.00 C 831.99 842.66 831.99 853.33 832.00 864.00 C 821.33 864.00 810.66 863.99 800.00 864.00 C 799.99 874.66 799.99 885.32 800.01 896.00 C 789.33 895.99 778.66 895.99 768.00 896.00 C 767.99 885.33 768.00 874.66 768.00 864.00 C 757.33 863.99 746.66 863.99 736.00 864.00 C 735.99 874.66 736.00 885.32 736.00 896.00 C 725.33 895.99 714.66 895.99 704.00 896.00 C 703.99 885.33 704.00 874.66 704.00 864.00 C 693.33 863.99 682.66 863.99 672.00 864.00 C 671.99 874.66 672.00 885.32 672.00 896.00 C 661.33 895.99 650.66 895.99 640.00 896.00 C 639.99 885.33 640.00 874.66 640.00 864.00 C 629.33 863.99 618.66 863.99 608.00 864.00 C 607.99 874.66 608.00 885.32 608.00 896.00 C 597.33 895.99 586.66 895.99 576.00 896.00 C 575.99 885.33 576.00 874.66 576.00 864.00 C 565.33 863.99 554.66 863.99 544.00 864.00 C 544.00 874.66 544.00 885.32 544.00 896.00 C 533.33 895.99 522.66 895.99 512.00 896.00 C 511.99 885.33 512.00 874.66 512.00 864.00 C 501.33 863.99 490.66 863.99 480.00 864.00 C 480.00 874.66 480.00 885.32 480.00 896.00 C 469.33 895.99 458.66 895.99 448.00 896.00 C 447.99 885.33 448.00 874.66 448.00 864.00 C 437.33 863.99 426.66 863.99 416.00 864.00 C 416.00 874.66 416.00 885.32 416.00 896.00 C 405.33 895.99 394.66 895.99 384.00 896.00 C 384.00 885.33 384.00 874.66 384.00 864.00 C 373.33 863.99 362.66 863.99 352.00 864.00 C 352.00 874.66 352.00 885.32 352.00 896.00 C 341.33 895.99 330.66 895.99 320.00 896.00 C 320.00 885.33 320.00 874.66 320.00 864.00 C 309.33 863.99 298.67 863.99 288.00 864.00 C 288.00 874.66 288.00 885.32 288.00 896.00 C 277.33 895.99 266.66 895.99 256.00 896.00 C 256.00 885.33 256.00 874.66 256.00 864.00 C 245.33 863.99 234.67 863.99 224.00 864.00 C 224.00 874.66 224.00 885.32 224.00 896.00 C 213.33 895.99 202.66 895.99 192.00 896.00 C 192.00 885.32 192.00 874.66 192.00 864.00 C 181.33 863.99 170.66 863.99 160.00 864.00 C 160.00 853.32 160.00 842.66 160.00 832.00 C 149.33 831.99 138.66 831.99 128.00 832.00 C 127.99 821.33 128.00 810.66 128.00 800.00 C 117.33 799.99 106.66 799.99 96.00 800.00 C 95.99 789.33 96.00 778.66 96.00 768.00 C 85.33 767.99 74.67 768.00 64.00 768.00 C 64.00 757.33 64.00 746.66 64.00 736.00 C 74.66 735.99 85.33 735.99 96.00 736.00 C 96.00 725.33 96.00 714.66 96.00 704.00 C 85.33 704.00 74.67 704.00 64.00 704.00 C 64.00 693.33 64.00 682.66 64.00 672.00 C 74.66 671.99 85.33 672.00 96.00 672.00 C 96.00 661.33 96.00 650.66 96.00 640.00 C 85.33 640.00 74.67 640.00 64.00 640.00 C 64.00 629.33 64.00 618.66 64.00 608.00 C 74.66 607.99 85.33 608.00 96.00 608.00 C 96.00 597.33 96.00 586.66 96.00 576.00 C 85.33 576.00 74.67 576.00 64.00 576.00 C 64.00 565.33 64.00 554.66 64.00 544.00 C 74.66 543.99 85.33 544.00 96.00 544.00 C 96.00 533.33 96.00 522.66 96.00 512.00 C 85.33 512.00 74.67 512.00 64.00 512.00 C 64.00 501.33 64.00 490.66 64.00 480.00 C 74.66 479.99 85.33 480.00 96.00 480.00 C 96.00 469.33 96.00 458.66 96.00 448.00 C 85.33 448.00 74.67 448.00 64.00 448.00 C 64.00 437.33 64.00 426.66 64.00 416.00 C 74.66 415.99 85.33 416.00 96.00 416.00 C 96.00 405.33 96.00 394.66 96.00 384.00 C 85.33 384.00 74.67 384.00 64.00 384.00 C 64.00 373.33 64.00 362.66 64.00 352.00 C 74.66 351.99 85.33 352.00 96.00 352.00 C 96.00 341.33 96.00 330.67 96.00 320.00 C 85.33 320.00 74.67 320.00 64.00 320.00 C 64.00 309.33 64.00 298.66 64.00 288.00 C 74.66 287.99 85.33 288.00 96.00 288.00 C 96.00 277.33 96.00 266.67 96.00 256.00 C 85.33 256.00 74.67 256.00 64.00 256.00 C 64.00 245.33 64.00 234.66 64.00 224.00 C 74.66 223.99 85.33 224.00 96.00 224.00 C 96.00 213.33 96.00 202.67 96.00 192.00 C 85.33 192.00 74.67 192.00 64.00 192.00 C 64.00 181.33 63.99 170.66 63.95 160.00 C 74.63 159.99 85.31 160.00 95.99 160.00 C 95.99 149.49 95.99 138.98 96.04 128.48 C 85.42 128.15 74.72 127.52 64.16 128.88 C 63.63 139.24 63.87 149.62 63.95 160.00 C 53.30 160.00 42.65 160.00 31.99 160.00 C 32.01 149.33 32.01 138.66 32.00 128.00 C 42.63 128.00 53.27 128.00 63.90 128.00 C 63.86 117.66 63.63 107.31 64.18 96.98 C 74.69 95.45 85.36 96.03 95.95 95.90 C 95.97 106.60 95.98 117.30 96.02 128.00 C 106.68 128.00 117.34 128.00 128.00 128.00 C 128.00 117.33 127.99 106.67 128.00 96.00 C 138.66 95.99 149.33 95.99 160.01 96.00 C 160.00 85.33 159.99 74.66 159.99 64.00 M 191.99 319.99 C 192.01 330.66 192.02 341.33 192.00 352.00 C 192.01 362.67 192.02 373.34 191.99 384.01 C 202.66 383.98 213.33 383.97 224.00 384.01 C 224.01 394.67 224.01 405.33 223.99 416.00 C 224.02 426.67 224.01 437.34 223.99 448.01 C 234.66 447.98 245.33 447.97 256.00 448.01 C 256.01 458.67 256.01 469.33 255.99 480.00 C 256.02 490.67 256.01 501.34 255.99 512.01 C 266.66 511.98 277.33 511.97 288.00 512.01 C 288.01 522.67 288.01 533.33 287.99 544.00 C 288.02 554.64 288.01 565.29 287.99 575.94 C 298.61 576.02 309.35 575.33 319.89 576.94 C 320.36 587.26 320.05 597.60 320.02 607.94 C 330.63 608.02 341.36 607.33 351.89 608.94 C 352.35 619.26 352.05 629.60 352.02 639.94 C 362.63 640.02 373.36 639.33 383.90 640.94 C 384.35 651.28 384.05 661.65 384.02 672.01 C 405.30 672.48 426.70 670.75 447.90 672.93 C 448.36 683.28 448.05 693.64 448.02 704.01 C 480.01 703.99 512.01 703.99 544.01 704.01 C 543.98 693.33 543.97 682.66 544.01 672.00 C 543.98 661.33 543.97 650.66 544.00 640.00 C 554.65 639.97 565.30 639.97 575.96 640.01 C 576.53 629.54 574.41 618.23 577.24 608.24 C 598.13 607.35 619.08 608.28 640.00 608.01 C 640.01 618.67 640.01 629.33 640.00 640.00 C 640.01 650.66 640.00 661.33 640.00 672.01 C 661.28 672.48 682.69 670.75 703.90 672.93 C 704.35 683.28 704.05 693.64 704.02 704.01 C 736.01 703.99 768.01 703.99 800.01 704.01 C 799.98 693.33 799.97 682.66 800.00 672.00 C 810.66 671.98 821.33 671.99 832.01 672.00 C 831.98 661.33 831.97 650.66 832.00 640.00 C 821.32 639.99 810.66 640.00 800.00 640.00 C 800.03 618.66 799.96 597.33 800.00 576.00 C 789.33 575.99 778.66 576.00 768.00 576.00 C 767.99 565.33 768.00 554.66 768.00 544.00 C 757.32 543.99 746.65 544.00 735.99 544.00 C 736.04 522.67 735.96 501.33 736.00 480.00 C 746.64 479.97 757.28 479.98 767.94 480.01 C 768.02 469.38 767.33 458.65 768.94 448.11 C 779.28 447.64 789.64 447.94 800.01 447.98 C 799.98 437.32 799.97 426.66 800.01 416.00 C 799.98 405.33 799.97 394.67 800.00 384.00 C 810.66 383.97 821.33 383.98 832.01 384.01 C 831.98 373.34 831.97 362.67 832.01 352.00 C 831.98 341.33 831.98 330.66 832.00 320.00 C 789.33 320.01 746.66 320.00 704.00 320.00 C 703.99 330.66 704.00 341.33 704.00 352.00 C 693.33 352.00 682.66 351.99 672.00 352.00 C 672.03 373.33 671.96 394.66 672.00 416.00 C 661.33 416.00 650.66 415.99 640.00 416.00 C 639.99 426.66 640.00 437.33 640.00 448.00 C 629.33 448.00 618.66 447.99 608.00 448.00 C 607.99 458.66 608.00 469.33 608.00 480.00 C 586.66 479.99 565.33 479.99 543.99 480.01 C 544.02 426.67 543.98 373.33 544.01 319.99 C 512.00 320.00 480.00 320.01 447.99 319.99 C 448.02 373.33 447.98 426.66 448.01 480.00 C 426.67 479.99 405.33 480.00 384.00 480.00 C 383.99 469.33 384.00 458.66 384.00 448.00 C 373.33 447.99 362.66 448.00 352.00 448.00 C 352.03 426.67 351.97 405.33 352.00 384.00 C 341.33 383.99 330.66 384.00 320.00 384.00 C 320.03 362.67 319.97 341.33 320.00 320.00 C 277.33 320.00 234.66 320.00 191.99 319.99 Z" />
<path fill="#3b64a5" opacity="1.00" d=" M 896.00 160.00 C 906.66 160.00 917.32 160.00 928.00 160.00 C 927.99 170.67 927.99 181.33 928.00 192.00 C 917.32 192.00 906.66 192.00 896.00 192.00 C 895.99 181.33 895.99 170.67 896.00 160.00 Z" />
<path fill="#3b64a5" opacity="1.00" d=" M 31.99 192.00 C 42.66 192.00 53.33 191.99 64.00 192.00 C 64.00 202.66 64.00 213.33 64.00 224.00 C 53.33 224.00 42.66 224.00 31.99 224.00 C 32.01 213.33 32.01 202.67 31.99 192.00 Z" />
<path fill="#3b64a5" opacity="1.00" d=" M 896.00 224.00 C 906.66 224.00 917.32 224.00 928.00 224.00 C 927.99 234.67 927.99 245.33 928.00 256.00 C 917.32 256.00 906.66 256.00 896.00 256.00 C 895.99 245.33 895.99 234.67 896.00 224.00 Z" />
<path fill="#3b64a5" opacity="1.00" d=" M 31.99 256.00 C 42.66 255.99 53.33 255.99 64.00 256.00 C 64.00 266.66 64.00 277.33 64.00 288.00 C 53.33 288.00 42.66 288.00 31.99 288.00 C 32.01 277.33 32.01 266.66 31.99 256.00 Z" />
<path fill="#3b64a5" opacity="1.00" d=" M 896.00 288.00 C 906.66 288.00 917.32 288.00 928.00 288.00 C 927.99 298.67 927.99 309.33 928.00 320.00 C 917.32 320.00 906.66 320.00 896.00 320.00 C 895.99 309.33 895.99 298.67 896.00 288.00 Z" />
<path fill="#3b64a5" opacity="1.00" d=" M 31.99 320.00 C 42.66 319.99 53.33 319.99 64.00 320.00 C 64.00 330.66 64.00 341.33 64.00 352.00 C 53.33 352.00 42.66 352.00 31.99 352.00 C 32.01 341.33 32.01 330.66 31.99 320.00 Z" />
<path fill="#3b64a5" opacity="1.00" d=" M 896.00 352.00 C 906.66 352.00 917.32 352.00 928.00 352.00 C 927.99 362.66 927.99 373.33 928.00 384.00 C 917.32 384.00 906.66 384.00 896.00 384.00 C 895.99 373.33 895.99 362.66 896.00 352.00 Z" />
<path fill="#3b64a5" opacity="1.00" d=" M 31.99 384.00 C 42.66 383.99 53.33 383.99 64.00 384.00 C 64.00 394.66 64.00 405.33 64.00 416.00 C 53.33 416.00 42.66 416.00 31.99 416.00 C 32.01 405.33 32.01 394.66 31.99 384.00 Z" />
<path fill="#3b64a5" opacity="1.00" d=" M 896.00 416.00 C 906.66 416.00 917.32 416.00 928.00 416.00 C 927.99 426.66 927.99 437.33 928.00 448.00 C 917.32 448.00 906.66 447.99 896.00 448.00 C 895.99 437.33 895.99 426.66 896.00 416.00 Z" />
<path fill="#3b64a5" opacity="1.00" d=" M 31.99 448.00 C 42.66 447.99 53.33 447.99 64.00 448.00 C 64.00 458.66 64.00 469.33 64.00 480.00 C 53.33 480.00 42.66 480.00 31.99 480.00 C 32.01 469.33 32.01 458.66 31.99 448.00 Z" />
<path fill="#3b64a5" opacity="1.00" d=" M 896.00 480.00 C 906.66 480.00 917.32 480.00 928.00 480.00 C 927.99 490.66 927.99 501.33 928.00 512.00 C 917.32 512.00 906.66 511.99 896.00 512.00 C 895.99 501.33 895.99 490.66 896.00 480.00 Z" />
<path fill="#3b64a5" opacity="1.00" d=" M 31.99 512.00 C 42.66 511.99 53.33 511.99 64.00 512.00 C 64.00 522.66 64.00 533.33 64.00 544.00 C 53.33 544.00 42.66 544.00 31.99 544.00 C 32.01 533.33 32.01 522.66 31.99 512.00 Z" />
<path fill="#3b64a5" opacity="1.00" d=" M 896.00 544.00 C 906.66 544.00 917.32 544.00 928.00 544.00 C 927.99 554.66 927.99 565.33 928.00 576.00 C 917.32 576.00 906.66 575.99 896.00 576.00 C 895.99 565.33 895.99 554.66 896.00 544.00 Z" />
<path fill="#3b64a5" opacity="1.00" d=" M 31.99 576.00 C 42.66 575.99 53.33 575.99 64.00 576.00 C 64.00 586.66 64.00 597.33 64.00 608.00 C 53.33 608.00 42.66 608.00 31.99 608.00 C 32.01 597.33 32.01 586.66 31.99 576.00 Z" />
<path fill="#3b64a5" opacity="1.00" d=" M 896.00 608.00 C 906.66 608.00 917.32 607.99 928.00 608.00 C 927.99 618.66 927.99 629.33 928.00 640.00 C 917.32 640.00 906.66 639.99 896.00 640.00 C 895.99 629.33 895.99 618.66 896.00 608.00 Z" />
<path fill="#3b64a5" opacity="1.00" d=" M 31.99 640.00 C 42.66 639.99 53.33 639.99 64.00 640.00 C 64.00 650.66 64.00 661.32 64.00 672.00 C 53.33 672.00 42.66 672.00 31.99 672.00 C 32.01 661.33 32.01 650.66 31.99 640.00 Z" />
<path fill="#3b64a5" opacity="1.00" d=" M 896.00 672.00 C 906.66 672.00 917.32 671.99 928.00 672.00 C 927.99 682.66 927.99 693.33 928.00 704.00 C 917.32 704.00 906.66 703.99 896.00 704.00 C 895.99 693.32 895.99 682.66 896.00 672.00 Z" />
<path fill="#3b64a5" opacity="1.00" d=" M 31.99 704.00 C 42.66 703.99 53.33 703.99 64.00 704.00 C 64.00 714.66 64.00 725.32 64.00 736.00 C 53.33 736.00 42.66 736.00 31.99 736.00 C 32.01 725.33 32.01 714.66 31.99 704.00 Z" />
<path fill="#3b64a5" opacity="1.00" d=" M 896.00 736.00 C 906.66 736.00 917.32 735.99 928.00 736.00 C 927.99 746.66 927.99 757.33 928.00 768.00 C 917.32 768.00 906.66 767.99 896.00 768.00 C 895.99 757.32 895.99 746.66 896.00 736.00 Z" />
<path fill="#3b64a5" opacity="1.00" d=" M 31.99 768.00 C 42.66 767.99 53.33 767.99 64.00 768.00 C 64.00 778.66 64.00 789.33 64.00 800.00 C 53.33 799.99 42.66 799.99 31.99 800.00 C 32.01 789.32 32.01 778.66 31.99 768.00 Z" />
<path fill="#3b64a5" opacity="1.00" d=" M 64.00 800.00 C 74.66 799.99 85.33 799.99 96.00 800.00 C 96.00 810.66 96.00 821.33 96.00 832.00 C 85.33 831.99 74.67 831.99 64.01 832.00 C 64.00 821.32 64.00 810.66 64.00 800.00 Z" />
<path fill="#3b64a5" opacity="1.00" d=" M 896.00 800.00 C 906.66 800.00 917.32 799.99 928.00 800.00 C 927.99 810.66 927.99 821.33 928.00 832.00 C 917.32 831.99 906.66 831.99 896.00 832.00 C 895.99 821.32 895.99 810.66 896.00 800.00 Z" />
<path fill="#3b64a5" opacity="1.00" d=" M 31.99 832.00 C 42.66 831.99 53.33 831.99 64.01 832.00 C 64.00 842.66 63.98 853.32 63.93 864.00 C 53.28 863.99 42.64 863.99 31.99 864.00 C 32.02 853.32 32.01 842.66 31.99 832.00 Z" />
<path fill="#3b64a5" opacity="1.00" d=" M 96.00 832.00 C 106.66 831.99 117.33 831.99 128.00 832.00 C 128.00 842.66 128.00 853.33 128.00 864.00 C 117.33 863.99 106.67 863.99 96.00 864.00 C 96.00 853.32 96.00 842.66 96.00 832.00 Z" />
<path fill="#3b64a5" opacity="1.00" d=" M 864.00 832.00 C 874.66 831.99 885.32 831.99 896.00 832.00 C 895.99 842.66 895.99 853.32 896.00 864.00 C 885.32 863.99 874.66 863.99 864.00 864.00 C 863.99 853.33 863.99 842.66 864.00 832.00 Z" />
<path fill="#3b64a5" opacity="1.00" d=" M 63.93 864.00 C 74.62 863.99 85.31 863.99 96.00 864.00 C 95.99 874.68 95.99 885.37 95.95 896.07 C 85.80 896.09 75.63 896.44 65.50 895.58 C 65.23 895.31 64.69 894.76 64.43 894.49 C 63.54 884.34 63.90 874.15 63.93 864.00 Z" />
<path fill="#3b64a5" opacity="1.00" d=" M 128.00 864.00 C 138.66 863.99 149.33 863.99 160.00 864.00 C 160.00 874.66 160.00 885.32 160.00 896.00 C 149.33 895.99 138.66 895.99 128.00 895.99 C 128.00 885.32 128.00 874.66 128.00 864.00 Z" />
<path fill="#3b64a5" opacity="1.00" d=" M 832.00 864.00 C 842.66 863.99 853.33 863.99 864.00 864.00 C 863.99 874.66 863.99 885.32 864.00 896.00 C 853.33 895.99 842.66 895.99 832.00 896.00 C 831.99 885.32 831.99 874.66 832.00 864.00 Z" />
<path fill="#3b64a5" opacity="1.00" d=" M 896.00 864.00 C 906.66 864.00 917.32 863.99 928.00 864.00 C 927.99 874.66 927.99 885.33 928.00 896.00 C 917.32 895.99 906.65 895.99 896.00 896.00 C 895.99 885.32 895.99 874.66 896.00 864.00 Z" />
<path fill="#3b64a5" opacity="1.00" d=" M 95.95 896.07 C 106.63 896.01 117.31 895.99 128.00 895.99 C 128.00 906.72 128.00 917.45 128.00 928.20 C 117.40 928.05 106.71 928.44 96.17 927.03 C 95.63 916.71 95.87 906.38 95.95 896.07 Z" />
<path fill="#3b64a5" opacity="1.00" d=" M 160.00 896.00 C 170.67 895.99 181.33 895.99 192.00 896.00 C 191.99 906.66 192.00 917.32 192.00 928.00 C 181.33 927.99 170.66 927.99 160.00 928.00 C 160.00 917.32 160.00 906.66 160.00 896.00 Z" />
<path fill="#3b64a5" opacity="1.00" d=" M 224.00 896.00 C 234.67 895.99 245.33 895.99 256.00 896.00 C 255.99 906.66 256.00 917.32 256.00 928.00 C 245.33 927.99 234.66 927.99 224.00 928.00 C 223.99 917.32 224.00 906.66 224.00 896.00 Z" />
<path fill="#3b64a5" opacity="1.00" d=" M 288.00 896.00 C 298.67 895.99 309.33 895.99 320.00 896.00 C 319.99 906.66 320.00 917.32 320.00 928.00 C 309.33 927.99 298.66 927.99 288.00 928.00 C 287.99 917.32 288.00 906.66 288.00 896.00 Z" />
<path fill="#3b64a5" opacity="1.00" d=" M 352.00 896.00 C 362.66 895.99 373.33 895.99 384.00 896.00 C 383.99 906.66 383.99 917.32 384.00 928.00 C 373.33 927.99 362.66 927.99 352.00 928.00 C 351.99 917.32 352.00 906.66 352.00 896.00 Z" />
<path fill="#3b64a5" opacity="1.00" d=" M 416.00 896.00 C 426.66 895.99 437.33 895.99 448.00 896.00 C 447.99 906.66 447.99 917.32 448.00 928.00 C 437.33 927.99 426.66 927.99 416.00 928.00 C 415.99 917.32 416.00 906.66 416.00 896.00 Z" />
<path fill="#3b64a5" opacity="1.00" d=" M 480.00 896.00 C 490.66 895.99 501.33 895.99 512.00 896.00 C 511.99 906.66 511.99 917.32 512.00 928.00 C 501.33 927.99 490.66 927.99 480.00 928.00 C 479.99 917.32 480.00 906.66 480.00 896.00 Z" />
<path fill="#3b64a5" opacity="1.00" d=" M 544.00 896.00 C 554.66 895.99 565.33 895.99 576.00 896.00 C 575.99 906.66 575.99 917.32 576.00 928.00 C 565.33 927.99 554.66 927.99 544.00 928.00 C 543.99 917.32 544.00 906.66 544.00 896.00 Z" />
<path fill="#3b64a5" opacity="1.00" d=" M 608.00 896.00 C 618.66 895.99 629.33 895.99 640.00 896.00 C 639.99 906.66 639.99 917.32 640.00 928.00 C 629.33 927.99 618.66 927.99 608.00 928.00 C 607.99 917.32 607.99 906.66 608.00 896.00 Z" />
<path fill="#3b64a5" opacity="1.00" d=" M 672.00 896.00 C 682.66 895.99 693.32 895.99 704.00 896.00 C 703.99 906.66 703.99 917.32 704.00 928.00 C 693.32 927.99 682.66 927.99 672.00 928.00 C 671.99 917.32 671.99 906.66 672.00 896.00 Z" />
<path fill="#3b64a5" opacity="1.00" d=" M 736.00 896.00 C 746.66 895.99 757.32 895.99 768.00 896.00 C 767.99 906.66 767.99 917.32 768.00 928.00 C 757.32 927.99 746.66 927.99 736.00 928.00 C 735.99 917.32 735.99 906.66 736.00 896.00 Z" />
<path fill="#3b64a5" opacity="1.00" d=" M 800.01 896.00 C 810.66 895.99 821.33 895.99 832.00 896.00 C 831.99 906.66 831.99 917.32 832.00 928.00 C 821.32 927.99 810.66 927.99 800.00 928.00 C 799.99 917.32 799.99 906.66 800.01 896.00 Z" />
<path fill="#3b64a5" opacity="1.00" d=" M 864.00 896.00 C 874.66 895.99 885.32 895.99 896.00 896.00 C 895.99 906.66 895.99 917.32 896.00 928.00 C 885.32 927.99 874.66 927.99 864.00 928.00 C 863.99 917.32 863.99 906.66 864.00 896.00 Z" />
</g>
<g id="#000000ff">
<path fill="#000000" opacity="1.00" d=" M 960.00 96.00 C 970.66 96.02 981.33 96.01 992.01 95.99 C 992.00 373.33 992.00 650.66 992.01 928.00 C 981.33 927.99 970.66 927.99 960.00 928.00 C 959.98 938.66 959.99 949.32 960.00 960.00 C 949.32 959.99 938.66 959.99 928.00 960.00 C 927.99 970.66 927.99 981.32 928.00 992.00 C 650.67 992.00 373.33 991.99 96.00 992.01 C 95.99 981.33 96.00 970.66 96.00 960.00 C 85.33 959.98 74.67 959.99 64.00 960.00 C 63.99 949.32 64.00 938.66 64.00 928.00 C 53.33 927.99 42.67 927.99 32.00 928.00 C 32.02 917.33 32.01 906.66 32.00 896.00 C 42.63 895.99 53.26 895.99 63.89 896.00 C 64.03 906.67 64.17 917.36 64.60 928.04 C 75.03 927.99 85.47 927.98 95.90 927.99 C 95.86 938.32 95.63 948.67 96.19 959.01 C 101.39 959.91 106.70 959.88 111.97 960.09 C 373.65 959.89 635.32 960.04 897.00 960.01 C 907.34 959.95 917.69 959.83 928.04 959.42 C 927.99 948.97 927.98 938.53 927.99 928.10 C 938.32 928.13 948.67 928.36 959.01 927.81 C 961.04 910.96 959.84 893.92 960.02 877.00 C 959.97 616.67 960.02 356.33 960.00 96.00 Z" />
</g>
<g id="#ffffffff">
<path fill="#ffffff" opacity="1.00" d=" M 191.99 319.99 C 234.66 320.00 277.33 320.00 320.00 320.00 C 319.97 341.33 320.03 362.67 320.00 384.00 C 330.66 384.00 341.33 383.99 352.00 384.00 C 351.97 405.33 352.03 426.67 352.00 448.00 C 362.66 448.00 373.33 447.99 384.00 448.00 C 384.00 458.66 383.99 469.33 384.00 480.00 C 405.33 480.00 426.67 479.99 448.01 480.00 C 447.98 426.66 448.02 373.33 447.99 319.99 C 480.00 320.01 512.00 320.00 544.01 319.99 C 543.98 373.33 544.02 426.67 543.99 480.01 C 565.33 479.99 586.66 479.99 608.00 480.00 C 608.00 469.33 607.99 458.66 608.00 448.00 C 618.66 447.99 629.33 448.00 640.00 448.00 C 640.00 437.33 639.99 426.66 640.00 416.00 C 650.66 415.99 661.33 416.00 672.00 416.00 C 671.96 394.66 672.03 373.33 672.00 352.00 C 682.66 351.99 693.33 352.00 704.00 352.00 C 704.00 341.33 703.99 330.66 704.00 320.00 C 746.66 320.00 789.33 320.01 832.00 320.00 C 831.98 330.66 831.98 341.33 832.01 352.00 C 821.33 352.00 810.66 352.00 799.99 352.00 C 800.00 362.66 800.00 373.33 800.00 384.00 C 799.97 394.67 799.98 405.33 800.01 416.00 C 789.33 416.00 778.66 415.99 767.99 416.00 C 767.99 426.66 768.00 437.33 768.01 448.01 C 757.33 448.00 746.66 447.99 736.00 447.99 C 736.00 458.66 736.00 469.33 736.00 480.00 C 735.96 501.33 736.04 522.67 735.99 544.00 C 746.65 544.00 757.32 543.99 768.00 544.00 C 768.00 554.66 767.99 565.33 768.00 576.00 C 778.66 576.00 789.33 575.99 800.00 576.00 C 799.96 597.33 800.03 618.66 800.00 640.00 C 810.66 640.00 821.32 639.99 832.00 640.00 C 831.97 650.66 831.98 661.33 832.01 672.00 C 821.33 671.99 810.66 671.98 800.00 672.00 C 768.00 672.03 735.99 671.96 703.99 672.01 C 703.99 661.33 703.99 650.66 704.01 640.00 C 682.67 640.01 661.33 639.99 640.00 640.00 C 640.01 629.33 640.01 618.67 640.00 608.01 C 639.98 597.33 639.99 586.66 640.01 575.99 C 618.67 576.01 597.33 576.02 575.99 575.99 C 575.99 586.66 576.00 597.33 576.01 608.01 C 565.33 608.00 554.66 607.99 544.00 607.99 C 544.00 618.66 544.01 629.33 544.00 640.00 C 543.97 650.66 543.98 661.33 544.01 672.00 C 512.00 672.02 480.00 671.97 447.99 672.01 C 447.99 661.33 448.00 650.66 448.01 640.00 C 426.67 640.01 405.33 639.98 383.99 640.00 C 383.99 629.33 384.00 618.66 384.01 607.99 C 373.33 607.99 362.66 608.00 351.99 608.01 C 351.99 597.33 352.00 586.66 352.01 575.99 C 341.33 575.99 330.66 576.00 319.99 576.01 C 319.99 565.33 320.00 554.66 320.01 544.00 C 309.33 544.00 298.66 544.00 287.99 544.00 C 288.01 533.33 288.01 522.67 288.00 512.01 C 287.98 501.33 287.99 490.66 288.01 480.00 C 277.33 480.00 266.66 480.00 255.99 480.00 C 256.01 469.33 256.01 458.67 256.00 448.01 C 255.98 437.33 255.99 426.66 256.01 416.00 C 245.33 416.00 234.66 416.00 223.99 416.00 C 224.01 405.33 224.01 394.67 224.00 384.01 C 223.99 373.33 223.99 362.66 224.01 352.00 C 213.33 352.00 202.66 352.00 192.00 352.00 C 192.02 341.33 192.01 330.66 191.99 319.99 Z" />
</g>
</svg>
