<?xml version="1.0" encoding="UTF-8" ?>
<!DOCTYPE svg PUBLIC "-//W3C//DTD SVG 1.1//EN" "http://www.w3.org/Graphics/SVG/1.1/DTD/svg11.dtd">
<svg width="1024pt" height="1024pt" viewBox="0 0 1024 1024" version="1.1" xmlns="http://www.w3.org/2000/svg">
<g id="#c0c0c0ff">
<path fill="#c0c0c0" opacity="1.00" d=" M 608.01 96.01 C 618.66 95.97 629.32 95.97 639.98 96.01 C 640.01 106.67 640.02 117.34 639.99 128.00 C 629.32 128.01 618.66 128.00 608.01 128.00 C 607.98 117.33 607.96 106.67 608.01 96.01 Z" />
<path fill="#c0c0c0" opacity="1.00" d=" M 671.91 128.00 C 693.26 127.99 714.62 128.00 735.99 128.00 C 736.01 138.66 736.02 149.33 735.99 160.00 C 715.15 159.73 694.28 160.84 673.47 159.60 C 673.21 159.32 672.70 158.76 672.44 158.48 C 671.52 148.35 671.89 138.16 671.91 128.00 Z" />
<path fill="#c0c0c0" opacity="1.00" d=" M 768.00 160.01 C 789.32 159.99 810.65 160.01 831.98 160.00 C 832.01 170.67 832.02 181.34 831.99 192.01 C 821.32 191.99 810.66 191.98 800.00 192.00 C 789.33 192.02 778.67 192.01 768.01 191.99 C 767.98 181.33 767.97 170.67 768.00 160.01 Z" />
<path fill="#c0c0c0" opacity="1.00" d=" M 416.01 256.00 C 448.00 256.00 480.00 255.99 512.00 256.00 C 512.00 266.67 512.01 277.34 512.00 288.01 C 511.99 298.67 511.99 309.33 512.00 320.00 C 501.33 320.00 490.66 320.00 480.00 320.00 C 480.03 309.34 480.01 298.68 479.98 288.03 C 469.32 287.93 458.66 287.94 448.01 288.03 C 447.99 298.68 447.97 309.34 448.00 320.00 C 437.33 320.00 426.66 320.00 416.00 320.00 C 416.00 309.33 416.00 298.67 416.00 288.01 C 415.99 277.33 415.98 266.66 416.01 256.00 Z" />
<path fill="#c0c0c0" opacity="1.00" d=" M 320.01 287.99 C 341.34 288.02 362.67 287.98 384.00 288.00 C 384.00 298.67 384.00 309.33 384.00 320.00 C 373.33 319.96 362.67 319.98 352.02 320.02 C 351.97 330.68 351.97 341.34 352.00 352.01 C 341.33 351.99 330.66 351.98 320.00 351.94 C 320.00 341.29 320.00 330.65 320.00 320.01 C 319.99 309.33 319.98 298.66 320.01 287.99 Z" />
<path fill="#c0c0c0" opacity="1.00" d=" M 544.00 288.02 C 554.66 287.97 565.33 287.97 576.00 288.02 C 575.99 298.67 575.99 309.33 576.00 320.00 C 565.33 320.00 554.66 320.00 544.00 320.00 C 543.99 309.33 543.99 298.67 544.00 288.02 Z" />
<path fill="#c0c0c0" opacity="1.00" d=" M 384.00 320.00 C 394.66 320.00 405.33 319.99 416.00 320.00 C 416.00 330.66 416.00 341.33 416.00 352.00 C 405.33 352.00 394.66 352.00 384.00 352.00 C 384.00 341.33 384.00 330.67 384.00 320.00 Z" />
<path fill="#c0c0c0" opacity="1.00" d=" M 448.00 320.00 C 458.66 320.00 469.33 320.00 480.00 320.00 C 479.99 330.66 480.00 341.33 480.00 352.00 C 469.33 352.00 458.66 352.00 448.00 352.00 C 447.99 341.33 448.00 330.66 448.00 320.00 Z" />
<path fill="#c0c0c0" opacity="1.00" d=" M 512.00 320.00 C 522.66 320.00 533.33 320.00 544.00 320.00 C 543.99 330.66 543.99 341.33 544.00 352.00 C 533.33 352.00 522.66 352.00 512.00 352.00 C 511.99 341.33 512.00 330.66 512.00 320.00 Z" />
<path fill="#c0c0c0" opacity="1.00" d=" M 576.00 320.00 C 586.66 320.00 597.33 320.00 608.00 320.00 C 607.99 330.66 607.99 341.33 608.00 352.00 C 597.33 352.00 586.66 352.00 576.00 352.00 C 575.99 341.33 575.99 330.66 576.00 320.00 Z" />
<path fill="#c0c0c0" opacity="1.00" d=" M 289.49 352.41 C 299.63 351.54 309.83 351.90 320.00 351.94 C 320.00 362.62 320.00 373.31 320.00 384.01 C 309.31 383.99 298.62 383.98 287.94 383.94 C 287.90 373.79 287.54 363.61 288.41 353.49 C 288.68 353.22 289.22 352.68 289.49 352.41 Z" />
<path fill="#c0c0c0" opacity="1.00" d=" M 352.00 352.01 C 362.67 352.00 373.33 352.00 384.00 352.00 C 384.00 362.66 383.99 373.33 383.99 384.00 C 373.33 384.00 362.66 384.00 352.00 384.00 C 351.99 373.33 352.00 362.67 352.00 352.01 Z" />
<path fill="#c0c0c0" opacity="1.00" d=" M 416.00 352.00 C 426.66 352.00 437.33 352.00 448.00 352.00 C 448.00 362.66 447.99 373.33 448.00 384.00 C 437.33 384.00 426.66 384.00 416.00 384.00 C 416.00 373.33 415.99 362.66 416.00 352.00 Z" />
<path fill="#c0c0c0" opacity="1.00" d=" M 480.00 352.00 C 490.66 352.00 501.33 352.00 512.00 352.00 C 512.00 362.66 511.99 373.33 512.00 384.00 C 501.33 384.00 490.66 384.00 480.00 384.00 C 480.00 373.33 479.99 362.66 480.00 352.00 Z" />
<path fill="#c0c0c0" opacity="1.00" d=" M 544.00 352.00 C 554.66 352.00 565.33 352.00 576.00 352.00 C 575.99 362.66 576.00 373.33 576.01 384.00 C 565.33 384.00 554.66 384.00 544.00 384.00 C 543.99 373.33 543.99 362.66 544.00 352.00 Z" />
<path fill="#c0c0c0" opacity="1.00" d=" M 672.00 352.01 C 682.66 351.97 693.32 351.98 704.00 352.01 C 704.00 362.67 703.99 373.33 704.00 384.00 C 714.66 384.00 725.33 383.99 736.00 384.00 C 735.99 394.67 735.98 405.33 736.00 416.00 C 746.66 416.00 757.31 415.99 767.98 416.00 C 768.01 426.67 768.02 437.34 767.99 448.01 C 757.34 447.99 746.70 447.99 736.06 448.00 C 736.09 437.83 736.45 427.63 735.59 417.49 C 735.32 417.22 734.78 416.68 734.51 416.41 C 724.38 415.54 714.20 415.90 704.06 415.94 C 704.08 405.80 704.47 395.63 703.55 385.53 C 703.30 385.24 702.80 384.67 702.55 384.38 C 692.38 383.56 682.17 383.89 672.00 383.92 C 671.99 373.28 672.00 362.64 672.00 352.01 Z" />
<path fill="#c0c0c0" opacity="1.00" d=" M 257.49 384.41 C 267.61 383.54 277.79 383.90 287.94 383.94 C 287.98 394.62 287.99 405.31 288.01 416.01 C 277.31 415.99 266.63 415.98 255.94 415.94 C 255.90 405.79 255.54 395.61 256.41 385.49 C 256.68 385.22 257.22 384.68 257.49 384.41 Z" />
<path fill="#c0c0c0" opacity="1.00" d=" M 320.00 384.01 C 330.66 384.00 341.33 384.00 352.00 384.00 C 352.00 394.66 351.99 405.33 351.99 416.00 C 341.33 416.00 330.66 416.00 320.00 416.00 C 320.00 405.33 319.99 394.67 320.00 384.01 Z" />
<path fill="#c0c0c0" opacity="1.00" d=" M 383.99 384.00 C 394.66 384.00 405.33 384.00 416.00 384.00 C 416.00 394.66 416.00 405.33 416.00 416.00 C 405.35 416.00 394.70 416.00 384.06 416.00 C 384.01 405.33 384.00 394.66 383.99 384.00 Z" />
<path fill="#c0c0c0" opacity="1.00" d=" M 448.00 384.00 C 458.66 384.00 469.33 384.00 480.00 384.00 C 480.00 394.66 480.00 405.33 480.00 416.00 C 469.33 416.00 458.66 416.00 448.00 416.00 C 448.00 405.33 447.99 394.66 448.00 384.00 Z" />
<path fill="#c0c0c0" opacity="1.00" d=" M 512.00 384.00 C 522.66 384.00 533.33 384.00 544.00 384.00 C 543.99 394.66 543.99 405.33 544.00 416.00 C 533.33 416.00 522.66 416.00 512.00 416.00 C 511.99 405.33 511.99 394.66 512.00 384.00 Z" />
<path fill="#c0c0c0" opacity="1.00" d=" M 576.01 384.00 C 586.66 384.00 597.33 384.00 608.00 384.00 C 607.99 394.66 607.99 405.33 608.00 416.00 C 597.31 416.00 586.62 416.00 575.94 416.00 C 575.98 405.33 575.99 394.66 576.01 384.00 Z" />
<path fill="#c0c0c0" opacity="1.00" d=" M 225.49 416.41 C 235.61 415.54 245.79 415.90 255.94 415.94 C 255.98 426.62 255.99 437.31 256.01 448.00 C 245.31 448.00 234.63 448.00 223.94 448.00 C 223.90 437.83 223.54 427.63 224.41 417.49 C 224.68 417.22 225.22 416.68 225.49 416.41 Z" />
<path fill="#c0c0c0" opacity="1.00" d=" M 288.01 416.01 C 298.67 416.00 309.33 416.00 320.00 416.00 C 320.00 426.66 320.00 437.32 319.99 447.99 C 309.33 447.99 298.66 448.00 288.00 448.00 C 288.00 437.33 288.00 426.67 288.01 416.01 Z" />
<path fill="#c0c0c0" opacity="1.00" d=" M 351.99 416.00 C 362.68 416.00 373.37 416.00 384.06 416.00 C 384.09 426.16 384.45 436.36 383.59 446.51 C 383.32 446.78 382.78 447.32 382.51 447.59 C 372.38 448.45 362.21 448.09 352.06 448.06 C 352.01 437.37 352.00 426.68 351.99 416.00 Z" />
<path fill="#c0c0c0" opacity="1.00" d=" M 416.00 416.00 C 426.66 416.00 437.33 416.00 448.00 416.00 C 448.00 426.66 448.00 437.33 448.00 448.00 C 437.33 448.00 426.66 448.01 416.00 448.00 C 416.00 437.33 415.99 426.66 416.00 416.00 Z" />
<path fill="#c0c0c0" opacity="1.00" d=" M 480.00 416.00 C 490.66 416.00 501.33 416.00 512.00 416.00 C 511.99 426.66 511.99 437.33 512.00 448.00 C 501.33 447.98 490.66 448.00 480.00 448.00 C 479.99 437.33 480.00 426.66 480.00 416.00 Z" />
<path fill="#c0c0c0" opacity="1.00" d=" M 544.00 416.00 C 554.64 416.00 565.29 416.00 575.94 416.00 C 575.90 426.15 575.52 436.34 576.44 446.48 C 576.70 446.76 577.20 447.33 577.46 447.61 C 587.61 448.43 597.81 448.10 608.00 448.07 C 608.00 458.71 608.00 469.34 608.00 479.98 C 597.33 480.03 586.66 480.03 576.01 479.99 C 576.00 469.32 575.99 458.66 575.99 448.01 C 565.32 447.99 554.66 447.97 544.00 448.00 C 543.99 437.33 543.99 426.66 544.00 416.00 Z" />
<path fill="#c0c0c0" opacity="1.00" d=" M 672.00 416.01 C 682.68 415.99 693.37 415.98 704.06 415.94 C 704.01 426.62 704.00 437.31 703.99 448.00 C 693.32 448.00 682.66 448.00 672.00 448.00 C 672.00 437.33 671.99 426.67 672.00 416.01 Z" />
<path fill="#c0c0c0" opacity="1.00" d=" M 192.01 448.00 C 202.65 447.99 213.29 448.00 223.94 448.00 C 223.98 458.64 224.00 469.29 224.01 479.94 C 213.83 479.90 203.64 479.54 193.49 480.41 C 193.22 480.68 192.68 481.22 192.41 481.49 C 191.54 491.63 191.90 501.83 191.94 512.00 C 181.30 511.99 170.66 511.99 160.02 512.00 C 159.97 501.33 159.97 490.66 160.02 480.00 C 170.68 479.99 181.34 480.00 192.00 480.00 C 191.99 469.33 191.98 458.66 192.01 448.00 Z" />
<path fill="#c0c0c0" opacity="1.00" d=" M 256.01 448.00 C 266.67 448.00 277.33 448.00 288.00 448.00 C 288.00 458.66 288.00 469.32 288.00 479.99 C 277.33 479.99 266.66 480.00 256.00 480.01 C 256.00 469.33 256.00 458.66 256.01 448.00 Z" />
<path fill="#c0c0c0" opacity="1.00" d=" M 319.99 447.99 C 330.68 448.00 341.37 448.01 352.06 448.06 C 352.09 458.20 352.45 468.38 351.59 478.51 C 351.32 478.78 350.78 479.32 350.51 479.59 C 340.38 480.45 330.21 480.09 320.06 480.06 C 320.02 469.37 320.00 458.68 319.99 447.99 Z" />
<path fill="#c0c0c0" opacity="1.00" d=" M 703.99 448.00 C 714.68 448.00 725.36 448.00 736.06 448.00 C 736.01 458.66 735.99 469.33 735.99 480.00 C 725.32 479.99 714.66 480.00 704.00 480.00 C 703.99 469.33 703.99 458.66 703.99 448.00 Z" />
<path fill="#c0c0c0" opacity="1.00" d=" M 224.01 479.94 C 234.67 479.98 245.33 479.99 256.00 480.01 C 256.00 490.66 256.00 501.33 256.00 511.99 C 245.33 511.99 234.66 511.99 224.00 512.00 C 224.00 501.31 224.00 490.62 224.01 479.94 Z" />
<path fill="#c0c0c0" opacity="1.00" d=" M 288.00 479.99 C 298.68 480.00 309.37 480.01 320.06 480.06 C 320.09 490.20 320.45 500.38 319.59 510.51 C 319.32 510.78 318.78 511.32 318.51 511.59 C 308.36 512.45 298.16 512.09 288.00 512.06 C 288.00 501.37 288.00 490.68 288.00 479.99 Z" />
<path fill="#c0c0c0" opacity="1.00" d=" M 672.00 480.00 C 682.66 479.99 693.33 479.99 704.00 480.00 C 703.99 490.66 703.99 501.33 704.00 512.01 C 693.33 512.00 682.66 511.99 672.00 512.00 C 671.99 501.33 671.99 490.66 672.00 480.00 Z" />
<path fill="#c0c0c0" opacity="1.00" d=" M 735.99 480.00 C 746.65 480.00 757.32 480.00 768.00 480.00 C 767.98 490.66 767.99 501.32 768.00 511.99 C 778.66 511.99 789.32 512.00 799.99 512.01 C 800.00 522.67 800.01 533.33 800.00 544.00 C 789.35 543.99 778.70 543.99 768.06 544.00 C 768.09 533.83 768.45 523.63 767.59 513.49 C 767.32 513.22 766.78 512.68 766.51 512.41 C 756.36 511.54 746.16 511.90 736.00 511.94 C 735.99 501.29 735.99 490.64 735.99 480.00 Z" />
<path fill="#c0c0c0" opacity="1.00" d=" M 191.94 512.00 C 202.62 511.99 213.31 511.99 224.00 512.00 C 224.00 522.66 224.00 533.33 224.00 544.00 C 213.33 543.99 202.67 543.99 192.01 544.00 C 191.99 533.33 191.98 522.66 191.94 512.00 Z" />
<path fill="#c0c0c0" opacity="1.00" d=" M 256.00 511.99 C 266.66 512.00 277.33 512.01 288.00 512.06 C 288.00 522.70 288.00 533.35 288.00 544.00 C 277.33 543.99 266.66 543.99 256.00 544.00 C 256.00 533.33 256.00 522.66 256.00 511.99 Z" />
<path fill="#c0c0c0" opacity="1.00" d=" M 704.00 512.01 C 714.66 511.99 725.33 511.98 736.00 511.94 C 735.99 522.62 735.99 533.31 736.00 544.00 C 725.33 543.99 714.66 543.99 704.00 544.00 C 703.99 533.33 703.99 522.67 704.00 512.01 Z" />
<path fill="#c0c0c0" opacity="1.00" d=" M 160.02 544.00 C 170.68 543.99 181.34 543.99 192.01 544.00 C 192.00 554.66 192.00 565.33 192.00 576.00 C 181.34 575.99 170.67 575.99 160.01 576.00 C 159.97 565.33 159.97 554.66 160.02 544.00 Z" />
<path fill="#c0c0c0" opacity="1.00" d=" M 224.00 544.00 C 234.66 543.99 245.33 543.99 256.00 544.00 C 256.00 554.66 256.00 565.33 256.00 576.00 C 245.33 575.99 234.66 575.99 224.00 576.00 C 224.00 565.33 224.00 554.66 224.00 544.00 Z" />
<path fill="#c0c0c0" opacity="1.00" d=" M 288.00 544.00 C 298.66 543.99 309.33 543.99 320.00 544.00 C 320.02 554.66 320.00 565.33 320.00 576.00 C 309.33 575.99 298.66 575.99 288.00 576.00 C 288.00 565.33 288.00 554.66 288.00 544.00 Z" />
<path fill="#c0c0c0" opacity="1.00" d=" M 672.00 544.00 C 682.66 543.99 693.33 543.99 704.00 544.00 C 703.99 554.66 704.00 565.33 704.00 576.00 C 693.33 575.99 682.66 575.99 672.00 576.00 C 671.99 565.33 672.00 554.66 672.00 544.00 Z" />
<path fill="#c0c0c0" opacity="1.00" d=" M 736.00 544.00 C 746.68 543.99 757.37 543.99 768.06 544.00 C 768.01 554.66 767.99 565.33 767.99 576.00 C 757.32 575.99 746.66 575.99 736.00 576.00 C 735.99 565.33 735.99 554.66 736.00 544.00 Z" />
<path fill="#c0c0c0" opacity="1.00" d=" M 192.00 576.00 C 202.66 575.99 213.33 575.99 224.00 576.00 C 224.00 586.66 224.00 597.33 224.00 608.00 C 213.33 607.99 202.67 607.99 192.00 608.00 C 192.01 597.33 191.99 586.66 192.00 576.00 Z" />
<path fill="#c0c0c0" opacity="1.00" d=" M 256.00 576.00 C 266.66 575.99 277.33 575.99 288.00 576.00 C 288.00 586.66 288.00 597.33 288.00 608.00 C 277.33 607.99 266.66 607.99 256.00 608.00 C 256.00 597.33 256.00 586.66 256.00 576.00 Z" />
<path fill="#c0c0c0" opacity="1.00" d=" M 704.00 576.00 C 714.66 575.99 725.33 575.99 736.00 576.00 C 735.99 586.66 735.99 597.32 736.00 608.00 C 725.33 607.99 714.66 608.00 704.00 608.00 C 704.00 597.33 703.99 586.66 704.00 576.00 Z" />
<path fill="#c0c0c0" opacity="1.00" d=" M 767.99 576.00 C 778.65 575.99 789.32 575.99 800.00 576.00 C 800.00 597.33 800.00 618.66 800.00 640.00 C 789.32 639.99 778.66 639.99 768.00 640.00 C 757.33 640.00 746.66 639.98 736.00 640.00 C 736.00 629.32 735.99 618.66 736.00 608.00 C 746.65 608.03 757.31 608.02 767.98 607.98 C 768.01 597.32 768.03 586.66 767.99 576.00 Z" />
<path fill="#c0c0c0" opacity="1.00" d=" M 160.00 608.00 C 170.67 607.99 181.33 607.99 192.00 608.00 C 191.96 618.65 191.98 629.32 192.02 639.98 C 202.68 640.01 213.34 640.02 224.00 640.00 C 224.00 650.66 224.00 661.32 224.00 672.00 C 213.33 671.99 202.66 671.99 192.00 672.00 C 181.33 671.99 170.67 671.99 160.01 672.00 C 159.99 650.66 160.00 629.33 160.00 608.00 Z" />
<path fill="#c0c0c0" opacity="1.00" d=" M 224.00 608.00 C 234.66 607.99 245.33 607.99 256.00 608.00 C 256.00 618.66 256.00 629.33 256.00 640.00 C 245.33 640.00 234.66 639.99 224.00 640.00 C 224.00 629.32 224.00 618.66 224.00 608.00 Z" />
<path fill="#c0c0c0" opacity="1.00" d=" M 288.00 608.00 C 298.66 607.99 309.33 607.99 320.00 608.00 C 319.99 618.66 319.99 629.33 320.00 640.00 C 309.33 639.99 298.66 639.99 288.00 640.00 C 288.00 629.33 288.00 618.66 288.00 608.00 Z" />
<path fill="#c0c0c0" opacity="1.00" d=" M 672.00 608.00 C 682.66 607.99 693.33 607.99 704.00 608.00 C 703.96 618.66 703.97 629.32 704.02 639.98 C 714.67 640.02 725.33 640.03 736.00 640.00 C 735.96 650.65 735.98 661.31 736.02 671.98 C 746.67 672.02 757.33 672.02 768.00 671.99 C 768.00 682.66 767.99 693.32 768.00 704.00 C 757.35 703.99 746.70 703.99 736.06 704.00 C 736.08 693.82 736.45 683.63 735.59 673.49 C 735.32 673.22 734.78 672.68 734.51 672.41 C 724.38 671.53 714.21 671.90 704.07 671.94 C 704.14 661.33 704.57 650.64 702.98 640.13 C 692.65 639.64 682.32 639.91 672.00 639.86 C 671.99 629.23 671.99 618.61 672.00 608.00 Z" />
<path fill="#c0c0c0" opacity="1.00" d=" M 256.00 640.00 C 266.66 639.99 277.33 639.99 288.00 640.00 C 288.00 650.66 288.00 661.33 288.00 672.00 C 277.33 672.00 266.66 671.99 256.00 672.00 C 256.00 661.33 256.00 650.66 256.00 640.00 Z" />
<path fill="#c0c0c0" opacity="1.00" d=" M 224.00 672.00 C 234.66 671.99 245.33 671.99 256.00 672.00 C 256.00 682.66 256.00 693.33 256.00 704.00 C 245.33 703.99 234.67 703.99 224.00 704.00 C 224.01 693.33 223.99 682.66 224.00 672.00 Z" />
<path fill="#c0c0c0" opacity="1.00" d=" M 288.00 672.00 C 298.66 671.99 309.33 672.00 320.00 672.00 C 319.99 682.63 320.00 693.26 320.00 703.90 C 309.33 703.95 298.66 704.02 288.00 704.01 C 288.00 693.33 288.00 682.66 288.00 672.00 Z" />
<path fill="#c0c0c0" opacity="1.00" d=" M 672.02 672.03 C 682.69 671.97 693.38 671.94 704.07 671.94 C 704.01 682.62 703.99 693.31 703.99 704.01 C 693.32 703.99 682.66 703.97 672.00 703.94 C 671.96 693.30 671.97 682.66 672.02 672.03 Z" />
<path fill="#c0c0c0" opacity="1.00" d=" M 192.01 704.00 C 202.67 703.99 213.34 703.99 224.00 704.00 C 223.96 714.65 223.98 725.31 224.02 735.98 C 234.68 736.01 245.34 736.03 256.00 736.00 C 255.96 746.65 255.98 757.31 256.02 767.98 C 266.68 768.01 277.34 768.02 288.00 768.00 C 287.96 778.65 287.98 789.31 288.02 799.98 C 298.67 800.01 309.33 800.02 320.00 800.00 C 319.96 810.65 319.98 821.31 320.02 831.97 C 330.67 832.06 341.32 832.05 351.98 831.97 C 352.01 821.27 352.03 810.58 352.05 799.90 C 362.64 799.87 373.27 799.78 383.82 800.89 C 384.33 811.24 384.15 821.61 384.09 831.98 C 394.72 832.01 405.36 832.03 416.00 832.00 C 415.96 842.65 415.98 853.31 416.02 863.97 C 426.67 864.05 437.32 864.05 447.99 863.97 C 448.03 853.31 448.03 842.66 447.98 832.01 C 437.32 831.99 426.66 831.96 416.00 832.00 C 416.01 821.32 416.00 810.66 416.00 800.00 C 426.63 799.95 437.27 799.97 447.91 800.02 C 447.84 810.37 447.66 820.75 448.18 831.11 C 458.74 832.20 469.39 832.12 480.00 832.10 C 479.96 842.72 479.98 853.35 480.02 863.98 C 490.67 864.01 501.33 864.02 512.00 863.99 C 512.03 874.65 512.01 885.32 511.98 895.99 C 469.72 895.66 427.43 896.61 385.20 895.74 C 382.77 885.46 384.27 874.54 383.85 864.03 C 362.59 863.77 341.33 864.45 320.08 863.59 C 320.10 853.51 320.45 843.41 319.68 833.36 C 310.00 830.85 299.50 832.67 289.54 831.46 C 289.30 831.20 288.82 830.68 288.57 830.42 C 287.75 820.81 288.23 811.16 287.45 801.56 C 287.19 801.31 286.69 800.81 286.44 800.55 C 276.83 799.76 267.17 800.22 257.56 799.45 C 257.31 799.19 256.81 798.69 256.55 798.44 C 255.76 788.82 256.23 779.16 255.45 769.56 C 255.20 769.31 254.69 768.81 254.43 768.57 C 244.39 767.69 234.23 768.48 224.25 766.88 C 223.88 756.88 224.21 746.88 223.67 736.90 C 213.13 735.68 202.47 735.98 191.88 735.87 C 191.98 725.24 192.01 714.62 192.01 704.00 Z" />
<path fill="#c0c0c0" opacity="1.00" d=" M 256.00 704.00 C 266.66 703.99 277.33 703.99 288.00 704.01 C 288.00 714.64 288.00 725.29 288.00 735.94 C 277.33 735.98 266.67 735.98 256.00 736.00 C 256.01 725.33 256.00 714.66 256.00 704.00 Z" />
<path fill="#c0c0c0" opacity="1.00" d=" M 641.50 704.42 C 651.64 703.53 661.83 703.90 672.00 703.94 C 672.00 714.62 671.99 725.31 672.00 736.01 C 661.31 735.99 650.62 735.97 639.94 735.94 C 639.89 725.78 639.54 715.60 640.40 705.48 C 640.68 705.22 641.23 704.69 641.50 704.42 Z" />
<path fill="#c0c0c0" opacity="1.00" d=" M 703.99 704.01 C 714.68 703.99 725.36 703.99 736.06 704.00 C 736.05 714.65 736.01 725.32 735.97 735.98 C 725.30 736.01 714.65 736.02 704.00 736.00 C 703.99 725.32 703.99 714.66 703.99 704.01 Z" />
<path fill="#c0c0c0" opacity="1.00" d=" M 288.00 735.94 C 298.16 735.89 308.36 735.53 318.51 736.41 C 318.78 736.68 319.32 737.22 319.59 737.49 C 320.45 747.61 320.09 757.78 320.06 767.94 C 309.37 767.98 298.69 767.98 288.00 768.00 C 288.01 757.31 287.99 746.62 288.00 735.94 Z" />
<path fill="#c0c0c0" opacity="1.00" d=" M 609.49 736.41 C 619.61 735.54 629.78 735.90 639.94 735.94 C 639.98 746.62 639.99 757.31 640.01 768.01 C 629.31 767.99 618.62 767.97 607.94 767.94 C 607.90 757.78 607.54 747.61 608.41 737.49 C 608.68 737.22 609.22 736.68 609.49 736.41 Z" />
<path fill="#c0c0c0" opacity="1.00" d=" M 672.00 736.01 C 682.66 736.00 693.32 735.99 704.00 736.00 C 704.02 746.65 704.01 757.31 703.98 767.98 C 693.31 768.01 682.65 768.03 672.00 768.00 C 671.99 757.33 672.00 746.66 672.00 736.01 Z" />
<path fill="#c0c0c0" opacity="1.00" d=" M 320.06 767.94 C 330.19 767.90 340.36 767.51 350.48 768.44 C 350.76 768.70 351.33 769.20 351.62 769.46 C 352.43 779.57 352.09 789.74 352.05 799.90 C 341.36 800.00 330.68 799.98 320.00 800.00 C 320.01 789.31 320.01 778.62 320.06 767.94 Z" />
<path fill="#c0c0c0" opacity="1.00" d=" M 577.49 768.41 C 587.61 767.54 597.78 767.89 607.94 767.94 C 607.97 778.62 608.00 789.30 607.99 800.00 C 597.30 799.98 586.62 800.00 575.94 800.00 C 575.90 789.83 575.54 779.63 576.42 769.49 C 576.68 769.22 577.22 768.68 577.49 768.41 Z" />
<path fill="#c0c0c0" opacity="1.00" d=" M 640.01 768.01 C 650.66 768.00 661.33 767.98 672.00 768.00 C 672.02 778.65 672.01 789.31 671.98 799.98 C 661.31 800.01 650.65 800.03 640.00 800.00 C 639.99 789.33 640.00 778.66 640.01 768.01 Z" />
<path fill="#c0c0c0" opacity="1.00" d=" M 480.00 800.03 C 490.66 799.94 501.32 799.93 511.98 800.03 C 512.01 810.67 512.03 821.33 512.00 831.99 C 501.33 832.00 490.66 831.99 480.00 832.10 C 479.98 821.40 479.98 810.71 480.00 800.03 Z" />
<path fill="#c0c0c0" opacity="1.00" d=" M 544.02 800.02 C 554.65 799.97 565.29 799.96 575.94 800.00 C 575.97 810.66 576.00 821.33 576.01 832.00 C 565.33 831.99 554.66 831.99 544.00 832.00 C 543.96 821.33 543.97 810.67 544.02 800.02 Z" />
<path fill="#c0c0c0" opacity="1.00" d=" M 607.99 800.00 C 618.65 800.00 629.32 799.98 640.00 800.00 C 640.02 810.65 640.02 821.31 639.98 831.98 C 629.35 832.01 618.72 832.03 608.09 832.00 C 608.02 821.32 608.01 810.66 607.99 800.00 Z" />
<path fill="#c0c0c0" opacity="1.00" d=" M 512.00 831.99 C 522.66 831.99 533.33 831.99 544.00 832.00 C 544.03 842.65 544.01 853.31 543.98 863.98 C 533.31 864.01 522.65 864.02 512.00 863.99 C 511.99 853.32 511.99 842.65 512.00 831.99 Z" />
<path fill="#c0c0c0" opacity="1.00" d=" M 576.01 832.00 C 586.70 832.00 597.39 831.98 608.09 832.00 C 607.85 842.58 608.57 853.27 607.05 863.80 C 596.71 864.43 586.35 864.13 576.02 864.07 C 575.98 853.37 575.96 842.68 576.01 832.00 Z" />
</g>
<g id="#ff0000ff">
<path fill="#ff0000" opacity="1.00" d=" M 608.01 128.00 C 618.66 128.00 629.32 128.01 639.99 128.00 C 650.62 127.99 661.26 127.99 671.91 128.00 C 671.89 138.16 671.52 148.35 672.44 158.48 C 672.70 158.76 673.21 159.32 673.47 159.60 C 694.28 160.84 715.15 159.73 735.99 160.00 C 746.65 159.98 757.32 159.99 768.00 160.01 C 767.97 170.67 767.98 181.33 768.01 191.99 C 778.67 192.01 789.33 192.02 800.00 192.00 C 799.99 234.66 800.01 277.32 800.00 319.98 C 789.32 320.04 778.66 320.03 768.00 319.98 C 768.00 309.31 767.99 298.65 767.99 287.99 C 736.00 288.03 704.00 287.98 672.01 288.00 C 671.99 277.34 671.99 266.68 671.99 256.01 C 661.32 255.96 650.66 255.96 640.00 256.02 C 640.00 384.01 640.00 512.00 640.00 640.00 C 629.33 639.99 618.67 640.00 608.02 640.01 C 607.92 661.33 608.07 682.66 607.99 704.00 C 597.32 703.99 586.66 704.00 576.00 704.01 C 576.00 714.66 575.99 725.33 575.99 736.00 C 512.00 736.00 448.00 736.01 384.00 735.99 C 384.00 725.32 384.00 714.66 383.99 704.00 C 373.33 704.00 362.66 703.99 352.00 703.99 C 352.00 693.32 352.00 682.66 351.99 672.01 C 341.33 671.98 330.66 671.97 320.00 672.00 C 320.00 661.33 320.00 650.66 320.00 640.00 C 319.99 629.33 319.99 618.66 320.00 608.00 C 320.00 597.33 319.99 586.66 320.00 576.00 C 320.00 565.33 320.02 554.66 320.00 544.00 C 319.97 533.33 319.99 522.67 320.01 512.01 C 330.67 512.00 341.33 512.00 352.00 511.99 C 351.99 501.32 352.00 490.66 352.01 480.00 C 362.67 480.00 373.33 480.00 384.00 479.99 C 383.99 469.33 384.00 458.66 384.01 448.00 C 394.67 447.99 405.33 447.98 416.00 448.00 C 426.66 448.01 437.33 448.00 448.00 448.00 C 458.66 447.99 469.33 448.00 480.00 448.00 C 490.66 448.00 501.33 447.98 512.00 448.00 C 522.66 448.00 533.33 448.02 544.00 448.00 C 554.66 447.97 565.32 447.99 575.99 448.01 C 575.99 458.66 576.00 469.32 576.01 479.99 C 586.66 480.03 597.33 480.03 608.00 479.98 C 608.00 469.34 608.00 458.71 608.00 448.07 C 607.98 437.38 607.99 426.69 608.00 416.00 C 607.99 405.33 607.99 394.66 608.00 384.00 C 607.99 373.33 607.99 362.66 608.00 352.00 C 607.99 341.33 607.99 330.66 608.00 320.00 C 608.00 309.33 608.00 298.67 608.00 288.01 C 608.00 234.67 607.99 181.33 608.01 128.00 M 640.01 160.02 C 639.96 170.68 639.97 181.33 640.02 191.99 C 650.67 192.03 661.32 192.02 671.99 191.98 C 672.03 181.32 672.02 170.67 671.98 160.01 C 661.32 159.97 650.66 159.97 640.01 160.02 M 416.01 480.01 C 415.98 490.67 415.98 501.33 416.00 512.00 C 426.66 512.01 437.32 512.01 447.99 511.98 C 448.03 501.32 448.02 490.66 447.98 480.01 C 437.32 479.97 426.66 479.97 416.01 480.01 M 384.01 512.02 C 383.96 522.67 383.97 533.32 384.02 543.99 C 394.67 544.02 405.33 544.02 415.99 543.99 C 416.01 533.32 416.01 522.66 416.00 512.00 C 405.33 511.97 394.67 511.98 384.01 512.02 Z" />
</g>
<g id="#ffffffff">
<path fill="#ffffff" opacity="1.00" d=" M 640.01 160.02 C 650.66 159.97 661.32 159.97 671.98 160.01 C 672.02 170.67 672.03 181.32 671.99 191.98 C 661.32 192.02 650.67 192.03 640.02 191.99 C 639.97 181.33 639.96 170.68 640.01 160.02 Z" />
<path fill="#ffffff" opacity="1.00" d=" M 416.01 480.01 C 426.66 479.97 437.32 479.97 447.98 480.01 C 448.02 490.66 448.03 501.32 447.99 511.98 C 437.32 512.01 426.66 512.01 416.00 512.00 C 415.98 501.33 415.98 490.67 416.01 480.01 Z" />
<path fill="#ffffff" opacity="1.00" d=" M 384.01 512.02 C 394.67 511.98 405.33 511.97 416.00 512.00 C 416.01 522.66 416.01 533.32 415.99 543.99 C 405.33 544.02 394.67 544.02 384.02 543.99 C 383.97 533.32 383.96 522.67 384.01 512.02 Z" />
</g>
<g id="#000000ff">
<path fill="#000000" opacity="1.00" d=" M 800.00 192.00 C 810.66 191.98 821.32 191.99 831.99 192.01 C 832.01 245.34 831.99 298.67 832.00 352.00 C 800.00 351.99 768.00 352.00 736.00 352.00 C 735.99 341.33 736.00 330.66 736.00 319.99 C 714.66 320.01 693.33 319.99 672.00 320.00 C 671.99 330.67 671.99 341.34 672.00 352.01 C 672.00 362.64 671.99 373.28 672.00 383.92 C 672.00 394.61 672.00 405.31 672.00 416.01 C 671.99 426.67 672.00 437.33 672.00 448.00 C 671.99 458.66 671.99 469.33 672.00 480.00 C 671.99 490.66 671.99 501.33 672.00 512.00 C 672.00 522.66 671.99 533.33 672.00 544.00 C 672.00 554.66 671.99 565.33 672.00 576.00 C 671.99 586.66 671.99 597.33 672.00 608.00 C 671.99 618.61 671.99 629.23 672.00 639.86 C 661.68 639.93 651.36 639.61 641.06 640.14 C 638.49 661.26 640.53 682.66 640.02 703.91 C 629.66 703.86 619.29 703.61 608.95 704.19 C 607.52 714.69 608.03 725.33 607.80 735.90 C 597.51 735.87 587.22 735.63 576.95 736.18 C 575.52 746.71 576.04 757.38 575.80 767.99 C 512.20 767.79 448.60 768.39 385.02 767.79 C 383.49 757.37 384.98 746.63 382.71 736.34 C 372.56 735.80 362.32 736.49 352.25 734.88 C 351.87 724.88 352.21 714.88 351.67 704.90 C 341.17 703.66 330.55 704.00 320.00 703.90 C 320.00 693.26 319.99 682.63 320.00 672.00 C 330.66 671.97 341.33 671.98 351.99 672.01 C 352.00 682.66 352.00 693.32 352.00 703.99 C 362.66 703.99 373.33 704.00 383.99 704.00 C 384.00 714.66 384.00 725.32 384.00 735.99 C 448.00 736.01 512.00 736.00 575.99 736.00 C 575.99 725.33 576.00 714.66 576.00 704.01 C 586.66 704.00 597.32 703.99 607.99 704.00 C 608.07 682.66 607.92 661.33 608.02 640.01 C 618.67 640.00 629.33 639.99 640.00 640.00 C 640.00 512.00 640.00 384.01 640.00 256.02 C 650.66 255.96 661.32 255.96 671.99 256.01 C 671.99 266.68 671.99 277.34 672.01 288.00 C 704.00 287.98 736.00 288.03 767.99 287.99 C 767.99 298.65 768.00 309.31 768.00 319.98 C 778.66 320.03 789.32 320.04 800.00 319.98 C 800.01 277.32 799.99 234.66 800.00 192.00 Z" />
<path fill="#000000" opacity="1.00" d=" M 767.99 448.01 C 778.67 447.97 789.36 447.98 800.06 448.01 C 800.15 469.35 799.45 490.73 800.50 512.05 C 810.99 511.95 821.49 511.96 832.00 512.02 C 832.00 576.02 832.00 640.01 832.00 704.00 C 821.32 703.99 810.66 703.98 800.01 704.00 C 799.98 736.00 800.02 768.00 799.99 800.00 C 789.32 799.99 778.66 799.99 768.00 800.00 C 767.99 810.66 768.00 821.33 768.00 832.00 C 757.32 831.99 746.66 831.98 736.00 832.00 C 735.99 842.66 736.00 853.33 736.00 864.00 C 725.32 863.99 714.66 863.98 704.00 864.00 C 703.99 874.66 704.00 885.32 704.00 895.99 C 682.66 896.03 661.33 895.97 640.00 896.00 C 639.99 906.66 640.00 917.32 640.00 927.99 C 618.66 928.02 597.33 927.97 576.00 928.00 C 575.99 938.66 576.00 949.32 576.00 960.00 C 501.33 960.00 426.67 960.00 352.00 960.00 C 351.99 949.33 352.00 938.66 352.00 928.01 C 330.66 927.97 309.33 928.02 288.00 928.00 C 287.99 917.32 288.00 906.66 288.00 896.00 C 277.33 895.99 266.66 896.00 256.00 896.00 C 256.00 885.32 256.01 874.66 256.00 864.00 C 245.33 863.99 234.66 864.00 224.00 864.00 C 224.00 853.32 224.01 842.66 224.00 832.00 C 213.33 831.99 202.67 832.00 192.01 832.00 C 191.97 810.66 192.02 789.33 192.00 768.00 C 181.33 767.99 170.66 768.00 160.00 768.00 C 160.01 746.66 159.98 725.33 160.00 704.00 C 170.67 703.99 181.34 703.99 192.01 704.00 C 192.01 714.62 191.98 725.24 191.88 735.87 C 191.92 746.51 191.76 757.20 192.89 767.81 C 203.25 768.33 213.62 768.14 223.99 768.09 C 224.00 778.71 224.00 789.35 224.01 800.00 C 234.67 799.99 245.33 799.99 256.00 800.01 C 255.99 810.66 256.00 821.32 256.01 832.00 C 266.67 831.99 277.33 831.99 288.00 832.01 C 287.99 842.66 288.00 853.32 288.01 864.00 C 298.67 863.99 309.33 863.99 320.00 864.01 C 319.99 874.66 320.00 885.32 320.01 895.98 C 341.33 896.08 362.66 895.92 384.00 896.01 C 383.99 906.66 384.00 917.33 384.01 928.00 C 437.33 927.99 490.66 928.01 543.99 927.99 C 543.99 917.32 543.99 906.67 544.01 896.02 C 565.33 895.91 586.66 896.07 608.00 895.99 C 607.99 885.32 608.00 874.67 608.01 864.02 C 629.33 863.91 650.66 864.07 672.00 863.99 C 671.99 853.32 672.00 842.66 672.01 832.00 C 682.66 831.99 693.33 831.99 704.00 831.99 C 703.99 821.32 703.99 810.66 704.01 800.00 C 714.66 800.00 725.33 799.99 736.00 799.99 C 735.99 789.32 735.99 778.66 736.01 768.00 C 746.66 768.00 757.33 767.99 768.00 767.99 C 768.02 746.66 767.98 725.33 768.00 704.00 C 767.99 693.32 768.00 682.66 768.00 671.99 C 778.65 672.02 789.31 672.01 799.99 671.98 C 800.02 661.31 800.01 650.65 800.00 640.00 C 800.00 618.66 800.00 597.33 800.00 576.00 C 799.99 565.33 799.98 554.66 800.00 544.00 C 800.01 533.33 800.00 522.67 799.99 512.01 C 789.32 512.00 778.66 511.99 768.00 511.99 C 767.99 501.32 767.98 490.66 768.00 480.00 C 768.01 469.33 768.00 458.67 767.99 448.01 Z" />
</g>
<g id="#ffff00ff">
<path fill="#ffff00" opacity="1.00" d=" M 384.00 288.00 C 394.66 287.99 405.33 287.98 416.00 288.01 C 416.00 298.67 416.00 309.33 416.00 320.00 C 405.33 319.99 394.66 320.00 384.00 320.00 C 384.00 309.33 384.00 298.67 384.00 288.00 Z" />
<path fill="#ffff00" opacity="1.00" d=" M 448.01 288.03 C 458.66 287.94 469.32 287.93 479.98 288.03 C 480.01 298.68 480.03 309.34 480.00 320.00 C 469.33 320.00 458.66 320.00 448.00 320.00 C 447.97 309.34 447.99 298.68 448.01 288.03 Z" />
<path fill="#ffff00" opacity="1.00" d=" M 512.00 288.01 C 522.66 287.97 533.33 287.98 544.00 288.02 C 543.99 298.67 543.99 309.33 544.00 320.00 C 533.33 320.00 522.66 320.00 512.00 320.00 C 511.99 309.33 511.99 298.67 512.00 288.01 Z" />
<path fill="#ffff00" opacity="1.00" d=" M 576.00 288.02 C 586.66 287.98 597.33 287.97 608.00 288.01 C 608.00 298.67 608.00 309.33 608.00 320.00 C 597.33 320.00 586.66 320.00 576.00 320.00 C 575.99 309.33 575.99 298.67 576.00 288.02 Z" />
<path fill="#ffff00" opacity="1.00" d=" M 288.00 320.02 C 298.67 319.98 309.33 319.97 320.00 320.01 C 320.00 330.65 320.00 341.29 320.00 351.94 C 309.83 351.90 299.63 351.54 289.49 352.41 C 289.22 352.68 288.68 353.22 288.41 353.49 C 287.54 363.61 287.90 373.79 287.94 383.94 C 277.79 383.90 267.61 383.54 257.49 384.41 C 257.22 384.68 256.68 385.22 256.41 385.49 C 255.54 395.61 255.90 405.79 255.94 415.94 C 245.79 415.90 235.61 415.54 225.49 416.41 C 225.22 416.68 224.68 417.22 224.41 417.49 C 223.54 427.63 223.90 437.83 223.94 448.00 C 213.29 448.00 202.65 447.99 192.01 448.00 C 191.98 437.33 191.97 426.66 192.01 416.00 C 202.67 415.99 213.34 416.00 224.00 416.00 C 224.00 405.33 223.99 394.66 224.00 384.00 C 234.67 383.99 245.33 384.00 256.00 384.00 C 256.00 373.33 255.99 362.66 256.00 352.00 C 266.67 352.00 277.33 352.00 288.00 352.00 C 288.00 341.33 287.99 330.67 288.00 320.02 Z" />
<path fill="#ffff00" opacity="1.00" d=" M 352.02 320.02 C 362.67 319.98 373.33 319.96 384.00 320.00 C 384.00 330.67 384.00 341.33 384.00 352.00 C 373.33 352.00 362.67 352.00 352.00 352.01 C 351.97 341.34 351.97 330.68 352.02 320.02 Z" />
<path fill="#ffff00" opacity="1.00" d=" M 416.00 320.00 C 426.66 320.00 437.33 320.00 448.00 320.00 C 448.00 330.66 447.99 341.33 448.00 352.00 C 437.33 352.00 426.66 352.00 416.00 352.00 C 416.00 341.33 416.00 330.66 416.00 320.00 Z" />
<path fill="#ffff00" opacity="1.00" d=" M 480.00 320.00 C 490.66 320.00 501.33 320.00 512.00 320.00 C 512.00 330.66 511.99 341.33 512.00 352.00 C 501.33 352.00 490.66 352.00 480.00 352.00 C 480.00 341.33 479.99 330.66 480.00 320.00 Z" />
<path fill="#ffff00" opacity="1.00" d=" M 544.00 320.00 C 554.66 320.00 565.33 320.00 576.00 320.00 C 575.99 330.66 575.99 341.33 576.00 352.00 C 565.33 352.00 554.66 352.00 544.00 352.00 C 543.99 341.33 543.99 330.66 544.00 320.00 Z" />
<path fill="#ffff00" opacity="1.00" d=" M 320.00 351.94 C 330.66 351.98 341.33 351.99 352.00 352.01 C 352.00 362.67 351.99 373.33 352.00 384.00 C 341.33 384.00 330.66 384.00 320.00 384.01 C 320.00 373.31 320.00 362.62 320.00 351.94 Z" />
<path fill="#ffff00" opacity="1.00" d=" M 384.00 352.00 C 394.66 352.00 405.33 352.00 416.00 352.00 C 415.99 362.66 416.00 373.33 416.00 384.00 C 405.33 384.00 394.66 384.00 383.99 384.00 C 383.99 373.33 384.00 362.66 384.00 352.00 Z" />
<path fill="#ffff00" opacity="1.00" d=" M 448.00 352.00 C 458.66 352.00 469.33 352.00 480.00 352.00 C 479.99 362.66 480.00 373.33 480.00 384.00 C 469.33 384.00 458.66 384.00 448.00 384.00 C 447.99 373.33 448.00 362.66 448.00 352.00 Z" />
<path fill="#ffff00" opacity="1.00" d=" M 512.00 352.00 C 522.66 352.00 533.33 352.00 544.00 352.00 C 543.99 362.66 543.99 373.33 544.00 384.00 C 533.33 384.00 522.66 384.00 512.00 384.00 C 511.99 373.33 512.00 362.66 512.00 352.00 Z" />
<path fill="#ffff00" opacity="1.00" d=" M 576.00 352.00 C 586.66 352.00 597.33 352.00 608.00 352.00 C 607.99 362.66 607.99 373.33 608.00 384.00 C 597.33 384.00 586.66 384.00 576.01 384.00 C 576.00 373.33 575.99 362.66 576.00 352.00 Z" />
<path fill="#ffff00" opacity="1.00" d=" M 287.94 383.94 C 298.62 383.98 309.31 383.99 320.00 384.01 C 319.99 394.67 320.00 405.33 320.00 416.00 C 309.33 416.00 298.67 416.00 288.01 416.01 C 287.99 405.31 287.98 394.62 287.94 383.94 Z" />
<path fill="#ffff00" opacity="1.00" d=" M 352.00 384.00 C 362.66 384.00 373.33 384.00 383.99 384.00 C 384.00 394.66 384.01 405.33 384.06 416.00 C 373.37 416.00 362.68 416.00 351.99 416.00 C 351.99 405.33 352.00 394.66 352.00 384.00 Z" />
<path fill="#ffff00" opacity="1.00" d=" M 416.00 384.00 C 426.66 384.00 437.33 384.00 448.00 384.00 C 447.99 394.66 448.00 405.33 448.00 416.00 C 437.33 416.00 426.66 416.00 416.00 416.00 C 416.00 405.33 416.00 394.66 416.00 384.00 Z" />
<path fill="#ffff00" opacity="1.00" d=" M 480.00 384.00 C 490.66 384.00 501.33 384.00 512.00 384.00 C 511.99 394.66 511.99 405.33 512.00 416.00 C 501.33 416.00 490.66 416.00 480.00 416.00 C 480.00 405.33 480.00 394.66 480.00 384.00 Z" />
<path fill="#ffff00" opacity="1.00" d=" M 544.00 384.00 C 554.66 384.00 565.33 384.00 576.01 384.00 C 575.99 394.66 575.98 405.33 575.94 416.00 C 565.29 416.00 554.64 416.00 544.00 416.00 C 543.99 405.33 543.99 394.66 544.00 384.00 Z" />
<path fill="#ffff00" opacity="1.00" d=" M 672.00 383.92 C 682.17 383.89 692.38 383.56 702.55 384.38 C 702.80 384.67 703.30 385.24 703.55 385.53 C 704.47 395.63 704.08 405.80 704.06 415.94 C 693.37 415.98 682.68 415.99 672.00 416.01 C 672.00 405.31 672.00 394.61 672.00 383.92 Z" />
<path fill="#ffff00" opacity="1.00" d=" M 255.94 415.94 C 266.63 415.98 277.31 415.99 288.01 416.01 C 288.00 426.67 288.00 437.33 288.00 448.00 C 277.33 448.00 266.67 448.00 256.01 448.00 C 255.99 437.31 255.98 426.62 255.94 415.94 Z" />
<path fill="#ffff00" opacity="1.00" d=" M 320.00 416.00 C 330.66 416.00 341.33 416.00 351.99 416.00 C 352.00 426.68 352.01 437.37 352.06 448.06 C 341.37 448.01 330.68 448.00 319.99 447.99 C 320.00 437.32 320.00 426.66 320.00 416.00 Z" />
<path fill="#ffff00" opacity="1.00" d=" M 384.06 416.00 C 394.70 416.00 405.35 416.00 416.00 416.00 C 415.99 426.66 416.00 437.33 416.00 448.00 C 405.33 447.98 394.67 447.99 384.01 448.00 C 384.00 458.66 383.99 469.33 384.00 479.99 C 373.33 480.00 362.67 480.00 352.01 480.00 C 352.00 490.66 351.99 501.32 352.00 511.99 C 341.33 512.00 330.67 512.00 320.01 512.01 C 319.99 522.67 319.97 533.33 320.00 544.00 C 309.33 543.99 298.66 543.99 288.00 544.00 C 288.00 533.35 288.00 522.70 288.00 512.06 C 298.16 512.09 308.36 512.45 318.51 511.59 C 318.78 511.32 319.32 510.78 319.59 510.51 C 320.45 500.38 320.09 490.20 320.06 480.06 C 330.21 480.09 340.38 480.45 350.51 479.59 C 350.78 479.32 351.32 478.78 351.59 478.51 C 352.45 468.38 352.09 458.20 352.06 448.06 C 362.21 448.09 372.38 448.45 382.51 447.59 C 382.78 447.32 383.32 446.78 383.59 446.51 C 384.45 436.36 384.09 426.16 384.06 416.00 Z" />
<path fill="#ffff00" opacity="1.00" d=" M 448.00 416.00 C 458.66 416.00 469.33 416.00 480.00 416.00 C 480.00 426.66 479.99 437.33 480.00 448.00 C 469.33 448.00 458.66 447.99 448.00 448.00 C 448.00 437.33 448.00 426.66 448.00 416.00 Z" />
<path fill="#ffff00" opacity="1.00" d=" M 512.00 416.00 C 522.66 416.00 533.33 416.00 544.00 416.00 C 543.99 426.66 543.99 437.33 544.00 448.00 C 533.33 448.02 522.66 448.00 512.00 448.00 C 511.99 437.33 511.99 426.66 512.00 416.00 Z" />
<path fill="#ffff00" opacity="1.00" d=" M 575.94 416.00 C 586.62 416.00 597.31 416.00 608.00 416.00 C 607.99 426.69 607.98 437.38 608.00 448.07 C 597.81 448.10 587.61 448.43 577.46 447.61 C 577.20 447.33 576.70 446.76 576.44 446.48 C 575.52 436.34 575.90 426.15 575.94 416.00 Z" />
<path fill="#ffff00" opacity="1.00" d=" M 704.06 415.94 C 714.20 415.90 724.38 415.54 734.51 416.41 C 734.78 416.68 735.32 417.22 735.59 417.49 C 736.45 427.63 736.09 437.83 736.06 448.00 C 725.36 448.00 714.68 448.00 703.99 448.00 C 704.00 437.31 704.01 426.62 704.06 415.94 Z" />
<path fill="#ffff00" opacity="1.00" d=" M 223.94 448.00 C 234.63 448.00 245.31 448.00 256.01 448.00 C 256.00 458.66 256.00 469.33 256.00 480.01 C 245.33 479.99 234.67 479.98 224.01 479.94 C 224.00 469.29 223.98 458.64 223.94 448.00 Z" />
<path fill="#ffff00" opacity="1.00" d=" M 288.00 448.00 C 298.66 448.00 309.33 447.99 319.99 447.99 C 320.00 458.68 320.02 469.37 320.06 480.06 C 309.37 480.01 298.68 480.00 288.00 479.99 C 288.00 469.32 288.00 458.66 288.00 448.00 Z" />
<path fill="#ffff00" opacity="1.00" d=" M 672.00 448.00 C 682.66 448.00 693.32 448.00 703.99 448.00 C 703.99 458.66 703.99 469.33 704.00 480.00 C 693.33 479.99 682.66 479.99 672.00 480.00 C 671.99 469.33 671.99 458.66 672.00 448.00 Z" />
<path fill="#ffff00" opacity="1.00" d=" M 736.06 448.00 C 746.70 447.99 757.34 447.99 767.99 448.01 C 768.00 458.67 768.01 469.33 768.00 480.00 C 757.32 480.00 746.65 480.00 735.99 480.00 C 735.99 469.33 736.01 458.66 736.06 448.00 Z" />
<path fill="#ffff00" opacity="1.00" d=" M 193.49 480.41 C 203.64 479.54 213.83 479.90 224.01 479.94 C 224.00 490.62 224.00 501.31 224.00 512.00 C 213.31 511.99 202.62 511.99 191.94 512.00 C 191.90 501.83 191.54 491.63 192.41 481.49 C 192.68 481.22 193.22 480.68 193.49 480.41 Z" />
<path fill="#ffff00" opacity="1.00" d=" M 256.00 480.01 C 266.66 480.00 277.33 479.99 288.00 479.99 C 288.00 490.68 288.00 501.37 288.00 512.06 C 277.33 512.01 266.66 512.00 256.00 511.99 C 256.00 501.33 256.00 490.66 256.00 480.01 Z" />
<path fill="#ffff00" opacity="1.00" d=" M 704.00 480.00 C 714.66 480.00 725.32 479.99 735.99 480.00 C 735.99 490.64 735.99 501.29 736.00 511.94 C 725.33 511.98 714.66 511.99 704.00 512.01 C 703.99 501.33 703.99 490.66 704.00 480.00 Z" />
<path fill="#ffff00" opacity="1.00" d=" M 160.02 512.00 C 170.66 511.99 181.30 511.99 191.94 512.00 C 191.98 522.66 191.99 533.33 192.01 544.00 C 181.34 543.99 170.68 543.99 160.02 544.00 C 159.97 533.33 159.97 522.66 160.02 512.00 Z" />
<path fill="#ffff00" opacity="1.00" d=" M 224.00 512.00 C 234.66 511.99 245.33 511.99 256.00 511.99 C 256.00 522.66 256.00 533.33 256.00 544.00 C 245.33 543.99 234.66 543.99 224.00 544.00 C 224.00 533.33 224.00 522.66 224.00 512.00 Z" />
<path fill="#ffff00" opacity="1.00" d=" M 672.00 512.00 C 682.66 511.99 693.33 512.00 704.00 512.01 C 703.99 522.67 703.99 533.33 704.00 544.00 C 693.33 543.99 682.66 543.99 672.00 544.00 C 671.99 533.33 672.00 522.66 672.00 512.00 Z" />
<path fill="#ffff00" opacity="1.00" d=" M 736.00 511.94 C 746.16 511.90 756.36 511.54 766.51 512.41 C 766.78 512.68 767.32 513.22 767.59 513.49 C 768.45 523.63 768.09 533.83 768.06 544.00 C 757.37 543.99 746.68 543.99 736.00 544.00 C 735.99 533.31 735.99 522.62 736.00 511.94 Z" />
<path fill="#ffff00" opacity="1.00" d=" M 192.01 544.00 C 202.67 543.99 213.33 543.99 224.00 544.00 C 224.00 554.66 224.00 565.33 224.00 576.00 C 213.33 575.99 202.66 575.99 192.00 576.00 C 192.00 565.33 192.00 554.66 192.01 544.00 Z" />
<path fill="#ffff00" opacity="1.00" d=" M 256.00 544.00 C 266.66 543.99 277.33 543.99 288.00 544.00 C 288.00 554.66 288.00 565.33 288.00 576.00 C 277.33 575.99 266.66 575.99 256.00 576.00 C 256.00 565.33 256.00 554.66 256.00 544.00 Z" />
<path fill="#ffff00" opacity="1.00" d=" M 704.00 544.00 C 714.66 543.99 725.33 543.99 736.00 544.00 C 735.99 554.66 735.99 565.33 736.00 576.00 C 725.33 575.99 714.66 575.99 704.00 576.00 C 704.00 565.33 703.99 554.66 704.00 544.00 Z" />
<path fill="#ffff00" opacity="1.00" d=" M 768.06 544.00 C 778.70 543.99 789.35 543.99 800.00 544.00 C 799.98 554.66 799.99 565.33 800.00 576.00 C 789.32 575.99 778.65 575.99 767.99 576.00 C 767.99 565.33 768.01 554.66 768.06 544.00 Z" />
<path fill="#ffff00" opacity="1.00" d=" M 160.01 576.00 C 170.67 575.99 181.34 575.99 192.00 576.00 C 191.99 586.66 192.01 597.33 192.00 608.00 C 181.33 607.99 170.67 607.99 160.00 608.00 C 159.99 597.33 159.97 586.66 160.01 576.00 Z" />
<path fill="#ffff00" opacity="1.00" d=" M 224.00 576.00 C 234.66 575.99 245.33 575.99 256.00 576.00 C 256.00 586.66 256.00 597.33 256.00 608.00 C 245.33 607.99 234.66 607.99 224.00 608.00 C 224.00 597.33 224.00 586.66 224.00 576.00 Z" />
<path fill="#ffff00" opacity="1.00" d=" M 288.00 576.00 C 298.66 575.99 309.33 575.99 320.00 576.00 C 319.99 586.66 320.00 597.33 320.00 608.00 C 309.33 607.99 298.66 607.99 288.00 608.00 C 288.00 597.33 288.00 586.66 288.00 576.00 Z" />
<path fill="#ffff00" opacity="1.00" d=" M 672.00 576.00 C 682.66 575.99 693.33 575.99 704.00 576.00 C 703.99 586.66 704.00 597.33 704.00 608.00 C 693.33 607.99 682.66 607.99 672.00 608.00 C 671.99 597.33 671.99 586.66 672.00 576.00 Z" />
<path fill="#ffff00" opacity="1.00" d=" M 736.00 576.00 C 746.66 575.99 757.32 575.99 767.99 576.00 C 768.03 586.66 768.01 597.32 767.98 607.98 C 757.31 608.02 746.65 608.03 736.00 608.00 C 735.99 597.32 735.99 586.66 736.00 576.00 Z" />
<path fill="#ffff00" opacity="1.00" d=" M 192.00 608.00 C 202.67 607.99 213.33 607.99 224.00 608.00 C 224.00 618.66 224.00 629.32 224.00 640.00 C 213.34 640.02 202.68 640.01 192.02 639.98 C 191.98 629.32 191.96 618.65 192.00 608.00 Z" />
<path fill="#ffff00" opacity="1.00" d=" M 256.00 608.00 C 266.66 607.99 277.33 607.99 288.00 608.00 C 288.00 618.66 288.00 629.33 288.00 640.00 C 277.33 639.99 266.66 639.99 256.00 640.00 C 256.00 629.33 256.00 618.66 256.00 608.00 Z" />
<path fill="#ffff00" opacity="1.00" d=" M 704.00 608.00 C 714.66 608.00 725.33 607.99 736.00 608.00 C 735.99 618.66 736.00 629.32 736.00 640.00 C 725.33 640.03 714.67 640.02 704.02 639.98 C 703.97 629.32 703.96 618.66 704.00 608.00 Z" />
<path fill="#ffff00" opacity="1.00" d=" M 224.00 640.00 C 234.66 639.99 245.33 640.00 256.00 640.00 C 256.00 650.66 256.00 661.33 256.00 672.00 C 245.33 671.99 234.66 671.99 224.00 672.00 C 224.00 661.32 224.00 650.66 224.00 640.00 Z" />
<path fill="#ffff00" opacity="1.00" d=" M 288.00 640.00 C 298.66 639.99 309.33 639.99 320.00 640.00 C 320.00 650.66 320.00 661.33 320.00 672.00 C 309.33 672.00 298.66 671.99 288.00 672.00 C 288.00 661.33 288.00 650.66 288.00 640.00 Z" />
<path fill="#ffff00" opacity="1.00" d=" M 736.00 640.00 C 746.66 639.98 757.33 640.00 768.00 640.00 C 767.99 650.66 767.99 661.32 768.00 671.99 C 757.33 672.02 746.67 672.02 736.02 671.98 C 735.98 661.31 735.96 650.65 736.00 640.00 Z" />
<path fill="#ffff00" opacity="1.00" d=" M 192.00 672.00 C 202.66 671.99 213.33 671.99 224.00 672.00 C 223.99 682.66 224.01 693.33 224.00 704.00 C 213.34 703.99 202.67 703.99 192.01 704.00 C 192.00 693.33 192.00 682.66 192.00 672.00 Z" />
<path fill="#ffff00" opacity="1.00" d=" M 256.00 672.00 C 266.66 671.99 277.33 672.00 288.00 672.00 C 288.00 682.66 288.00 693.33 288.00 704.01 C 277.33 703.99 266.66 703.99 256.00 704.00 C 256.00 693.33 256.00 682.66 256.00 672.00 Z" />
<path fill="#ffff00" opacity="1.00" d=" M 224.00 704.00 C 234.67 703.99 245.33 703.99 256.00 704.00 C 256.00 714.66 256.01 725.33 256.00 736.00 C 245.34 736.03 234.68 736.01 224.02 735.98 C 223.98 725.31 223.96 714.65 224.00 704.00 Z" />
<path fill="#ffff00" opacity="1.00" d=" M 288.00 704.01 C 298.66 704.02 309.33 703.95 320.00 703.90 C 319.97 714.59 319.99 725.29 320.01 735.99 C 330.67 735.99 341.33 736.00 351.99 736.00 C 352.00 746.66 352.00 757.32 352.00 767.99 C 362.66 767.99 373.33 768.00 383.99 768.00 C 384.00 778.65 384.00 789.31 384.01 799.98 C 394.67 800.01 405.33 800.04 416.00 800.00 C 416.00 810.66 416.01 821.32 416.00 832.00 C 405.36 832.03 394.72 832.01 384.09 831.98 C 384.15 821.61 384.33 811.24 383.82 800.89 C 373.27 799.78 362.64 799.87 352.05 799.90 C 352.09 789.74 352.43 779.57 351.62 769.46 C 351.33 769.20 350.76 768.70 350.48 768.44 C 340.36 767.51 330.19 767.90 320.06 767.94 C 320.09 757.78 320.45 747.61 319.59 737.49 C 319.32 737.22 318.78 736.68 318.51 736.41 C 308.36 735.53 298.16 735.89 288.00 735.94 C 288.00 725.29 288.00 714.64 288.00 704.01 Z" />
<path fill="#ffff00" opacity="1.00" d=" M 256.00 736.00 C 266.67 735.98 277.33 735.98 288.00 735.94 C 287.99 746.62 288.01 757.31 288.00 768.00 C 277.34 768.02 266.68 768.01 256.02 767.98 C 255.98 757.31 255.96 746.65 256.00 736.00 Z" />
<path fill="#ffff00" opacity="1.00" d=" M 288.00 768.00 C 298.69 767.98 309.37 767.98 320.06 767.94 C 320.01 778.62 320.01 789.31 320.00 800.00 C 309.33 800.02 298.67 800.01 288.02 799.98 C 287.98 789.31 287.96 778.65 288.00 768.00 Z" />
<path fill="#ffff00" opacity="1.00" d=" M 320.00 800.00 C 330.68 799.98 341.36 800.00 352.05 799.90 C 352.03 810.58 352.01 821.27 351.98 831.97 C 341.32 832.05 330.67 832.06 320.02 831.97 C 319.98 821.31 319.96 810.65 320.00 800.00 Z" />
<path fill="#ffff00" opacity="1.00" d=" M 416.00 832.00 C 426.66 831.96 437.32 831.99 447.98 832.01 C 448.03 842.66 448.03 853.31 447.99 863.97 C 437.32 864.05 426.67 864.05 416.02 863.97 C 415.98 853.31 415.96 842.65 416.00 832.00 Z" />
</g>
<g id="#707070ff">
<path fill="#707070" opacity="1.00" d=" M 641.06 640.14 C 651.36 639.61 661.68 639.93 672.00 639.86 C 682.32 639.91 692.65 639.64 702.98 640.13 C 704.57 650.64 704.14 661.33 704.07 671.94 C 693.38 671.94 682.69 671.97 672.02 672.03 C 671.97 682.66 671.96 693.30 672.00 703.94 C 661.83 703.90 651.64 703.53 641.50 704.42 C 641.23 704.69 640.68 705.22 640.40 705.48 C 639.54 715.60 639.89 725.78 639.94 735.94 C 629.78 735.90 619.61 735.54 609.49 736.41 C 609.22 736.68 608.68 737.22 608.41 737.49 C 607.54 747.61 607.90 757.78 607.94 767.94 C 597.78 767.89 587.61 767.54 577.49 768.41 C 577.22 768.68 576.68 769.22 576.42 769.49 C 575.54 779.63 575.90 789.83 575.94 800.00 C 565.29 799.96 554.65 799.97 544.02 800.02 C 543.97 810.67 543.96 821.33 544.00 832.00 C 533.33 831.99 522.66 831.99 512.00 831.99 C 512.03 821.33 512.01 810.67 511.98 800.03 C 501.32 799.93 490.66 799.94 480.00 800.03 C 479.98 810.71 479.98 821.40 480.00 832.10 C 469.39 832.12 458.74 832.20 448.18 831.11 C 447.66 820.75 447.84 810.37 447.91 800.02 C 437.27 799.97 426.63 799.95 416.00 800.00 C 405.33 800.04 394.67 800.01 384.01 799.98 C 384.00 789.31 384.00 778.65 383.99 768.00 C 373.33 768.00 362.66 767.99 352.00 767.99 C 352.00 757.32 352.00 746.66 351.99 736.00 C 341.33 736.00 330.67 735.99 320.01 735.99 C 319.99 725.29 319.97 714.59 320.00 703.90 C 330.55 704.00 341.17 703.66 351.67 704.90 C 352.21 714.88 351.87 724.88 352.25 734.88 C 362.32 736.49 372.56 735.80 382.71 736.34 C 384.98 746.63 383.49 757.37 385.02 767.79 C 448.60 768.39 512.20 767.79 575.80 767.99 C 576.04 757.38 575.52 746.71 576.95 736.18 C 587.22 735.63 597.51 735.87 607.80 735.90 C 608.03 725.33 607.52 714.69 608.95 704.19 C 619.29 703.61 629.66 703.86 640.02 703.91 C 640.53 682.66 638.49 661.26 641.06 640.14 Z" />
<path fill="#707070" opacity="1.00" d=" M 768.00 640.00 C 778.66 639.99 789.32 639.99 800.00 640.00 C 800.01 650.65 800.02 661.31 799.99 671.98 C 789.31 672.01 778.65 672.02 768.00 671.99 C 767.99 661.32 767.99 650.66 768.00 640.00 Z" />
<path fill="#707070" opacity="1.00" d=" M 160.01 672.00 C 170.67 671.99 181.33 671.99 192.00 672.00 C 192.00 682.66 192.00 693.33 192.01 704.00 C 181.34 703.99 170.67 703.99 160.00 704.00 C 159.99 693.33 159.98 682.66 160.01 672.00 Z" />
<path fill="#707070" opacity="1.00" d=" M 704.07 671.94 C 714.21 671.90 724.38 671.53 734.51 672.41 C 734.78 672.68 735.32 673.22 735.59 673.49 C 736.45 683.63 736.08 693.82 736.06 704.00 C 725.36 703.99 714.68 703.99 703.99 704.01 C 703.99 693.31 704.01 682.62 704.07 671.94 Z" />
<path fill="#707070" opacity="1.00" d=" M 672.00 703.94 C 682.66 703.97 693.32 703.99 703.99 704.01 C 703.99 714.66 703.99 725.32 704.00 736.00 C 693.32 735.99 682.66 736.00 672.00 736.01 C 671.99 725.31 672.00 714.62 672.00 703.94 Z" />
<path fill="#707070" opacity="1.00" d=" M 736.06 704.00 C 746.70 703.99 757.35 703.99 768.00 704.00 C 767.98 725.33 768.02 746.66 768.00 767.99 C 757.33 767.99 746.66 768.00 736.01 768.00 C 735.99 778.66 735.99 789.32 736.00 799.99 C 725.33 799.99 714.66 800.00 704.01 800.00 C 703.99 810.66 703.99 821.32 704.00 831.99 C 693.33 831.99 682.66 831.99 672.01 832.00 C 672.00 842.66 671.99 853.32 672.00 863.99 C 650.66 864.07 629.33 863.91 608.01 864.02 C 608.00 874.67 607.99 885.32 608.00 895.99 C 586.66 896.07 565.33 895.91 544.01 896.02 C 543.99 906.67 543.99 917.32 543.99 927.99 C 490.66 928.01 437.33 927.99 384.01 928.00 C 384.00 917.33 383.99 906.66 384.00 896.01 C 362.66 895.92 341.33 896.08 320.01 895.98 C 320.00 885.32 319.99 874.66 320.00 864.01 C 309.33 863.99 298.67 863.99 288.01 864.00 C 288.00 853.32 287.99 842.66 288.00 832.01 C 277.33 831.99 266.67 831.99 256.01 832.00 C 256.00 821.32 255.99 810.66 256.00 800.01 C 245.33 799.99 234.67 799.99 224.01 800.00 C 224.00 789.35 224.00 778.71 223.99 768.09 C 213.62 768.14 203.25 768.33 192.89 767.81 C 191.76 757.20 191.92 746.51 191.88 735.87 C 202.47 735.98 213.13 735.68 223.67 736.90 C 224.21 746.88 223.88 756.88 224.25 766.88 C 234.23 768.48 244.39 767.69 254.43 768.57 C 254.69 768.81 255.20 769.31 255.45 769.56 C 256.23 779.16 255.76 788.82 256.55 798.44 C 256.81 798.69 257.31 799.19 257.56 799.45 C 267.17 800.22 276.83 799.76 286.44 800.55 C 286.69 800.81 287.19 801.31 287.45 801.56 C 288.23 811.16 287.75 820.81 288.57 830.42 C 288.82 830.68 289.30 831.20 289.54 831.46 C 299.50 832.67 310.00 830.85 319.68 833.36 C 320.45 843.41 320.10 853.51 320.08 863.59 C 341.33 864.45 362.59 863.77 383.85 864.03 C 384.27 874.54 382.77 885.46 385.20 895.74 C 427.43 896.61 469.72 895.66 511.98 895.99 C 512.01 885.32 512.03 874.65 512.00 863.99 C 522.65 864.02 533.31 864.01 543.98 863.98 C 544.01 853.31 544.03 842.65 544.00 832.00 C 554.66 831.99 565.33 831.99 576.01 832.00 C 575.96 842.68 575.98 853.37 576.02 864.07 C 586.35 864.13 596.71 864.43 607.05 863.80 C 608.57 853.27 607.85 842.58 608.09 832.00 C 618.72 832.03 629.35 832.01 639.98 831.98 C 640.02 821.31 640.02 810.65 640.00 800.00 C 650.65 800.03 661.31 800.01 671.98 799.98 C 672.01 789.31 672.02 778.65 672.00 768.00 C 682.65 768.03 693.31 768.01 703.98 767.98 C 704.01 757.31 704.02 746.65 704.00 736.00 C 714.65 736.02 725.30 736.01 735.97 735.98 C 736.01 725.32 736.05 714.65 736.06 704.00 Z" />
<path fill="#707070" opacity="1.00" d=" M 639.94 735.94 C 650.62 735.97 661.31 735.99 672.00 736.01 C 672.00 746.66 671.99 757.33 672.00 768.00 C 661.33 767.98 650.66 768.00 640.01 768.01 C 639.99 757.31 639.98 746.62 639.94 735.94 Z" />
<path fill="#707070" opacity="1.00" d=" M 607.94 767.94 C 618.62 767.97 629.31 767.99 640.01 768.01 C 640.00 778.66 639.99 789.33 640.00 800.00 C 629.32 799.98 618.65 800.00 607.99 800.00 C 608.00 789.30 607.97 778.62 607.94 767.94 Z" />
<path fill="#707070" opacity="1.00" d=" M 575.94 800.00 C 586.62 800.00 597.30 799.98 607.99 800.00 C 608.01 810.66 608.02 821.32 608.09 832.00 C 597.39 831.98 586.70 832.00 576.01 832.00 C 576.00 821.33 575.97 810.66 575.94 800.00 Z" />
<path fill="#707070" opacity="1.00" d=" M 480.00 832.10 C 490.66 831.99 501.33 832.00 512.00 831.99 C 511.99 842.65 511.99 853.32 512.00 863.99 C 501.33 864.02 490.67 864.01 480.02 863.98 C 479.98 853.35 479.96 842.72 480.00 832.10 Z" />
</g>
</svg>
