<?xml version="1.0" encoding="UTF-8" ?>
<!DOCTYPE svg PUBLIC "-//W3C//DTD SVG 1.1//EN" "http://www.w3.org/Graphics/SVG/1.1/DTD/svg11.dtd">
<svg width="1024pt" height="1024pt" viewBox="0 0 1024 1024" version="1.1" xmlns="http://www.w3.org/2000/svg">
<g id="#ff0000ff">
<path fill="#ff0000" opacity="1.00" d=" M 352.01 0.00 L 671.99 0.00 C 671.99 10.67 671.99 21.33 672.01 32.00 C 704.00 31.98 735.99 32.02 767.98 32.00 C 767.99 42.66 768.00 53.32 768.01 63.99 C 778.66 63.99 789.32 64.00 799.99 64.01 C 799.99 74.67 800.00 85.33 800.01 95.99 C 821.33 95.97 842.66 96.04 863.99 96.00 C 863.99 106.66 864.00 117.32 864.01 127.99 C 874.66 127.99 885.32 128.00 895.99 128.01 C 895.98 138.67 896.00 149.33 896.01 159.99 C 906.66 159.99 917.32 160.00 927.99 160.01 C 927.96 181.34 928.03 202.66 928.00 223.99 C 938.65 224.00 949.31 224.00 959.99 224.01 C 959.98 234.67 959.99 245.33 960.01 255.99 C 970.67 255.99 981.33 256.00 992.00 256.01 C 991.99 288.01 992.01 320.00 992.00 352.00 C 992.00 469.33 992.00 586.65 992.00 703.98 C 981.33 703.99 970.66 704.00 960.01 704.01 C 960.03 725.33 959.96 746.66 960.00 767.99 C 949.33 767.99 938.67 768.00 928.01 768.01 C 928.00 778.66 927.99 789.32 927.99 799.99 C 917.32 799.99 906.66 800.00 896.01 800.01 C 896.03 821.33 895.96 842.66 896.00 863.99 C 885.33 863.99 874.67 864.00 864.01 864.01 C 864.00 874.66 863.99 885.32 863.99 895.99 C 853.32 895.98 842.66 896.00 832.01 896.01 C 832.00 906.66 831.99 917.32 831.99 927.99 C 810.66 927.96 789.33 928.03 768.01 928.00 C 767.99 938.65 767.99 949.32 767.99 959.99 C 746.66 959.96 725.33 960.03 704.01 960.00 C 703.99 970.65 703.99 981.32 703.99 992.00 C 576.00 992.00 448.00 992.00 320.01 992.00 C 320.00 981.33 319.99 970.66 319.99 960.01 C 298.66 960.03 277.34 959.96 256.01 960.00 C 256.00 949.33 255.99 938.66 255.99 928.01 C 245.32 928.00 234.66 927.99 224.00 928.00 C 213.33 927.99 202.67 927.99 192.00 928.00 C 192.00 917.32 191.99 906.66 192.00 896.00 C 181.33 896.00 170.66 896.00 160.00 896.00 C 149.33 895.98 138.67 895.97 128.00 896.00 C 128.01 885.32 128.01 874.66 128.00 864.00 C 127.99 853.33 127.98 842.66 128.00 832.01 C 117.33 832.00 106.67 832.00 96.00 832.00 C 95.99 821.32 95.98 810.66 96.00 800.00 C 85.33 800.01 74.67 800.00 64.00 800.00 C 63.99 789.33 63.99 778.66 64.00 768.01 C 53.33 768.00 42.67 768.00 32.00 767.99 C 31.97 746.66 32.02 725.33 32.00 704.00 C 31.99 693.33 31.99 682.67 32.00 672.01 C 21.33 672.00 10.67 671.99 0.00 671.99 L 0.00 352.01 C 10.67 352.00 21.33 351.99 32.00 351.99 C 31.98 320.00 32.02 288.01 32.00 256.01 C 42.66 256.00 53.32 255.99 63.99 255.99 C 63.99 245.33 64.00 234.67 64.01 224.01 C 74.68 224.00 85.34 224.00 96.00 223.99 C 95.96 202.66 96.03 181.34 96.01 160.01 C 106.67 160.00 117.33 159.99 127.99 159.99 C 127.99 149.33 128.00 138.67 128.01 128.01 C 138.67 128.00 149.33 127.99 159.99 127.99 C 159.99 117.32 160.00 106.66 160.01 96.00 C 181.34 96.04 202.66 95.97 223.99 95.99 C 223.99 85.33 224.00 74.67 224.01 64.01 C 234.67 64.00 245.33 63.99 255.99 63.99 C 255.99 53.32 256.00 42.66 256.02 32.00 C 288.01 32.02 320.00 31.98 351.99 32.00 C 351.99 21.33 352.00 10.67 352.01 0.00 M 384.05 256.00 C 384.01 266.59 383.96 277.19 383.67 287.79 C 362.45 288.16 341.23 287.99 320.01 287.99 C 320.00 298.65 320.00 309.32 319.99 319.99 C 309.32 320.00 298.66 319.99 287.99 320.01 C 287.99 341.25 288.19 362.49 287.69 383.74 C 277.12 383.98 266.56 384.00 256.00 384.06 C 256.00 469.37 256.00 554.68 256.00 640.00 C 256.02 650.66 256.02 661.33 255.99 672.01 C 266.66 671.97 277.32 671.97 288.00 672.01 C 288.02 682.66 288.02 693.32 287.99 704.00 C 288.01 714.64 288.02 725.29 287.99 735.95 C 298.57 735.97 309.15 736.03 319.74 736.32 C 319.98 746.88 320.00 757.44 320.05 768.01 C 341.28 768.00 362.51 767.80 383.74 768.31 C 383.98 778.86 384.00 789.43 384.05 800.00 C 469.35 800.00 554.65 800.00 639.95 800.00 C 639.98 789.39 640.03 778.80 640.33 768.21 C 661.53 767.84 682.74 768.01 703.95 768.01 C 703.98 757.42 704.03 746.84 704.32 736.26 C 714.88 736.01 725.44 735.99 736.01 735.95 C 735.97 725.29 735.97 714.64 736.01 703.99 C 735.97 693.32 735.97 682.66 736.00 672.00 C 746.64 671.97 757.29 671.97 767.95 672.01 C 767.97 661.42 768.03 650.84 768.32 640.26 C 778.87 640.01 789.43 639.99 800.00 639.95 C 800.00 565.29 800.00 490.64 800.00 415.99 C 789.33 416.01 778.66 416.02 768.00 416.00 C 767.98 405.34 767.98 394.69 768.00 384.05 C 757.40 384.01 746.80 383.96 736.21 383.67 C 735.83 362.45 736.01 341.23 736.01 320.01 C 725.34 320.00 714.67 320.00 704.01 319.99 C 703.99 309.32 704.00 298.66 703.99 287.99 C 682.75 287.99 661.50 288.19 640.26 287.69 C 640.01 277.12 639.99 266.56 639.95 256.00 C 554.65 256.00 469.35 256.00 384.05 256.00 Z" />
<path fill="#ff0000" opacity="1.00" d=" M 384.30 320.18 C 469.45 319.93 554.60 319.76 639.75 320.28 C 639.93 330.82 640.00 341.38 640.07 351.93 C 650.62 351.99 661.18 352.08 671.75 352.30 C 671.93 362.84 672.00 373.38 672.07 383.93 C 682.62 383.99 693.18 384.08 703.75 384.30 C 703.93 394.86 704.00 405.42 704.07 415.99 C 714.71 415.99 725.35 415.99 736.00 416.00 C 735.84 490.56 736.31 565.12 735.77 639.67 C 725.18 639.96 714.59 640.01 704.01 640.05 C 703.99 650.69 704.00 661.34 703.99 671.99 C 693.32 671.99 682.66 671.99 672.01 672.01 C 671.99 682.66 671.99 693.32 671.99 703.99 C 661.34 703.99 650.69 703.99 640.05 704.01 C 640.00 714.56 639.97 725.12 639.74 735.68 C 554.61 736.27 469.46 736.07 384.33 735.79 C 384.03 725.19 383.98 714.60 383.95 704.01 C 373.30 703.99 362.65 704.00 352.01 703.99 C 352.00 693.32 352.00 682.66 351.99 672.01 C 341.33 671.99 330.67 671.99 320.01 671.99 C 320.00 661.34 320.00 650.69 319.99 640.05 C 309.43 640.00 298.87 639.97 288.32 639.74 C 287.58 565.16 288.21 490.58 288.00 416.01 C 298.64 415.99 309.28 415.99 319.93 415.99 C 319.99 405.41 320.08 394.83 320.30 384.25 C 330.84 384.06 341.38 383.99 351.93 383.93 C 351.99 373.37 352.08 362.81 352.30 352.25 C 362.84 352.06 373.38 351.99 383.93 351.93 C 383.99 341.35 384.08 330.76 384.30 320.18 M 416.00 416.00 C 416.00 480.00 416.01 544.00 415.99 608.00 C 416.01 618.66 416.01 629.33 415.99 640.00 C 437.31 640.00 458.63 640.00 479.95 640.00 C 479.98 629.39 480.03 618.80 480.33 608.21 C 501.53 607.84 522.74 608.01 543.95 608.01 C 543.98 597.42 544.03 586.84 544.32 576.26 C 554.86 576.01 565.40 576.00 575.95 575.95 C 575.98 565.38 576.03 554.82 576.32 544.26 C 586.88 544.01 597.44 544.00 608.01 543.95 C 607.97 533.29 607.97 522.64 608.01 512.00 C 607.98 501.32 607.98 490.66 608.01 479.99 C 586.67 480.04 565.34 479.95 544.01 480.01 C 543.99 469.33 544.00 458.66 543.99 447.99 C 522.66 448.04 501.33 447.95 480.01 448.01 C 479.99 437.33 480.00 426.67 479.99 416.00 C 458.66 415.99 437.33 415.99 416.00 416.00 Z" />
</g>
<g id="#ffffffff">
<path fill="#ffffff" opacity="1.00" d=" M 384.05 256.00 C 469.35 256.00 554.65 256.00 639.95 256.00 C 639.99 266.56 640.01 277.12 640.26 287.69 C 661.50 288.19 682.75 287.99 703.99 287.99 C 704.00 298.66 703.99 309.32 704.01 319.99 C 714.67 320.00 725.34 320.00 736.01 320.01 C 736.01 341.23 735.83 362.45 736.21 383.67 C 746.80 383.96 757.40 384.01 768.00 384.05 C 767.98 394.69 767.98 405.34 768.00 416.00 C 767.99 490.66 768.00 565.32 768.00 639.99 C 757.33 639.99 746.66 640.00 736.00 640.01 C 736.00 650.67 736.01 661.33 736.00 672.00 C 735.97 682.66 735.97 693.32 736.01 703.99 C 725.34 704.00 714.67 704.00 704.02 704.01 C 704.00 714.66 703.99 725.32 703.99 735.99 C 682.66 735.97 661.34 736.03 640.01 736.00 C 640.00 746.66 639.99 757.32 639.99 768.00 C 554.66 768.00 469.34 768.00 384.02 768.00 C 384.00 757.33 383.99 746.66 383.99 736.01 C 362.66 736.03 341.34 735.96 320.01 736.00 C 320.00 725.33 319.99 714.67 319.99 704.01 C 309.32 704.00 298.65 704.00 287.99 704.00 C 288.02 693.32 288.02 682.66 288.00 672.01 C 287.98 661.33 287.99 650.67 288.00 640.01 C 277.33 640.00 266.66 640.00 256.00 640.00 C 256.00 554.68 256.00 469.37 256.00 384.06 C 266.56 384.00 277.12 383.98 287.69 383.74 C 288.19 362.49 287.99 341.25 287.99 320.01 C 298.66 319.99 309.32 320.00 319.99 319.99 C 320.00 309.32 320.00 298.65 320.01 287.99 C 341.23 287.99 362.45 288.16 383.67 287.79 C 383.96 277.19 384.01 266.59 384.05 256.00 M 384.01 288.00 C 384.00 298.66 384.00 309.33 383.99 319.99 C 373.33 320.00 362.66 320.00 352.01 320.01 C 352.00 330.67 352.00 341.33 351.99 351.99 C 341.33 352.00 330.67 352.00 320.01 352.01 C 320.00 362.67 320.00 373.33 319.99 383.99 C 309.32 384.00 298.65 383.99 287.99 384.01 C 288.02 394.67 288.02 405.34 288.00 416.01 C 288.21 490.58 287.58 565.16 288.32 639.74 C 298.87 639.97 309.43 640.00 319.99 640.05 C 320.00 650.69 320.00 661.34 320.01 671.99 C 330.67 671.99 341.33 671.99 351.99 672.01 C 352.00 682.66 352.00 693.32 352.01 703.99 C 362.65 704.00 373.30 703.99 383.95 704.01 C 383.98 714.60 384.03 725.19 384.33 735.79 C 469.46 736.07 554.61 736.27 639.74 735.68 C 639.97 725.12 640.00 714.56 640.05 704.01 C 650.69 703.99 661.34 703.99 671.99 703.99 C 671.99 693.32 671.99 682.66 672.01 672.01 C 682.66 671.99 693.32 671.99 703.99 671.99 C 704.00 661.34 703.99 650.69 704.01 640.05 C 714.59 640.01 725.18 639.96 735.77 639.67 C 736.31 565.12 735.84 490.56 736.00 416.00 C 735.97 405.33 735.97 394.67 736.01 384.01 C 725.33 384.00 714.67 384.00 704.01 383.99 C 703.99 373.33 703.99 362.66 703.99 352.01 C 693.32 352.00 682.66 352.00 672.01 351.99 C 671.99 341.33 671.99 330.67 671.99 320.01 C 661.32 320.00 650.66 320.00 640.01 319.99 C 639.99 309.32 640.00 298.66 639.99 288.00 C 554.66 288.00 469.33 288.00 384.01 288.00 Z" />
<path fill="#ffffff" opacity="1.00" d=" M 416.00 416.00 C 437.33 415.99 458.66 415.99 479.99 416.00 C 480.00 426.67 479.99 437.33 480.01 448.01 C 501.33 447.95 522.66 448.04 543.99 447.99 C 544.00 458.66 543.99 469.33 544.01 480.01 C 565.34 479.95 586.67 480.04 608.01 479.99 C 607.98 490.66 607.98 501.32 608.01 512.00 C 597.34 512.00 586.68 512.00 576.02 512.01 C 576.00 522.66 575.99 533.32 575.99 543.99 C 565.32 543.99 554.67 544.00 544.01 544.01 C 544.00 554.67 543.99 565.33 543.99 575.99 C 522.66 575.97 501.34 576.03 480.01 576.00 C 480.00 586.66 479.99 597.33 479.99 608.00 C 458.65 607.98 437.32 608.01 415.99 608.00 C 416.01 544.00 416.00 480.00 416.00 416.00 Z" />
</g>
<g id="#000000ff">
<path fill="#000000" opacity="1.00" d=" M 384.01 288.00 C 469.33 288.00 554.66 288.00 639.99 288.00 C 640.00 298.66 639.99 309.32 640.01 319.99 C 650.66 320.00 661.32 320.00 671.99 320.01 C 671.99 330.67 671.99 341.33 672.01 351.99 C 682.66 352.00 693.32 352.00 703.99 352.01 C 703.99 362.66 703.99 373.33 704.01 383.99 C 714.67 384.00 725.33 384.00 736.01 384.01 C 735.97 394.67 735.97 405.33 736.00 416.00 C 725.35 415.99 714.71 415.99 704.07 415.99 C 704.00 405.42 703.93 394.86 703.75 384.30 C 693.18 384.08 682.62 383.99 672.07 383.93 C 672.00 373.38 671.93 362.84 671.75 352.30 C 661.18 352.08 650.62 351.99 640.07 351.93 C 640.00 341.38 639.93 330.82 639.75 320.28 C 554.60 319.76 469.45 319.93 384.30 320.18 C 384.08 330.76 383.99 341.35 383.93 351.93 C 373.38 351.99 362.84 352.06 352.30 352.25 C 352.08 362.81 351.99 373.37 351.93 383.93 C 341.38 383.99 330.84 384.06 320.30 384.25 C 320.08 394.83 319.99 405.41 319.93 415.99 C 309.28 415.99 298.64 415.99 288.00 416.01 C 288.02 405.34 288.02 394.67 287.99 384.01 C 298.65 383.99 309.32 384.00 319.99 383.99 C 320.00 373.33 320.00 362.67 320.01 352.01 C 330.67 352.00 341.33 352.00 351.99 351.99 C 352.00 341.33 352.00 330.67 352.01 320.01 C 362.66 320.00 373.33 320.00 383.99 319.99 C 384.00 309.33 384.00 298.66 384.01 288.00 Z" />
<path fill="#000000" opacity="1.00" d=" M 992.00 352.00 C 1002.65 352.00 1013.32 352.00 1024.00 352.00 L 1024.00 703.94 C 1013.41 703.99 1002.84 704.07 992.28 704.29 C 991.89 725.50 991.95 746.72 992.00 767.94 C 981.42 767.99 970.85 768.05 960.30 768.25 C 960.07 778.80 959.98 789.36 959.93 799.93 C 949.37 799.98 938.82 800.05 928.28 800.25 C 927.89 821.47 927.96 842.71 928.00 863.94 C 917.42 863.98 906.85 864.05 896.30 864.25 C 896.07 874.80 895.98 885.36 895.93 895.93 C 885.38 895.98 874.83 896.05 864.30 896.25 C 864.07 906.80 863.98 917.36 863.93 927.93 C 853.38 927.98 842.83 928.05 832.30 928.25 C 832.07 938.83 831.98 949.41 831.93 960.00 C 810.72 959.97 789.51 959.91 768.30 960.19 C 768.07 970.78 767.98 981.39 767.93 992.00 C 746.72 991.97 725.50 991.91 704.30 992.19 C 704.07 1002.78 703.99 1013.38 703.94 1024.00 L 320.06 1024.00 C 320.00 1013.41 319.92 1002.84 319.71 992.28 C 298.49 991.89 277.28 991.95 256.06 992.00 C 256.00 981.42 255.94 970.85 255.75 960.30 C 245.17 960.07 234.58 959.98 224.00 959.93 C 224.01 949.28 224.00 938.63 224.00 928.00 C 234.66 927.99 245.32 928.00 255.99 928.01 C 255.99 938.66 256.00 949.33 256.01 960.00 C 277.34 959.96 298.66 960.03 319.99 960.01 C 319.99 970.66 320.00 981.33 320.01 992.00 C 448.00 992.00 576.00 992.00 703.99 992.00 C 703.99 981.32 703.99 970.65 704.01 960.00 C 725.33 960.03 746.66 959.96 767.99 959.99 C 767.99 949.32 767.99 938.65 768.01 928.00 C 789.33 928.03 810.66 927.96 831.99 927.99 C 831.99 917.32 832.00 906.66 832.01 896.01 C 842.66 896.00 853.32 895.98 863.99 895.99 C 863.99 885.32 864.00 874.66 864.01 864.01 C 874.67 864.00 885.33 863.99 896.00 863.99 C 895.96 842.66 896.03 821.33 896.01 800.01 C 906.66 800.00 917.32 799.99 927.99 799.99 C 927.99 789.32 928.00 778.66 928.01 768.01 C 938.67 768.00 949.33 767.99 960.00 767.99 C 959.96 746.66 960.03 725.33 960.01 704.01 C 970.66 704.00 981.33 703.99 992.00 703.98 C 992.00 586.65 992.00 469.33 992.00 352.00 Z" />
<path fill="#000000" opacity="1.00" d=" M 768.00 416.00 C 778.66 416.02 789.33 416.01 800.00 415.99 C 800.00 490.64 800.00 565.29 800.00 639.95 C 789.43 639.99 778.87 640.01 768.32 640.26 C 768.03 650.84 767.97 661.42 767.95 672.01 C 757.29 671.97 746.64 671.97 736.00 672.00 C 736.01 661.33 736.00 650.67 736.00 640.01 C 746.66 640.00 757.33 639.99 768.00 639.99 C 768.00 565.32 767.99 490.66 768.00 416.00 Z" />
<path fill="#000000" opacity="1.00" d=" M 576.02 512.01 C 586.68 512.00 597.34 512.00 608.01 512.00 C 607.97 522.64 607.97 533.29 608.01 543.95 C 597.44 544.00 586.88 544.01 576.32 544.26 C 576.03 554.82 575.98 565.38 575.95 575.95 C 565.40 576.00 554.86 576.01 544.32 576.26 C 544.03 586.84 543.98 597.42 543.95 608.01 C 522.74 608.01 501.53 607.84 480.33 608.21 C 480.03 618.80 479.98 629.39 479.95 640.00 C 458.63 640.00 437.31 640.00 415.99 640.00 C 416.01 629.33 416.01 618.66 415.99 608.00 C 437.32 608.01 458.65 607.98 479.99 608.00 C 479.99 597.33 480.00 586.66 480.01 576.00 C 501.34 576.03 522.66 575.97 543.99 575.99 C 543.99 565.33 544.00 554.67 544.01 544.01 C 554.67 544.00 565.32 543.99 575.99 543.99 C 575.99 533.32 576.00 522.66 576.02 512.01 Z" />
<path fill="#000000" opacity="1.00" d=" M 256.00 640.00 C 266.66 640.00 277.33 640.00 288.00 640.01 C 287.99 650.67 287.98 661.33 288.00 672.01 C 277.32 671.97 266.66 671.97 255.99 672.01 C 256.02 661.33 256.02 650.66 256.00 640.00 Z" />
<path fill="#000000" opacity="1.00" d=" M 0.00 671.99 C 10.67 671.99 21.33 672.00 32.00 672.01 C 31.99 682.67 31.99 693.33 32.00 704.00 C 21.33 703.99 10.67 703.99 0.00 704.00 L 0.00 671.99 Z" />
<path fill="#000000" opacity="1.00" d=" M 287.99 704.00 C 298.65 704.00 309.32 704.00 319.99 704.01 C 319.99 714.67 320.00 725.33 320.01 736.00 C 341.34 735.96 362.66 736.03 383.99 736.01 C 383.99 746.66 384.00 757.33 384.02 768.00 C 469.34 768.00 554.66 768.00 639.99 768.00 C 639.99 757.32 640.00 746.66 640.01 736.00 C 661.34 736.03 682.66 735.97 703.99 735.99 C 703.99 725.32 704.00 714.66 704.02 704.01 C 714.67 704.00 725.34 704.00 736.01 703.99 C 735.97 714.64 735.97 725.29 736.01 735.95 C 725.44 735.99 714.88 736.01 704.32 736.26 C 704.03 746.84 703.98 757.42 703.95 768.01 C 682.74 768.01 661.53 767.84 640.33 768.21 C 640.03 778.80 639.98 789.39 639.95 800.00 C 554.65 800.00 469.35 800.00 384.05 800.00 C 384.00 789.43 383.98 778.86 383.74 768.31 C 362.51 767.80 341.28 768.00 320.05 768.01 C 320.00 757.44 319.98 746.88 319.74 736.32 C 309.15 736.03 298.57 735.97 287.99 735.95 C 288.02 725.29 288.01 714.64 287.99 704.00 Z" />
<path fill="#000000" opacity="1.00" d=" M 32.00 767.99 C 42.67 768.00 53.33 768.00 64.00 768.01 C 63.99 778.66 63.99 789.33 64.00 800.00 C 53.34 799.98 42.67 799.98 32.00 800.00 C 32.00 789.32 32.01 778.66 32.00 767.99 Z" />
<path fill="#000000" opacity="1.00" d=" M 96.00 832.00 C 106.67 832.00 117.33 832.00 128.00 832.01 C 127.98 842.66 127.99 853.33 128.00 864.00 C 117.33 863.99 106.67 863.98 96.00 864.00 C 96.01 853.32 96.01 842.65 96.00 832.00 Z" />
<path fill="#000000" opacity="1.00" d=" M 160.00 896.00 C 170.66 896.00 181.33 896.00 192.00 896.00 C 191.99 906.66 192.00 917.32 192.00 928.00 C 181.34 927.99 170.67 927.99 160.00 928.00 C 160.01 917.32 160.00 906.66 160.00 896.00 Z" />
</g>
</svg>
