<?xml version="1.0" encoding="UTF-8" ?>
<!DOCTYPE svg PUBLIC "-//W3C//DTD SVG 1.1//EN" "http://www.w3.org/Graphics/SVG/1.1/DTD/svg11.dtd">
<svg width="1024pt" height="1024pt" viewBox="0 0 1024 1024" version="1.1" xmlns="http://www.w3.org/2000/svg">
<g id="#000000ff">
<path fill="#000000" opacity="1.00" d=" M 128.01 0.00 L 895.99 0.00 C 896.01 10.67 896.00 21.34 895.99 32.00 C 917.32 31.98 938.66 32.02 960.00 32.00 C 960.00 42.66 959.98 53.33 960.01 64.00 C 970.66 64.00 981.33 64.00 992.01 64.00 C 991.96 85.34 992.02 106.67 992.00 128.00 C 1002.65 127.99 1013.32 127.98 1024.00 128.01 L 1024.00 895.99 C 1013.32 896.01 1002.65 896.00 992.00 895.99 C 992.02 917.32 991.97 938.66 992.00 960.00 C 981.33 960.00 970.66 959.98 960.00 960.01 C 959.99 970.66 959.99 981.33 960.00 992.01 C 938.66 991.96 917.33 992.02 896.00 992.00 C 896.00 1002.65 896.01 1013.32 895.99 1024.00 L 128.01 1024.00 C 127.98 1013.32 127.98 1002.65 128.01 992.00 C 106.67 992.02 85.34 991.97 64.00 992.00 C 63.99 981.33 64.01 970.66 63.99 960.00 C 53.32 959.99 42.66 959.99 31.99 960.00 C 32.03 938.66 31.97 917.33 32.00 896.00 C 21.33 896.00 10.67 896.01 0.00 895.99 L 0.00 128.01 C 10.67 127.98 21.33 127.99 32.00 128.00 C 31.97 106.67 32.03 85.34 31.99 64.00 C 42.66 64.00 53.32 64.00 63.99 64.00 C 64.01 53.33 63.99 42.66 64.00 32.00 C 85.34 32.02 106.67 31.98 128.01 32.00 C 127.98 21.34 127.98 10.67 128.01 0.00 M 384.00 160.00 C 384.03 170.67 383.97 181.33 384.00 192.00 C 352.00 191.99 320.00 192.01 288.00 191.99 C 288.02 202.66 287.97 213.33 288.00 224.00 C 277.33 223.97 266.66 224.02 256.00 224.00 C 256.02 234.66 255.97 245.33 256.00 256.00 C 245.33 255.97 234.66 256.02 224.00 256.00 C 224.02 266.66 223.97 277.33 224.00 288.00 C 213.33 287.97 202.66 288.03 192.00 288.00 C 192.01 320.00 191.99 352.00 192.01 384.00 C 181.33 383.96 170.67 384.03 160.00 384.00 C 160.00 469.33 160.00 554.66 160.00 639.99 C 160.00 650.66 160.00 661.33 160.00 672.00 C 170.67 671.96 181.33 672.02 192.00 672.00 C 191.98 682.66 192.02 693.33 192.00 704.01 C 192.00 714.66 191.99 725.33 192.00 736.00 C 192.00 746.66 191.99 757.33 192.00 768.00 C 202.67 767.96 213.33 768.02 224.00 768.00 C 223.97 778.66 224.02 789.32 224.00 800.00 C 234.66 799.97 245.33 800.02 256.00 800.00 C 255.97 810.66 256.02 821.32 256.00 832.00 C 266.66 831.96 277.33 832.02 288.00 832.00 C 287.97 842.66 288.03 853.33 288.00 864.00 C 320.00 863.99 352.00 864.01 384.00 863.99 C 383.97 874.65 384.03 885.32 384.00 896.00 C 469.33 896.00 554.67 896.00 640.00 896.00 C 639.96 885.32 640.02 874.66 640.00 864.00 C 672.00 864.01 704.00 863.99 736.00 864.01 C 735.97 853.33 736.02 842.66 736.00 832.00 C 746.66 832.02 757.33 831.96 768.00 832.00 C 767.97 821.33 768.02 810.66 768.00 800.00 C 778.66 800.02 789.32 799.96 800.00 800.00 C 799.97 789.33 800.02 778.66 800.00 768.00 C 810.66 768.02 821.32 767.96 832.00 768.00 C 832.00 757.33 831.99 746.66 832.00 736.00 C 832.00 725.33 831.99 714.67 832.00 704.01 C 831.98 693.33 832.00 682.66 832.00 672.00 C 842.66 672.02 853.32 671.96 864.00 672.00 C 863.99 661.33 863.99 650.66 864.00 640.00 C 863.99 629.33 863.99 618.66 864.00 608.00 C 863.99 597.33 863.99 586.66 864.00 576.00 C 864.00 565.33 863.99 554.66 864.00 544.00 C 863.99 533.33 863.99 522.66 864.00 512.00 C 863.99 490.66 863.99 469.33 864.00 448.00 C 863.99 437.33 863.99 426.66 864.00 415.99 C 863.99 405.32 863.99 394.66 864.00 384.00 C 853.32 384.03 842.66 383.96 832.00 384.00 C 832.01 352.00 831.99 320.00 832.01 288.00 C 821.33 288.02 810.66 287.97 800.00 288.00 C 800.02 277.33 799.96 266.66 800.00 256.00 C 789.33 256.02 778.66 255.97 768.00 256.00 C 768.02 245.33 767.96 234.66 768.00 224.00 C 757.33 224.02 746.66 223.97 736.00 224.00 C 736.02 213.33 735.96 202.66 736.00 192.00 C 704.00 192.01 672.00 191.99 640.00 192.01 C 640.02 181.33 639.96 170.67 640.00 160.00 C 554.67 160.00 469.33 160.00 384.00 160.00 Z" />
<path fill="#000000" opacity="1.00" d=" M 384.00 256.00 C 469.33 256.00 554.66 256.00 639.99 256.00 C 640.01 266.67 639.98 277.33 640.00 288.00 C 661.33 287.97 682.66 288.03 704.00 287.99 C 703.99 298.65 703.99 309.32 704.00 320.00 C 714.66 320.00 725.32 320.00 735.99 320.00 C 736.01 330.67 735.98 341.33 736.00 352.01 C 746.66 351.98 757.33 351.98 768.00 352.01 C 768.00 362.67 768.00 373.33 768.00 383.99 C 768.00 469.33 768.00 554.66 768.00 640.00 C 768.00 661.33 768.00 682.66 767.99 703.99 C 757.32 704.00 746.66 703.99 736.00 704.00 C 736.00 714.66 735.99 725.33 736.00 736.01 C 725.33 735.98 714.66 735.98 704.00 736.01 C 704.00 725.33 704.01 714.66 704.00 704.00 C 704.01 682.66 703.99 661.33 704.00 640.01 C 693.32 639.98 682.66 640.00 672.00 640.00 C 672.02 618.66 671.96 597.33 672.01 576.00 C 661.33 575.98 650.66 576.00 640.00 576.00 C 640.02 554.66 639.96 533.33 640.01 512.00 C 629.34 512.00 618.67 512.00 608.00 512.00 C 607.99 501.33 607.99 490.66 608.00 480.00 C 597.33 480.00 586.66 480.00 576.00 480.00 C 575.99 469.33 575.99 458.66 576.00 448.00 C 565.33 448.00 554.66 448.00 544.00 448.00 C 544.00 437.33 544.00 426.66 544.00 416.00 C 533.33 416.00 522.66 416.00 512.01 416.00 C 511.98 405.33 512.00 394.66 512.00 384.00 C 490.66 384.03 469.33 383.96 448.00 384.01 C 447.98 373.34 448.00 362.67 448.00 352.00 C 426.66 352.03 405.33 351.96 384.00 352.01 C 383.99 341.34 384.01 330.67 383.99 320.00 C 362.66 320.00 341.33 319.99 320.00 320.01 C 320.01 309.33 320.01 298.66 320.00 288.00 C 341.33 288.03 362.66 287.96 383.99 288.01 C 384.01 277.34 383.99 266.67 384.00 256.00 Z" />
<path fill="#000000" opacity="1.00" d=" M 256.01 416.00 C 298.67 416.00 341.33 416.01 383.99 415.99 C 384.01 426.66 383.99 437.33 384.00 448.00 C 405.33 447.97 426.66 448.03 448.00 447.99 C 447.99 458.65 447.99 469.32 448.00 480.00 C 458.66 479.99 469.33 479.99 480.00 480.00 C 479.99 490.66 479.99 501.33 480.00 512.00 C 490.66 511.99 501.33 511.99 512.00 512.00 C 511.99 522.66 511.99 533.33 512.00 544.00 C 522.66 543.99 533.33 543.99 544.00 544.00 C 543.99 554.66 543.99 565.32 544.00 575.99 C 554.66 576.01 565.33 575.98 576.00 576.00 C 576.01 608.00 575.99 640.00 576.01 672.00 C 586.67 672.00 597.33 671.98 608.00 672.01 C 608.00 714.67 607.99 757.33 608.01 800.00 C 597.33 799.99 586.66 799.99 576.00 800.00 C 565.33 799.99 554.66 799.99 544.00 800.00 C 543.98 789.32 544.01 778.66 543.99 768.00 C 533.32 767.99 522.66 767.99 511.99 768.00 C 512.01 757.32 512.00 746.65 512.00 735.99 C 511.99 725.32 512.00 714.66 512.00 704.01 C 511.99 693.33 511.99 682.67 512.00 672.00 C 501.33 671.98 490.66 672.00 480.00 672.00 C 480.02 650.66 479.96 629.33 480.01 608.00 C 469.34 608.00 458.67 607.99 448.00 608.00 C 448.00 597.33 448.00 586.66 448.00 576.00 C 437.33 575.99 426.66 575.99 416.01 576.00 C 415.98 565.32 416.01 554.66 416.00 544.00 C 394.66 544.02 373.33 543.96 352.01 544.01 C 351.98 533.34 352.01 522.67 352.00 512.00 C 320.00 511.99 288.00 512.01 256.00 511.99 C 256.00 501.33 256.00 490.66 256.00 480.01 C 245.33 479.98 234.66 480.01 224.00 480.00 C 224.00 469.33 224.00 458.66 224.00 448.00 C 234.66 447.99 245.33 447.98 256.00 448.01 C 256.00 437.33 255.99 426.66 256.01 416.00 Z" />
<path fill="#000000" opacity="1.00" d=" M 224.00 576.00 C 266.67 576.00 309.33 575.99 352.00 576.00 C 351.99 586.66 352.00 597.32 352.00 608.00 C 362.66 607.99 373.33 607.99 384.00 608.00 C 384.00 618.66 383.99 629.33 384.00 640.00 C 394.66 639.99 405.33 639.99 416.00 640.00 C 416.00 650.66 415.99 661.33 416.00 672.00 C 426.66 671.99 437.33 671.99 448.00 672.00 C 448.00 714.67 447.99 757.33 448.00 800.00 C 437.33 799.99 426.66 800.00 416.00 800.00 C 405.33 799.99 394.66 799.99 384.00 800.00 C 383.99 789.32 384.01 778.65 383.99 767.99 C 373.33 768.00 362.66 768.00 352.00 768.00 C 341.33 767.98 330.67 767.99 320.00 768.01 C 320.00 757.33 320.00 746.66 320.00 736.00 C 309.33 735.99 298.66 735.99 288.00 736.00 C 288.00 725.33 288.00 714.66 288.00 704.01 C 277.33 703.98 266.66 704.00 256.00 704.00 C 256.03 682.66 255.96 661.33 256.01 640.00 C 245.34 639.99 234.68 640.00 224.01 639.99 C 223.99 618.66 224.00 597.33 224.00 576.00 Z" />
</g>
<g id="#ffffffff">
<path fill="#ffffff" opacity="1.00" d=" M 384.00 160.00 C 469.33 160.00 554.67 160.00 640.00 160.00 C 639.96 170.67 640.02 181.33 640.00 192.01 C 672.00 191.99 704.00 192.01 736.00 192.00 C 735.96 202.66 736.02 213.33 736.00 224.00 C 746.66 223.97 757.33 224.02 768.00 224.00 C 767.96 234.66 768.02 245.33 768.00 256.00 C 778.66 255.97 789.33 256.02 800.00 256.00 C 799.96 266.66 800.02 277.33 800.00 288.00 C 810.66 287.97 821.33 288.02 832.01 288.00 C 831.99 320.00 832.01 352.00 832.00 384.00 C 842.66 383.96 853.32 384.03 864.00 384.00 C 863.99 394.66 863.99 405.32 864.00 415.99 C 853.32 416.01 842.65 416.00 831.99 416.00 C 832.02 426.66 832.01 437.33 831.99 448.00 C 842.65 447.99 853.32 447.99 864.00 448.00 C 863.99 469.33 863.99 490.66 864.00 512.00 C 853.33 512.01 842.66 512.00 832.00 512.00 C 832.00 522.66 832.00 533.33 832.00 544.00 C 821.32 543.98 810.65 543.99 799.99 544.00 C 800.01 490.66 799.99 437.33 800.00 383.99 C 789.32 384.01 778.66 384.02 768.00 383.99 C 768.00 373.33 768.00 362.67 768.00 352.01 C 767.98 341.35 767.99 330.70 768.00 320.05 C 757.42 319.98 746.85 319.95 736.29 319.76 C 736.07 309.19 735.99 298.62 735.94 288.05 C 725.38 287.98 714.83 287.95 704.29 287.76 C 704.07 277.17 703.99 266.58 703.94 255.99 C 682.72 256.01 661.51 256.10 640.30 255.82 C 640.07 245.21 640.00 234.60 639.94 224.00 C 554.64 224.00 469.35 224.00 384.05 224.00 C 383.98 234.58 383.95 245.15 383.76 255.73 C 362.53 256.12 341.29 256.01 320.06 256.00 C 319.98 266.57 319.94 277.14 319.76 287.71 C 309.17 287.92 298.58 288.00 287.99 288.06 C 288.02 298.70 288.02 309.35 287.99 320.00 C 298.65 319.99 309.32 319.99 320.00 320.01 C 341.33 319.99 362.66 320.00 383.99 320.00 C 384.01 330.67 383.99 341.34 384.00 352.01 C 405.33 351.96 426.66 352.03 448.00 352.00 C 448.00 362.67 447.98 373.34 448.00 384.01 C 469.33 383.96 490.66 384.03 512.00 384.00 C 512.00 394.66 511.98 405.33 512.01 416.00 C 522.66 416.00 533.33 416.00 544.00 416.00 C 544.00 426.66 544.00 437.33 544.00 448.00 C 554.66 448.00 565.33 448.00 576.00 448.00 C 575.99 458.66 575.99 469.33 576.00 480.00 C 586.66 480.00 597.33 480.00 608.00 480.00 C 607.99 490.66 607.99 501.33 608.00 512.00 C 618.67 512.00 629.34 512.00 640.01 512.00 C 639.96 533.33 640.02 554.66 640.00 576.00 C 650.66 576.00 661.33 575.98 672.01 576.00 C 671.96 597.33 672.02 618.66 672.00 640.00 C 682.66 640.00 693.32 639.98 704.00 640.01 C 703.99 661.33 704.01 682.66 704.00 704.00 C 693.32 704.00 682.66 704.00 672.00 704.00 C 672.00 714.64 672.01 725.28 672.00 735.94 C 661.32 735.97 650.66 735.98 640.00 736.02 C 640.00 714.70 639.99 693.39 640.00 672.07 C 650.68 672.00 661.36 671.98 672.05 671.99 C 671.98 661.41 671.92 650.83 671.77 640.27 C 661.17 640.10 650.58 640.01 640.00 639.93 C 639.99 650.64 640.01 661.35 640.00 672.07 C 629.38 672.05 618.66 672.73 608.14 670.98 C 607.45 649.99 608.13 628.99 608.02 608.01 C 618.69 607.98 629.37 608.00 640.06 608.00 C 639.99 597.41 639.91 586.84 639.76 576.27 C 618.61 575.86 597.45 576.11 576.30 575.79 C 576.07 565.21 576.00 554.63 575.94 544.05 C 565.38 543.98 554.83 543.95 544.29 543.76 C 544.07 533.18 544.00 522.62 543.94 512.05 C 533.38 511.98 522.83 511.95 512.29 511.76 C 512.07 501.19 512.00 490.62 511.94 480.05 C 501.39 479.98 490.83 479.95 480.29 479.76 C 480.07 469.19 480.00 458.62 479.94 448.05 C 469.39 447.98 458.83 447.95 448.29 447.76 C 448.07 437.17 448.00 426.58 447.94 415.99 C 426.73 416.01 405.51 416.10 384.30 415.82 C 384.07 405.20 384.00 394.60 383.94 383.99 C 341.31 384.01 298.69 384.00 256.06 384.00 C 255.98 394.57 255.94 405.14 255.76 415.71 C 245.17 415.92 234.59 415.99 224.00 416.06 C 224.01 426.70 223.99 437.35 224.00 448.00 C 224.00 458.66 224.00 469.33 224.00 480.00 C 234.66 480.01 245.33 479.98 256.00 480.01 C 256.00 490.66 256.00 501.33 256.00 511.99 C 288.00 512.01 320.00 511.99 352.00 512.00 C 352.01 522.67 351.98 533.34 352.01 544.01 C 373.33 543.96 394.66 544.02 416.00 544.00 C 416.01 554.66 415.98 565.32 416.01 576.00 C 426.66 575.99 437.33 575.99 448.00 576.00 C 448.00 586.66 448.00 597.33 448.00 608.00 C 458.67 607.99 469.34 608.00 480.01 608.00 C 479.96 629.33 480.02 650.66 480.00 672.00 C 490.66 672.00 501.33 671.98 512.00 672.00 C 511.99 682.67 511.99 693.33 512.00 704.01 C 501.34 703.98 490.70 703.98 480.05 704.01 C 479.98 693.47 479.95 682.95 479.76 672.43 C 469.22 672.06 458.62 672.47 448.16 671.01 C 447.67 660.69 447.88 650.36 447.91 640.05 C 437.36 639.98 426.82 639.95 416.29 639.76 C 416.07 629.18 416.00 618.61 415.94 608.05 C 405.39 607.98 394.83 607.95 384.29 607.76 C 384.07 597.18 384.00 586.61 383.94 576.05 C 373.41 575.98 362.89 575.95 352.37 575.76 C 352.18 565.48 352.30 555.20 351.82 544.94 C 341.61 543.53 331.27 543.95 321.00 543.90 C 288.67 544.04 256.33 544.00 224.00 544.00 C 224.00 554.66 224.00 565.33 224.00 576.00 C 224.00 597.33 223.99 618.66 224.01 639.99 C 234.68 640.00 245.34 639.99 256.01 640.00 C 255.96 661.33 256.03 682.66 256.00 704.00 C 266.66 704.00 277.33 703.98 288.00 704.01 C 288.00 714.66 288.00 725.33 288.00 736.00 C 298.66 735.99 309.33 735.99 320.00 736.00 C 320.00 746.66 320.00 757.33 320.00 768.01 C 330.67 767.99 341.33 767.98 352.00 768.00 C 352.00 778.64 352.00 789.29 352.00 799.94 C 341.35 799.97 330.70 799.99 320.06 800.00 C 320.11 789.74 320.34 779.48 319.77 769.25 C 309.52 766.68 298.57 768.28 288.07 767.93 C 288.09 757.78 288.45 747.61 287.60 737.49 C 287.32 737.23 286.76 736.69 286.49 736.42 C 276.37 735.53 266.20 735.90 256.07 735.94 C 256.10 725.77 256.43 715.59 255.62 705.47 C 255.33 705.21 254.75 704.70 254.46 704.45 C 244.33 703.51 234.15 703.90 224.01 703.94 C 223.99 693.30 223.99 682.67 224.00 672.05 C 213.43 671.98 202.86 671.95 192.29 671.76 C 192.07 661.17 192.00 650.58 191.94 640.00 C 181.29 640.00 170.65 640.01 160.00 639.99 C 160.00 554.66 160.00 469.33 160.00 384.00 C 170.67 384.03 181.33 383.96 192.01 384.00 C 191.99 352.00 192.01 320.00 192.00 288.00 C 202.66 288.03 213.33 287.97 224.00 288.00 C 223.97 277.33 224.02 266.66 224.00 256.00 C 234.66 256.02 245.33 255.97 256.00 256.00 C 255.97 245.33 256.02 234.66 256.00 224.00 C 266.66 224.02 277.33 223.97 288.00 224.00 C 287.97 213.33 288.02 202.66 288.00 191.99 C 320.00 192.01 352.00 191.99 384.00 192.00 C 383.97 181.33 384.03 170.67 384.00 160.00 Z" />
<path fill="#ffffff" opacity="1.00" d=" M 832.00 544.00 C 842.66 543.99 853.32 544.00 864.00 544.00 C 863.99 554.66 864.00 565.33 864.00 576.00 C 853.32 575.99 842.66 576.00 832.00 576.00 C 831.99 565.33 831.99 554.66 832.00 544.00 Z" />
<path fill="#ffffff" opacity="1.00" d=" M 799.99 576.00 C 810.65 576.00 821.32 576.01 832.00 576.00 C 832.01 586.66 831.97 597.33 831.99 608.00 C 821.31 607.98 810.65 607.99 799.99 608.01 C 800.01 597.33 800.02 586.66 799.99 576.00 Z" />
<path fill="#ffffff" opacity="1.00" d=" M 831.99 608.00 C 842.65 607.99 853.32 608.00 864.00 608.00 C 863.99 618.66 863.99 629.33 864.00 640.00 C 853.34 639.99 842.70 639.99 832.06 640.00 C 832.02 629.33 832.02 618.66 831.99 608.00 Z" />
<path fill="#ffffff" opacity="1.00" d=" M 768.00 640.00 C 789.35 640.00 810.70 640.00 832.06 640.00 C 832.10 650.61 832.42 661.32 831.03 671.86 C 820.68 672.34 810.33 672.09 800.00 672.09 C 799.99 682.70 800.01 693.32 800.00 703.95 C 789.65 703.97 779.30 703.60 768.97 704.07 C 766.69 725.30 768.40 746.69 768.01 768.01 C 757.34 767.99 746.67 767.98 736.00 768.00 C 735.99 757.33 735.99 746.66 736.00 736.01 C 735.99 725.33 736.00 714.66 736.00 704.00 C 746.66 703.99 757.32 704.00 767.99 703.99 C 768.00 682.66 768.00 661.33 768.00 640.00 Z" />
<path fill="#ffffff" opacity="1.00" d=" M 192.00 704.01 C 202.67 703.99 213.34 703.98 224.01 703.94 C 223.99 714.62 223.98 725.31 223.94 736.01 C 213.29 735.99 202.65 735.99 192.00 736.00 C 191.99 725.33 192.00 714.66 192.00 704.01 Z" />
<path fill="#ffffff" opacity="1.00" d=" M 800.00 703.95 C 810.66 703.97 821.32 703.99 832.00 704.01 C 831.99 714.67 832.00 725.33 832.00 736.00 C 821.32 735.98 810.66 735.99 800.00 736.00 C 800.00 725.31 800.01 714.62 800.00 703.95 Z" />
<path fill="#ffffff" opacity="1.00" d=" M 223.94 736.01 C 234.65 735.99 245.35 735.98 256.07 735.94 C 256.01 746.64 255.98 757.35 255.93 768.07 C 245.79 768.09 235.62 768.45 225.50 767.59 C 225.23 767.31 224.68 766.77 224.41 766.50 C 223.54 756.35 223.90 746.16 223.94 736.01 Z" />
<path fill="#ffffff" opacity="1.00" d=" M 479.99 735.99 C 490.66 736.01 501.33 736.00 512.00 735.99 C 512.00 746.65 512.01 757.32 511.99 768.00 C 522.66 767.99 533.32 767.99 543.99 768.00 C 544.01 778.66 543.98 789.32 544.00 800.00 C 554.66 799.99 565.33 799.99 576.00 800.00 C 575.99 810.66 576.00 821.32 576.00 832.00 C 565.35 831.99 554.70 831.99 544.06 832.00 C 544.08 821.83 544.47 811.65 543.56 801.53 C 543.30 801.24 542.79 800.67 542.53 800.39 C 532.38 799.55 522.19 799.89 512.03 799.93 C 511.98 789.36 511.91 778.79 511.73 768.24 C 501.14 768.06 490.56 767.99 479.99 767.95 C 480.01 757.29 480.02 746.64 479.99 735.99 Z" />
<path fill="#ffffff" opacity="1.00" d=" M 672.00 735.94 C 682.58 736.11 693.38 734.96 703.83 737.14 C 704.31 747.41 704.11 757.70 704.06 768.00 C 693.37 767.99 682.68 768.00 672.00 768.00 C 671.99 757.30 672.00 746.62 672.00 735.94 Z" />
<path fill="#ffffff" opacity="1.00" d=" M 255.93 768.07 C 266.64 768.01 277.35 767.98 288.07 767.93 C 288.01 778.63 287.99 789.34 287.96 800.06 C 277.81 800.09 267.63 800.46 257.51 799.58 C 257.24 799.31 256.68 798.78 256.40 798.51 C 255.55 788.38 255.90 778.21 255.93 768.07 Z" />
<path fill="#ffffff" opacity="1.00" d=" M 640.00 768.00 C 650.66 768.00 661.33 768.01 672.00 768.00 C 671.99 778.66 672.00 789.33 672.00 800.00 C 661.32 799.99 650.66 799.98 640.00 799.94 C 640.00 789.28 640.00 778.64 640.00 768.00 Z" />
<path fill="#ffffff" opacity="1.00" d=" M 704.06 768.00 C 714.70 767.99 725.35 767.99 736.00 768.00 C 735.98 778.66 735.98 789.33 736.00 800.00 C 725.33 799.98 714.66 799.98 704.00 800.00 C 703.99 789.33 704.01 778.66 704.06 768.00 Z" />
<path fill="#ffffff" opacity="1.00" d=" M 287.96 800.06 C 298.65 800.01 309.35 799.99 320.06 800.00 C 320.00 810.70 319.99 821.40 319.99 832.12 C 309.38 832.18 298.68 832.42 288.15 831.02 C 287.63 820.70 287.90 810.37 287.96 800.06 Z" />
<path fill="#ffffff" opacity="1.00" d=" M 352.00 799.94 C 362.29 799.87 372.60 799.68 382.89 800.16 C 384.99 810.62 383.89 821.40 384.03 832.00 C 373.35 831.98 362.67 831.99 352.00 832.00 C 352.00 821.31 352.01 810.62 352.00 799.94 Z" />
<path fill="#ffffff" opacity="1.00" d=" M 416.00 800.00 C 426.66 800.00 437.33 799.99 448.00 800.00 C 448.00 810.66 447.99 821.32 448.00 832.00 C 437.33 831.99 426.66 831.99 416.00 832.00 C 415.99 821.32 416.00 810.66 416.00 800.00 Z" />
<path fill="#ffffff" opacity="1.00" d=" M 480.00 800.01 C 490.67 800.00 501.34 799.99 512.03 799.93 C 512.00 810.61 512.00 821.30 512.00 832.00 C 501.32 831.99 490.66 831.99 480.00 832.00 C 480.01 821.33 480.00 810.66 480.00 800.01 Z" />
<path fill="#ffffff" opacity="1.00" d=" M 609.19 800.20 C 619.45 799.66 629.72 799.88 640.00 799.94 C 639.99 810.62 639.99 821.31 640.00 832.00 C 629.31 831.98 618.62 831.98 607.94 832.00 C 608.20 821.43 606.82 810.56 609.19 800.20 Z" />
<path fill="#ffffff" opacity="1.00" d=" M 672.00 800.00 C 682.66 799.99 693.32 799.99 704.00 800.00 C 703.98 810.66 703.99 821.33 704.01 832.01 C 693.33 831.97 682.66 831.97 672.00 832.01 C 672.00 821.33 672.01 810.66 672.00 800.00 Z" />
<path fill="#ffffff" opacity="1.00" d=" M 384.03 832.00 C 394.68 831.99 405.34 831.99 416.00 832.00 C 415.98 842.70 415.99 853.40 416.00 864.12 C 405.39 864.18 394.67 864.43 384.14 863.01 C 383.63 852.67 383.92 842.33 384.03 832.00 Z" />
<path fill="#ffffff" opacity="1.00" d=" M 448.00 832.00 C 458.66 831.99 469.33 831.99 480.00 832.00 C 479.99 842.66 479.99 853.33 480.01 864.01 C 469.33 863.97 458.66 863.97 448.00 864.01 C 448.00 853.33 448.01 842.66 448.00 832.00 Z" />
<path fill="#ffffff" opacity="1.00" d=" M 512.00 832.00 C 522.68 831.99 533.36 831.99 544.06 832.00 C 544.00 842.66 543.99 853.33 544.00 864.01 C 533.32 863.97 522.66 863.97 512.00 864.01 C 512.00 853.33 512.01 842.66 512.00 832.00 Z" />
<path fill="#ffffff" opacity="1.00" d=" M 576.00 832.00 C 586.64 831.99 597.29 831.99 607.94 832.00 C 607.97 842.66 607.99 853.33 608.02 864.01 C 597.34 863.97 586.66 863.97 576.00 864.01 C 576.00 853.33 576.01 842.66 576.00 832.00 Z" />
</g>
<g id="#b2b2b2ff">
<path fill="#b2b2b2" opacity="1.00" d=" M 384.05 224.00 C 469.35 224.00 554.64 224.00 639.94 224.00 C 640.00 234.60 640.07 245.21 640.30 255.82 C 661.51 256.10 682.72 256.01 703.94 255.99 C 703.99 266.58 704.07 277.17 704.29 287.76 C 714.83 287.95 725.38 287.98 735.94 288.05 C 735.99 298.62 736.07 309.19 736.29 319.76 C 746.85 319.95 757.42 319.98 768.00 320.05 C 767.99 330.70 767.98 341.35 768.00 352.01 C 757.33 351.98 746.66 351.98 736.00 352.01 C 735.98 341.33 736.01 330.67 735.99 320.00 C 725.32 320.00 714.66 320.00 704.00 320.00 C 703.99 309.32 703.99 298.65 704.00 287.99 C 682.66 288.03 661.33 287.97 640.00 288.00 C 639.98 277.33 640.01 266.67 639.99 256.00 C 554.66 256.00 469.33 256.00 384.00 256.00 C 383.99 266.67 384.01 277.34 383.99 288.01 C 362.66 287.96 341.33 288.03 320.00 288.00 C 320.01 298.66 320.01 309.33 320.00 320.01 C 309.32 319.99 298.65 319.99 287.99 320.00 C 288.02 309.35 288.02 298.70 287.99 288.06 C 298.58 288.00 309.17 287.92 319.76 287.71 C 319.94 277.14 319.98 266.57 320.06 256.00 C 341.29 256.01 362.53 256.12 383.76 255.73 C 383.95 245.15 383.98 234.58 384.05 224.00 Z" />
<path fill="#b2b2b2" opacity="1.00" d=" M 256.06 384.00 C 298.69 384.00 341.31 384.01 383.94 383.99 C 384.00 394.60 384.07 405.20 384.30 415.82 C 405.51 416.10 426.73 416.01 447.94 415.99 C 448.00 426.58 448.07 437.17 448.29 447.76 C 458.83 447.95 469.39 447.98 479.94 448.05 C 480.00 458.62 480.07 469.19 480.29 479.76 C 490.83 479.95 501.39 479.98 511.94 480.05 C 512.00 490.62 512.07 501.19 512.29 511.76 C 522.83 511.95 533.38 511.98 543.94 512.05 C 544.00 522.62 544.07 533.18 544.29 543.76 C 554.83 543.95 565.38 543.98 575.94 544.05 C 576.00 554.63 576.07 565.21 576.30 575.79 C 597.45 576.11 618.61 575.86 639.76 576.27 C 639.91 586.84 639.99 597.41 640.06 608.00 C 629.37 608.00 618.69 607.98 608.02 608.01 C 608.13 628.99 607.45 649.99 608.14 670.98 C 618.66 672.73 629.38 672.05 640.00 672.07 C 639.99 693.39 640.00 714.70 640.00 736.02 C 650.66 735.98 661.32 735.97 672.00 735.94 C 672.00 746.62 671.99 757.30 672.00 768.00 C 661.33 768.01 650.66 768.00 640.00 768.00 C 640.00 778.64 640.00 789.28 640.00 799.94 C 629.72 799.88 619.45 799.66 609.19 800.20 C 606.82 810.56 608.20 821.43 607.94 832.00 C 597.29 831.99 586.64 831.99 576.00 832.00 C 576.00 821.32 575.99 810.66 576.00 800.00 C 586.66 799.99 597.33 799.99 608.01 800.00 C 607.99 757.33 608.00 714.67 608.00 672.01 C 597.33 671.98 586.67 672.00 576.01 672.00 C 575.99 640.00 576.01 608.00 576.00 576.00 C 565.33 575.98 554.66 576.01 544.00 575.99 C 543.99 565.32 543.99 554.66 544.00 544.00 C 533.33 543.99 522.66 543.99 512.00 544.00 C 511.99 533.33 511.99 522.66 512.00 512.00 C 501.33 511.99 490.66 511.99 480.00 512.00 C 479.99 501.33 479.99 490.66 480.00 480.00 C 469.33 479.99 458.66 479.99 448.00 480.00 C 447.99 469.32 447.99 458.65 448.00 447.99 C 426.66 448.03 405.33 447.97 384.00 448.00 C 383.99 437.33 384.01 426.66 383.99 415.99 C 341.33 416.01 298.67 416.00 256.01 416.00 C 255.99 426.66 256.00 437.33 256.00 448.01 C 245.33 447.98 234.66 447.99 224.00 448.00 C 223.99 437.35 224.01 426.70 224.00 416.06 C 234.59 415.99 245.17 415.92 255.76 415.71 C 255.94 405.14 255.98 394.57 256.06 384.00 Z" />
<path fill="#b2b2b2" opacity="1.00" d=" M 768.00 383.99 C 778.66 384.02 789.32 384.01 800.00 383.99 C 799.99 437.33 800.01 490.66 799.99 544.00 C 810.65 543.99 821.32 543.98 832.00 544.00 C 831.99 554.66 831.99 565.33 832.00 576.00 C 821.32 576.01 810.65 576.00 799.99 576.00 C 800.02 586.66 800.01 597.33 799.99 608.01 C 810.65 607.99 821.31 607.98 831.99 608.00 C 832.02 618.66 832.02 629.33 832.06 640.00 C 810.70 640.00 789.35 640.00 768.00 640.00 C 768.00 554.66 768.00 469.33 768.00 383.99 Z" />
<path fill="#b2b2b2" opacity="1.00" d=" M 831.99 416.00 C 842.65 416.00 853.32 416.01 864.00 415.99 C 863.99 426.66 863.99 437.33 864.00 448.00 C 853.32 447.99 842.65 447.99 831.99 448.00 C 832.01 437.33 832.02 426.66 831.99 416.00 Z" />
<path fill="#b2b2b2" opacity="1.00" d=" M 832.00 512.00 C 842.66 512.00 853.33 512.01 864.00 512.00 C 863.99 522.66 863.99 533.33 864.00 544.00 C 853.32 544.00 842.66 543.99 832.00 544.00 C 832.00 533.33 832.00 522.66 832.00 512.00 Z" />
<path fill="#b2b2b2" opacity="1.00" d=" M 224.00 544.00 C 256.33 544.00 288.67 544.04 321.00 543.90 C 331.27 543.95 341.61 543.53 351.82 544.94 C 352.30 555.20 352.18 565.48 352.37 575.76 C 362.89 575.95 373.41 575.98 383.94 576.05 C 384.00 586.61 384.07 597.18 384.29 607.76 C 394.83 607.95 405.39 607.98 415.94 608.05 C 416.00 618.61 416.07 629.18 416.29 639.76 C 426.82 639.95 437.36 639.98 447.91 640.05 C 447.88 650.36 447.67 660.69 448.16 671.01 C 458.62 672.47 469.22 672.06 479.76 672.43 C 479.95 682.95 479.98 693.47 480.05 704.01 C 490.70 703.98 501.34 703.98 512.00 704.01 C 512.00 714.66 511.99 725.32 512.00 735.99 C 501.33 736.00 490.66 736.01 479.99 735.99 C 480.02 746.64 480.01 757.29 479.99 767.95 C 490.56 767.99 501.14 768.06 511.73 768.24 C 511.91 778.79 511.98 789.36 512.03 799.93 C 501.34 799.99 490.67 800.00 480.00 800.01 C 480.00 810.66 480.01 821.33 480.00 832.00 C 469.33 831.99 458.66 831.99 448.00 832.00 C 447.99 821.32 448.00 810.66 448.00 800.00 C 447.99 757.33 448.00 714.67 448.00 672.00 C 437.33 671.99 426.66 671.99 416.00 672.00 C 415.99 661.33 416.00 650.66 416.00 640.00 C 405.33 639.99 394.66 639.99 384.00 640.00 C 383.99 629.33 384.00 618.66 384.00 608.00 C 373.33 607.99 362.66 607.99 352.00 608.00 C 352.00 597.32 351.99 586.66 352.00 576.00 C 309.33 575.99 266.67 576.00 224.00 576.00 C 224.00 565.33 224.00 554.66 224.00 544.00 Z" />
<path fill="#b2b2b2" opacity="1.00" d=" M 832.00 576.00 C 842.66 576.00 853.32 575.99 864.00 576.00 C 863.99 586.66 863.99 597.33 864.00 608.00 C 853.32 608.00 842.65 607.99 831.99 608.00 C 831.97 597.33 832.01 586.66 832.00 576.00 Z" />
<path fill="#b2b2b2" opacity="1.00" d=" M 160.00 639.99 C 170.65 640.01 181.29 640.00 191.94 640.00 C 192.00 650.58 192.07 661.17 192.29 671.76 C 202.86 671.95 213.43 671.98 224.00 672.05 C 223.99 682.67 223.99 693.30 224.01 703.94 C 213.34 703.98 202.67 703.99 192.00 704.01 C 192.02 693.33 191.98 682.66 192.00 672.00 C 181.33 672.02 170.67 671.96 160.00 672.00 C 160.00 661.33 160.00 650.66 160.00 639.99 Z" />
<path fill="#b2b2b2" opacity="1.00" d=" M 640.00 639.93 C 650.58 640.01 661.17 640.10 671.77 640.27 C 671.92 650.83 671.98 661.41 672.05 671.99 C 661.36 671.98 650.68 672.00 640.00 672.07 C 640.01 661.35 639.99 650.64 640.00 639.93 Z" />
<path fill="#b2b2b2" opacity="1.00" d=" M 832.06 640.00 C 842.70 639.99 853.34 639.99 864.00 640.00 C 863.99 650.66 863.99 661.33 864.00 672.00 C 853.32 671.96 842.66 672.02 832.00 672.00 C 832.00 682.66 831.98 693.33 832.00 704.01 C 821.32 703.99 810.66 703.97 800.00 703.95 C 800.01 693.32 799.99 682.70 800.00 672.09 C 810.33 672.09 820.68 672.34 831.03 671.86 C 832.42 661.32 832.10 650.61 832.06 640.00 Z" />
<path fill="#b2b2b2" opacity="1.00" d=" M 224.01 703.94 C 234.15 703.90 244.33 703.51 254.46 704.45 C 254.75 704.70 255.33 705.21 255.62 705.47 C 256.43 715.59 256.10 725.77 256.07 735.94 C 245.35 735.98 234.65 735.99 223.94 736.01 C 223.98 725.31 223.99 714.62 224.01 703.94 Z" />
<path fill="#b2b2b2" opacity="1.00" d=" M 672.00 704.00 C 682.66 704.00 693.32 704.00 704.00 704.00 C 704.01 714.66 704.00 725.33 704.00 736.01 C 714.66 735.98 725.33 735.98 736.00 736.01 C 735.99 746.66 735.99 757.33 736.00 768.00 C 725.35 767.99 714.70 767.99 704.06 768.00 C 704.11 757.70 704.31 747.41 703.83 737.14 C 693.38 734.96 682.58 736.11 672.00 735.94 C 672.01 725.28 672.00 714.64 672.00 704.00 Z" />
<path fill="#b2b2b2" opacity="1.00" d=" M 768.97 704.07 C 779.30 703.60 789.65 703.97 800.00 703.95 C 800.01 714.62 800.00 725.31 800.00 736.00 C 810.66 735.99 821.32 735.98 832.00 736.00 C 831.99 746.66 832.00 757.33 832.00 768.00 C 821.32 767.96 810.66 768.02 800.00 768.00 C 800.02 778.66 799.97 789.33 800.00 800.00 C 789.32 799.96 778.66 800.02 768.00 800.00 C 768.02 810.66 767.97 821.33 768.00 832.00 C 757.33 831.96 746.66 832.02 736.00 832.00 C 736.02 842.66 735.97 853.33 736.00 864.01 C 704.00 863.99 672.00 864.01 640.00 864.00 C 640.02 874.66 639.96 885.32 640.00 896.00 C 554.67 896.00 469.33 896.00 384.00 896.00 C 384.03 885.32 383.97 874.65 384.00 863.99 C 352.00 864.01 320.00 863.99 288.00 864.00 C 288.03 853.33 287.97 842.66 288.00 832.00 C 277.33 832.02 266.66 831.96 256.00 832.00 C 256.02 821.32 255.97 810.66 256.00 800.00 C 245.33 800.02 234.66 799.97 224.00 800.00 C 224.02 789.32 223.97 778.66 224.00 768.00 C 213.33 768.02 202.67 767.96 192.00 768.00 C 191.99 757.33 192.00 746.66 192.00 736.00 C 202.65 735.99 213.29 735.99 223.94 736.01 C 223.90 746.16 223.54 756.35 224.41 766.50 C 224.68 766.77 225.23 767.31 225.50 767.59 C 235.62 768.45 245.79 768.09 255.93 768.07 C 255.90 778.21 255.55 788.38 256.40 798.51 C 256.68 798.78 257.24 799.31 257.51 799.58 C 267.63 800.46 277.81 800.09 287.96 800.06 C 287.90 810.37 287.63 820.70 288.15 831.02 C 298.68 832.42 309.38 832.18 319.99 832.12 C 319.99 821.40 320.00 810.70 320.06 800.00 C 330.70 799.99 341.35 799.97 352.00 799.94 C 352.01 810.62 352.00 821.31 352.00 832.00 C 362.67 831.99 373.35 831.98 384.03 832.00 C 383.92 842.33 383.63 852.67 384.14 863.01 C 394.67 864.43 405.39 864.18 416.00 864.12 C 415.99 853.40 415.98 842.70 416.00 832.00 C 426.66 831.99 437.33 831.99 448.00 832.00 C 448.01 842.66 448.00 853.33 448.00 864.01 C 458.66 863.97 469.33 863.97 480.01 864.01 C 479.99 853.33 479.99 842.66 480.00 832.00 C 490.66 831.99 501.32 831.99 512.00 832.00 C 512.01 842.66 512.00 853.33 512.00 864.01 C 522.66 863.97 533.32 863.97 544.00 864.01 C 543.99 853.33 544.00 842.66 544.06 832.00 C 554.70 831.99 565.35 831.99 576.00 832.00 C 576.01 842.66 576.00 853.33 576.00 864.01 C 586.66 863.97 597.34 863.97 608.02 864.01 C 607.99 853.33 607.97 842.66 607.94 832.00 C 618.62 831.98 629.31 831.98 640.00 832.00 C 639.99 821.31 639.99 810.62 640.00 799.94 C 650.66 799.98 661.32 799.99 672.00 800.00 C 672.01 810.66 672.00 821.33 672.00 832.01 C 682.66 831.97 693.33 831.97 704.01 832.01 C 703.99 821.33 703.98 810.66 704.00 800.00 C 714.66 799.98 725.33 799.98 736.00 800.00 C 735.98 789.33 735.98 778.66 736.00 768.00 C 746.67 767.98 757.34 767.99 768.01 768.01 C 768.40 746.69 766.69 725.30 768.97 704.07 Z" />
<path fill="#b2b2b2" opacity="1.00" d=" M 256.07 735.94 C 266.20 735.90 276.37 735.53 286.49 736.42 C 286.76 736.69 287.32 737.23 287.60 737.49 C 288.45 747.61 288.09 757.78 288.07 767.93 C 277.35 767.98 266.64 768.01 255.93 768.07 C 255.98 757.35 256.01 746.64 256.07 735.94 Z" />
<path fill="#b2b2b2" opacity="1.00" d=" M 288.07 767.93 C 298.57 768.28 309.52 766.68 319.77 769.25 C 320.34 779.48 320.11 789.74 320.06 800.00 C 309.35 799.99 298.65 800.01 287.96 800.06 C 287.99 789.34 288.01 778.63 288.07 767.93 Z" />
<path fill="#b2b2b2" opacity="1.00" d=" M 352.00 768.00 C 362.66 768.00 373.33 768.00 383.99 767.99 C 384.01 778.65 383.99 789.32 384.00 800.00 C 394.66 799.99 405.33 799.99 416.00 800.00 C 416.00 810.66 415.99 821.32 416.00 832.00 C 405.34 831.99 394.68 831.99 384.03 832.00 C 383.89 821.40 384.99 810.62 382.89 800.16 C 372.60 799.68 362.29 799.87 352.00 799.94 C 352.00 789.29 352.00 778.64 352.00 768.00 Z" />
<path fill="#b2b2b2" opacity="1.00" d=" M 672.00 768.00 C 682.68 768.00 693.37 767.99 704.06 768.00 C 704.01 778.66 703.99 789.33 704.00 800.00 C 693.32 799.99 682.66 799.99 672.00 800.00 C 672.00 789.33 671.99 778.66 672.00 768.00 Z" />
<path fill="#b2b2b2" opacity="1.00" d=" M 512.03 799.93 C 522.19 799.89 532.38 799.55 542.53 800.39 C 542.79 800.67 543.30 801.24 543.56 801.53 C 544.47 811.65 544.08 821.83 544.06 832.00 C 533.36 831.99 522.68 831.99 512.00 832.00 C 512.00 821.30 512.00 810.61 512.03 799.93 Z" />
</g>
</svg>
